<svg version="1.1" xmlns="http://www.w3.org/2000/svg" viewBox="0 0 897.7994384765625 687.5" width="897.7994384765625" height="687.5">
  <!-- svg-source:excalidraw -->
  
  <defs>
    <style class="style-fonts">
      @font-face {
        font-family: "Virgil";
        src: url("https://file%2B.vscode-resource.vscode-cdn.net/home/kiarie404/.vscode/extensions/pomdtr.excalidraw-editor-3.5.1/public//dist/excalidraw-assets/Virgil.woff2");
      }
      @font-face {
        font-family: "Cascadia";
        src: url("https://file%2B.vscode-resource.vscode-cdn.net/home/kiarie404/.vscode/extensions/pomdtr.excalidraw-editor-3.5.1/public//dist/excalidraw-assets/Cascadia.woff2");
      }
    </style>
  </defs>
  <rect x="0" y="0" width="897.7994384765625" height="687.5" fill="#ffffff"></rect><g stroke-linecap="round" transform="translate(12 20) rotate(0 117 23)"><path d="M1.55 -0.52 C78.27 1.66, 158.58 -0.47, 233.06 1.36 M-0.38 -0.26 C75.05 -1.06, 151.52 -0.31, 234.32 -0.59 M233.8 -1.98 C235.1 17.34, 234.91 30.14, 235.8 45.34 M233.52 -0.04 C233.62 16.75, 233.53 31.44, 234.68 46.65 M232.49 45.83 C142.73 47.28, 53.52 45.08, -1.15 44.82 M233.42 46.39 C146.8 45.38, 57.65 45.26, -0.7 46.11 M-1.74 45.03 C-1.12 30.85, 1.8 16.53, 0.74 1.54 M0.47 46.29 C0.46 31.78, -1 16.03, 0.91 -0.43" stroke="#000000" stroke-width="1" fill="none"></path></g><g transform="translate(24 34) rotate(0 82.8798828125 12.5)"><text x="0" y="0" font-family="Virgil, Segoe UI Emoji" font-size="20px" fill="#000000" text-anchor="start" style="white-space: pre;" direction="ltr" dominant-baseline="text-before-edge">Root ; size = 3 </text></g><g transform="translate(375 10) rotate(0 256.39971923828125 37.5)"><text x="0" y="0" font-family="Virgil, Segoe UI Emoji" font-size="20px" fill="#000000" text-anchor="start" style="white-space: pre;" direction="ltr" dominant-baseline="text-before-edge">* The smallest assignable</text><text x="0" y="25" font-family="Virgil, Segoe UI Emoji" font-size="20px" fill="#000000" text-anchor="start" style="white-space: pre;" direction="ltr" dominant-baseline="text-before-edge">unit is 8 bytes, but for the sake of demonatration</text><text x="0" y="50" font-family="Virgil, Segoe UI Emoji" font-size="20px" fill="#000000" text-anchor="start" style="white-space: pre;" direction="ltr" dominant-baseline="text-before-edge">.... let's bypass that.</text></g><g stroke-linecap="round" transform="translate(14 77) rotate(0 115.5 22.5)"><path d="M0 0 C0 0, 0 0, 0 0 M0 0 C0 0, 0 0, 0 0 M0.4 6.87 C1.5 4.11, 3.3 2.34, 5 -0.23 M0.01 6.1 C0.49 5.21, 1.7 4.26, 4.85 -0.03 M-0.43 13.22 C2.74 9.64, 6.29 7.05, 9.97 -0.84 M0.39 11.31 C1.83 9.29, 4.26 6.07, 11.09 -0.72 M1.65 19.81 C5.33 13.9, 5.9 11.39, 15.77 -0.59 M0.13 18.92 C5.9 12.62, 12.36 5.59, 15.18 0.07 M-0.23 22.2 C7.56 14.88, 13.48 8.18, 22.02 -1.47 M-0.63 24.46 C8.04 15.81, 14.21 7.5, 21.4 -0.94 M-1.77 31.28 C11.01 21.33, 17.01 9.99, 25.56 -0.67 M-0.71 30.04 C6.48 22.6, 13.01 15.35, 25.77 0.35 M0.44 36.61 C8.34 29.44, 17.21 20.29, 30.23 -1.18 M0.39 36.41 C9.73 25.62, 19.76 12.95, 31.13 -0.5 M-1.43 44.24 C12.08 27.34, 29.67 10.07, 35.17 -0.68 M-0.73 42.86 C11.73 30.06, 22.79 17.8, 37.73 0.22 M3.15 46.02 C14.82 29.49, 30.2 13.26, 43.73 1.77 M2.28 46.05 C10.76 37.61, 18.57 27.17, 43.09 0.19 M8.8 44.69 C19.59 35.71, 29.28 23.35, 47.89 1.07 M8.17 45.63 C17.9 32.85, 30.6 20.64, 48.42 -0.07 M10.69 45.71 C26.55 29.94, 41.26 15.34, 53.25 -0.66 M12.49 45.63 C20.94 37.24, 30.64 27.86, 52.51 0.62 M16.71 46.25 C29.9 30.49, 46.53 14.44, 59.44 1.3 M16.81 47.94 C26.97 35.31, 37.23 22.31, 58.17 0.96 M23.9 46.58 C36.83 31.93, 50.8 17.14, 65.03 -0.49 M23.03 47.25 C35.83 29.62, 49.95 14.63, 64.12 -1 M28.17 47.56 C43.2 32.33, 56.35 16.39, 68.02 1.77 M28.15 47.08 C38.77 35.86, 47.65 23.15, 69.37 1.01 M34.6 46.76 C45.21 32.72, 58.41 17.15, 74.75 0.32 M34.46 47.43 C46.53 31.33, 59.59 17.08, 75.17 -0.72 M39.84 47.76 C48.08 34.89, 58.6 24.42, 80.32 -0.74 M38.98 46.58 C54.3 29.36, 70.03 11.55, 79.39 1.03 M43.08 47.42 C57.05 32.41, 68.59 17.25, 85.57 -0.2 M44.35 45.94 C57.3 33.36, 68.56 17.89, 84.44 0.16 M48.49 45.28 C61.38 34.18, 74.38 18.53, 89.47 -0.4 M50.24 45.93 C62.72 32.49, 76.65 16.41, 89.65 0.2 M56.13 46.76 C68.78 30.58, 83.89 12.08, 94.11 -1.94 M54.28 46.76 C69.52 29.52, 85.34 12.67, 95.21 0.06 M60.4 48.58 C68.23 38.06, 77.82 28.23, 101.09 -0.36 M59.42 46.36 C69.05 35.06, 78.4 24.11, 100.55 0.94 M64.97 45.99 C77.53 33.35, 90.6 16.79, 104.47 -0.81 M64.87 47.13 C75.96 35.89, 84 25.38, 106.27 0.13 M69.26 46.15 C82.98 32.96, 93.71 21.1, 111.24 1.25 M71.5 45.86 C80.11 35.73, 88.39 25.59, 110.53 -0.1 M75.31 47.37 C88.47 29.53, 106.05 15.99, 117.56 2.11 M76.74 46.51 C87.92 31.78, 99.85 18.11, 116.3 0.03 M82.28 48.51 C96.01 30.76, 111.65 11.85, 120.49 1.36 M81.98 46.12 C95.08 31.15, 108.48 16.24, 121.04 0.95 M85.32 48.2 C101.91 28.65, 114.27 13.57, 127.73 -0.52 M87.51 45.59 C96.46 35.12, 106.54 23.68, 127.43 -0.14 M90.1 46.22 C99.72 34.01, 112.25 25.44, 131.85 1.9 M91.88 47.58 C104.05 33.37, 115.68 19.93, 131.55 0.22 M95.65 46.78 C111.73 28.73, 123.33 14.54, 136.81 0.27 M96.85 47.3 C105.62 36.6, 114.76 26.49, 138.35 -0.26 M100.86 47.86 C114.24 32.67, 125.36 21.11, 144.81 -0.16 M102.74 46.41 C116.8 30.01, 131.47 14.44, 142.52 -0.93 M107.4 44.48 C122.75 28.01, 139.52 12.56, 146.78 0.72 M107.41 45.81 C116.01 36.72, 126.37 25.17, 147.93 -0.23 M114.15 46.05 C128.31 30.12, 146.1 9.83, 153.31 1.2 M113.61 47.52 C128.67 29.77, 143.01 13.12, 154.47 -0.93 M120.16 47.66 C128.96 35.8, 137.35 22.77, 157.08 -0.9 M117.89 45.51 C133.7 28.74, 149.11 9.95, 159.54 -0.23 M123.04 47.43 C141.05 27.63, 157.08 7.4, 163.79 -0.98 M124.05 47.55 C139.9 28.31, 155.03 9.96, 164.89 -0.96 M129.31 46.51 C136.45 36.81, 146.67 25.76, 170.62 1.71 M129.32 46.8 C138.83 35.65, 147.4 25.68, 170.07 0.31 M136.06 46.69 C147.61 30.99, 158.06 16.36, 173.13 -0.65 M135.13 45.88 C147.2 32.65, 160.99 17.41, 175.32 0.05 M138.69 45.95 C154.07 27.41, 170.76 12.66, 179.76 0.89 M138.74 46.03 C149.3 34.67, 159.41 23.9, 180.95 -0.31 M143.2 48.52 C159.57 32.15, 170.43 15.01, 186.7 -0.69 M144.47 45.62 C157.15 33.13, 166.83 20.94, 186.29 0.38 M150.63 48.21 C160.53 33.69, 173.98 19.14, 192.37 1 M150.2 47.06 C162.25 31.47, 175.44 17.13, 191.08 0.93 M153.95 45.68 C166.41 33.48, 178.32 21.03, 196.33 1.02 M155.18 46.61 C171.19 28.88, 187.77 10.6, 196.37 0.56 M162.57 47.8 C172.6 34.19, 182.01 22.73, 201.74 0.45 M160.47 47.23 C170.19 34.53, 181.32 23.06, 201.92 0.81 M167.23 44.93 C177.07 31.52, 190.55 19.81, 206.3 1.65 M166.87 46.43 C174.74 36.62, 185.13 25.12, 207.13 0.35 M172.45 46.26 C185.66 32.41, 198.15 15.84, 212.67 1.65 M171.3 47.11 C183.72 33.11, 195.67 20.85, 212.42 0.83 M177.46 45.08 C191.22 31.04, 207.65 12.62, 219.4 -0.62 M176.7 47.39 C191.97 27.85, 208.03 10.97, 218.16 -0.27 M180.66 46.15 C194.92 31.9, 208.37 17.56, 223.4 1.07 M182.46 47.5 C197.61 29.09, 213.55 11.71, 222.05 0.21 M188.52 46.96 C199.04 35.35, 205.59 23.51, 226.86 -0.55 M188.32 45.55 C197.69 34.93, 207.93 22.7, 228.06 -0.06 M192.05 45.08 C204.43 31.51, 214.54 17.75, 231.01 -0.05 M192.76 46.44 C205.7 31.45, 219.17 16.98, 233.14 1.69 M199.74 47.44 C204.5 36.66, 214.14 30.6, 231.81 7.66 M198.91 45.67 C208.44 35.81, 217.33 25.46, 232.89 7.98 M201.96 45.67 C210.52 39, 219.17 27.53, 232.83 12.14 M202.99 46.21 C209.82 39.64, 215.68 31.78, 231.36 14.29 M207.94 45.41 C217.53 34.98, 228.78 25.44, 231.07 18.28 M208.16 46.29 C215.85 38.55, 223.74 29.51, 232.92 19.53 M214.18 45.6 C220.37 39.93, 226.52 27.98, 230.68 27.36 M212.98 46.32 C221.36 37.96, 228.58 29.96, 232.87 25.61 M221.41 47.8 C223.04 42.46, 229.11 36.34, 233.2 33.09 M219.28 46.65 C222.74 42.2, 224.54 38.94, 231.72 31 M223.56 47.2 C226.66 45.25, 228.73 41.63, 232.13 38.42 M224.51 46.57 C226.78 44.04, 228.96 40.52, 232.45 38.21" stroke="#12b886" stroke-width="0.5" fill="none"></path><path d="M-0.52 0.43 C52.31 -2.15, 101.63 -0.91, 232.36 1.49 M0.5 0.66 C54.13 0.76, 109.81 -0.05, 231.59 -0.26 M232.98 1.49 C230.29 12.61, 232.53 27.15, 229.02 43.12 M230.86 0.77 C230.06 14.36, 230.23 27.85, 231.8 44.45 M231.41 45.11 C158.24 47.13, 89.26 46.72, -1.52 45.37 M230.18 45.02 C142.14 45.67, 52.33 44.67, -0.2 45.29 M-0.11 44.95 C0.28 36.14, -0.93 25.37, -1.4 -0.26 M-0.35 44.81 C-0.7 34.47, 0.62 23.19, -0.5 -0.9" stroke="#000000" stroke-width="1" fill="none"></path></g><g stroke-linecap="round" transform="translate(13.5 135.5) rotate(0 115.5 22.5)"><path d="M0 0 C0 0, 0 0, 0 0 M0 0 C0 0, 0 0, 0 0 M0.4 6.87 C1.5 4.11, 3.3 2.34, 5 -0.23 M0.01 6.1 C0.49 5.21, 1.7 4.26, 4.85 -0.03 M-0.43 13.22 C2.74 9.64, 6.29 7.05, 9.97 -0.84 M0.39 11.31 C1.83 9.29, 4.26 6.07, 11.09 -0.72 M1.65 19.81 C5.33 13.9, 5.9 11.39, 15.77 -0.59 M0.13 18.92 C5.9 12.62, 12.36 5.59, 15.18 0.07 M-0.23 22.2 C7.56 14.88, 13.48 8.18, 22.02 -1.47 M-0.63 24.46 C8.04 15.81, 14.21 7.5, 21.4 -0.94 M-1.77 31.28 C11.01 21.33, 17.01 9.99, 25.56 -0.67 M-0.71 30.04 C6.48 22.6, 13.01 15.35, 25.77 0.35 M0.44 36.61 C8.34 29.44, 17.21 20.29, 30.23 -1.18 M0.39 36.41 C9.73 25.62, 19.76 12.95, 31.13 -0.5 M-1.43 44.24 C12.08 27.34, 29.67 10.07, 35.17 -0.68 M-0.73 42.86 C11.73 30.06, 22.79 17.8, 37.73 0.22 M3.15 46.02 C14.82 29.49, 30.2 13.26, 43.73 1.77 M2.28 46.05 C10.76 37.61, 18.57 27.17, 43.09 0.19 M8.8 44.69 C19.59 35.71, 29.28 23.35, 47.89 1.07 M8.17 45.63 C17.9 32.85, 30.6 20.64, 48.42 -0.07 M10.69 45.71 C26.55 29.94, 41.26 15.34, 53.25 -0.66 M12.49 45.63 C20.94 37.24, 30.64 27.86, 52.51 0.62 M16.71 46.25 C29.9 30.49, 46.53 14.44, 59.44 1.3 M16.81 47.94 C26.97 35.31, 37.23 22.31, 58.17 0.96 M23.9 46.58 C36.83 31.93, 50.8 17.14, 65.03 -0.49 M23.03 47.25 C35.83 29.62, 49.95 14.63, 64.12 -1 M28.17 47.56 C43.2 32.33, 56.35 16.39, 68.02 1.77 M28.15 47.08 C38.77 35.86, 47.65 23.15, 69.37 1.01 M34.6 46.76 C45.21 32.72, 58.41 17.15, 74.75 0.32 M34.46 47.43 C46.53 31.33, 59.59 17.08, 75.17 -0.72 M39.84 47.76 C48.08 34.89, 58.6 24.42, 80.32 -0.74 M38.98 46.58 C54.3 29.36, 70.03 11.55, 79.39 1.03 M43.08 47.42 C57.05 32.41, 68.59 17.25, 85.57 -0.2 M44.35 45.94 C57.3 33.36, 68.56 17.89, 84.44 0.16 M48.49 45.28 C61.38 34.18, 74.38 18.53, 89.47 -0.4 M50.24 45.93 C62.72 32.49, 76.65 16.41, 89.65 0.2 M56.13 46.76 C68.78 30.58, 83.89 12.08, 94.11 -1.94 M54.28 46.76 C69.52 29.52, 85.34 12.67, 95.21 0.06 M60.4 48.58 C68.23 38.06, 77.82 28.23, 101.09 -0.36 M59.42 46.36 C69.05 35.06, 78.4 24.11, 100.55 0.94 M64.97 45.99 C77.53 33.35, 90.6 16.79, 104.47 -0.81 M64.87 47.13 C75.96 35.89, 84 25.38, 106.27 0.13 M69.26 46.15 C82.98 32.96, 93.71 21.1, 111.24 1.25 M71.5 45.86 C80.11 35.73, 88.39 25.59, 110.53 -0.1 M75.31 47.37 C88.47 29.53, 106.05 15.99, 117.56 2.11 M76.74 46.51 C87.92 31.78, 99.85 18.11, 116.3 0.03 M82.28 48.51 C96.01 30.76, 111.65 11.85, 120.49 1.36 M81.98 46.12 C95.08 31.15, 108.48 16.24, 121.04 0.95 M85.32 48.2 C101.91 28.65, 114.27 13.57, 127.73 -0.52 M87.51 45.59 C96.46 35.12, 106.54 23.68, 127.43 -0.14 M90.1 46.22 C99.72 34.01, 112.25 25.44, 131.85 1.9 M91.88 47.58 C104.05 33.37, 115.68 19.93, 131.55 0.22 M95.65 46.78 C111.73 28.73, 123.33 14.54, 136.81 0.27 M96.85 47.3 C105.62 36.6, 114.76 26.49, 138.35 -0.26 M100.86 47.86 C114.24 32.67, 125.36 21.11, 144.81 -0.16 M102.74 46.41 C116.8 30.01, 131.47 14.44, 142.52 -0.93 M107.4 44.48 C122.75 28.01, 139.52 12.56, 146.78 0.72 M107.41 45.81 C116.01 36.72, 126.37 25.17, 147.93 -0.23 M114.15 46.05 C128.31 30.12, 146.1 9.83, 153.31 1.2 M113.61 47.52 C128.67 29.77, 143.01 13.12, 154.47 -0.93 M120.16 47.66 C128.96 35.8, 137.35 22.77, 157.08 -0.9 M117.89 45.51 C133.7 28.74, 149.11 9.95, 159.54 -0.23 M123.04 47.43 C141.05 27.63, 157.08 7.4, 163.79 -0.98 M124.05 47.55 C139.9 28.31, 155.03 9.96, 164.89 -0.96 M129.31 46.51 C136.45 36.81, 146.67 25.76, 170.62 1.71 M129.32 46.8 C138.83 35.65, 147.4 25.68, 170.07 0.31 M136.06 46.69 C147.61 30.99, 158.06 16.36, 173.13 -0.65 M135.13 45.88 C147.2 32.65, 160.99 17.41, 175.32 0.05 M138.69 45.95 C154.07 27.41, 170.76 12.66, 179.76 0.89 M138.74 46.03 C149.3 34.67, 159.41 23.9, 180.95 -0.31 M143.2 48.52 C159.57 32.15, 170.43 15.01, 186.7 -0.69 M144.47 45.62 C157.15 33.13, 166.83 20.94, 186.29 0.38 M150.63 48.21 C160.53 33.69, 173.98 19.14, 192.37 1 M150.2 47.06 C162.25 31.47, 175.44 17.13, 191.08 0.93 M153.95 45.68 C166.41 33.48, 178.32 21.03, 196.33 1.02 M155.18 46.61 C171.19 28.88, 187.77 10.6, 196.37 0.56 M162.57 47.8 C172.6 34.19, 182.01 22.73, 201.74 0.45 M160.47 47.23 C170.19 34.53, 181.32 23.06, 201.92 0.81 M167.23 44.93 C177.07 31.52, 190.55 19.81, 206.3 1.65 M166.87 46.43 C174.74 36.62, 185.13 25.12, 207.13 0.35 M172.45 46.26 C185.66 32.41, 198.15 15.84, 212.67 1.65 M171.3 47.11 C183.72 33.11, 195.67 20.85, 212.42 0.83 M177.46 45.08 C191.22 31.04, 207.65 12.62, 219.4 -0.62 M176.7 47.39 C191.97 27.85, 208.03 10.97, 218.16 -0.27 M180.66 46.15 C194.92 31.9, 208.37 17.56, 223.4 1.07 M182.46 47.5 C197.61 29.09, 213.55 11.71, 222.05 0.21 M188.52 46.96 C199.04 35.35, 205.59 23.51, 226.86 -0.55 M188.32 45.55 C197.69 34.93, 207.93 22.7, 228.06 -0.06 M192.05 45.08 C204.43 31.51, 214.54 17.75, 231.01 -0.05 M192.76 46.44 C205.7 31.45, 219.17 16.98, 233.14 1.69 M199.74 47.44 C204.5 36.66, 214.14 30.6, 231.81 7.66 M198.91 45.67 C208.44 35.81, 217.33 25.46, 232.89 7.98 M201.96 45.67 C210.52 39, 219.17 27.53, 232.83 12.14 M202.99 46.21 C209.82 39.64, 215.68 31.78, 231.36 14.29 M207.94 45.41 C217.53 34.98, 228.78 25.44, 231.07 18.28 M208.16 46.29 C215.85 38.55, 223.74 29.51, 232.92 19.53 M214.18 45.6 C220.37 39.93, 226.52 27.98, 230.68 27.36 M212.98 46.32 C221.36 37.96, 228.58 29.96, 232.87 25.61 M221.41 47.8 C223.04 42.46, 229.11 36.34, 233.2 33.09 M219.28 46.65 C222.74 42.2, 224.54 38.94, 231.72 31 M223.56 47.2 C226.66 45.25, 228.73 41.63, 232.13 38.42 M224.51 46.57 C226.78 44.04, 228.96 40.52, 232.45 38.21" stroke="#12b886" stroke-width="0.5" fill="none"></path><path d="M-0.52 0.43 C52.31 -2.15, 101.63 -0.91, 232.36 1.49 M0.5 0.66 C54.13 0.76, 109.81 -0.05, 231.59 -0.26 M232.98 1.49 C230.29 12.61, 232.53 27.15, 229.02 43.12 M230.86 0.77 C230.06 14.36, 230.23 27.85, 231.8 44.45 M231.41 45.11 C158.24 47.13, 89.26 46.72, -1.52 45.37 M230.18 45.02 C142.14 45.67, 52.33 44.67, -0.2 45.29 M-0.11 44.95 C0.28 36.14, -0.93 25.37, -1.4 -0.26 M-0.35 44.81 C-0.7 34.47, 0.62 23.19, -0.5 -0.9" stroke="#000000" stroke-width="1" fill="none"></path></g><g stroke-linecap="round" transform="translate(13.5 195.5) rotate(0 115.5 22.5)"><path d="M0 0 C0 0, 0 0, 0 0 M0 0 C0 0, 0 0, 0 0 M0.4 6.87 C1.5 4.11, 3.3 2.34, 5 -0.23 M0.01 6.1 C0.49 5.21, 1.7 4.26, 4.85 -0.03 M-0.43 13.22 C2.74 9.64, 6.29 7.05, 9.97 -0.84 M0.39 11.31 C1.83 9.29, 4.26 6.07, 11.09 -0.72 M1.65 19.81 C5.33 13.9, 5.9 11.39, 15.77 -0.59 M0.13 18.92 C5.9 12.62, 12.36 5.59, 15.18 0.07 M-0.23 22.2 C7.56 14.88, 13.48 8.18, 22.02 -1.47 M-0.63 24.46 C8.04 15.81, 14.21 7.5, 21.4 -0.94 M-1.77 31.28 C11.01 21.33, 17.01 9.99, 25.56 -0.67 M-0.71 30.04 C6.48 22.6, 13.01 15.35, 25.77 0.35 M0.44 36.61 C8.34 29.44, 17.21 20.29, 30.23 -1.18 M0.39 36.41 C9.73 25.62, 19.76 12.95, 31.13 -0.5 M-1.43 44.24 C12.08 27.34, 29.67 10.07, 35.17 -0.68 M-0.73 42.86 C11.73 30.06, 22.79 17.8, 37.73 0.22 M3.15 46.02 C14.82 29.49, 30.2 13.26, 43.73 1.77 M2.28 46.05 C10.76 37.61, 18.57 27.17, 43.09 0.19 M8.8 44.69 C19.59 35.71, 29.28 23.35, 47.89 1.07 M8.17 45.63 C17.9 32.85, 30.6 20.64, 48.42 -0.07 M10.69 45.71 C26.55 29.94, 41.26 15.34, 53.25 -0.66 M12.49 45.63 C20.94 37.24, 30.64 27.86, 52.51 0.62 M16.71 46.25 C29.9 30.49, 46.53 14.44, 59.44 1.3 M16.81 47.94 C26.97 35.31, 37.23 22.31, 58.17 0.96 M23.9 46.58 C36.83 31.93, 50.8 17.14, 65.03 -0.49 M23.03 47.25 C35.83 29.62, 49.95 14.63, 64.12 -1 M28.17 47.56 C43.2 32.33, 56.35 16.39, 68.02 1.77 M28.15 47.08 C38.77 35.86, 47.65 23.15, 69.37 1.01 M34.6 46.76 C45.21 32.72, 58.41 17.15, 74.75 0.32 M34.46 47.43 C46.53 31.33, 59.59 17.08, 75.17 -0.72 M39.84 47.76 C48.08 34.89, 58.6 24.42, 80.32 -0.74 M38.98 46.58 C54.3 29.36, 70.03 11.55, 79.39 1.03 M43.08 47.42 C57.05 32.41, 68.59 17.25, 85.57 -0.2 M44.35 45.94 C57.3 33.36, 68.56 17.89, 84.44 0.16 M48.49 45.28 C61.38 34.18, 74.38 18.53, 89.47 -0.4 M50.24 45.93 C62.72 32.49, 76.65 16.41, 89.65 0.2 M56.13 46.76 C68.78 30.58, 83.89 12.08, 94.11 -1.94 M54.28 46.76 C69.52 29.52, 85.34 12.67, 95.21 0.06 M60.4 48.58 C68.23 38.06, 77.82 28.23, 101.09 -0.36 M59.42 46.36 C69.05 35.06, 78.4 24.11, 100.55 0.94 M64.97 45.99 C77.53 33.35, 90.6 16.79, 104.47 -0.81 M64.87 47.13 C75.96 35.89, 84 25.38, 106.27 0.13 M69.26 46.15 C82.98 32.96, 93.71 21.1, 111.24 1.25 M71.5 45.86 C80.11 35.73, 88.39 25.59, 110.53 -0.1 M75.31 47.37 C88.47 29.53, 106.05 15.99, 117.56 2.11 M76.74 46.51 C87.92 31.78, 99.85 18.11, 116.3 0.03 M82.28 48.51 C96.01 30.76, 111.65 11.85, 120.49 1.36 M81.98 46.12 C95.08 31.15, 108.48 16.24, 121.04 0.95 M85.32 48.2 C101.91 28.65, 114.27 13.57, 127.73 -0.52 M87.51 45.59 C96.46 35.12, 106.54 23.68, 127.43 -0.14 M90.1 46.22 C99.72 34.01, 112.25 25.44, 131.85 1.9 M91.88 47.58 C104.05 33.37, 115.68 19.93, 131.55 0.22 M95.65 46.78 C111.73 28.73, 123.33 14.54, 136.81 0.27 M96.85 47.3 C105.62 36.6, 114.76 26.49, 138.35 -0.26 M100.86 47.86 C114.24 32.67, 125.36 21.11, 144.81 -0.16 M102.74 46.41 C116.8 30.01, 131.47 14.44, 142.52 -0.93 M107.4 44.48 C122.75 28.01, 139.52 12.56, 146.78 0.72 M107.41 45.81 C116.01 36.72, 126.37 25.17, 147.93 -0.23 M114.15 46.05 C128.31 30.12, 146.1 9.83, 153.31 1.2 M113.61 47.52 C128.67 29.77, 143.01 13.12, 154.47 -0.93 M120.16 47.66 C128.96 35.8, 137.35 22.77, 157.08 -0.9 M117.89 45.51 C133.7 28.74, 149.11 9.95, 159.54 -0.23 M123.04 47.43 C141.05 27.63, 157.08 7.4, 163.79 -0.98 M124.05 47.55 C139.9 28.31, 155.03 9.96, 164.89 -0.96 M129.31 46.51 C136.45 36.81, 146.67 25.76, 170.62 1.71 M129.32 46.8 C138.83 35.65, 147.4 25.68, 170.07 0.31 M136.06 46.69 C147.61 30.99, 158.06 16.36, 173.13 -0.65 M135.13 45.88 C147.2 32.65, 160.99 17.41, 175.32 0.05 M138.69 45.95 C154.07 27.41, 170.76 12.66, 179.76 0.89 M138.74 46.03 C149.3 34.67, 159.41 23.9, 180.95 -0.31 M143.2 48.52 C159.57 32.15, 170.43 15.01, 186.7 -0.69 M144.47 45.62 C157.15 33.13, 166.83 20.94, 186.29 0.38 M150.63 48.21 C160.53 33.69, 173.98 19.14, 192.37 1 M150.2 47.06 C162.25 31.47, 175.44 17.13, 191.08 0.93 M153.95 45.68 C166.41 33.48, 178.32 21.03, 196.33 1.02 M155.18 46.61 C171.19 28.88, 187.77 10.6, 196.37 0.56 M162.57 47.8 C172.6 34.19, 182.01 22.73, 201.74 0.45 M160.47 47.23 C170.19 34.53, 181.32 23.06, 201.92 0.81 M167.23 44.93 C177.07 31.52, 190.55 19.81, 206.3 1.65 M166.87 46.43 C174.74 36.62, 185.13 25.12, 207.13 0.35 M172.45 46.26 C185.66 32.41, 198.15 15.84, 212.67 1.65 M171.3 47.11 C183.72 33.11, 195.67 20.85, 212.42 0.83 M177.46 45.08 C191.22 31.04, 207.65 12.62, 219.4 -0.62 M176.7 47.39 C191.97 27.85, 208.03 10.97, 218.16 -0.27 M180.66 46.15 C194.92 31.9, 208.37 17.56, 223.4 1.07 M182.46 47.5 C197.61 29.09, 213.55 11.71, 222.05 0.21 M188.52 46.96 C199.04 35.35, 205.59 23.51, 226.86 -0.55 M188.32 45.55 C197.69 34.93, 207.93 22.7, 228.06 -0.06 M192.05 45.08 C204.43 31.51, 214.54 17.75, 231.01 -0.05 M192.76 46.44 C205.7 31.45, 219.17 16.98, 233.14 1.69 M199.74 47.44 C204.5 36.66, 214.14 30.6, 231.81 7.66 M198.91 45.67 C208.44 35.81, 217.33 25.46, 232.89 7.98 M201.96 45.67 C210.52 39, 219.17 27.53, 232.83 12.14 M202.99 46.21 C209.82 39.64, 215.68 31.78, 231.36 14.29 M207.94 45.41 C217.53 34.98, 228.78 25.44, 231.07 18.28 M208.16 46.29 C215.85 38.55, 223.74 29.51, 232.92 19.53 M214.18 45.6 C220.37 39.93, 226.52 27.98, 230.68 27.36 M212.98 46.32 C221.36 37.96, 228.58 29.96, 232.87 25.61 M221.41 47.8 C223.04 42.46, 229.11 36.34, 233.2 33.09 M219.28 46.65 C222.74 42.2, 224.54 38.94, 231.72 31 M223.56 47.2 C226.66 45.25, 228.73 41.63, 232.13 38.42 M224.51 46.57 C226.78 44.04, 228.96 40.52, 232.45 38.21" stroke="#12b886" stroke-width="0.5" fill="none"></path><path d="M-0.52 0.43 C52.31 -2.15, 101.63 -0.91, 232.36 1.49 M0.5 0.66 C54.13 0.76, 109.81 -0.05, 231.59 -0.26 M232.98 1.49 C230.29 12.61, 232.53 27.15, 229.02 43.12 M230.86 0.77 C230.06 14.36, 230.23 27.85, 231.8 44.45 M231.41 45.11 C158.24 47.13, 89.26 46.72, -1.52 45.37 M230.18 45.02 C142.14 45.67, 52.33 44.67, -0.2 45.29 M-0.11 44.95 C0.28 36.14, -0.93 25.37, -1.4 -0.26 M-0.35 44.81 C-0.7 34.47, 0.62 23.19, -0.5 -0.9" stroke="#000000" stroke-width="1" fill="none"></path></g><g stroke-linecap="round" transform="translate(12 255) rotate(0 117 23)"><path d="M1.55 -0.52 C78.27 1.66, 158.58 -0.47, 233.06 1.36 M-0.38 -0.26 C75.05 -1.06, 151.52 -0.31, 234.32 -0.59 M233.8 -1.98 C235.1 17.34, 234.91 30.14, 235.8 45.34 M233.52 -0.04 C233.62 16.75, 233.53 31.44, 234.68 46.65 M232.49 45.83 C142.73 47.28, 53.52 45.08, -1.15 44.82 M233.42 46.39 C146.8 45.38, 57.65 45.26, -0.7 46.11 M-1.74 45.03 C-1.12 30.85, 1.8 16.53, 0.74 1.54 M0.47 46.29 C0.46 31.78, -1 16.03, 0.91 -0.43" stroke="#000000" stroke-width="1" fill="none"></path></g><g transform="translate(24 269) rotate(0 72.2999038696289 12.5)"><text x="0" y="0" font-family="Virgil, Segoe UI Emoji" font-size="20px" fill="#000000" text-anchor="start" style="white-space: pre;" direction="ltr" dominant-baseline="text-before-edge">[1] ; size = 2 </text></g><g stroke-linecap="round" transform="translate(11.5 315.5) rotate(0 115.5 22.5)"><path d="M0 0 C0 0, 0 0, 0 0 M0 0 C0 0, 0 0, 0 0 M0.4 6.87 C1.5 4.11, 3.3 2.34, 5 -0.23 M0.01 6.1 C0.49 5.21, 1.7 4.26, 4.85 -0.03 M-0.43 13.22 C2.74 9.64, 6.29 7.05, 9.97 -0.84 M0.39 11.31 C1.83 9.29, 4.26 6.07, 11.09 -0.72 M1.65 19.81 C5.33 13.9, 5.9 11.39, 15.77 -0.59 M0.13 18.92 C5.9 12.62, 12.36 5.59, 15.18 0.07 M-0.23 22.2 C7.56 14.88, 13.48 8.18, 22.02 -1.47 M-0.63 24.46 C8.04 15.81, 14.21 7.5, 21.4 -0.94 M-1.77 31.28 C11.01 21.33, 17.01 9.99, 25.56 -0.67 M-0.71 30.04 C6.48 22.6, 13.01 15.35, 25.77 0.35 M0.44 36.61 C8.34 29.44, 17.21 20.29, 30.23 -1.18 M0.39 36.41 C9.73 25.62, 19.76 12.95, 31.13 -0.5 M-1.43 44.24 C12.08 27.34, 29.67 10.07, 35.17 -0.68 M-0.73 42.86 C11.73 30.06, 22.79 17.8, 37.73 0.22 M3.15 46.02 C14.82 29.49, 30.2 13.26, 43.73 1.77 M2.28 46.05 C10.76 37.61, 18.57 27.17, 43.09 0.19 M8.8 44.69 C19.59 35.71, 29.28 23.35, 47.89 1.07 M8.17 45.63 C17.9 32.85, 30.6 20.64, 48.42 -0.07 M10.69 45.71 C26.55 29.94, 41.26 15.34, 53.25 -0.66 M12.49 45.63 C20.94 37.24, 30.64 27.86, 52.51 0.62 M16.71 46.25 C29.9 30.49, 46.53 14.44, 59.44 1.3 M16.81 47.94 C26.97 35.31, 37.23 22.31, 58.17 0.96 M23.9 46.58 C36.83 31.93, 50.8 17.14, 65.03 -0.49 M23.03 47.25 C35.83 29.62, 49.95 14.63, 64.12 -1 M28.17 47.56 C43.2 32.33, 56.35 16.39, 68.02 1.77 M28.15 47.08 C38.77 35.86, 47.65 23.15, 69.37 1.01 M34.6 46.76 C45.21 32.72, 58.41 17.15, 74.75 0.32 M34.46 47.43 C46.53 31.33, 59.59 17.08, 75.17 -0.72 M39.84 47.76 C48.08 34.89, 58.6 24.42, 80.32 -0.74 M38.98 46.58 C54.3 29.36, 70.03 11.55, 79.39 1.03 M43.08 47.42 C57.05 32.41, 68.59 17.25, 85.57 -0.2 M44.35 45.94 C57.3 33.36, 68.56 17.89, 84.44 0.16 M48.49 45.28 C61.38 34.18, 74.38 18.53, 89.47 -0.4 M50.24 45.93 C62.72 32.49, 76.65 16.41, 89.65 0.2 M56.13 46.76 C68.78 30.58, 83.89 12.08, 94.11 -1.94 M54.28 46.76 C69.52 29.52, 85.34 12.67, 95.21 0.06 M60.4 48.58 C68.23 38.06, 77.82 28.23, 101.09 -0.36 M59.42 46.36 C69.05 35.06, 78.4 24.11, 100.55 0.94 M64.97 45.99 C77.53 33.35, 90.6 16.79, 104.47 -0.81 M64.87 47.13 C75.96 35.89, 84 25.38, 106.27 0.13 M69.26 46.15 C82.98 32.96, 93.71 21.1, 111.24 1.25 M71.5 45.86 C80.11 35.73, 88.39 25.59, 110.53 -0.1 M75.31 47.37 C88.47 29.53, 106.05 15.99, 117.56 2.11 M76.74 46.51 C87.92 31.78, 99.85 18.11, 116.3 0.03 M82.28 48.51 C96.01 30.76, 111.65 11.85, 120.49 1.36 M81.98 46.12 C95.08 31.15, 108.48 16.24, 121.04 0.95 M85.32 48.2 C101.91 28.65, 114.27 13.57, 127.73 -0.52 M87.51 45.59 C96.46 35.12, 106.54 23.68, 127.43 -0.14 M90.1 46.22 C99.72 34.01, 112.25 25.44, 131.85 1.9 M91.88 47.58 C104.05 33.37, 115.68 19.93, 131.55 0.22 M95.65 46.78 C111.73 28.73, 123.33 14.54, 136.81 0.27 M96.85 47.3 C105.62 36.6, 114.76 26.49, 138.35 -0.26 M100.86 47.86 C114.24 32.67, 125.36 21.11, 144.81 -0.16 M102.74 46.41 C116.8 30.01, 131.47 14.44, 142.52 -0.93 M107.4 44.48 C122.75 28.01, 139.52 12.56, 146.78 0.72 M107.41 45.81 C116.01 36.72, 126.37 25.17, 147.93 -0.23 M114.15 46.05 C128.31 30.12, 146.1 9.83, 153.31 1.2 M113.61 47.52 C128.67 29.77, 143.01 13.12, 154.47 -0.93 M120.16 47.66 C128.96 35.8, 137.35 22.77, 157.08 -0.9 M117.89 45.51 C133.7 28.74, 149.11 9.95, 159.54 -0.23 M123.04 47.43 C141.05 27.63, 157.08 7.4, 163.79 -0.98 M124.05 47.55 C139.9 28.31, 155.03 9.96, 164.89 -0.96 M129.31 46.51 C136.45 36.81, 146.67 25.76, 170.62 1.71 M129.32 46.8 C138.83 35.65, 147.4 25.68, 170.07 0.31 M136.06 46.69 C147.61 30.99, 158.06 16.36, 173.13 -0.65 M135.13 45.88 C147.2 32.65, 160.99 17.41, 175.32 0.05 M138.69 45.95 C154.07 27.41, 170.76 12.66, 179.76 0.89 M138.74 46.03 C149.3 34.67, 159.41 23.9, 180.95 -0.31 M143.2 48.52 C159.57 32.15, 170.43 15.01, 186.7 -0.69 M144.47 45.62 C157.15 33.13, 166.83 20.94, 186.29 0.38 M150.63 48.21 C160.53 33.69, 173.98 19.14, 192.37 1 M150.2 47.06 C162.25 31.47, 175.44 17.13, 191.08 0.93 M153.95 45.68 C166.41 33.48, 178.32 21.03, 196.33 1.02 M155.18 46.61 C171.19 28.88, 187.77 10.6, 196.37 0.56 M162.57 47.8 C172.6 34.19, 182.01 22.73, 201.74 0.45 M160.47 47.23 C170.19 34.53, 181.32 23.06, 201.92 0.81 M167.23 44.93 C177.07 31.52, 190.55 19.81, 206.3 1.65 M166.87 46.43 C174.74 36.62, 185.13 25.12, 207.13 0.35 M172.45 46.26 C185.66 32.41, 198.15 15.84, 212.67 1.65 M171.3 47.11 C183.72 33.11, 195.67 20.85, 212.42 0.83 M177.46 45.08 C191.22 31.04, 207.65 12.62, 219.4 -0.62 M176.7 47.39 C191.97 27.85, 208.03 10.97, 218.16 -0.27 M180.66 46.15 C194.92 31.9, 208.37 17.56, 223.4 1.07 M182.46 47.5 C197.61 29.09, 213.55 11.71, 222.05 0.21 M188.52 46.96 C199.04 35.35, 205.59 23.51, 226.86 -0.55 M188.32 45.55 C197.69 34.93, 207.93 22.7, 228.06 -0.06 M192.05 45.08 C204.43 31.51, 214.54 17.75, 231.01 -0.05 M192.76 46.44 C205.7 31.45, 219.17 16.98, 233.14 1.69 M199.74 47.44 C204.5 36.66, 214.14 30.6, 231.81 7.66 M198.91 45.67 C208.44 35.81, 217.33 25.46, 232.89 7.98 M201.96 45.67 C210.52 39, 219.17 27.53, 232.83 12.14 M202.99 46.21 C209.82 39.64, 215.68 31.78, 231.36 14.29 M207.94 45.41 C217.53 34.98, 228.78 25.44, 231.07 18.28 M208.16 46.29 C215.85 38.55, 223.74 29.51, 232.92 19.53 M214.18 45.6 C220.37 39.93, 226.52 27.98, 230.68 27.36 M212.98 46.32 C221.36 37.96, 228.58 29.96, 232.87 25.61 M221.41 47.8 C223.04 42.46, 229.11 36.34, 233.2 33.09 M219.28 46.65 C222.74 42.2, 224.54 38.94, 231.72 31 M223.56 47.2 C226.66 45.25, 228.73 41.63, 232.13 38.42 M224.51 46.57 C226.78 44.04, 228.96 40.52, 232.45 38.21" stroke="#12b886" stroke-width="0.5" fill="none"></path><path d="M-0.52 0.43 C52.31 -2.15, 101.63 -0.91, 232.36 1.49 M0.5 0.66 C54.13 0.76, 109.81 -0.05, 231.59 -0.26 M232.98 1.49 C230.29 12.61, 232.53 27.15, 229.02 43.12 M230.86 0.77 C230.06 14.36, 230.23 27.85, 231.8 44.45 M231.41 45.11 C158.24 47.13, 89.26 46.72, -1.52 45.37 M230.18 45.02 C142.14 45.67, 52.33 44.67, -0.2 45.29 M-0.11 44.95 C0.28 36.14, -0.93 25.37, -1.4 -0.26 M-0.35 44.81 C-0.7 34.47, 0.62 23.19, -0.5 -0.9" stroke="#000000" stroke-width="1" fill="none"></path></g><g stroke-linecap="round" transform="translate(12.5 377.5) rotate(0 115.5 22.5)"><path d="M0 0 C0 0, 0 0, 0 0 M0 0 C0 0, 0 0, 0 0 M0.4 6.87 C1.5 4.11, 3.3 2.34, 5 -0.23 M0.01 6.1 C0.49 5.21, 1.7 4.26, 4.85 -0.03 M-0.43 13.22 C2.74 9.64, 6.29 7.05, 9.97 -0.84 M0.39 11.31 C1.83 9.29, 4.26 6.07, 11.09 -0.72 M1.65 19.81 C5.33 13.9, 5.9 11.39, 15.77 -0.59 M0.13 18.92 C5.9 12.62, 12.36 5.59, 15.18 0.07 M-0.23 22.2 C7.56 14.88, 13.48 8.18, 22.02 -1.47 M-0.63 24.46 C8.04 15.81, 14.21 7.5, 21.4 -0.94 M-1.77 31.28 C11.01 21.33, 17.01 9.99, 25.56 -0.67 M-0.71 30.04 C6.48 22.6, 13.01 15.35, 25.77 0.35 M0.44 36.61 C8.34 29.44, 17.21 20.29, 30.23 -1.18 M0.39 36.41 C9.73 25.62, 19.76 12.95, 31.13 -0.5 M-1.43 44.24 C12.08 27.34, 29.67 10.07, 35.17 -0.68 M-0.73 42.86 C11.73 30.06, 22.79 17.8, 37.73 0.22 M3.15 46.02 C14.82 29.49, 30.2 13.26, 43.73 1.77 M2.28 46.05 C10.76 37.61, 18.57 27.17, 43.09 0.19 M8.8 44.69 C19.59 35.71, 29.28 23.35, 47.89 1.07 M8.17 45.63 C17.9 32.85, 30.6 20.64, 48.42 -0.07 M10.69 45.71 C26.55 29.94, 41.26 15.34, 53.25 -0.66 M12.49 45.63 C20.94 37.24, 30.64 27.86, 52.51 0.62 M16.71 46.25 C29.9 30.49, 46.53 14.44, 59.44 1.3 M16.81 47.94 C26.97 35.31, 37.23 22.31, 58.17 0.96 M23.9 46.58 C36.83 31.93, 50.8 17.14, 65.03 -0.49 M23.03 47.25 C35.83 29.62, 49.95 14.63, 64.12 -1 M28.17 47.56 C43.2 32.33, 56.35 16.39, 68.02 1.77 M28.15 47.08 C38.77 35.86, 47.65 23.15, 69.37 1.01 M34.6 46.76 C45.21 32.72, 58.41 17.15, 74.75 0.32 M34.46 47.43 C46.53 31.33, 59.59 17.08, 75.17 -0.72 M39.84 47.76 C48.08 34.89, 58.6 24.42, 80.32 -0.74 M38.98 46.58 C54.3 29.36, 70.03 11.55, 79.39 1.03 M43.08 47.42 C57.05 32.41, 68.59 17.25, 85.57 -0.2 M44.35 45.94 C57.3 33.36, 68.56 17.89, 84.44 0.16 M48.49 45.28 C61.38 34.18, 74.38 18.53, 89.47 -0.4 M50.24 45.93 C62.72 32.49, 76.65 16.41, 89.65 0.2 M56.13 46.76 C68.78 30.58, 83.89 12.08, 94.11 -1.94 M54.28 46.76 C69.52 29.52, 85.34 12.67, 95.21 0.06 M60.4 48.58 C68.23 38.06, 77.82 28.23, 101.09 -0.36 M59.42 46.36 C69.05 35.06, 78.4 24.11, 100.55 0.94 M64.97 45.99 C77.53 33.35, 90.6 16.79, 104.47 -0.81 M64.87 47.13 C75.96 35.89, 84 25.38, 106.27 0.13 M69.26 46.15 C82.98 32.96, 93.71 21.1, 111.24 1.25 M71.5 45.86 C80.11 35.73, 88.39 25.59, 110.53 -0.1 M75.31 47.37 C88.47 29.53, 106.05 15.99, 117.56 2.11 M76.74 46.51 C87.92 31.78, 99.85 18.11, 116.3 0.03 M82.28 48.51 C96.01 30.76, 111.65 11.85, 120.49 1.36 M81.98 46.12 C95.08 31.15, 108.48 16.24, 121.04 0.95 M85.32 48.2 C101.91 28.65, 114.27 13.57, 127.73 -0.52 M87.51 45.59 C96.46 35.12, 106.54 23.68, 127.43 -0.14 M90.1 46.22 C99.72 34.01, 112.25 25.44, 131.85 1.9 M91.88 47.58 C104.05 33.37, 115.68 19.93, 131.55 0.22 M95.65 46.78 C111.73 28.73, 123.33 14.54, 136.81 0.27 M96.85 47.3 C105.62 36.6, 114.76 26.49, 138.35 -0.26 M100.86 47.86 C114.24 32.67, 125.36 21.11, 144.81 -0.16 M102.74 46.41 C116.8 30.01, 131.47 14.44, 142.52 -0.93 M107.4 44.48 C122.75 28.01, 139.52 12.56, 146.78 0.72 M107.41 45.81 C116.01 36.72, 126.37 25.17, 147.93 -0.23 M114.15 46.05 C128.31 30.12, 146.1 9.83, 153.31 1.2 M113.61 47.52 C128.67 29.77, 143.01 13.12, 154.47 -0.93 M120.16 47.66 C128.96 35.8, 137.35 22.77, 157.08 -0.9 M117.89 45.51 C133.7 28.74, 149.11 9.95, 159.54 -0.23 M123.04 47.43 C141.05 27.63, 157.08 7.4, 163.79 -0.98 M124.05 47.55 C139.9 28.31, 155.03 9.96, 164.89 -0.96 M129.31 46.51 C136.45 36.81, 146.67 25.76, 170.62 1.71 M129.32 46.8 C138.83 35.65, 147.4 25.68, 170.07 0.31 M136.06 46.69 C147.61 30.99, 158.06 16.36, 173.13 -0.65 M135.13 45.88 C147.2 32.65, 160.99 17.41, 175.32 0.05 M138.69 45.95 C154.07 27.41, 170.76 12.66, 179.76 0.89 M138.74 46.03 C149.3 34.67, 159.41 23.9, 180.95 -0.31 M143.2 48.52 C159.57 32.15, 170.43 15.01, 186.7 -0.69 M144.47 45.62 C157.15 33.13, 166.83 20.94, 186.29 0.38 M150.63 48.21 C160.53 33.69, 173.98 19.14, 192.37 1 M150.2 47.06 C162.25 31.47, 175.44 17.13, 191.08 0.93 M153.95 45.68 C166.41 33.48, 178.32 21.03, 196.33 1.02 M155.18 46.61 C171.19 28.88, 187.77 10.6, 196.37 0.56 M162.57 47.8 C172.6 34.19, 182.01 22.73, 201.74 0.45 M160.47 47.23 C170.19 34.53, 181.32 23.06, 201.92 0.81 M167.23 44.93 C177.07 31.52, 190.55 19.81, 206.3 1.65 M166.87 46.43 C174.74 36.62, 185.13 25.12, 207.13 0.35 M172.45 46.26 C185.66 32.41, 198.15 15.84, 212.67 1.65 M171.3 47.11 C183.72 33.11, 195.67 20.85, 212.42 0.83 M177.46 45.08 C191.22 31.04, 207.65 12.62, 219.4 -0.62 M176.7 47.39 C191.97 27.85, 208.03 10.97, 218.16 -0.27 M180.66 46.15 C194.92 31.9, 208.37 17.56, 223.4 1.07 M182.46 47.5 C197.61 29.09, 213.55 11.71, 222.05 0.21 M188.52 46.96 C199.04 35.35, 205.59 23.51, 226.86 -0.55 M188.32 45.55 C197.69 34.93, 207.93 22.7, 228.06 -0.06 M192.05 45.08 C204.43 31.51, 214.54 17.75, 231.01 -0.05 M192.76 46.44 C205.7 31.45, 219.17 16.98, 233.14 1.69 M199.74 47.44 C204.5 36.66, 214.14 30.6, 231.81 7.66 M198.91 45.67 C208.44 35.81, 217.33 25.46, 232.89 7.98 M201.96 45.67 C210.52 39, 219.17 27.53, 232.83 12.14 M202.99 46.21 C209.82 39.64, 215.68 31.78, 231.36 14.29 M207.94 45.41 C217.53 34.98, 228.78 25.44, 231.07 18.28 M208.16 46.29 C215.85 38.55, 223.74 29.51, 232.92 19.53 M214.18 45.6 C220.37 39.93, 226.52 27.98, 230.68 27.36 M212.98 46.32 C221.36 37.96, 228.58 29.96, 232.87 25.61 M221.41 47.8 C223.04 42.46, 229.11 36.34, 233.2 33.09 M219.28 46.65 C222.74 42.2, 224.54 38.94, 231.72 31 M223.56 47.2 C226.66 45.25, 228.73 41.63, 232.13 38.42 M224.51 46.57 C226.78 44.04, 228.96 40.52, 232.45 38.21" stroke="#12b886" stroke-width="0.5" fill="none"></path><path d="M-0.52 0.43 C52.31 -2.15, 101.63 -0.91, 232.36 1.49 M0.5 0.66 C54.13 0.76, 109.81 -0.05, 231.59 -0.26 M232.98 1.49 C230.29 12.61, 232.53 27.15, 229.02 43.12 M230.86 0.77 C230.06 14.36, 230.23 27.85, 231.8 44.45 M231.41 45.11 C158.24 47.13, 89.26 46.72, -1.52 45.37 M230.18 45.02 C142.14 45.67, 52.33 44.67, -0.2 45.29 M-0.11 44.95 C0.28 36.14, -0.93 25.37, -1.4 -0.26 M-0.35 44.81 C-0.7 34.47, 0.62 23.19, -0.5 -0.9" stroke="#000000" stroke-width="1" fill="none"></path></g><g stroke-linecap="round" transform="translate(12 436) rotate(0 117 23)"><path d="M1.55 -0.52 C78.27 1.66, 158.58 -0.47, 233.06 1.36 M-0.38 -0.26 C75.05 -1.06, 151.52 -0.31, 234.32 -0.59 M233.8 -1.98 C235.1 17.34, 234.91 30.14, 235.8 45.34 M233.52 -0.04 C233.62 16.75, 233.53 31.44, 234.68 46.65 M232.49 45.83 C142.73 47.28, 53.52 45.08, -1.15 44.82 M233.42 46.39 C146.8 45.38, 57.65 45.26, -0.7 46.11 M-1.74 45.03 C-1.12 30.85, 1.8 16.53, 0.74 1.54 M0.47 46.29 C0.46 31.78, -1 16.03, 0.91 -0.43" stroke="#000000" stroke-width="1" fill="none"></path></g><g transform="translate(24 450) rotate(0 96.0198745727539 12.5)"><text x="0" y="0" font-family="Virgil, Segoe UI Emoji" font-size="20px" fill="#000000" text-anchor="start" style="white-space: pre;" direction="ltr" dominant-baseline="text-before-edge">[2] ; size = n - 8 </text></g><g stroke-linecap="round" transform="translate(10 504.5) rotate(0 115.5 22.5)"><path d="M0 0 C0 0, 0 0, 0 0 M0 0 C0 0, 0 0, 0 0 M0.4 6.87 C1.5 4.11, 3.3 2.34, 5 -0.23 M0.01 6.1 C0.49 5.21, 1.7 4.26, 4.85 -0.03 M-0.43 13.22 C2.74 9.64, 6.29 7.05, 9.97 -0.84 M0.39 11.31 C1.83 9.29, 4.26 6.07, 11.09 -0.72 M1.65 19.81 C5.33 13.9, 5.9 11.39, 15.77 -0.59 M0.13 18.92 C5.9 12.62, 12.36 5.59, 15.18 0.07 M-0.23 22.2 C7.56 14.88, 13.48 8.18, 22.02 -1.47 M-0.63 24.46 C8.04 15.81, 14.21 7.5, 21.4 -0.94 M-1.77 31.28 C11.01 21.33, 17.01 9.99, 25.56 -0.67 M-0.71 30.04 C6.48 22.6, 13.01 15.35, 25.77 0.35 M0.44 36.61 C8.34 29.44, 17.21 20.29, 30.23 -1.18 M0.39 36.41 C9.73 25.62, 19.76 12.95, 31.13 -0.5 M-1.43 44.24 C12.08 27.34, 29.67 10.07, 35.17 -0.68 M-0.73 42.86 C11.73 30.06, 22.79 17.8, 37.73 0.22 M3.15 46.02 C14.82 29.49, 30.2 13.26, 43.73 1.77 M2.28 46.05 C10.76 37.61, 18.57 27.17, 43.09 0.19 M8.8 44.69 C19.59 35.71, 29.28 23.35, 47.89 1.07 M8.17 45.63 C17.9 32.85, 30.6 20.64, 48.42 -0.07 M10.69 45.71 C26.55 29.94, 41.26 15.34, 53.25 -0.66 M12.49 45.63 C20.94 37.24, 30.64 27.86, 52.51 0.62 M16.71 46.25 C29.9 30.49, 46.53 14.44, 59.44 1.3 M16.81 47.94 C26.97 35.31, 37.23 22.31, 58.17 0.96 M23.9 46.58 C36.83 31.93, 50.8 17.14, 65.03 -0.49 M23.03 47.25 C35.83 29.62, 49.95 14.63, 64.12 -1 M28.17 47.56 C43.2 32.33, 56.35 16.39, 68.02 1.77 M28.15 47.08 C38.77 35.86, 47.65 23.15, 69.37 1.01 M34.6 46.76 C45.21 32.72, 58.41 17.15, 74.75 0.32 M34.46 47.43 C46.53 31.33, 59.59 17.08, 75.17 -0.72 M39.84 47.76 C48.08 34.89, 58.6 24.42, 80.32 -0.74 M38.98 46.58 C54.3 29.36, 70.03 11.55, 79.39 1.03 M43.08 47.42 C57.05 32.41, 68.59 17.25, 85.57 -0.2 M44.35 45.94 C57.3 33.36, 68.56 17.89, 84.44 0.16 M48.49 45.28 C61.38 34.18, 74.38 18.53, 89.47 -0.4 M50.24 45.93 C62.72 32.49, 76.65 16.41, 89.65 0.2 M56.13 46.76 C68.78 30.58, 83.89 12.08, 94.11 -1.94 M54.28 46.76 C69.52 29.52, 85.34 12.67, 95.21 0.06 M60.4 48.58 C68.23 38.06, 77.82 28.23, 101.09 -0.36 M59.42 46.36 C69.05 35.06, 78.4 24.11, 100.55 0.94 M64.97 45.99 C77.53 33.35, 90.6 16.79, 104.47 -0.81 M64.87 47.13 C75.96 35.89, 84 25.38, 106.27 0.13 M69.26 46.15 C82.98 32.96, 93.71 21.1, 111.24 1.25 M71.5 45.86 C80.11 35.73, 88.39 25.59, 110.53 -0.1 M75.31 47.37 C88.47 29.53, 106.05 15.99, 117.56 2.11 M76.74 46.51 C87.92 31.78, 99.85 18.11, 116.3 0.03 M82.28 48.51 C96.01 30.76, 111.65 11.85, 120.49 1.36 M81.98 46.12 C95.08 31.15, 108.48 16.24, 121.04 0.95 M85.32 48.2 C101.91 28.65, 114.27 13.57, 127.73 -0.52 M87.51 45.59 C96.46 35.12, 106.54 23.68, 127.43 -0.14 M90.1 46.22 C99.72 34.01, 112.25 25.44, 131.85 1.9 M91.88 47.58 C104.05 33.37, 115.68 19.93, 131.55 0.22 M95.65 46.78 C111.73 28.73, 123.33 14.54, 136.81 0.27 M96.85 47.3 C105.62 36.6, 114.76 26.49, 138.35 -0.26 M100.86 47.86 C114.24 32.67, 125.36 21.11, 144.81 -0.16 M102.74 46.41 C116.8 30.01, 131.47 14.44, 142.52 -0.93 M107.4 44.48 C122.75 28.01, 139.52 12.56, 146.78 0.72 M107.41 45.81 C116.01 36.72, 126.37 25.17, 147.93 -0.23 M114.15 46.05 C128.31 30.12, 146.1 9.83, 153.31 1.2 M113.61 47.52 C128.67 29.77, 143.01 13.12, 154.47 -0.93 M120.16 47.66 C128.96 35.8, 137.35 22.77, 157.08 -0.9 M117.89 45.51 C133.7 28.74, 149.11 9.95, 159.54 -0.23 M123.04 47.43 C141.05 27.63, 157.08 7.4, 163.79 -0.98 M124.05 47.55 C139.9 28.31, 155.03 9.96, 164.89 -0.96 M129.31 46.51 C136.45 36.81, 146.67 25.76, 170.62 1.71 M129.32 46.8 C138.83 35.65, 147.4 25.68, 170.07 0.31 M136.06 46.69 C147.61 30.99, 158.06 16.36, 173.13 -0.65 M135.13 45.88 C147.2 32.65, 160.99 17.41, 175.32 0.05 M138.69 45.95 C154.07 27.41, 170.76 12.66, 179.76 0.89 M138.74 46.03 C149.3 34.67, 159.41 23.9, 180.95 -0.31 M143.2 48.52 C159.57 32.15, 170.43 15.01, 186.7 -0.69 M144.47 45.62 C157.15 33.13, 166.83 20.94, 186.29 0.38 M150.63 48.21 C160.53 33.69, 173.98 19.14, 192.37 1 M150.2 47.06 C162.25 31.47, 175.44 17.13, 191.08 0.93 M153.95 45.68 C166.41 33.48, 178.32 21.03, 196.33 1.02 M155.18 46.61 C171.19 28.88, 187.77 10.6, 196.37 0.56 M162.57 47.8 C172.6 34.19, 182.01 22.73, 201.74 0.45 M160.47 47.23 C170.19 34.53, 181.32 23.06, 201.92 0.81 M167.23 44.93 C177.07 31.52, 190.55 19.81, 206.3 1.65 M166.87 46.43 C174.74 36.62, 185.13 25.12, 207.13 0.35 M172.45 46.26 C185.66 32.41, 198.15 15.84, 212.67 1.65 M171.3 47.11 C183.72 33.11, 195.67 20.85, 212.42 0.83 M177.46 45.08 C191.22 31.04, 207.65 12.62, 219.4 -0.62 M176.7 47.39 C191.97 27.85, 208.03 10.97, 218.16 -0.27 M180.66 46.15 C194.92 31.9, 208.37 17.56, 223.4 1.07 M182.46 47.5 C197.61 29.09, 213.55 11.71, 222.05 0.21 M188.52 46.96 C199.04 35.35, 205.59 23.51, 226.86 -0.55 M188.32 45.55 C197.69 34.93, 207.93 22.7, 228.06 -0.06 M192.05 45.08 C204.43 31.51, 214.54 17.75, 231.01 -0.05 M192.76 46.44 C205.7 31.45, 219.17 16.98, 233.14 1.69 M199.74 47.44 C204.5 36.66, 214.14 30.6, 231.81 7.66 M198.91 45.67 C208.44 35.81, 217.33 25.46, 232.89 7.98 M201.96 45.67 C210.52 39, 219.17 27.53, 232.83 12.14 M202.99 46.21 C209.82 39.64, 215.68 31.78, 231.36 14.29 M207.94 45.41 C217.53 34.98, 228.78 25.44, 231.07 18.28 M208.16 46.29 C215.85 38.55, 223.74 29.51, 232.92 19.53 M214.18 45.6 C220.37 39.93, 226.52 27.98, 230.68 27.36 M212.98 46.32 C221.36 37.96, 228.58 29.96, 232.87 25.61 M221.41 47.8 C223.04 42.46, 229.11 36.34, 233.2 33.09 M219.28 46.65 C222.74 42.2, 224.54 38.94, 231.72 31 M223.56 47.2 C226.66 45.25, 228.73 41.63, 232.13 38.42 M224.51 46.57 C226.78 44.04, 228.96 40.52, 232.45 38.21" stroke="#868e96" stroke-width="0.5" fill="none"></path><path d="M-0.52 0.43 C52.31 -2.15, 101.63 -0.91, 232.36 1.49 M0.5 0.66 C54.13 0.76, 109.81 -0.05, 231.59 -0.26 M232.98 1.49 C230.29 12.61, 232.53 27.15, 229.02 43.12 M230.86 0.77 C230.06 14.36, 230.23 27.85, 231.8 44.45 M231.41 45.11 C158.24 47.13, 89.26 46.72, -1.52 45.37 M230.18 45.02 C142.14 45.67, 52.33 44.67, -0.2 45.29 M-0.11 44.95 C0.28 36.14, -0.93 25.37, -1.4 -0.26 M-0.35 44.81 C-0.7 34.47, 0.62 23.19, -0.5 -0.9" stroke="#000000" stroke-width="1" fill="none"></path></g><g stroke-linecap="round" transform="translate(14 632.5) rotate(0 115.5 22.5)"><path d="M0 0 C0 0, 0 0, 0 0 M0 0 C0 0, 0 0, 0 0 M0.4 6.87 C1.5 4.11, 3.3 2.34, 5 -0.23 M0.01 6.1 C0.49 5.21, 1.7 4.26, 4.85 -0.03 M-0.43 13.22 C2.74 9.64, 6.29 7.05, 9.97 -0.84 M0.39 11.31 C1.83 9.29, 4.26 6.07, 11.09 -0.72 M1.65 19.81 C5.33 13.9, 5.9 11.39, 15.77 -0.59 M0.13 18.92 C5.9 12.62, 12.36 5.59, 15.18 0.07 M-0.23 22.2 C7.56 14.88, 13.48 8.18, 22.02 -1.47 M-0.63 24.46 C8.04 15.81, 14.21 7.5, 21.4 -0.94 M-1.77 31.28 C11.01 21.33, 17.01 9.99, 25.56 -0.67 M-0.71 30.04 C6.48 22.6, 13.01 15.35, 25.77 0.35 M0.44 36.61 C8.34 29.44, 17.21 20.29, 30.23 -1.18 M0.39 36.41 C9.73 25.62, 19.76 12.95, 31.13 -0.5 M-1.43 44.24 C12.08 27.34, 29.67 10.07, 35.17 -0.68 M-0.73 42.86 C11.73 30.06, 22.79 17.8, 37.73 0.22 M3.15 46.02 C14.82 29.49, 30.2 13.26, 43.73 1.77 M2.28 46.05 C10.76 37.61, 18.57 27.17, 43.09 0.19 M8.8 44.69 C19.59 35.71, 29.28 23.35, 47.89 1.07 M8.17 45.63 C17.9 32.85, 30.6 20.64, 48.42 -0.07 M10.69 45.71 C26.55 29.94, 41.26 15.34, 53.25 -0.66 M12.49 45.63 C20.94 37.24, 30.64 27.86, 52.51 0.62 M16.71 46.25 C29.9 30.49, 46.53 14.44, 59.44 1.3 M16.81 47.94 C26.97 35.31, 37.23 22.31, 58.17 0.96 M23.9 46.58 C36.83 31.93, 50.8 17.14, 65.03 -0.49 M23.03 47.25 C35.83 29.62, 49.95 14.63, 64.12 -1 M28.17 47.56 C43.2 32.33, 56.35 16.39, 68.02 1.77 M28.15 47.08 C38.77 35.86, 47.65 23.15, 69.37 1.01 M34.6 46.76 C45.21 32.72, 58.41 17.15, 74.75 0.32 M34.46 47.43 C46.53 31.33, 59.59 17.08, 75.17 -0.72 M39.84 47.76 C48.08 34.89, 58.6 24.42, 80.32 -0.74 M38.98 46.58 C54.3 29.36, 70.03 11.55, 79.39 1.03 M43.08 47.42 C57.05 32.41, 68.59 17.25, 85.57 -0.2 M44.35 45.94 C57.3 33.36, 68.56 17.89, 84.44 0.16 M48.49 45.28 C61.38 34.18, 74.38 18.53, 89.47 -0.4 M50.24 45.93 C62.72 32.49, 76.65 16.41, 89.65 0.2 M56.13 46.76 C68.78 30.58, 83.89 12.08, 94.11 -1.94 M54.28 46.76 C69.52 29.52, 85.34 12.67, 95.21 0.06 M60.4 48.58 C68.23 38.06, 77.82 28.23, 101.09 -0.36 M59.42 46.36 C69.05 35.06, 78.4 24.11, 100.55 0.94 M64.97 45.99 C77.53 33.35, 90.6 16.79, 104.47 -0.81 M64.87 47.13 C75.96 35.89, 84 25.38, 106.27 0.13 M69.26 46.15 C82.98 32.96, 93.71 21.1, 111.24 1.25 M71.5 45.86 C80.11 35.73, 88.39 25.59, 110.53 -0.1 M75.31 47.37 C88.47 29.53, 106.05 15.99, 117.56 2.11 M76.74 46.51 C87.92 31.78, 99.85 18.11, 116.3 0.03 M82.28 48.51 C96.01 30.76, 111.65 11.85, 120.49 1.36 M81.98 46.12 C95.08 31.15, 108.48 16.24, 121.04 0.95 M85.32 48.2 C101.91 28.65, 114.27 13.57, 127.73 -0.52 M87.51 45.59 C96.46 35.12, 106.54 23.68, 127.43 -0.14 M90.1 46.22 C99.72 34.01, 112.25 25.44, 131.85 1.9 M91.88 47.58 C104.05 33.37, 115.68 19.93, 131.55 0.22 M95.65 46.78 C111.73 28.73, 123.33 14.54, 136.81 0.27 M96.85 47.3 C105.62 36.6, 114.76 26.49, 138.35 -0.26 M100.86 47.86 C114.24 32.67, 125.36 21.11, 144.81 -0.16 M102.74 46.41 C116.8 30.01, 131.47 14.44, 142.52 -0.93 M107.4 44.48 C122.75 28.01, 139.52 12.56, 146.78 0.72 M107.41 45.81 C116.01 36.72, 126.37 25.17, 147.93 -0.23 M114.15 46.05 C128.31 30.12, 146.1 9.83, 153.31 1.2 M113.61 47.52 C128.67 29.77, 143.01 13.12, 154.47 -0.93 M120.16 47.66 C128.96 35.8, 137.35 22.77, 157.08 -0.9 M117.89 45.51 C133.7 28.74, 149.11 9.95, 159.54 -0.23 M123.04 47.43 C141.05 27.63, 157.08 7.4, 163.79 -0.98 M124.05 47.55 C139.9 28.31, 155.03 9.96, 164.89 -0.96 M129.31 46.51 C136.45 36.81, 146.67 25.76, 170.62 1.71 M129.32 46.8 C138.83 35.65, 147.4 25.68, 170.07 0.31 M136.06 46.69 C147.61 30.99, 158.06 16.36, 173.13 -0.65 M135.13 45.88 C147.2 32.65, 160.99 17.41, 175.32 0.05 M138.69 45.95 C154.07 27.41, 170.76 12.66, 179.76 0.89 M138.74 46.03 C149.3 34.67, 159.41 23.9, 180.95 -0.31 M143.2 48.52 C159.57 32.15, 170.43 15.01, 186.7 -0.69 M144.47 45.62 C157.15 33.13, 166.83 20.94, 186.29 0.38 M150.63 48.21 C160.53 33.69, 173.98 19.14, 192.37 1 M150.2 47.06 C162.25 31.47, 175.44 17.13, 191.08 0.93 M153.95 45.68 C166.41 33.48, 178.32 21.03, 196.33 1.02 M155.18 46.61 C171.19 28.88, 187.77 10.6, 196.37 0.56 M162.57 47.8 C172.6 34.19, 182.01 22.73, 201.74 0.45 M160.47 47.23 C170.19 34.53, 181.32 23.06, 201.92 0.81 M167.23 44.93 C177.07 31.52, 190.55 19.81, 206.3 1.65 M166.87 46.43 C174.74 36.62, 185.13 25.12, 207.13 0.35 M172.45 46.26 C185.66 32.41, 198.15 15.84, 212.67 1.65 M171.3 47.11 C183.72 33.11, 195.67 20.85, 212.42 0.83 M177.46 45.08 C191.22 31.04, 207.65 12.62, 219.4 -0.62 M176.7 47.39 C191.97 27.85, 208.03 10.97, 218.16 -0.27 M180.66 46.15 C194.92 31.9, 208.37 17.56, 223.4 1.07 M182.46 47.5 C197.61 29.09, 213.55 11.71, 222.05 0.21 M188.52 46.96 C199.04 35.35, 205.59 23.51, 226.86 -0.55 M188.32 45.55 C197.69 34.93, 207.93 22.7, 228.06 -0.06 M192.05 45.08 C204.43 31.51, 214.54 17.75, 231.01 -0.05 M192.76 46.44 C205.7 31.45, 219.17 16.98, 233.14 1.69 M199.74 47.44 C204.5 36.66, 214.14 30.6, 231.81 7.66 M198.91 45.67 C208.44 35.81, 217.33 25.46, 232.89 7.98 M201.96 45.67 C210.52 39, 219.17 27.53, 232.83 12.14 M202.99 46.21 C209.82 39.64, 215.68 31.78, 231.36 14.29 M207.94 45.41 C217.53 34.98, 228.78 25.44, 231.07 18.28 M208.16 46.29 C215.85 38.55, 223.74 29.51, 232.92 19.53 M214.18 45.6 C220.37 39.93, 226.52 27.98, 230.68 27.36 M212.98 46.32 C221.36 37.96, 228.58 29.96, 232.87 25.61 M221.41 47.8 C223.04 42.46, 229.11 36.34, 233.2 33.09 M219.28 46.65 C222.74 42.2, 224.54 38.94, 231.72 31 M223.56 47.2 C226.66 45.25, 228.73 41.63, 232.13 38.42 M224.51 46.57 C226.78 44.04, 228.96 40.52, 232.45 38.21" stroke="#868e96" stroke-width="0.5" fill="none"></path><path d="M-0.52 0.43 C52.31 -2.15, 101.63 -0.91, 232.36 1.49 M0.5 0.66 C54.13 0.76, 109.81 -0.05, 231.59 -0.26 M232.98 1.49 C230.29 12.61, 232.53 27.15, 229.02 43.12 M230.86 0.77 C230.06 14.36, 230.23 27.85, 231.8 44.45 M231.41 45.11 C158.24 47.13, 89.26 46.72, -1.52 45.37 M230.18 45.02 C142.14 45.67, 52.33 44.67, -0.2 45.29 M-0.11 44.95 C0.28 36.14, -0.93 25.37, -1.4 -0.26 M-0.35 44.81 C-0.7 34.47, 0.62 23.19, -0.5 -0.9" stroke="#000000" stroke-width="1" fill="none"></path></g><g transform="translate(67.25006103515625 642.5) rotate(0 62.24993896484375 12.5)"><text x="62.24993896484375" y="0" font-family="Virgil, Segoe UI Emoji" font-size="20px" fill="#000000" text-anchor="middle" style="white-space: pre;" direction="ltr" dominant-baseline="text-before-edge">4096th byte</text></g><g transform="translate(373 452.41738045215607) rotate(0 244.21975708007812 12.5)"><text x="0" y="0" font-family="Virgil, Segoe UI Emoji" font-size="20px" fill="#000000" text-anchor="start" style="white-space: pre;" direction="ltr" dominant-baseline="text-before-edge">* n in this case is 4096. 1 Page has 4096 bytes</text></g><g stroke-linecap="round" transform="translate(111 563.4173804521561) rotate(0 3.5 3)"><path d="M3.74 0.46 C4.69 0.48, 6.28 0.54, 6.82 1.04 C7.37 1.54, 7.13 2.86, 7.02 3.45 C6.91 4.05, 6.69 4.06, 6.16 4.62 C5.62 5.18, 4.4 6.57, 3.81 6.83 C3.21 7.1, 3.18 6.68, 2.59 6.21 C2 5.73, 0.58 4.6, 0.25 3.99 C-0.08 3.38, 0.37 3.19, 0.59 2.54 C0.81 1.9, 0.73 0.45, 1.56 0.12 C2.39 -0.22, 4.95 0.4, 5.55 0.52 C6.15 0.65, 5.38 0.95, 5.17 0.86 M5.83 0.28 C6.7 0.27, 7.12 0.92, 7.42 1.27 C7.73 1.63, 8.11 1.82, 7.65 2.4 C7.19 2.98, 5.41 3.94, 4.67 4.76 C3.93 5.59, 3.86 7.05, 3.2 7.37 C2.54 7.7, 1.4 7.34, 0.71 6.72 C0.02 6.1, -0.75 4.37, -0.96 3.63 C-1.18 2.9, -1.13 3.15, -0.59 2.33 C-0.05 1.51, 1.19 -0.92, 2.26 -1.29 C3.33 -1.65, 5.41 -0.17, 5.85 0.13 C6.3 0.43, 4.97 0.38, 4.92 0.52" stroke="#000000" stroke-width="1" fill="none"></path></g><g stroke-linecap="round" transform="translate(111.5 586.4173804521561) rotate(0 3.5 3)"><path d="M3.74 0.46 C4.69 0.48, 6.28 0.54, 6.82 1.04 C7.37 1.54, 7.13 2.86, 7.02 3.45 C6.91 4.05, 6.69 4.06, 6.16 4.62 C5.62 5.18, 4.4 6.57, 3.81 6.83 C3.21 7.1, 3.18 6.68, 2.59 6.21 C2 5.73, 0.58 4.6, 0.25 3.99 C-0.08 3.38, 0.37 3.19, 0.59 2.54 C0.81 1.9, 0.73 0.45, 1.56 0.12 C2.39 -0.22, 4.95 0.4, 5.55 0.52 C6.15 0.65, 5.38 0.95, 5.17 0.86 M5.83 0.28 C6.7 0.27, 7.12 0.92, 7.42 1.27 C7.73 1.63, 8.11 1.82, 7.65 2.4 C7.19 2.98, 5.41 3.94, 4.67 4.76 C3.93 5.59, 3.86 7.05, 3.2 7.37 C2.54 7.7, 1.4 7.34, 0.71 6.72 C0.02 6.1, -0.75 4.37, -0.96 3.63 C-1.18 2.9, -1.13 3.15, -0.59 2.33 C-0.05 1.51, 1.19 -0.92, 2.26 -1.29 C3.33 -1.65, 5.41 -0.17, 5.85 0.13 C6.3 0.43, 4.97 0.38, 4.92 0.52" stroke="#000000" stroke-width="1" fill="none"></path></g><g stroke-linecap="round" transform="translate(111.5 607.4173804521561) rotate(0 3.5 3)"><path d="M3.74 0.46 C4.69 0.48, 6.28 0.54, 6.82 1.04 C7.37 1.54, 7.13 2.86, 7.02 3.45 C6.91 4.05, 6.69 4.06, 6.16 4.62 C5.62 5.18, 4.4 6.57, 3.81 6.83 C3.21 7.1, 3.18 6.68, 2.59 6.21 C2 5.73, 0.58 4.6, 0.25 3.99 C-0.08 3.38, 0.37 3.19, 0.59 2.54 C0.81 1.9, 0.73 0.45, 1.56 0.12 C2.39 -0.22, 4.95 0.4, 5.55 0.52 C6.15 0.65, 5.38 0.95, 5.17 0.86 M5.83 0.28 C6.7 0.27, 7.12 0.92, 7.42 1.27 C7.73 1.63, 8.11 1.82, 7.65 2.4 C7.19 2.98, 5.41 3.94, 4.67 4.76 C3.93 5.59, 3.86 7.05, 3.2 7.37 C2.54 7.7, 1.4 7.34, 0.71 6.72 C0.02 6.1, -0.75 4.37, -0.96 3.63 C-1.18 2.9, -1.13 3.15, -0.59 2.33 C-0.05 1.51, 1.19 -0.92, 2.26 -1.29 C3.33 -1.65, 5.41 -0.17, 5.85 0.13 C6.3 0.43, 4.97 0.38, 4.92 0.52" stroke="#000000" stroke-width="1" fill="none"></path></g><g stroke-linecap="round" transform="translate(382 139.41738045215607) rotate(0 59.5 15.5)"><path d="M0 0 C0 0, 0 0, 0 0 M0 0 C0 0, 0 0, 0 0 M0.45 7.17 C0.88 4.44, 1.37 3.56, 5.21 -0.07 M-0.25 6.68 C1.64 4.35, 3.51 2.78, 4.75 0.7 M1.62 10.83 C2.98 8.41, 6.12 5.27, 11.18 -1.22 M-0.05 11.52 C2.53 9.23, 4.25 7.16, 10.89 0.41 M1.19 18.68 C6.88 13.54, 11.33 5.4, 15.49 1.13 M0.84 18.76 C2.96 13.54, 7.72 10.08, 15.49 0.07 M-1.56 24.94 C6.88 20.77, 9.59 12.29, 19.48 -1.19 M-0.46 23.94 C4.29 18.53, 9.8 12.67, 20.62 -1.06 M1.85 29.33 C6.95 24.9, 10.64 15.13, 27.29 2.21 M0.47 31.21 C9.55 21.38, 18.36 10.55, 27.02 0.66 M1.45 34.46 C9.55 24.26, 20.43 12.77, 30.02 0.76 M2.28 33.94 C13.81 22.19, 22.82 8.57, 32.55 0.8 M6.02 35.24 C15.24 28.29, 21.24 20.51, 37.98 0.39 M7.18 34.37 C17.1 23.37, 25.14 12.23, 37.82 -0.35 M13.67 32.54 C25.63 20.55, 35.08 9.84, 41.23 -0.83 M13.01 32.2 C19.49 26.82, 25.12 18.72, 43.3 -0.11 M19.12 34.92 C24.74 27.56, 31.98 20.26, 45.63 1.02 M19.09 34.25 C27.86 21.47, 38.32 10.99, 46.92 -0.77 M25.67 31.22 C33.19 25.24, 38.24 15.88, 53.44 -0.63 M23.71 32.13 C29.66 25.52, 36.75 18.97, 53.16 0.04 M31.24 34.36 C38.91 22.5, 49.4 9.24, 59.35 -1.09 M28.69 33.88 C36.74 25.5, 42.91 17.68, 58.63 0.07 M34.28 35.68 C43.84 22.11, 54.21 11.23, 63.03 -0.82 M34.84 33.38 C43.53 23.42, 52.62 11.42, 63.18 0.05 M39.12 32.97 C48.4 23.39, 59.85 10.26, 69.25 0.35 M39.82 34.26 C48.47 24.25, 54.98 15.34, 69.47 0.39 M43.31 32.33 C54.4 20.14, 67.64 8.56, 76.38 -1.16 M45.04 32.82 C51.64 26.79, 58.7 19.21, 74.11 -1.22 M49.53 32.65 C61.01 19.61, 71.86 9.54, 80.5 1.08 M50.07 32.42 C60.98 20.67, 73.7 6.52, 79.19 0.9 M53.65 35.29 C67.29 21.99, 77.38 4.84, 83.93 -0.89 M56.23 34.13 C61.95 25.08, 69.45 16.15, 85.45 0.06 M61.28 31.76 C67.69 25.35, 74.33 14.94, 91.3 0.34 M61.74 32.4 C70.3 21.51, 81.08 11.68, 89.8 -0.15 M67.85 33.41 C74.72 22.75, 83.18 14.97, 94.13 -0.82 M65.22 33.72 C74.27 25.6, 81.39 16.22, 96.45 -0.21 M71.19 35.12 C80.1 25.13, 84.11 19.61, 98.88 -1.2 M70.88 34.26 C82.77 21.66, 92.44 8.3, 100.51 -0.01 M75.54 33.01 C84.6 23.82, 94.47 12.45, 107.48 -1.27 M76.04 34.53 C83.71 25.41, 91.28 15.48, 107.07 -1.17 M84.14 32.05 C88.14 24.49, 95.28 15.87, 109.48 0.62 M82.28 33.07 C91.69 22.47, 101.06 10.99, 110.79 -0.41 M87.32 31.86 C96.74 24.83, 105.75 13.39, 117.85 0.65 M86.97 33.03 C94.86 24.43, 103.21 16.81, 116.35 0.85 M95.02 34.3 C99.86 22.73, 107.42 14.45, 119.08 0.94 M92.44 33.92 C103.75 21.22, 114.3 8.41, 120.02 0.93 M96.88 33.22 C101.88 28.23, 107.75 19.63, 118.53 9.59 M97.52 34.19 C103.63 26.08, 110.31 19.34, 119.5 7.8 M102.76 34.11 C111.14 24.94, 119.22 16.51, 122.14 13.92 M104.63 32.92 C107.52 28.07, 113.15 22.22, 121.26 13.38 M107.07 31.98 C112.28 28.69, 113.23 27.35, 120.12 20.32 M109.35 34.38 C113.19 27.87, 117.79 23, 120.63 19.41 M113.32 33.65 C116.33 31.53, 117.9 29.18, 121.03 26.56 M114.07 32.65 C115.95 30.59, 117.85 29.17, 121.37 25.38" stroke="#868e96" stroke-width="0.5" fill="none"></path><path d="M-0.18 -0.91 C30.56 2.46, 62.26 -0.96, 118.7 1.47 M0.3 -0.08 C32.76 0.86, 65.19 -0.66, 119.12 -0.79 M118.2 0.47 C118.77 6.14, 119.16 13.78, 119.47 29.68 M119.94 -0.88 C119.65 11.44, 119.71 23.82, 118.68 30.27 M119.51 30.43 C71.93 28.89, 28.29 29.28, 1.65 30.5 M119.83 30.94 C77.76 31.09, 36.03 31.18, -0.57 31.92 M-1.41 29.37 C1.11 21.78, -0.36 14.38, 1.08 -0.14 M0.74 31.96 C0.99 20.45, -0.22 11.32, -0.21 -0.42" stroke="#000000" stroke-width="1" fill="none"></path></g><g transform="translate(515 143.41738045215607) rotate(0 98.03987884521484 12.5)"><text x="0" y="0" font-family="Virgil, Segoe UI Emoji" font-size="20px" fill="#000000" text-anchor="start" style="white-space: pre;" direction="ltr" dominant-baseline="text-before-edge">== free Byte space</text></g><g stroke-linecap="round" transform="translate(378.46012115478516 194.91738045215607) rotate(0 59.5 15.5)"><path d="M0 0 C0 0, 0 0, 0 0 M0 0 C0 0, 0 0, 0 0 M0.45 7.17 C0.88 4.44, 1.37 3.56, 5.21 -0.07 M-0.25 6.68 C1.64 4.35, 3.51 2.78, 4.75 0.7 M1.62 10.83 C2.98 8.41, 6.12 5.27, 11.18 -1.22 M-0.05 11.52 C2.53 9.23, 4.25 7.16, 10.89 0.41 M1.19 18.68 C6.88 13.54, 11.33 5.4, 15.49 1.13 M0.84 18.76 C2.96 13.54, 7.72 10.08, 15.49 0.07 M-1.56 24.94 C6.88 20.77, 9.59 12.29, 19.48 -1.19 M-0.46 23.94 C4.29 18.53, 9.8 12.67, 20.62 -1.06 M1.85 29.33 C6.95 24.9, 10.64 15.13, 27.29 2.21 M0.47 31.21 C9.55 21.38, 18.36 10.55, 27.02 0.66 M1.45 34.46 C9.55 24.26, 20.43 12.77, 30.02 0.76 M2.28 33.94 C13.81 22.19, 22.82 8.57, 32.55 0.8 M6.02 35.24 C15.24 28.29, 21.24 20.51, 37.98 0.39 M7.18 34.37 C17.1 23.37, 25.14 12.23, 37.82 -0.35 M13.67 32.54 C25.63 20.55, 35.08 9.84, 41.23 -0.83 M13.01 32.2 C19.49 26.82, 25.12 18.72, 43.3 -0.11 M19.12 34.92 C24.74 27.56, 31.98 20.26, 45.63 1.02 M19.09 34.25 C27.86 21.47, 38.32 10.99, 46.92 -0.77 M25.67 31.22 C33.19 25.24, 38.24 15.88, 53.44 -0.63 M23.71 32.13 C29.66 25.52, 36.75 18.97, 53.16 0.04 M31.24 34.36 C38.91 22.5, 49.4 9.24, 59.35 -1.09 M28.69 33.88 C36.74 25.5, 42.91 17.68, 58.63 0.07 M34.28 35.68 C43.84 22.11, 54.21 11.23, 63.03 -0.82 M34.84 33.38 C43.53 23.42, 52.62 11.42, 63.18 0.05 M39.12 32.97 C48.4 23.39, 59.85 10.26, 69.25 0.35 M39.82 34.26 C48.47 24.25, 54.98 15.34, 69.47 0.39 M43.31 32.33 C54.4 20.14, 67.64 8.56, 76.38 -1.16 M45.04 32.82 C51.64 26.79, 58.7 19.21, 74.11 -1.22 M49.53 32.65 C61.01 19.61, 71.86 9.54, 80.5 1.08 M50.07 32.42 C60.98 20.67, 73.7 6.52, 79.19 0.9 M53.65 35.29 C67.29 21.99, 77.38 4.84, 83.93 -0.89 M56.23 34.13 C61.95 25.08, 69.45 16.15, 85.45 0.06 M61.28 31.76 C67.69 25.35, 74.33 14.94, 91.3 0.34 M61.74 32.4 C70.3 21.51, 81.08 11.68, 89.8 -0.15 M67.85 33.41 C74.72 22.75, 83.18 14.97, 94.13 -0.82 M65.22 33.72 C74.27 25.6, 81.39 16.22, 96.45 -0.21 M71.19 35.12 C80.1 25.13, 84.11 19.61, 98.88 -1.2 M70.88 34.26 C82.77 21.66, 92.44 8.3, 100.51 -0.01 M75.54 33.01 C84.6 23.82, 94.47 12.45, 107.48 -1.27 M76.04 34.53 C83.71 25.41, 91.28 15.48, 107.07 -1.17 M84.14 32.05 C88.14 24.49, 95.28 15.87, 109.48 0.62 M82.28 33.07 C91.69 22.47, 101.06 10.99, 110.79 -0.41 M87.32 31.86 C96.74 24.83, 105.75 13.39, 117.85 0.65 M86.97 33.03 C94.86 24.43, 103.21 16.81, 116.35 0.85 M95.02 34.3 C99.86 22.73, 107.42 14.45, 119.08 0.94 M92.44 33.92 C103.75 21.22, 114.3 8.41, 120.02 0.93 M96.88 33.22 C101.88 28.23, 107.75 19.63, 118.53 9.59 M97.52 34.19 C103.63 26.08, 110.31 19.34, 119.5 7.8 M102.76 34.11 C111.14 24.94, 119.22 16.51, 122.14 13.92 M104.63 32.92 C107.52 28.07, 113.15 22.22, 121.26 13.38 M107.07 31.98 C112.28 28.69, 113.23 27.35, 120.12 20.32 M109.35 34.38 C113.19 27.87, 117.79 23, 120.63 19.41 M113.32 33.65 C116.33 31.53, 117.9 29.18, 121.03 26.56 M114.07 32.65 C115.95 30.59, 117.85 29.17, 121.37 25.38" stroke="#12b886" stroke-width="0.5" fill="none"></path><path d="M-0.18 -0.91 C30.56 2.46, 62.26 -0.96, 118.7 1.47 M0.3 -0.08 C32.76 0.86, 65.19 -0.66, 119.12 -0.79 M118.2 0.47 C118.77 6.14, 119.16 13.78, 119.47 29.68 M119.94 -0.88 C119.65 11.44, 119.71 23.82, 118.68 30.27 M119.51 30.43 C71.93 28.89, 28.29 29.28, 1.65 30.5 M119.83 30.94 C77.76 31.09, 36.03 31.18, -0.57 31.92 M-1.41 29.37 C1.11 21.78, -0.36 14.38, 1.08 -0.14 M0.74 31.96 C0.99 20.45, -0.22 11.32, -0.21 -0.42" stroke="#000000" stroke-width="1" fill="none"></path></g><g transform="translate(511.46012115478516 198.91738045215607) rotate(0 107.65987396240234 12.5)"><text x="0" y="0" font-family="Virgil, Segoe UI Emoji" font-size="20px" fill="#000000" text-anchor="start" style="white-space: pre;" direction="ltr" dominant-baseline="text-before-edge">== Taken Byte space</text></g></svg>