<svg version="1.1" xmlns="http://www.w3.org/2000/svg" viewBox="0 0 1023.9601440429688 533" width="1023.9601440429688" height="533">
  <!-- svg-source:excalidraw -->
  
  <defs>
    <style class="style-fonts">
      @font-face {
        font-family: "Virgil";
        src: url("https://file%2B.vscode-resource.vscode-cdn.net/home/kiarie404/.vscode/extensions/pomdtr.excalidraw-editor-3.5.1/public//dist/excalidraw-assets/Virgil.woff2");
      }
      @font-face {
        font-family: "Cascadia";
        src: url("https://file%2B.vscode-resource.vscode-cdn.net/home/kiarie404/.vscode/extensions/pomdtr.excalidraw-editor-3.5.1/public//dist/excalidraw-assets/Cascadia.woff2");
      }
    </style>
  </defs>
  <rect x="0" y="0" width="1023.9601440429688" height="533" fill="#ffffff"></rect><g stroke-linecap="round" transform="translate(10 14) rotate(0 99 140.5)"><path d="M0.26 -2.51 C46.36 6.07, 87.81 4.97, 195.31 -1.7 M1.58 -1.95 C48.11 2.4, 94.29 0.47, 196.45 -1.38 M198.21 -0.79 C199.43 65.08, 201.65 123.8, 200.2 281.13 M197.17 -0.97 C197.04 106.33, 197.03 213.81, 197.25 281.84 M198.94 283.42 C131.25 282.01, 71.46 278.35, 3.57 282.41 M197.64 281.82 C135.84 279.31, 72.54 277.88, -1.63 281.23 M-0.14 278.12 C1.39 173.76, 3.8 63.63, -2.43 1.78 M1.1 282.33 C-4.64 204.5, -4.55 129.79, 0.67 -0.9" stroke="#000000" stroke-width="1" fill="none"></path></g><g transform="translate(30 32) rotate(0 37.99995422363281 12.5)"><text x="0" y="0" font-family="Virgil, Segoe UI Emoji" font-size="20px" fill="#000000" text-anchor="start" style="white-space: pre;" direction="ltr" dominant-baseline="text-before-edge">.Elf File</text></g><g transform="translate(28 80) rotate(0 85.72818756103516 10)"><text x="0" y="0" font-family="Virgil, Segoe UI Emoji" font-size="16px" fill="#000000" text-anchor="start" style="white-space: pre;" direction="ltr" dominant-baseline="text-before-edge">0x200 : text section</text></g><g transform="translate(25.271812438964844 113) rotate(0 80.32017517089844 10)"><text x="0" y="0" font-family="Virgil, Segoe UI Emoji" font-size="16px" fill="#000000" text-anchor="start" style="white-space: pre;" direction="ltr" dominant-baseline="text-before-edge">0x300 : bss section</text></g><g stroke-linecap="round" transform="translate(86 146) rotate(0 4 3.5)"><path d="M8 3.5 C8 3.7, 7.98 3.91, 7.94 4.11 C7.9 4.31, 7.84 4.51, 7.76 4.7 C7.68 4.89, 7.58 5.07, 7.46 5.25 C7.35 5.43, 7.21 5.59, 7.06 5.75 C6.92 5.9, 6.75 6.05, 6.57 6.18 C6.39 6.31, 6.2 6.43, 6 6.53 C5.8 6.63, 5.59 6.72, 5.37 6.79 C5.15 6.86, 4.92 6.91, 4.69 6.95 C4.47 6.98, 4.23 7, 4 7 C3.77 7, 3.53 6.98, 3.31 6.95 C3.08 6.91, 2.85 6.86, 2.63 6.79 C2.41 6.72, 2.2 6.63, 2 6.53 C1.8 6.43, 1.61 6.31, 1.43 6.18 C1.25 6.05, 1.08 5.9, 0.94 5.75 C0.79 5.59, 0.65 5.43, 0.54 5.25 C0.42 5.07, 0.32 4.89, 0.24 4.7 C0.16 4.51, 0.1 4.31, 0.06 4.11 C0.02 3.91, 0 3.7, 0 3.5 C0 3.3, 0.02 3.09, 0.06 2.89 C0.1 2.69, 0.16 2.49, 0.24 2.3 C0.32 2.11, 0.42 1.93, 0.54 1.75 C0.65 1.57, 0.79 1.41, 0.94 1.25 C1.08 1.1, 1.25 0.95, 1.43 0.82 C1.61 0.69, 1.8 0.57, 2 0.47 C2.2 0.37, 2.41 0.28, 2.63 0.21 C2.85 0.14, 3.08 0.09, 3.31 0.05 C3.53 0.02, 3.77 0, 4 0 C4.23 0, 4.47 0.02, 4.69 0.05 C4.92 0.09, 5.15 0.14, 5.37 0.21 C5.59 0.28, 5.8 0.37, 6 0.47 C6.2 0.57, 6.39 0.69, 6.57 0.82 C6.75 0.95, 6.92 1.1, 7.06 1.25 C7.21 1.41, 7.35 1.57, 7.46 1.75 C7.58 1.93, 7.68 2.11, 7.76 2.3 C7.84 2.49, 7.9 2.69, 7.94 2.89 C7.98 3.09, 7.99 3.4, 8 3.5 C8.01 3.6, 8.01 3.4, 8 3.5" stroke="none" stroke-width="0" fill="#868e96"></path><path d="M8 3.5 C8 3.7, 7.98 3.91, 7.94 4.11 C7.9 4.31, 7.84 4.51, 7.76 4.7 C7.68 4.89, 7.58 5.07, 7.46 5.25 C7.35 5.43, 7.21 5.59, 7.06 5.75 C6.92 5.9, 6.75 6.05, 6.57 6.18 C6.39 6.31, 6.2 6.43, 6 6.53 C5.8 6.63, 5.59 6.72, 5.37 6.79 C5.15 6.86, 4.92 6.91, 4.69 6.95 C4.47 6.98, 4.23 7, 4 7 C3.77 7, 3.53 6.98, 3.31 6.95 C3.08 6.91, 2.85 6.86, 2.63 6.79 C2.41 6.72, 2.2 6.63, 2 6.53 C1.8 6.43, 1.61 6.31, 1.43 6.18 C1.25 6.05, 1.08 5.9, 0.94 5.75 C0.79 5.59, 0.65 5.43, 0.54 5.25 C0.42 5.07, 0.32 4.89, 0.24 4.7 C0.16 4.51, 0.1 4.31, 0.06 4.11 C0.02 3.91, 0 3.7, 0 3.5 C0 3.3, 0.02 3.09, 0.06 2.89 C0.1 2.69, 0.16 2.49, 0.24 2.3 C0.32 2.11, 0.42 1.93, 0.54 1.75 C0.65 1.57, 0.79 1.41, 0.94 1.25 C1.08 1.1, 1.25 0.95, 1.43 0.82 C1.61 0.69, 1.8 0.57, 2 0.47 C2.2 0.37, 2.41 0.28, 2.63 0.21 C2.85 0.14, 3.08 0.09, 3.31 0.05 C3.53 0.02, 3.77 0, 4 0 C4.23 0, 4.47 0.02, 4.69 0.05 C4.92 0.09, 5.15 0.14, 5.37 0.21 C5.59 0.28, 5.8 0.37, 6 0.47 C6.2 0.57, 6.39 0.69, 6.57 0.82 C6.75 0.95, 6.92 1.1, 7.06 1.25 C7.21 1.41, 7.35 1.57, 7.46 1.75 C7.58 1.93, 7.68 2.11, 7.76 2.3 C7.84 2.49, 7.9 2.69, 7.94 2.89 C7.98 3.09, 7.99 3.4, 8 3.5 C8.01 3.6, 8.01 3.4, 8 3.5" stroke="#000000" stroke-width="1" fill="none"></path></g><g stroke-linecap="round" transform="translate(88 180.5) rotate(0 4 3.5)"><path d="M8 3.5 C8 3.7, 7.98 3.91, 7.94 4.11 C7.9 4.31, 7.84 4.51, 7.76 4.7 C7.68 4.89, 7.58 5.07, 7.46 5.25 C7.35 5.43, 7.21 5.59, 7.06 5.75 C6.92 5.9, 6.75 6.05, 6.57 6.18 C6.39 6.31, 6.2 6.43, 6 6.53 C5.8 6.63, 5.59 6.72, 5.37 6.79 C5.15 6.86, 4.92 6.91, 4.69 6.95 C4.47 6.98, 4.23 7, 4 7 C3.77 7, 3.53 6.98, 3.31 6.95 C3.08 6.91, 2.85 6.86, 2.63 6.79 C2.41 6.72, 2.2 6.63, 2 6.53 C1.8 6.43, 1.61 6.31, 1.43 6.18 C1.25 6.05, 1.08 5.9, 0.94 5.75 C0.79 5.59, 0.65 5.43, 0.54 5.25 C0.42 5.07, 0.32 4.89, 0.24 4.7 C0.16 4.51, 0.1 4.31, 0.06 4.11 C0.02 3.91, 0 3.7, 0 3.5 C0 3.3, 0.02 3.09, 0.06 2.89 C0.1 2.69, 0.16 2.49, 0.24 2.3 C0.32 2.11, 0.42 1.93, 0.54 1.75 C0.65 1.57, 0.79 1.41, 0.94 1.25 C1.08 1.1, 1.25 0.95, 1.43 0.82 C1.61 0.69, 1.8 0.57, 2 0.47 C2.2 0.37, 2.41 0.28, 2.63 0.21 C2.85 0.14, 3.08 0.09, 3.31 0.05 C3.53 0.02, 3.77 0, 4 0 C4.23 0, 4.47 0.02, 4.69 0.05 C4.92 0.09, 5.15 0.14, 5.37 0.21 C5.59 0.28, 5.8 0.37, 6 0.47 C6.2 0.57, 6.39 0.69, 6.57 0.82 C6.75 0.95, 6.92 1.1, 7.06 1.25 C7.21 1.41, 7.35 1.57, 7.46 1.75 C7.58 1.93, 7.68 2.11, 7.76 2.3 C7.84 2.49, 7.9 2.69, 7.94 2.89 C7.98 3.09, 7.99 3.4, 8 3.5 C8.01 3.6, 8.01 3.4, 8 3.5" stroke="none" stroke-width="0" fill="#868e96"></path><path d="M8 3.5 C8 3.7, 7.98 3.91, 7.94 4.11 C7.9 4.31, 7.84 4.51, 7.76 4.7 C7.68 4.89, 7.58 5.07, 7.46 5.25 C7.35 5.43, 7.21 5.59, 7.06 5.75 C6.92 5.9, 6.75 6.05, 6.57 6.18 C6.39 6.31, 6.2 6.43, 6 6.53 C5.8 6.63, 5.59 6.72, 5.37 6.79 C5.15 6.86, 4.92 6.91, 4.69 6.95 C4.47 6.98, 4.23 7, 4 7 C3.77 7, 3.53 6.98, 3.31 6.95 C3.08 6.91, 2.85 6.86, 2.63 6.79 C2.41 6.72, 2.2 6.63, 2 6.53 C1.8 6.43, 1.61 6.31, 1.43 6.18 C1.25 6.05, 1.08 5.9, 0.94 5.75 C0.79 5.59, 0.65 5.43, 0.54 5.25 C0.42 5.07, 0.32 4.89, 0.24 4.7 C0.16 4.51, 0.1 4.31, 0.06 4.11 C0.02 3.91, 0 3.7, 0 3.5 C0 3.3, 0.02 3.09, 0.06 2.89 C0.1 2.69, 0.16 2.49, 0.24 2.3 C0.32 2.11, 0.42 1.93, 0.54 1.75 C0.65 1.57, 0.79 1.41, 0.94 1.25 C1.08 1.1, 1.25 0.95, 1.43 0.82 C1.61 0.69, 1.8 0.57, 2 0.47 C2.2 0.37, 2.41 0.28, 2.63 0.21 C2.85 0.14, 3.08 0.09, 3.31 0.05 C3.53 0.02, 3.77 0, 4 0 C4.23 0, 4.47 0.02, 4.69 0.05 C4.92 0.09, 5.15 0.14, 5.37 0.21 C5.59 0.28, 5.8 0.37, 6 0.47 C6.2 0.57, 6.39 0.69, 6.57 0.82 C6.75 0.95, 6.92 1.1, 7.06 1.25 C7.21 1.41, 7.35 1.57, 7.46 1.75 C7.58 1.93, 7.68 2.11, 7.76 2.3 C7.84 2.49, 7.9 2.69, 7.94 2.89 C7.98 3.09, 7.99 3.4, 8 3.5 C8.01 3.6, 8.01 3.4, 8 3.5" stroke="#000000" stroke-width="1" fill="none"></path></g><g stroke-linecap="round" transform="translate(87 163.5) rotate(0 4 3.5)"><path d="M8 3.5 C8 3.7, 7.98 3.91, 7.94 4.11 C7.9 4.31, 7.84 4.51, 7.76 4.7 C7.68 4.89, 7.58 5.07, 7.46 5.25 C7.35 5.43, 7.21 5.59, 7.06 5.75 C6.92 5.9, 6.75 6.05, 6.57 6.18 C6.39 6.31, 6.2 6.43, 6 6.53 C5.8 6.63, 5.59 6.72, 5.37 6.79 C5.15 6.86, 4.92 6.91, 4.69 6.95 C4.47 6.98, 4.23 7, 4 7 C3.77 7, 3.53 6.98, 3.31 6.95 C3.08 6.91, 2.85 6.86, 2.63 6.79 C2.41 6.72, 2.2 6.63, 2 6.53 C1.8 6.43, 1.61 6.31, 1.43 6.18 C1.25 6.05, 1.08 5.9, 0.94 5.75 C0.79 5.59, 0.65 5.43, 0.54 5.25 C0.42 5.07, 0.32 4.89, 0.24 4.7 C0.16 4.51, 0.1 4.31, 0.06 4.11 C0.02 3.91, 0 3.7, 0 3.5 C0 3.3, 0.02 3.09, 0.06 2.89 C0.1 2.69, 0.16 2.49, 0.24 2.3 C0.32 2.11, 0.42 1.93, 0.54 1.75 C0.65 1.57, 0.79 1.41, 0.94 1.25 C1.08 1.1, 1.25 0.95, 1.43 0.82 C1.61 0.69, 1.8 0.57, 2 0.47 C2.2 0.37, 2.41 0.28, 2.63 0.21 C2.85 0.14, 3.08 0.09, 3.31 0.05 C3.53 0.02, 3.77 0, 4 0 C4.23 0, 4.47 0.02, 4.69 0.05 C4.92 0.09, 5.15 0.14, 5.37 0.21 C5.59 0.28, 5.8 0.37, 6 0.47 C6.2 0.57, 6.39 0.69, 6.57 0.82 C6.75 0.95, 6.92 1.1, 7.06 1.25 C7.21 1.41, 7.35 1.57, 7.46 1.75 C7.58 1.93, 7.68 2.11, 7.76 2.3 C7.84 2.49, 7.9 2.69, 7.94 2.89 C7.98 3.09, 7.99 3.4, 8 3.5 C8.01 3.6, 8.01 3.4, 8 3.5" stroke="none" stroke-width="0" fill="#868e96"></path><path d="M8 3.5 C8 3.7, 7.98 3.91, 7.94 4.11 C7.9 4.31, 7.84 4.51, 7.76 4.7 C7.68 4.89, 7.58 5.07, 7.46 5.25 C7.35 5.43, 7.21 5.59, 7.06 5.75 C6.92 5.9, 6.75 6.05, 6.57 6.18 C6.39 6.31, 6.2 6.43, 6 6.53 C5.8 6.63, 5.59 6.72, 5.37 6.79 C5.15 6.86, 4.92 6.91, 4.69 6.95 C4.47 6.98, 4.23 7, 4 7 C3.77 7, 3.53 6.98, 3.31 6.95 C3.08 6.91, 2.85 6.86, 2.63 6.79 C2.41 6.72, 2.2 6.63, 2 6.53 C1.8 6.43, 1.61 6.31, 1.43 6.18 C1.25 6.05, 1.08 5.9, 0.94 5.75 C0.79 5.59, 0.65 5.43, 0.54 5.25 C0.42 5.07, 0.32 4.89, 0.24 4.7 C0.16 4.51, 0.1 4.31, 0.06 4.11 C0.02 3.91, 0 3.7, 0 3.5 C0 3.3, 0.02 3.09, 0.06 2.89 C0.1 2.69, 0.16 2.49, 0.24 2.3 C0.32 2.11, 0.42 1.93, 0.54 1.75 C0.65 1.57, 0.79 1.41, 0.94 1.25 C1.08 1.1, 1.25 0.95, 1.43 0.82 C1.61 0.69, 1.8 0.57, 2 0.47 C2.2 0.37, 2.41 0.28, 2.63 0.21 C2.85 0.14, 3.08 0.09, 3.31 0.05 C3.53 0.02, 3.77 0, 4 0 C4.23 0, 4.47 0.02, 4.69 0.05 C4.92 0.09, 5.15 0.14, 5.37 0.21 C5.59 0.28, 5.8 0.37, 6 0.47 C6.2 0.57, 6.39 0.69, 6.57 0.82 C6.75 0.95, 6.92 1.1, 7.06 1.25 C7.21 1.41, 7.35 1.57, 7.46 1.75 C7.58 1.93, 7.68 2.11, 7.76 2.3 C7.84 2.49, 7.9 2.69, 7.94 2.89 C7.98 3.09, 7.99 3.4, 8 3.5 C8.01 3.6, 8.01 3.4, 8 3.5" stroke="#000000" stroke-width="1" fill="none"></path></g><g transform="translate(28.679824829101562 231) rotate(0 85.84818267822266 10)"><text x="0" y="0" font-family="Virgil, Segoe UI Emoji" font-size="16px" fill="#000000" text-anchor="start" style="white-space: pre;" direction="ltr" dominant-baseline="text-before-edge">0x800 : heap section</text></g><g mask="url(#mask-dsvkz-1nVWAD_wAdS565I)" stroke-linecap="round"><g transform="translate(217 88) rotate(0 158 0.5)"><path d="M0 0 C120.6 0.38, 241.2 0.76, 316 1 M0 0 C98.6 0.31, 197.2 0.62, 316 1" stroke="#000000" stroke-width="1" fill="none"></path></g><g transform="translate(217 88) rotate(0 158 0.5)"><path d="M28.22 -10.17 C17.45 -6.29, 6.68 -2.41, 0 0 M28.22 -10.17 C19.42 -7, 10.61 -3.82, 0 0" stroke="#000000" stroke-width="1" fill="none"></path></g><g transform="translate(217 88) rotate(0 158 0.5)"><path d="M28.16 10.35 C17.41 6.4, 6.67 2.45, 0 0 M28.16 10.35 C19.37 7.12, 10.59 3.89, 0 0" stroke="#000000" stroke-width="1" fill="none"></path></g><g transform="translate(217 88) rotate(0 158 0.5)"><path d="M287.78 11.17 C298.55 7.29, 309.32 3.41, 316 1 M287.78 11.17 C296.58 8, 305.39 4.82, 316 1" stroke="#000000" stroke-width="1" fill="none"></path></g><g transform="translate(217 88) rotate(0 158 0.5)"><path d="M287.84 -9.35 C298.59 -5.4, 309.33 -1.45, 316 1 M287.84 -9.35 C296.63 -6.12, 305.41 -2.89, 316 1" stroke="#000000" stroke-width="1" fill="none"></path></g></g><mask id="mask-dsvkz-1nVWAD_wAdS565I"><rect x="0" y="0" fill="#fff" width="633" height="189"></rect><rect x="291.77581787109375" y="48.5" fill="#000" width="166.4483642578125" height="80" opacity="1"></rect></mask><g transform="translate(291.77581787109375 48.5) rotate(0 83.22418212890625 40)"><text x="83.22418212890625" y="0" font-family="Virgil, Segoe UI Emoji" font-size="16px" fill="#000000" text-anchor="middle" style="white-space: pre;" direction="ltr" dominant-baseline="text-before-edge">CPU treats</text><text x="83.22418212890625" y="20" font-family="Virgil, Segoe UI Emoji" font-size="16px" fill="#000000" text-anchor="middle" style="white-space: pre;" direction="ltr" dominant-baseline="text-before-edge">the elf addresses</text><text x="83.22418212890625" y="40" font-family="Virgil, Segoe UI Emoji" font-size="16px" fill="#000000" text-anchor="middle" style="white-space: pre;" direction="ltr" dominant-baseline="text-before-edge">as virtual addresses</text><text x="83.22418212890625" y="60" font-family="Virgil, Segoe UI Emoji" font-size="16px" fill="#000000" text-anchor="middle" style="white-space: pre;" direction="ltr" dominant-baseline="text-before-edge"></text></g><g transform="translate(19 320.5) rotate(0 166.43978881835938 25)"><text x="0" y="0" font-family="Virgil, Segoe UI Emoji" font-size="20px" fill="#000000" text-anchor="start" style="white-space: pre;" direction="ltr" dominant-baseline="text-before-edge">Elf file in memory(RAM)...</text><text x="0" y="25" font-family="Virgil, Segoe UI Emoji" font-size="20px" fill="#000000" text-anchor="start" style="white-space: pre;" direction="ltr" dominant-baseline="text-before-edge">This is a fancy name for Process</text></g><g stroke-linecap="round" transform="translate(552 10) rotate(0 112.5 82.5)"><path d="M-0.72 -0.87 C63.92 4.45, 121.51 0.77, 221.8 2.86 M-0.66 0.03 C87.7 0.6, 177.89 -0.77, 224.43 -0.26 M222.49 0.5 C222.12 65.58, 224.7 127.45, 221.78 165.71 M223.33 -1.29 C224.36 51.79, 223.65 98.01, 223.93 163.68 M226.31 165.31 C137.32 164.66, 49.99 161.98, -2.54 165.9 M224.64 163.83 C144.48 165.22, 61.27 164.79, -0.49 166.2 M-1.48 163.02 C2.84 108.79, 3.81 54.05, -0.37 0.2 M-0.03 164.54 C3.07 102.16, 3.61 42.06, 0.74 0.79" stroke="#000000" stroke-width="4" fill="none"></path></g><g transform="translate(607 81) rotate(0 21.11328125 11.5)"><text x="0" y="0" font-family="Helvetica, Segoe UI Emoji" font-size="20px" fill="#000000" text-anchor="start" style="white-space: pre;" direction="ltr" dominant-baseline="text-before-edge">CPU</text></g><g stroke-linecap="round" transform="translate(541 361) rotate(0 121.5 31.5)"><path d="M0.79 -0.27 C89.55 1.82, 177.46 2.54, 243.81 2.52 M-0.46 -1.24 C87.56 2.07, 173.75 3.2, 243.37 -0.33 M241.02 2.14 C242.5 16.47, 239.42 31.45, 243.34 60.23 M244.18 -1.63 C243.44 15.61, 243.47 34.98, 244.54 63.73 M245.79 64.71 C175.99 65.3, 111.44 60.34, -2.61 63.42 M242.23 63.4 C158.01 61.24, 74.68 60.93, 0.66 63.26 M3.32 59.56 C-0.22 42.79, -1.9 30.21, 2.71 0.34 M-1.95 64.15 C0.82 43.53, 0.63 28.39, 1.58 -1.92" stroke="#000000" stroke-width="1" fill="none"></path></g><g mask="url(#mask-ilemazEvGZhAY6BQL8vz9)" stroke-linecap="round"><g transform="translate(611 176) rotate(0 -12.97513512582168 90.13614666089416)"><path d="M0.96 -1.54 C-0.48 16.36, -7.8 35.03, -22.67 85.93 M-0.78 1.14 C-7.68 30.58, -17.77 59.58, -23.77 84.48 M-20.95 82.77 C-24.89 121.07, -28.5 158.58, -26.18 180.73 M-23.1 84.61 C-20.32 119.79, -22.87 156.13, -25.52 181.81" stroke="#000000" stroke-width="1" fill="none"></path></g><g transform="translate(611 176) rotate(0 -12.97513512582168 90.13614666089416)"><path d="M-32.36 151.3 C-27.59 157.44, -28.54 164.55, -26.19 184.74 M-34.1 153.98 C-30.2 163.78, -29.76 173.67, -27.3 183.29" stroke="#000000" stroke-width="1" fill="none"></path></g><g transform="translate(611 176) rotate(0 -12.97513512582168 90.13614666089416)"><path d="M-11.91 153.07 C-11.53 158.97, -16.85 165.71, -26.19 184.74 M-13.65 155.75 C-16.98 165.28, -23.77 174.55, -27.3 183.29" stroke="#000000" stroke-width="1" fill="none"></path></g></g><mask id="mask-ilemazEvGZhAY6BQL8vz9"><rect x="0" y="0" fill="#fff" width="736.8071466168537" height="456"></rect><rect x="543.5119094848633" y="239" fill="#000" width="90.97618103027344" height="40" opacity="1"></rect></mask><g transform="translate(543.5119094848633 239) rotate(0 54.51295538931504 27.136146660894156)"><text x="45.48809051513672" y="0" font-family="Virgil, Segoe UI Emoji" font-size="16px" fill="#000000" text-anchor="middle" style="white-space: pre;" direction="ltr" dominant-baseline="text-before-edge">CPU seeks </text><text x="45.48809051513672" y="20" font-family="Virgil, Segoe UI Emoji" font-size="16px" fill="#000000" text-anchor="middle" style="white-space: pre;" direction="ltr" dominant-baseline="text-before-edge">translation</text></g><g transform="translate(638 374) rotate(0 22.459983825683594 12.5)"><text x="0" y="0" font-family="Virgil, Segoe UI Emoji" font-size="20px" fill="#000000" text-anchor="start" style="white-space: pre;" direction="ltr" dominant-baseline="text-before-edge">MMU</text></g><g mask="url(#mask-lNJYg10J7MOwrbpVz_Go-)" stroke-linecap="round"><g transform="translate(762 352) rotate(0 -3.150358684360981 -87.64835536852479)"><path d="M3.43 -1.06 C-0.02 -34.25, 8.75 -73.85, 9.48 -101.6 M-1.45 -1.13 C2.1 -25.82, 4.01 -56.56, 11.35 -101.7 M7.08 -106.67 C1.7 -127.95, -3.46 -144.82, -17.34 -172.91 M8.65 -103.94 C1.86 -128.45, -10.42 -158.01, -17.65 -174.23" stroke="#000000" stroke-width="1" fill="none"></path></g><g transform="translate(762 352) rotate(0 -3.150358684360981 -87.64835536852479)"><path d="M6.31 -153.42 C-7.33 -158.63, -8.96 -170.58, -18.17 -172.83 M1.44 -153.49 C-1.54 -156.67, -7.77 -165.79, -16.3 -172.93" stroke="#000000" stroke-width="1" fill="none"></path></g><g transform="translate(762 352) rotate(0 -3.150358684360981 -87.64835536852479)"><path d="M-12.55 -145.34 C-19.78 -153.51, -14.99 -168.21, -18.17 -172.83 M-17.43 -145.41 C-15.54 -150.68, -16.74 -161.94, -16.3 -172.93" stroke="#000000" stroke-width="1" fill="none"></path></g></g><mask id="mask-lNJYg10J7MOwrbpVz_Go-"><rect x="0" y="0" fill="#fff" width="889" height="628"></rect><rect x="694.3598251342773" y="219" fill="#000" width="155.2803497314453" height="60" opacity="1"></rect></mask><g transform="translate(694.3598251342773 219) rotate(0 64.48981618136168 45.35164463147521)"><text x="77.64017486572266" y="0" font-family="Virgil, Segoe UI Emoji" font-size="16px" fill="#000000" text-anchor="middle" style="white-space: pre;" direction="ltr" dominant-baseline="text-before-edge">Throws error/trap</text><text x="77.64017486572266" y="20" font-family="Virgil, Segoe UI Emoji" font-size="16px" fill="#000000" text-anchor="middle" style="white-space: pre;" direction="ltr" dominant-baseline="text-before-edge">OR</text><text x="77.64017486572266" y="40" font-family="Virgil, Segoe UI Emoji" font-size="16px" fill="#000000" text-anchor="middle" style="white-space: pre;" direction="ltr" dominant-baseline="text-before-edge">Returns translation</text></g><g stroke-linecap="round" transform="translate(538 443) rotate(0 123.5 40)"><path d="M2.99 -2.48 C84.35 -1.41, 166.01 -1.01, 248.08 -1.79 M0.32 0.86 C91.91 -3.28, 183.26 -3.58, 245.79 0.88 M247.47 1.13 C251.08 23.33, 246.5 49.41, 243.63 79.98 M247.55 1.29 C249.38 20.42, 248.65 37.41, 247.16 78.3 M249.04 77.09 C189.6 77.34, 129.4 74.32, 1.59 83.01 M246.64 79.84 C182.29 82.99, 122.25 84.89, 0.61 78.92 M0.46 79.41 C-3.36 52.72, -1.57 19.04, -3.61 0.69 M1.39 79.09 C-1.42 64.02, -0.07 45.23, 0.67 0.41" stroke="#000000" stroke-width="1" fill="none"></path></g><g transform="translate(551 468) rotate(0 95.00021362304688 20)"><text x="0" y="0" font-family="Virgil, Segoe UI Emoji" font-size="16px" fill="#000000" text-anchor="start" style="white-space: pre;" direction="ltr" dominant-baseline="text-before-edge">Translation Table for </text><text x="0" y="20" font-family="Virgil, Segoe UI Emoji" font-size="16px" fill="#000000" text-anchor="start" style="white-space: pre;" direction="ltr" dominant-baseline="text-before-edge">that particular Process</text></g><g stroke-linecap="round"><g transform="translate(777 105) rotate(0 6.612297272123442 2.616817723587161)"><path d="M1.3 0.46 C4.1 0.12, 5.82 1.62, 14.14 3.63 M-0.92 0.18 C3.53 1.4, 7.27 2.49, 11.65 5.06" stroke="#000000" stroke-width="1" fill="none"></path></g><g transform="translate(777 105) rotate(0 6.612297272123442 2.616817723587161)"><path d="M8.39 -0.16 C5.69 -0.9, 2.47 -0.7, 2.37 -0.23 M7.28 -0.3 C5.06 -0.09, 2.46 -0.14, 1.12 0.49" stroke="#000000" stroke-width="1" fill="none"></path></g><g transform="translate(777 105) rotate(0 6.612297272123442 2.616817723587161)"><path d="M7.43 4.18 C5 2.02, 2.09 0.8, 2.37 -0.23 M6.32 4.04 C4.53 2.68, 2.27 1.07, 1.12 0.49" stroke="#000000" stroke-width="1" fill="none"></path></g><g transform="translate(777 105) rotate(0 6.612297272123442 2.616817723587161)"><path d="M5.85 4.48 C7.38 3.76, 8.39 3.95, 12.72 4.37 M4.74 4.34 C7.16 4.34, 9.19 4.27, 11.48 5.09" stroke="#000000" stroke-width="1" fill="none"></path></g><g transform="translate(777 105) rotate(0 6.612297272123442 2.616817723587161)"><path d="M7.88 0.52 C8.79 1.09, 9.13 2.58, 12.72 4.37 M6.77 0.38 C8.39 1.83, 9.69 3.19, 11.48 5.09" stroke="#000000" stroke-width="1" fill="none"></path></g></g><mask></mask><g mask="url(#mask-0oZA5WbyU_SVXOdz0hsJB)" stroke-linecap="round"><g transform="translate(781 147) rotate(0 80.95397908242512 -54.93701981455088)"><path d="M-2.57 1.44 C24.94 -9.28, 163.59 -48.21, 164.48 -67.01 C165.37 -85.8, 29.72 -103.62, 2.77 -111.31 M1.23 -0.25 C28.65 -10.34, 163.56 -45.9, 163.58 -63.92 C163.61 -81.94, 28.01 -100.4, 1.37 -108.37" stroke="#d9480f" stroke-width="1" fill="none"></path></g><g transform="translate(781 147) rotate(0 80.95397908242512 -54.93701981455088)"><path d="M33.12 -109.15 C21.3 -110.94, 14.04 -109.76, -1.74 -108.55 M30.57 -112.06 C21.15 -112.25, 13.86 -108.73, 0.11 -108.3" stroke="#d9480f" stroke-width="1" fill="none"></path></g><g transform="translate(781 147) rotate(0 80.95397908242512 -54.93701981455088)"><path d="M28.95 -89.06 C18.67 -96.35, 12.57 -100.75, -1.74 -108.55 M26.4 -91.96 C17.98 -98.22, 11.94 -100.69, 0.11 -108.3" stroke="#d9480f" stroke-width="1" fill="none"></path></g></g><mask id="mask-0oZA5WbyU_SVXOdz0hsJB"><rect x="0" y="0" fill="#fff" width="1043" height="358"></rect><rect x="872.0398559570312" y="41" fill="#000" width="141.9202880859375" height="80" opacity="1"></rect></mask><g transform="translate(872.0398559570312 41) rotate(0 -10.085876874606129 51.06298018544912)"><text x="70.96014404296875" y="0" font-family="Virgil, Segoe UI Emoji" font-size="16px" fill="#d9480f" text-anchor="middle" style="white-space: pre;" direction="ltr" dominant-baseline="text-before-edge">CPU uses physical</text><text x="70.96014404296875" y="20" font-family="Virgil, Segoe UI Emoji" font-size="16px" fill="#d9480f" text-anchor="middle" style="white-space: pre;" direction="ltr" dominant-baseline="text-before-edge">addresses in its</text><text x="70.96014404296875" y="40" font-family="Virgil, Segoe UI Emoji" font-size="16px" fill="#d9480f" text-anchor="middle" style="white-space: pre;" direction="ltr" dominant-baseline="text-before-edge">registers</text><text x="70.96014404296875" y="60" font-family="Virgil, Segoe UI Emoji" font-size="16px" fill="#d9480f" text-anchor="middle" style="white-space: pre;" direction="ltr" dominant-baseline="text-before-edge"></text></g></svg>