<svg version="1.1" xmlns="http://www.w3.org/2000/svg" viewBox="0 0 764.4866388533228 346" width="764.4866388533228" height="346">
  <!-- svg-source:excalidraw -->
  
  <defs>
    <style class="style-fonts">
      @font-face {
        font-family: "Virgil";
        src: url("https://file%2B.vscode-resource.vscode-cdn.net/home/kiarie404/.vscode/extensions/pomdtr.excalidraw-editor-3.5.1/public//dist/excalidraw-assets/Virgil.woff2");
      }
      @font-face {
        font-family: "Cascadia";
        src: url("https://file%2B.vscode-resource.vscode-cdn.net/home/kiarie404/.vscode/extensions/pomdtr.excalidraw-editor-3.5.1/public//dist/excalidraw-assets/Cascadia.woff2");
      }
    </style>
  </defs>
  <rect x="0" y="0" width="764.4866388533228" height="346" fill="#ffffff"></rect><g stroke-linecap="round" transform="translate(12.5 11) rotate(0 55.5 24)"><path d="M0 0 C0 0, 0 0, 0 0 M0 0 C0 0, 0 0, 0 0 M0.21 6.18 C1.15 5.59, 1.92 3.34, 5.75 0.42 M-0.3 6.41 C0.65 5.26, 1.99 3.77, 4.59 0.34 M-1.2 11.75 C4.6 9.84, 6.2 7.08, 9.58 1.56 M-0.41 12.4 C2.8 8.09, 5.99 4.15, 11.38 -0.7 M-0.89 18.92 C3.04 14.02, 8.7 7.06, 16.62 -1.1 M-1 17.83 C3.41 13.59, 7.36 11.13, 15.65 -0.48 M2.06 22.93 C5.96 14.52, 15.25 7.53, 20.13 0 M-0.65 24.19 C7.1 16.57, 13.09 9.23, 20.67 -0.33 M-1.83 31.73 C11.03 19.28, 18.94 8.96, 28.21 -0.79 M0.95 30.87 C8.26 20.67, 15.4 12.51, 26.73 -0.01 M0.94 36.36 C12.23 22.05, 23.99 8.51, 29.9 1.4 M0.08 36.57 C12.18 23.53, 23.49 10.69, 32.73 0.25 M-1.11 40.77 C9.66 34.61, 15.19 26.15, 35.97 -0.03 M0.61 42.92 C8.54 33.35, 15.5 24.45, 36.87 0.83 M0.62 46.96 C10.55 37.27, 19.96 25.88, 42.64 -1.53 M0.61 49.1 C13.71 32.18, 28.92 16.88, 41.76 -0.16 M3.76 47.06 C20.28 33.9, 33.21 18.58, 48.61 0.25 M4.61 47.53 C20.01 31.1, 34.08 14.79, 46.96 0.36 M11.58 46.77 C18.97 38.02, 28.42 27.42, 54.77 -1.93 M11.74 48.91 C21.58 35.16, 33.47 23.38, 54.05 -0.38 M14.47 48.21 C26.81 38.76, 37.42 24.07, 57.27 -0.29 M16.62 48.52 C28.28 32.34, 42.2 17.46, 57.19 0.14 M20.38 49.5 C35.6 33.8, 44.66 19.82, 63.17 1.63 M21.2 47.49 C35.04 32.21, 49.85 17.74, 64.18 -1.01 M27.89 50.45 C38.35 33.76, 52.84 15.57, 67.55 -1.45 M27.33 47.96 C40.83 30.8, 57.58 13.01, 69.02 0.93 M33.87 46.11 C47.31 28.54, 64.15 13.11, 73.15 1.13 M31.82 48.24 C49.27 29.3, 64.59 12.11, 74.99 -0.42 M38.58 48.5 C48.62 38.16, 57.75 24.46, 79.47 1.55 M36.98 48.08 C51.13 30.3, 65.95 14.69, 79.19 0.7 M41.31 48.12 C56.95 33.34, 69.17 18.79, 86.45 -0.87 M43.72 47.76 C51.22 37.12, 59.71 28.18, 85.62 -0.76 M49.52 47.66 C60.86 33.12, 76.54 14.86, 91.5 2.02 M48.07 49.35 C64.58 31.54, 79.27 12.82, 89.73 0.65 M54.43 47.6 C63.76 36.64, 74.34 23.04, 97.24 0.75 M54.3 47.87 C67.28 29.96, 81.98 13.34, 95.49 0.01 M60.16 47.82 C70.85 32.92, 87.92 14.42, 100.54 1.88 M59.4 48.47 C71.8 34.49, 82.27 20.68, 99.95 -0.78 M62.72 49.97 C77.58 35.43, 91.85 18.64, 108.17 1.65 M63.58 48.38 C73.23 37.39, 83.43 25.18, 106.3 0.18 M70.37 47.38 C82 33.87, 90 23.06, 109.92 -0.42 M70.04 48.34 C81.29 34.83, 91.83 23.47, 110.44 0.03 M76.07 46.92 C87.77 32.81, 97.66 21.75, 112.36 6.88 M74.85 48.04 C82.9 38.66, 90.1 29.44, 110.12 7.04 M80.44 47.34 C87.71 39.1, 99.02 27, 110.93 10.21 M79.34 48.06 C86.32 39.52, 94.81 32.08, 110.56 12.02 M84.87 48.97 C91.05 42.46, 94.88 34.42, 110.64 19.72 M84.69 49.08 C95.97 37.64, 106.51 25.74, 110.52 17.8 M91.14 47.26 C95.93 38.49, 105.78 32.12, 109.62 26.04 M90.95 49 C98.38 39.24, 104.44 31.15, 111.31 23.94 M94.57 50.46 C99.91 42.05, 104.85 38.38, 111.53 30.25 M95.63 48.21 C101.9 42.7, 105.8 35.19, 110.64 30.1 M100.02 48.98 C102.5 46.41, 104.16 42.19, 110.22 37.5 M100.87 48.58 C102.77 45.43, 105.3 42.85, 110.59 37.4 M105.73 49.26 C107.73 45.75, 109.63 43.22, 111.41 43.28 M105.89 48.88 C107.44 47.21, 109.08 45.8, 111.38 42.76" stroke="#ced4da" stroke-width="0.5" fill="none"></path><path d="M0.97 -1.73 C36.09 -1.25, 75.05 0.17, 109.6 -0.62 M0.29 -0.04 C26.72 0.42, 52.19 0.68, 110.38 -0.69 M109.54 -0.47 C111.94 15.75, 112.22 26.35, 111.49 49.81 M111.27 -0.17 C110.14 17.97, 110.55 35.05, 110.2 48.94 M112.36 47.22 C69.68 49.9, 28.21 47.81, 1.46 47.54 M111.72 48.06 C70.09 49.1, 27.33 48.45, 0.22 47.37 M-0.42 48.27 C-0.24 28.89, -1.88 8.45, 0.88 1.69 M0.47 47.15 C-0.14 33.65, 0.54 20.02, -0.91 0.09" stroke="#000000" stroke-width="1" fill="none"></path></g><g transform="translate(39.6600341796875 22.5) rotate(0 28.3399658203125 12.5)"><text x="28.3399658203125" y="0" font-family="Virgil, Segoe UI Emoji" font-size="20px" fill="#000000" text-anchor="middle" style="white-space: pre;" direction="ltr" dominant-baseline="text-before-edge">Empty</text></g><g stroke-linecap="round" transform="translate(421.5 284) rotate(0 55.5 24)"><path d="M0 0 C0 0, 0 0, 0 0 M0 0 C0 0, 0 0, 0 0 M0.21 6.18 C1.15 5.59, 1.92 3.34, 5.75 0.42 M-0.3 6.41 C0.65 5.26, 1.99 3.77, 4.59 0.34 M-1.2 11.75 C4.6 9.84, 6.2 7.08, 9.58 1.56 M-0.41 12.4 C2.8 8.09, 5.99 4.15, 11.38 -0.7 M-0.89 18.92 C3.04 14.02, 8.7 7.06, 16.62 -1.1 M-1 17.83 C3.41 13.59, 7.36 11.13, 15.65 -0.48 M2.06 22.93 C5.96 14.52, 15.25 7.53, 20.13 0 M-0.65 24.19 C7.1 16.57, 13.09 9.23, 20.67 -0.33 M-1.83 31.73 C11.03 19.28, 18.94 8.96, 28.21 -0.79 M0.95 30.87 C8.26 20.67, 15.4 12.51, 26.73 -0.01 M0.94 36.36 C12.23 22.05, 23.99 8.51, 29.9 1.4 M0.08 36.57 C12.18 23.53, 23.49 10.69, 32.73 0.25 M-1.11 40.77 C9.66 34.61, 15.19 26.15, 35.97 -0.03 M0.61 42.92 C8.54 33.35, 15.5 24.45, 36.87 0.83 M0.62 46.96 C10.55 37.27, 19.96 25.88, 42.64 -1.53 M0.61 49.1 C13.71 32.18, 28.92 16.88, 41.76 -0.16 M3.76 47.06 C20.28 33.9, 33.21 18.58, 48.61 0.25 M4.61 47.53 C20.01 31.1, 34.08 14.79, 46.96 0.36 M11.58 46.77 C18.97 38.02, 28.42 27.42, 54.77 -1.93 M11.74 48.91 C21.58 35.16, 33.47 23.38, 54.05 -0.38 M14.47 48.21 C26.81 38.76, 37.42 24.07, 57.27 -0.29 M16.62 48.52 C28.28 32.34, 42.2 17.46, 57.19 0.14 M20.38 49.5 C35.6 33.8, 44.66 19.82, 63.17 1.63 M21.2 47.49 C35.04 32.21, 49.85 17.74, 64.18 -1.01 M27.89 50.45 C38.35 33.76, 52.84 15.57, 67.55 -1.45 M27.33 47.96 C40.83 30.8, 57.58 13.01, 69.02 0.93 M33.87 46.11 C47.31 28.54, 64.15 13.11, 73.15 1.13 M31.82 48.24 C49.27 29.3, 64.59 12.11, 74.99 -0.42 M38.58 48.5 C48.62 38.16, 57.75 24.46, 79.47 1.55 M36.98 48.08 C51.13 30.3, 65.95 14.69, 79.19 0.7 M41.31 48.12 C56.95 33.34, 69.17 18.79, 86.45 -0.87 M43.72 47.76 C51.22 37.12, 59.71 28.18, 85.62 -0.76 M49.52 47.66 C60.86 33.12, 76.54 14.86, 91.5 2.02 M48.07 49.35 C64.58 31.54, 79.27 12.82, 89.73 0.65 M54.43 47.6 C63.76 36.64, 74.34 23.04, 97.24 0.75 M54.3 47.87 C67.28 29.96, 81.98 13.34, 95.49 0.01 M60.16 47.82 C70.85 32.92, 87.92 14.42, 100.54 1.88 M59.4 48.47 C71.8 34.49, 82.27 20.68, 99.95 -0.78 M62.72 49.97 C77.58 35.43, 91.85 18.64, 108.17 1.65 M63.58 48.38 C73.23 37.39, 83.43 25.18, 106.3 0.18 M70.37 47.38 C82 33.87, 90 23.06, 109.92 -0.42 M70.04 48.34 C81.29 34.83, 91.83 23.47, 110.44 0.03 M76.07 46.92 C87.77 32.81, 97.66 21.75, 112.36 6.88 M74.85 48.04 C82.9 38.66, 90.1 29.44, 110.12 7.04 M80.44 47.34 C87.71 39.1, 99.02 27, 110.93 10.21 M79.34 48.06 C86.32 39.52, 94.81 32.08, 110.56 12.02 M84.87 48.97 C91.05 42.46, 94.88 34.42, 110.64 19.72 M84.69 49.08 C95.97 37.64, 106.51 25.74, 110.52 17.8 M91.14 47.26 C95.93 38.49, 105.78 32.12, 109.62 26.04 M90.95 49 C98.38 39.24, 104.44 31.15, 111.31 23.94 M94.57 50.46 C99.91 42.05, 104.85 38.38, 111.53 30.25 M95.63 48.21 C101.9 42.7, 105.8 35.19, 110.64 30.1 M100.02 48.98 C102.5 46.41, 104.16 42.19, 110.22 37.5 M100.87 48.58 C102.77 45.43, 105.3 42.85, 110.59 37.4 M105.73 49.26 C107.73 45.75, 109.63 43.22, 111.41 43.28 M105.89 48.88 C107.44 47.21, 109.08 45.8, 111.38 42.76" stroke="#40c057" stroke-width="0.5" fill="none"></path><path d="M0.97 -1.73 C36.09 -1.25, 75.05 0.17, 109.6 -0.62 M0.29 -0.04 C26.72 0.42, 52.19 0.68, 110.38 -0.69 M109.54 -0.47 C111.94 15.75, 112.22 26.35, 111.49 49.81 M111.27 -0.17 C110.14 17.97, 110.55 35.05, 110.2 48.94 M112.36 47.22 C69.68 49.9, 28.21 47.81, 1.46 47.54 M111.72 48.06 C70.09 49.1, 27.33 48.45, 0.22 47.37 M-0.42 48.27 C-0.24 28.89, -1.88 8.45, 0.88 1.69 M0.47 47.15 C-0.14 33.65, 0.54 20.02, -0.91 0.09" stroke="#000000" stroke-width="1" fill="none"></path></g><g transform="translate(453.69002532958984 295.5) rotate(0 23.309974670410156 12.5)"><text x="23.309974670410156" y="0" font-family="Virgil, Segoe UI Emoji" font-size="20px" fill="#000000" text-anchor="middle" style="white-space: pre;" direction="ltr" dominant-baseline="text-before-edge">First</text></g><g stroke-linecap="round" transform="translate(141.5 209) rotate(0 57.5 24)"><path d="M0 0 C0 0, 0 0, 0 0 M0 0 C0 0, 0 0, 0 0 M0.21 6.18 C1.15 5.59, 1.92 3.34, 5.75 0.42 M-0.3 6.41 C0.65 5.26, 1.99 3.77, 4.59 0.34 M-1.2 11.75 C4.6 9.84, 6.2 7.08, 9.58 1.56 M-0.41 12.4 C2.8 8.09, 5.99 4.15, 11.38 -0.7 M-0.89 18.92 C3.04 14.02, 8.7 7.06, 16.62 -1.1 M-1 17.83 C3.41 13.59, 7.36 11.13, 15.65 -0.48 M2.06 22.93 C5.96 14.52, 15.25 7.53, 20.13 0 M-0.65 24.19 C7.1 16.57, 13.09 9.23, 20.67 -0.33 M-1.83 31.73 C11.03 19.28, 18.94 8.96, 28.21 -0.79 M0.95 30.87 C8.26 20.67, 15.4 12.51, 26.73 -0.01 M0.94 36.36 C12.23 22.05, 23.99 8.51, 29.9 1.4 M0.08 36.57 C12.18 23.53, 23.49 10.69, 32.73 0.25 M-1.11 40.77 C9.66 34.61, 15.19 26.15, 35.97 -0.03 M0.61 42.92 C8.54 33.35, 15.5 24.45, 36.87 0.83 M0.62 46.96 C10.55 37.27, 19.96 25.88, 42.64 -1.53 M0.61 49.1 C13.71 32.18, 28.92 16.88, 41.76 -0.16 M3.76 47.06 C20.28 33.9, 33.21 18.58, 48.61 0.25 M4.61 47.53 C20.01 31.1, 34.08 14.79, 46.96 0.36 M11.58 46.77 C18.97 38.02, 28.42 27.42, 54.77 -1.93 M11.74 48.91 C21.58 35.16, 33.47 23.38, 54.05 -0.38 M14.47 48.21 C26.81 38.76, 37.42 24.07, 57.27 -0.29 M16.62 48.52 C28.28 32.34, 42.2 17.46, 57.19 0.14 M20.38 49.5 C35.6 33.8, 44.66 19.82, 63.17 1.63 M21.2 47.49 C35.04 32.21, 49.85 17.74, 64.18 -1.01 M27.89 50.45 C38.35 33.76, 52.84 15.57, 67.55 -1.45 M27.33 47.96 C40.83 30.8, 57.58 13.01, 69.02 0.93 M33.87 46.11 C47.31 28.54, 64.15 13.11, 73.15 1.13 M31.82 48.24 C49.27 29.3, 64.59 12.11, 74.99 -0.42 M38.58 48.5 C48.62 38.16, 57.75 24.46, 79.47 1.55 M36.98 48.08 C51.13 30.3, 65.95 14.69, 79.19 0.7 M41.31 48.12 C56.95 33.34, 69.17 18.79, 86.45 -0.87 M43.72 47.76 C51.22 37.12, 59.71 28.18, 85.62 -0.76 M49.52 47.66 C60.86 33.12, 76.54 14.86, 91.5 2.02 M48.07 49.35 C64.58 31.54, 79.27 12.82, 89.73 0.65 M54.43 47.6 C63.76 36.64, 74.34 23.04, 97.24 0.75 M54.3 47.87 C67.28 29.96, 81.98 13.34, 95.49 0.01 M60.16 47.82 C70.85 32.92, 87.92 14.42, 100.54 1.88 M59.4 48.47 C71.8 34.49, 82.27 20.68, 99.95 -0.78 M62.72 49.97 C77.58 35.43, 91.85 18.64, 108.17 1.65 M63.58 48.38 C73.23 37.39, 83.43 25.18, 106.3 0.18 M70.37 47.38 C82 33.87, 90 23.06, 109.92 -0.42 M70.04 48.34 C81.29 34.83, 91.83 23.47, 110.44 0.03 M76.07 46.92 C89.33 31.08, 100.76 18.24, 116.95 1.59 M74.85 48.04 C83.93 37.52, 92.14 27.14, 114.71 1.76 M80.44 47.34 C89.1 37.49, 101.83 23.75, 115.52 4.93 M79.34 48.06 C87.39 38.28, 96.92 29.63, 115.15 6.73 M84.87 48.97 C92.08 41.25, 96.98 32, 115.23 14.43 M84.69 49.08 C97.79 35.58, 110.15 21.6, 115.11 12.52 M91.14 47.26 C97.77 36.37, 109.46 27.88, 114.87 20 M90.95 49 C100.19 37.16, 108.1 26.94, 116.56 17.9 M94.57 50.46 C101.45 40.26, 107.9 34.84, 116.12 24.97 M95.63 48.21 C103.53 40.78, 109.07 31.37, 115.23 24.82 M99.63 49.24 C103.2 45.48, 105.69 39.54, 114.55 32.42 M100.76 48.71 C103.58 44.15, 107.25 40.36, 115.03 32.29 M105.35 49.86 C109.08 43.28, 112.65 38.53, 115.99 38.65 M105.64 49.15 C108.55 46.01, 111.61 43.38, 115.92 37.68 M111.74 48.71 C112.94 46.53, 114.15 46.53, 116.12 44.17 M111.57 48.41 C112.65 46.92, 113.98 45.68, 115.71 43.43" stroke="blue" stroke-width="0.5" fill="none"></path><path d="M0.97 -1.73 C37.44 -1.22, 77.74 0.2, 113.6 -0.62 M0.29 -0.04 C27.67 0.42, 54.09 0.68, 114.38 -0.69 M113.54 -0.47 C115.94 15.75, 116.22 26.35, 115.49 49.81 M115.27 -0.17 C114.14 17.97, 114.55 35.05, 114.2 48.94 M116.36 47.22 C72.21 49.93, 29.26 47.83, 1.46 47.54 M115.72 48.06 C72.59 49.11, 28.33 48.46, 0.22 47.37 M-0.42 48.27 C-0.24 28.89, -1.88 8.45, 0.88 1.69 M0.47 47.15 C-0.14 33.65, 0.54 20.02, -0.91 0.09" stroke="#000000" stroke-width="1" fill="none"></path></g><g transform="translate(169.67002868652344 220.5) rotate(0 29.329971313476562 12.5)"><text x="29.329971313476562" y="0" font-family="Virgil, Segoe UI Emoji" font-size="20px" fill="#000000" text-anchor="middle" style="white-space: pre;" direction="ltr" dominant-baseline="text-before-edge">Middle</text></g><g stroke-linecap="round" transform="translate(133.5 10) rotate(0 57.5 24)"><path d="M0 0 C0 0, 0 0, 0 0 M0 0 C0 0, 0 0, 0 0 M0.21 6.18 C1.15 5.59, 1.92 3.34, 5.75 0.42 M-0.3 6.41 C0.65 5.26, 1.99 3.77, 4.59 0.34 M-1.2 11.75 C4.6 9.84, 6.2 7.08, 9.58 1.56 M-0.41 12.4 C2.8 8.09, 5.99 4.15, 11.38 -0.7 M-0.89 18.92 C3.04 14.02, 8.7 7.06, 16.62 -1.1 M-1 17.83 C3.41 13.59, 7.36 11.13, 15.65 -0.48 M2.06 22.93 C5.96 14.52, 15.25 7.53, 20.13 0 M-0.65 24.19 C7.1 16.57, 13.09 9.23, 20.67 -0.33 M-1.83 31.73 C11.03 19.28, 18.94 8.96, 28.21 -0.79 M0.95 30.87 C8.26 20.67, 15.4 12.51, 26.73 -0.01 M0.94 36.36 C12.23 22.05, 23.99 8.51, 29.9 1.4 M0.08 36.57 C12.18 23.53, 23.49 10.69, 32.73 0.25 M-1.11 40.77 C9.66 34.61, 15.19 26.15, 35.97 -0.03 M0.61 42.92 C8.54 33.35, 15.5 24.45, 36.87 0.83 M0.62 46.96 C10.55 37.27, 19.96 25.88, 42.64 -1.53 M0.61 49.1 C13.71 32.18, 28.92 16.88, 41.76 -0.16 M3.76 47.06 C20.28 33.9, 33.21 18.58, 48.61 0.25 M4.61 47.53 C20.01 31.1, 34.08 14.79, 46.96 0.36 M11.58 46.77 C18.97 38.02, 28.42 27.42, 54.77 -1.93 M11.74 48.91 C21.58 35.16, 33.47 23.38, 54.05 -0.38 M14.47 48.21 C26.81 38.76, 37.42 24.07, 57.27 -0.29 M16.62 48.52 C28.28 32.34, 42.2 17.46, 57.19 0.14 M20.38 49.5 C35.6 33.8, 44.66 19.82, 63.17 1.63 M21.2 47.49 C35.04 32.21, 49.85 17.74, 64.18 -1.01 M27.89 50.45 C38.35 33.76, 52.84 15.57, 67.55 -1.45 M27.33 47.96 C40.83 30.8, 57.58 13.01, 69.02 0.93 M33.87 46.11 C47.31 28.54, 64.15 13.11, 73.15 1.13 M31.82 48.24 C49.27 29.3, 64.59 12.11, 74.99 -0.42 M38.58 48.5 C48.62 38.16, 57.75 24.46, 79.47 1.55 M36.98 48.08 C51.13 30.3, 65.95 14.69, 79.19 0.7 M41.31 48.12 C56.95 33.34, 69.17 18.79, 86.45 -0.87 M43.72 47.76 C51.22 37.12, 59.71 28.18, 85.62 -0.76 M49.52 47.66 C60.86 33.12, 76.54 14.86, 91.5 2.02 M48.07 49.35 C64.58 31.54, 79.27 12.82, 89.73 0.65 M54.43 47.6 C63.76 36.64, 74.34 23.04, 97.24 0.75 M54.3 47.87 C67.28 29.96, 81.98 13.34, 95.49 0.01 M60.16 47.82 C70.85 32.92, 87.92 14.42, 100.54 1.88 M59.4 48.47 C71.8 34.49, 82.27 20.68, 99.95 -0.78 M62.72 49.97 C77.58 35.43, 91.85 18.64, 108.17 1.65 M63.58 48.38 C73.23 37.39, 83.43 25.18, 106.3 0.18 M70.37 47.38 C82 33.87, 90 23.06, 109.92 -0.42 M70.04 48.34 C81.29 34.83, 91.83 23.47, 110.44 0.03 M76.07 46.92 C89.33 31.08, 100.76 18.24, 116.95 1.59 M74.85 48.04 C83.93 37.52, 92.14 27.14, 114.71 1.76 M80.44 47.34 C89.1 37.49, 101.83 23.75, 115.52 4.93 M79.34 48.06 C87.39 38.28, 96.92 29.63, 115.15 6.73 M84.87 48.97 C92.08 41.25, 96.98 32, 115.23 14.43 M84.69 49.08 C97.79 35.58, 110.15 21.6, 115.11 12.52 M91.14 47.26 C97.77 36.37, 109.46 27.88, 114.87 20 M90.95 49 C100.19 37.16, 108.1 26.94, 116.56 17.9 M94.57 50.46 C101.45 40.26, 107.9 34.84, 116.12 24.97 M95.63 48.21 C103.53 40.78, 109.07 31.37, 115.23 24.82 M99.63 49.24 C103.2 45.48, 105.69 39.54, 114.55 32.42 M100.76 48.71 C103.58 44.15, 107.25 40.36, 115.03 32.29 M105.35 49.86 C109.08 43.28, 112.65 38.53, 115.99 38.65 M105.64 49.15 C108.55 46.01, 111.61 43.38, 115.92 37.68 M111.74 48.71 C112.94 46.53, 114.15 46.53, 116.12 44.17 M111.57 48.41 C112.65 46.92, 113.98 45.68, 115.71 43.43" stroke="red" stroke-width="0.5" fill="none"></path><path d="M0.97 -1.73 C37.44 -1.22, 77.74 0.2, 113.6 -0.62 M0.29 -0.04 C27.67 0.42, 54.09 0.68, 114.38 -0.69 M113.54 -0.47 C115.94 15.75, 116.22 26.35, 115.49 49.81 M115.27 -0.17 C114.14 17.97, 114.55 35.05, 114.2 48.94 M116.36 47.22 C72.21 49.93, 29.26 47.83, 1.46 47.54 M115.72 48.06 C72.59 49.11, 28.33 48.46, 0.22 47.37 M-0.42 48.27 C-0.24 28.89, -1.88 8.45, 0.88 1.69 M0.47 47.15 C-0.14 33.65, 0.54 20.02, -0.91 0.09" stroke="#000000" stroke-width="1" fill="none"></path></g><g transform="translate(167.26002502441406 21.5) rotate(0 23.739974975585938 12.5)"><text x="23.739974975585938" y="0" font-family="Virgil, Segoe UI Emoji" font-size="20px" fill="#000000" text-anchor="middle" style="white-space: pre;" direction="ltr" dominant-baseline="text-before-edge">Last</text></g><g stroke-linecap="round" transform="translate(135.5 95.5) rotate(0 57.5 24)"><path d="M0 0 C0 0, 0 0, 0 0 M0 0 C0 0, 0 0, 0 0 M0.21 6.18 C1.15 5.59, 1.92 3.34, 5.75 0.42 M-0.3 6.41 C0.65 5.26, 1.99 3.77, 4.59 0.34 M-1.2 11.75 C4.6 9.84, 6.2 7.08, 9.58 1.56 M-0.41 12.4 C2.8 8.09, 5.99 4.15, 11.38 -0.7 M-0.89 18.92 C3.04 14.02, 8.7 7.06, 16.62 -1.1 M-1 17.83 C3.41 13.59, 7.36 11.13, 15.65 -0.48 M2.06 22.93 C5.96 14.52, 15.25 7.53, 20.13 0 M-0.65 24.19 C7.1 16.57, 13.09 9.23, 20.67 -0.33 M-1.83 31.73 C11.03 19.28, 18.94 8.96, 28.21 -0.79 M0.95 30.87 C8.26 20.67, 15.4 12.51, 26.73 -0.01 M0.94 36.36 C12.23 22.05, 23.99 8.51, 29.9 1.4 M0.08 36.57 C12.18 23.53, 23.49 10.69, 32.73 0.25 M-1.11 40.77 C9.66 34.61, 15.19 26.15, 35.97 -0.03 M0.61 42.92 C8.54 33.35, 15.5 24.45, 36.87 0.83 M0.62 46.96 C10.55 37.27, 19.96 25.88, 42.64 -1.53 M0.61 49.1 C13.71 32.18, 28.92 16.88, 41.76 -0.16 M3.76 47.06 C20.28 33.9, 33.21 18.58, 48.61 0.25 M4.61 47.53 C20.01 31.1, 34.08 14.79, 46.96 0.36 M11.58 46.77 C18.97 38.02, 28.42 27.42, 54.77 -1.93 M11.74 48.91 C21.58 35.16, 33.47 23.38, 54.05 -0.38 M14.47 48.21 C26.81 38.76, 37.42 24.07, 57.27 -0.29 M16.62 48.52 C28.28 32.34, 42.2 17.46, 57.19 0.14 M20.38 49.5 C35.6 33.8, 44.66 19.82, 63.17 1.63 M21.2 47.49 C35.04 32.21, 49.85 17.74, 64.18 -1.01 M27.89 50.45 C38.35 33.76, 52.84 15.57, 67.55 -1.45 M27.33 47.96 C40.83 30.8, 57.58 13.01, 69.02 0.93 M33.87 46.11 C47.31 28.54, 64.15 13.11, 73.15 1.13 M31.82 48.24 C49.27 29.3, 64.59 12.11, 74.99 -0.42 M38.58 48.5 C48.62 38.16, 57.75 24.46, 79.47 1.55 M36.98 48.08 C51.13 30.3, 65.95 14.69, 79.19 0.7 M41.31 48.12 C56.95 33.34, 69.17 18.79, 86.45 -0.87 M43.72 47.76 C51.22 37.12, 59.71 28.18, 85.62 -0.76 M49.52 47.66 C60.86 33.12, 76.54 14.86, 91.5 2.02 M48.07 49.35 C64.58 31.54, 79.27 12.82, 89.73 0.65 M54.43 47.6 C63.76 36.64, 74.34 23.04, 97.24 0.75 M54.3 47.87 C67.28 29.96, 81.98 13.34, 95.49 0.01 M60.16 47.82 C70.85 32.92, 87.92 14.42, 100.54 1.88 M59.4 48.47 C71.8 34.49, 82.27 20.68, 99.95 -0.78 M62.72 49.97 C77.58 35.43, 91.85 18.64, 108.17 1.65 M63.58 48.38 C73.23 37.39, 83.43 25.18, 106.3 0.18 M70.37 47.38 C82 33.87, 90 23.06, 109.92 -0.42 M70.04 48.34 C81.29 34.83, 91.83 23.47, 110.44 0.03 M76.07 46.92 C89.33 31.08, 100.76 18.24, 116.95 1.59 M74.85 48.04 C83.93 37.52, 92.14 27.14, 114.71 1.76 M80.44 47.34 C89.1 37.49, 101.83 23.75, 115.52 4.93 M79.34 48.06 C87.39 38.28, 96.92 29.63, 115.15 6.73 M84.87 48.97 C92.08 41.25, 96.98 32, 115.23 14.43 M84.69 49.08 C97.79 35.58, 110.15 21.6, 115.11 12.52 M91.14 47.26 C97.77 36.37, 109.46 27.88, 114.87 20 M90.95 49 C100.19 37.16, 108.1 26.94, 116.56 17.9 M94.57 50.46 C101.45 40.26, 107.9 34.84, 116.12 24.97 M95.63 48.21 C103.53 40.78, 109.07 31.37, 115.23 24.82 M99.63 49.24 C103.2 45.48, 105.69 39.54, 114.55 32.42 M100.76 48.71 C103.58 44.15, 107.25 40.36, 115.03 32.29 M105.35 49.86 C109.08 43.28, 112.65 38.53, 115.99 38.65 M105.64 49.15 C108.55 46.01, 111.61 43.38, 115.92 37.68 M111.74 48.71 C112.94 46.53, 114.15 46.53, 116.12 44.17 M111.57 48.41 C112.65 46.92, 113.98 45.68, 115.71 43.43" stroke="red" stroke-width="0.5" fill="none"></path><path d="M0.97 -1.73 C37.44 -1.22, 77.74 0.2, 113.6 -0.62 M0.29 -0.04 C27.67 0.42, 54.09 0.68, 114.38 -0.69 M113.54 -0.47 C115.94 15.75, 116.22 26.35, 115.49 49.81 M115.27 -0.17 C114.14 17.97, 114.55 35.05, 114.2 48.94 M116.36 47.22 C72.21 49.93, 29.26 47.83, 1.46 47.54 M115.72 48.06 C72.59 49.11, 28.33 48.46, 0.22 47.37 M-0.42 48.27 C-0.24 28.89, -1.88 8.45, 0.88 1.69 M0.47 47.15 C-0.14 33.65, 0.54 20.02, -0.91 0.09" stroke="#000000" stroke-width="1" fill="none"></path></g><g transform="translate(169.26002502441406 107) rotate(0 23.739974975585938 12.5)"><text x="23.739974975585938" y="0" font-family="Virgil, Segoe UI Emoji" font-size="20px" fill="#000000" text-anchor="middle" style="white-space: pre;" direction="ltr" dominant-baseline="text-before-edge">Last</text></g><g stroke-linecap="round" transform="translate(10 97) rotate(0 57.5 24)"><path d="M0 0 C0 0, 0 0, 0 0 M0 0 C0 0, 0 0, 0 0 M0.21 6.18 C1.15 5.59, 1.92 3.34, 5.75 0.42 M-0.3 6.41 C0.65 5.26, 1.99 3.77, 4.59 0.34 M-1.2 11.75 C4.6 9.84, 6.2 7.08, 9.58 1.56 M-0.41 12.4 C2.8 8.09, 5.99 4.15, 11.38 -0.7 M-0.89 18.92 C3.04 14.02, 8.7 7.06, 16.62 -1.1 M-1 17.83 C3.41 13.59, 7.36 11.13, 15.65 -0.48 M2.06 22.93 C5.96 14.52, 15.25 7.53, 20.13 0 M-0.65 24.19 C7.1 16.57, 13.09 9.23, 20.67 -0.33 M-1.83 31.73 C11.03 19.28, 18.94 8.96, 28.21 -0.79 M0.95 30.87 C8.26 20.67, 15.4 12.51, 26.73 -0.01 M0.94 36.36 C12.23 22.05, 23.99 8.51, 29.9 1.4 M0.08 36.57 C12.18 23.53, 23.49 10.69, 32.73 0.25 M-1.11 40.77 C9.66 34.61, 15.19 26.15, 35.97 -0.03 M0.61 42.92 C8.54 33.35, 15.5 24.45, 36.87 0.83 M0.62 46.96 C10.55 37.27, 19.96 25.88, 42.64 -1.53 M0.61 49.1 C13.71 32.18, 28.92 16.88, 41.76 -0.16 M3.76 47.06 C20.28 33.9, 33.21 18.58, 48.61 0.25 M4.61 47.53 C20.01 31.1, 34.08 14.79, 46.96 0.36 M11.58 46.77 C18.97 38.02, 28.42 27.42, 54.77 -1.93 M11.74 48.91 C21.58 35.16, 33.47 23.38, 54.05 -0.38 M14.47 48.21 C26.81 38.76, 37.42 24.07, 57.27 -0.29 M16.62 48.52 C28.28 32.34, 42.2 17.46, 57.19 0.14 M20.38 49.5 C35.6 33.8, 44.66 19.82, 63.17 1.63 M21.2 47.49 C35.04 32.21, 49.85 17.74, 64.18 -1.01 M27.89 50.45 C38.35 33.76, 52.84 15.57, 67.55 -1.45 M27.33 47.96 C40.83 30.8, 57.58 13.01, 69.02 0.93 M33.87 46.11 C47.31 28.54, 64.15 13.11, 73.15 1.13 M31.82 48.24 C49.27 29.3, 64.59 12.11, 74.99 -0.42 M38.58 48.5 C48.62 38.16, 57.75 24.46, 79.47 1.55 M36.98 48.08 C51.13 30.3, 65.95 14.69, 79.19 0.7 M41.31 48.12 C56.95 33.34, 69.17 18.79, 86.45 -0.87 M43.72 47.76 C51.22 37.12, 59.71 28.18, 85.62 -0.76 M49.52 47.66 C60.86 33.12, 76.54 14.86, 91.5 2.02 M48.07 49.35 C64.58 31.54, 79.27 12.82, 89.73 0.65 M54.43 47.6 C63.76 36.64, 74.34 23.04, 97.24 0.75 M54.3 47.87 C67.28 29.96, 81.98 13.34, 95.49 0.01 M60.16 47.82 C70.85 32.92, 87.92 14.42, 100.54 1.88 M59.4 48.47 C71.8 34.49, 82.27 20.68, 99.95 -0.78 M62.72 49.97 C77.58 35.43, 91.85 18.64, 108.17 1.65 M63.58 48.38 C73.23 37.39, 83.43 25.18, 106.3 0.18 M70.37 47.38 C82 33.87, 90 23.06, 109.92 -0.42 M70.04 48.34 C81.29 34.83, 91.83 23.47, 110.44 0.03 M76.07 46.92 C89.33 31.08, 100.76 18.24, 116.95 1.59 M74.85 48.04 C83.93 37.52, 92.14 27.14, 114.71 1.76 M80.44 47.34 C89.1 37.49, 101.83 23.75, 115.52 4.93 M79.34 48.06 C87.39 38.28, 96.92 29.63, 115.15 6.73 M84.87 48.97 C92.08 41.25, 96.98 32, 115.23 14.43 M84.69 49.08 C97.79 35.58, 110.15 21.6, 115.11 12.52 M91.14 47.26 C97.77 36.37, 109.46 27.88, 114.87 20 M90.95 49 C100.19 37.16, 108.1 26.94, 116.56 17.9 M94.57 50.46 C101.45 40.26, 107.9 34.84, 116.12 24.97 M95.63 48.21 C103.53 40.78, 109.07 31.37, 115.23 24.82 M99.63 49.24 C103.2 45.48, 105.69 39.54, 114.55 32.42 M100.76 48.71 C103.58 44.15, 107.25 40.36, 115.03 32.29 M105.35 49.86 C109.08 43.28, 112.65 38.53, 115.99 38.65 M105.64 49.15 C108.55 46.01, 111.61 43.38, 115.92 37.68 M111.74 48.71 C112.94 46.53, 114.15 46.53, 116.12 44.17 M111.57 48.41 C112.65 46.92, 113.98 45.68, 115.71 43.43" stroke="purple" stroke-width="0.5" fill="none"></path><path d="M0.97 -1.73 C37.44 -1.22, 77.74 0.2, 113.6 -0.62 M0.29 -0.04 C27.67 0.42, 54.09 0.68, 114.38 -0.69 M113.54 -0.47 C115.94 15.75, 116.22 26.35, 115.49 49.81 M115.27 -0.17 C114.14 17.97, 114.55 35.05, 114.2 48.94 M116.36 47.22 C72.21 49.93, 29.26 47.83, 1.46 47.54 M115.72 48.06 C72.59 49.11, 28.33 48.46, 0.22 47.37 M-0.42 48.27 C-0.24 28.89, -1.88 8.45, 0.88 1.69 M0.47 47.15 C-0.14 33.65, 0.54 20.02, -0.91 0.09" stroke="#000000" stroke-width="1" fill="none"></path></g><g transform="translate(41.380027770996094 108.5) rotate(0 26.119972229003906 12.5)"><text x="26.119972229003906" y="0" font-family="Virgil, Segoe UI Emoji" font-size="20px" fill="#000000" text-anchor="middle" style="white-space: pre;" direction="ltr" dominant-baseline="text-before-edge">Flast</text></g><g stroke-linecap="round" transform="translate(551 11) rotate(0 55.5 24)"><path d="M0 0 C0 0, 0 0, 0 0 M0 0 C0 0, 0 0, 0 0 M0.21 6.18 C1.15 5.59, 1.92 3.34, 5.75 0.42 M-0.3 6.41 C0.65 5.26, 1.99 3.77, 4.59 0.34 M-1.2 11.75 C4.6 9.84, 6.2 7.08, 9.58 1.56 M-0.41 12.4 C2.8 8.09, 5.99 4.15, 11.38 -0.7 M-0.89 18.92 C3.04 14.02, 8.7 7.06, 16.62 -1.1 M-1 17.83 C3.41 13.59, 7.36 11.13, 15.65 -0.48 M2.06 22.93 C5.96 14.52, 15.25 7.53, 20.13 0 M-0.65 24.19 C7.1 16.57, 13.09 9.23, 20.67 -0.33 M-1.83 31.73 C11.03 19.28, 18.94 8.96, 28.21 -0.79 M0.95 30.87 C8.26 20.67, 15.4 12.51, 26.73 -0.01 M0.94 36.36 C12.23 22.05, 23.99 8.51, 29.9 1.4 M0.08 36.57 C12.18 23.53, 23.49 10.69, 32.73 0.25 M-1.11 40.77 C9.66 34.61, 15.19 26.15, 35.97 -0.03 M0.61 42.92 C8.54 33.35, 15.5 24.45, 36.87 0.83 M0.62 46.96 C10.55 37.27, 19.96 25.88, 42.64 -1.53 M0.61 49.1 C13.71 32.18, 28.92 16.88, 41.76 -0.16 M3.76 47.06 C20.28 33.9, 33.21 18.58, 48.61 0.25 M4.61 47.53 C20.01 31.1, 34.08 14.79, 46.96 0.36 M11.58 46.77 C18.97 38.02, 28.42 27.42, 54.77 -1.93 M11.74 48.91 C21.58 35.16, 33.47 23.38, 54.05 -0.38 M14.47 48.21 C26.81 38.76, 37.42 24.07, 57.27 -0.29 M16.62 48.52 C28.28 32.34, 42.2 17.46, 57.19 0.14 M20.38 49.5 C35.6 33.8, 44.66 19.82, 63.17 1.63 M21.2 47.49 C35.04 32.21, 49.85 17.74, 64.18 -1.01 M27.89 50.45 C38.35 33.76, 52.84 15.57, 67.55 -1.45 M27.33 47.96 C40.83 30.8, 57.58 13.01, 69.02 0.93 M33.87 46.11 C47.31 28.54, 64.15 13.11, 73.15 1.13 M31.82 48.24 C49.27 29.3, 64.59 12.11, 74.99 -0.42 M38.58 48.5 C48.62 38.16, 57.75 24.46, 79.47 1.55 M36.98 48.08 C51.13 30.3, 65.95 14.69, 79.19 0.7 M41.31 48.12 C56.95 33.34, 69.17 18.79, 86.45 -0.87 M43.72 47.76 C51.22 37.12, 59.71 28.18, 85.62 -0.76 M49.52 47.66 C60.86 33.12, 76.54 14.86, 91.5 2.02 M48.07 49.35 C64.58 31.54, 79.27 12.82, 89.73 0.65 M54.43 47.6 C63.76 36.64, 74.34 23.04, 97.24 0.75 M54.3 47.87 C67.28 29.96, 81.98 13.34, 95.49 0.01 M60.16 47.82 C70.85 32.92, 87.92 14.42, 100.54 1.88 M59.4 48.47 C71.8 34.49, 82.27 20.68, 99.95 -0.78 M62.72 49.97 C77.58 35.43, 91.85 18.64, 108.17 1.65 M63.58 48.38 C73.23 37.39, 83.43 25.18, 106.3 0.18 M70.37 47.38 C82 33.87, 90 23.06, 109.92 -0.42 M70.04 48.34 C81.29 34.83, 91.83 23.47, 110.44 0.03 M76.07 46.92 C87.77 32.81, 97.66 21.75, 112.36 6.88 M74.85 48.04 C82.9 38.66, 90.1 29.44, 110.12 7.04 M80.44 47.34 C87.71 39.1, 99.02 27, 110.93 10.21 M79.34 48.06 C86.32 39.52, 94.81 32.08, 110.56 12.02 M84.87 48.97 C91.05 42.46, 94.88 34.42, 110.64 19.72 M84.69 49.08 C95.97 37.64, 106.51 25.74, 110.52 17.8 M91.14 47.26 C95.93 38.49, 105.78 32.12, 109.62 26.04 M90.95 49 C98.38 39.24, 104.44 31.15, 111.31 23.94 M94.57 50.46 C99.91 42.05, 104.85 38.38, 111.53 30.25 M95.63 48.21 C101.9 42.7, 105.8 35.19, 110.64 30.1 M100.02 48.98 C102.5 46.41, 104.16 42.19, 110.22 37.5 M100.87 48.58 C102.77 45.43, 105.3 42.85, 110.59 37.4 M105.73 49.26 C107.73 45.75, 109.63 43.22, 111.41 43.28 M105.89 48.88 C107.44 47.21, 109.08 45.8, 111.38 42.76" stroke="#40c057" stroke-width="0.5" fill="none"></path><path d="M0.97 -1.73 C36.09 -1.25, 75.05 0.17, 109.6 -0.62 M0.29 -0.04 C26.72 0.42, 52.19 0.68, 110.38 -0.69 M109.54 -0.47 C111.94 15.75, 112.22 26.35, 111.49 49.81 M111.27 -0.17 C110.14 17.97, 110.55 35.05, 110.2 48.94 M112.36 47.22 C69.68 49.9, 28.21 47.81, 1.46 47.54 M111.72 48.06 C70.09 49.1, 27.33 48.45, 0.22 47.37 M-0.42 48.27 C-0.24 28.89, -1.88 8.45, 0.88 1.69 M0.47 47.15 C-0.14 33.65, 0.54 20.02, -0.91 0.09" stroke="#000000" stroke-width="1" fill="none"></path></g><g transform="translate(583.1900253295898 22.5) rotate(0 23.309974670410156 12.5)"><text x="23.309974670410156" y="0" font-family="Virgil, Segoe UI Emoji" font-size="20px" fill="#000000" text-anchor="middle" style="white-space: pre;" direction="ltr" dominant-baseline="text-before-edge">First</text></g><g stroke-linecap="round" transform="translate(422 10) rotate(0 57.5 24)"><path d="M0 0 C0 0, 0 0, 0 0 M0 0 C0 0, 0 0, 0 0 M0.21 6.18 C1.15 5.59, 1.92 3.34, 5.75 0.42 M-0.3 6.41 C0.65 5.26, 1.99 3.77, 4.59 0.34 M-1.2 11.75 C4.6 9.84, 6.2 7.08, 9.58 1.56 M-0.41 12.4 C2.8 8.09, 5.99 4.15, 11.38 -0.7 M-0.89 18.92 C3.04 14.02, 8.7 7.06, 16.62 -1.1 M-1 17.83 C3.41 13.59, 7.36 11.13, 15.65 -0.48 M2.06 22.93 C5.96 14.52, 15.25 7.53, 20.13 0 M-0.65 24.19 C7.1 16.57, 13.09 9.23, 20.67 -0.33 M-1.83 31.73 C11.03 19.28, 18.94 8.96, 28.21 -0.79 M0.95 30.87 C8.26 20.67, 15.4 12.51, 26.73 -0.01 M0.94 36.36 C12.23 22.05, 23.99 8.51, 29.9 1.4 M0.08 36.57 C12.18 23.53, 23.49 10.69, 32.73 0.25 M-1.11 40.77 C9.66 34.61, 15.19 26.15, 35.97 -0.03 M0.61 42.92 C8.54 33.35, 15.5 24.45, 36.87 0.83 M0.62 46.96 C10.55 37.27, 19.96 25.88, 42.64 -1.53 M0.61 49.1 C13.71 32.18, 28.92 16.88, 41.76 -0.16 M3.76 47.06 C20.28 33.9, 33.21 18.58, 48.61 0.25 M4.61 47.53 C20.01 31.1, 34.08 14.79, 46.96 0.36 M11.58 46.77 C18.97 38.02, 28.42 27.42, 54.77 -1.93 M11.74 48.91 C21.58 35.16, 33.47 23.38, 54.05 -0.38 M14.47 48.21 C26.81 38.76, 37.42 24.07, 57.27 -0.29 M16.62 48.52 C28.28 32.34, 42.2 17.46, 57.19 0.14 M20.38 49.5 C35.6 33.8, 44.66 19.82, 63.17 1.63 M21.2 47.49 C35.04 32.21, 49.85 17.74, 64.18 -1.01 M27.89 50.45 C38.35 33.76, 52.84 15.57, 67.55 -1.45 M27.33 47.96 C40.83 30.8, 57.58 13.01, 69.02 0.93 M33.87 46.11 C47.31 28.54, 64.15 13.11, 73.15 1.13 M31.82 48.24 C49.27 29.3, 64.59 12.11, 74.99 -0.42 M38.58 48.5 C48.62 38.16, 57.75 24.46, 79.47 1.55 M36.98 48.08 C51.13 30.3, 65.95 14.69, 79.19 0.7 M41.31 48.12 C56.95 33.34, 69.17 18.79, 86.45 -0.87 M43.72 47.76 C51.22 37.12, 59.71 28.18, 85.62 -0.76 M49.52 47.66 C60.86 33.12, 76.54 14.86, 91.5 2.02 M48.07 49.35 C64.58 31.54, 79.27 12.82, 89.73 0.65 M54.43 47.6 C63.76 36.64, 74.34 23.04, 97.24 0.75 M54.3 47.87 C67.28 29.96, 81.98 13.34, 95.49 0.01 M60.16 47.82 C70.85 32.92, 87.92 14.42, 100.54 1.88 M59.4 48.47 C71.8 34.49, 82.27 20.68, 99.95 -0.78 M62.72 49.97 C77.58 35.43, 91.85 18.64, 108.17 1.65 M63.58 48.38 C73.23 37.39, 83.43 25.18, 106.3 0.18 M70.37 47.38 C82 33.87, 90 23.06, 109.92 -0.42 M70.04 48.34 C81.29 34.83, 91.83 23.47, 110.44 0.03 M76.07 46.92 C89.33 31.08, 100.76 18.24, 116.95 1.59 M74.85 48.04 C83.93 37.52, 92.14 27.14, 114.71 1.76 M80.44 47.34 C89.1 37.49, 101.83 23.75, 115.52 4.93 M79.34 48.06 C87.39 38.28, 96.92 29.63, 115.15 6.73 M84.87 48.97 C92.08 41.25, 96.98 32, 115.23 14.43 M84.69 49.08 C97.79 35.58, 110.15 21.6, 115.11 12.52 M91.14 47.26 C97.77 36.37, 109.46 27.88, 114.87 20 M90.95 49 C100.19 37.16, 108.1 26.94, 116.56 17.9 M94.57 50.46 C101.45 40.26, 107.9 34.84, 116.12 24.97 M95.63 48.21 C103.53 40.78, 109.07 31.37, 115.23 24.82 M99.63 49.24 C103.2 45.48, 105.69 39.54, 114.55 32.42 M100.76 48.71 C103.58 44.15, 107.25 40.36, 115.03 32.29 M105.35 49.86 C109.08 43.28, 112.65 38.53, 115.99 38.65 M105.64 49.15 C108.55 46.01, 111.61 43.38, 115.92 37.68 M111.74 48.71 C112.94 46.53, 114.15 46.53, 116.12 44.17 M111.57 48.41 C112.65 46.92, 113.98 45.68, 115.71 43.43" stroke="blue" stroke-width="0.5" fill="none"></path><path d="M0.97 -1.73 C37.44 -1.22, 77.74 0.2, 113.6 -0.62 M0.29 -0.04 C27.67 0.42, 54.09 0.68, 114.38 -0.69 M113.54 -0.47 C115.94 15.75, 116.22 26.35, 115.49 49.81 M115.27 -0.17 C114.14 17.97, 114.55 35.05, 114.2 48.94 M116.36 47.22 C72.21 49.93, 29.26 47.83, 1.46 47.54 M115.72 48.06 C72.59 49.11, 28.33 48.46, 0.22 47.37 M-0.42 48.27 C-0.24 28.89, -1.88 8.45, 0.88 1.69 M0.47 47.15 C-0.14 33.65, 0.54 20.02, -0.91 0.09" stroke="#000000" stroke-width="1" fill="none"></path></g><g transform="translate(450.17002868652344 21.5) rotate(0 29.329971313476562 12.5)"><text x="29.329971313476562" y="0" font-family="Virgil, Segoe UI Emoji" font-size="20px" fill="#000000" text-anchor="middle" style="white-space: pre;" direction="ltr" dominant-baseline="text-before-edge">Middle</text></g><g stroke-linecap="round" transform="translate(553.5 94.5) rotate(0 55.5 24)"><path d="M0 0 C0 0, 0 0, 0 0 M0 0 C0 0, 0 0, 0 0 M0.21 6.18 C1.15 5.59, 1.92 3.34, 5.75 0.42 M-0.3 6.41 C0.65 5.26, 1.99 3.77, 4.59 0.34 M-1.2 11.75 C4.6 9.84, 6.2 7.08, 9.58 1.56 M-0.41 12.4 C2.8 8.09, 5.99 4.15, 11.38 -0.7 M-0.89 18.92 C3.04 14.02, 8.7 7.06, 16.62 -1.1 M-1 17.83 C3.41 13.59, 7.36 11.13, 15.65 -0.48 M2.06 22.93 C5.96 14.52, 15.25 7.53, 20.13 0 M-0.65 24.19 C7.1 16.57, 13.09 9.23, 20.67 -0.33 M-1.83 31.73 C11.03 19.28, 18.94 8.96, 28.21 -0.79 M0.95 30.87 C8.26 20.67, 15.4 12.51, 26.73 -0.01 M0.94 36.36 C12.23 22.05, 23.99 8.51, 29.9 1.4 M0.08 36.57 C12.18 23.53, 23.49 10.69, 32.73 0.25 M-1.11 40.77 C9.66 34.61, 15.19 26.15, 35.97 -0.03 M0.61 42.92 C8.54 33.35, 15.5 24.45, 36.87 0.83 M0.62 46.96 C10.55 37.27, 19.96 25.88, 42.64 -1.53 M0.61 49.1 C13.71 32.18, 28.92 16.88, 41.76 -0.16 M3.76 47.06 C20.28 33.9, 33.21 18.58, 48.61 0.25 M4.61 47.53 C20.01 31.1, 34.08 14.79, 46.96 0.36 M11.58 46.77 C18.97 38.02, 28.42 27.42, 54.77 -1.93 M11.74 48.91 C21.58 35.16, 33.47 23.38, 54.05 -0.38 M14.47 48.21 C26.81 38.76, 37.42 24.07, 57.27 -0.29 M16.62 48.52 C28.28 32.34, 42.2 17.46, 57.19 0.14 M20.38 49.5 C35.6 33.8, 44.66 19.82, 63.17 1.63 M21.2 47.49 C35.04 32.21, 49.85 17.74, 64.18 -1.01 M27.89 50.45 C38.35 33.76, 52.84 15.57, 67.55 -1.45 M27.33 47.96 C40.83 30.8, 57.58 13.01, 69.02 0.93 M33.87 46.11 C47.31 28.54, 64.15 13.11, 73.15 1.13 M31.82 48.24 C49.27 29.3, 64.59 12.11, 74.99 -0.42 M38.58 48.5 C48.62 38.16, 57.75 24.46, 79.47 1.55 M36.98 48.08 C51.13 30.3, 65.95 14.69, 79.19 0.7 M41.31 48.12 C56.95 33.34, 69.17 18.79, 86.45 -0.87 M43.72 47.76 C51.22 37.12, 59.71 28.18, 85.62 -0.76 M49.52 47.66 C60.86 33.12, 76.54 14.86, 91.5 2.02 M48.07 49.35 C64.58 31.54, 79.27 12.82, 89.73 0.65 M54.43 47.6 C63.76 36.64, 74.34 23.04, 97.24 0.75 M54.3 47.87 C67.28 29.96, 81.98 13.34, 95.49 0.01 M60.16 47.82 C70.85 32.92, 87.92 14.42, 100.54 1.88 M59.4 48.47 C71.8 34.49, 82.27 20.68, 99.95 -0.78 M62.72 49.97 C77.58 35.43, 91.85 18.64, 108.17 1.65 M63.58 48.38 C73.23 37.39, 83.43 25.18, 106.3 0.18 M70.37 47.38 C82 33.87, 90 23.06, 109.92 -0.42 M70.04 48.34 C81.29 34.83, 91.83 23.47, 110.44 0.03 M76.07 46.92 C87.77 32.81, 97.66 21.75, 112.36 6.88 M74.85 48.04 C82.9 38.66, 90.1 29.44, 110.12 7.04 M80.44 47.34 C87.71 39.1, 99.02 27, 110.93 10.21 M79.34 48.06 C86.32 39.52, 94.81 32.08, 110.56 12.02 M84.87 48.97 C91.05 42.46, 94.88 34.42, 110.64 19.72 M84.69 49.08 C95.97 37.64, 106.51 25.74, 110.52 17.8 M91.14 47.26 C95.93 38.49, 105.78 32.12, 109.62 26.04 M90.95 49 C98.38 39.24, 104.44 31.15, 111.31 23.94 M94.57 50.46 C99.91 42.05, 104.85 38.38, 111.53 30.25 M95.63 48.21 C101.9 42.7, 105.8 35.19, 110.64 30.1 M100.02 48.98 C102.5 46.41, 104.16 42.19, 110.22 37.5 M100.87 48.58 C102.77 45.43, 105.3 42.85, 110.59 37.4 M105.73 49.26 C107.73 45.75, 109.63 43.22, 111.41 43.28 M105.89 48.88 C107.44 47.21, 109.08 45.8, 111.38 42.76" stroke="#40c057" stroke-width="0.5" fill="none"></path><path d="M0.97 -1.73 C36.09 -1.25, 75.05 0.17, 109.6 -0.62 M0.29 -0.04 C26.72 0.42, 52.19 0.68, 110.38 -0.69 M109.54 -0.47 C111.94 15.75, 112.22 26.35, 111.49 49.81 M111.27 -0.17 C110.14 17.97, 110.55 35.05, 110.2 48.94 M112.36 47.22 C69.68 49.9, 28.21 47.81, 1.46 47.54 M111.72 48.06 C70.09 49.1, 27.33 48.45, 0.22 47.37 M-0.42 48.27 C-0.24 28.89, -1.88 8.45, 0.88 1.69 M0.47 47.15 C-0.14 33.65, 0.54 20.02, -0.91 0.09" stroke="#000000" stroke-width="1" fill="none"></path></g><g transform="translate(585.6900253295898 106) rotate(0 23.309974670410156 12.5)"><text x="23.309974670410156" y="0" font-family="Virgil, Segoe UI Emoji" font-size="20px" fill="#000000" text-anchor="middle" style="white-space: pre;" direction="ltr" dominant-baseline="text-before-edge">First</text></g><g stroke-linecap="round" transform="translate(430 95) rotate(0 55.5 24)"><path d="M0 0 C0 0, 0 0, 0 0 M0 0 C0 0, 0 0, 0 0 M0.21 6.18 C1.15 5.59, 1.92 3.34, 5.75 0.42 M-0.3 6.41 C0.65 5.26, 1.99 3.77, 4.59 0.34 M-1.2 11.75 C4.6 9.84, 6.2 7.08, 9.58 1.56 M-0.41 12.4 C2.8 8.09, 5.99 4.15, 11.38 -0.7 M-0.89 18.92 C3.04 14.02, 8.7 7.06, 16.62 -1.1 M-1 17.83 C3.41 13.59, 7.36 11.13, 15.65 -0.48 M2.06 22.93 C5.96 14.52, 15.25 7.53, 20.13 0 M-0.65 24.19 C7.1 16.57, 13.09 9.23, 20.67 -0.33 M-1.83 31.73 C11.03 19.28, 18.94 8.96, 28.21 -0.79 M0.95 30.87 C8.26 20.67, 15.4 12.51, 26.73 -0.01 M0.94 36.36 C12.23 22.05, 23.99 8.51, 29.9 1.4 M0.08 36.57 C12.18 23.53, 23.49 10.69, 32.73 0.25 M-1.11 40.77 C9.66 34.61, 15.19 26.15, 35.97 -0.03 M0.61 42.92 C8.54 33.35, 15.5 24.45, 36.87 0.83 M0.62 46.96 C10.55 37.27, 19.96 25.88, 42.64 -1.53 M0.61 49.1 C13.71 32.18, 28.92 16.88, 41.76 -0.16 M3.76 47.06 C20.28 33.9, 33.21 18.58, 48.61 0.25 M4.61 47.53 C20.01 31.1, 34.08 14.79, 46.96 0.36 M11.58 46.77 C18.97 38.02, 28.42 27.42, 54.77 -1.93 M11.74 48.91 C21.58 35.16, 33.47 23.38, 54.05 -0.38 M14.47 48.21 C26.81 38.76, 37.42 24.07, 57.27 -0.29 M16.62 48.52 C28.28 32.34, 42.2 17.46, 57.19 0.14 M20.38 49.5 C35.6 33.8, 44.66 19.82, 63.17 1.63 M21.2 47.49 C35.04 32.21, 49.85 17.74, 64.18 -1.01 M27.89 50.45 C38.35 33.76, 52.84 15.57, 67.55 -1.45 M27.33 47.96 C40.83 30.8, 57.58 13.01, 69.02 0.93 M33.87 46.11 C47.31 28.54, 64.15 13.11, 73.15 1.13 M31.82 48.24 C49.27 29.3, 64.59 12.11, 74.99 -0.42 M38.58 48.5 C48.62 38.16, 57.75 24.46, 79.47 1.55 M36.98 48.08 C51.13 30.3, 65.95 14.69, 79.19 0.7 M41.31 48.12 C56.95 33.34, 69.17 18.79, 86.45 -0.87 M43.72 47.76 C51.22 37.12, 59.71 28.18, 85.62 -0.76 M49.52 47.66 C60.86 33.12, 76.54 14.86, 91.5 2.02 M48.07 49.35 C64.58 31.54, 79.27 12.82, 89.73 0.65 M54.43 47.6 C63.76 36.64, 74.34 23.04, 97.24 0.75 M54.3 47.87 C67.28 29.96, 81.98 13.34, 95.49 0.01 M60.16 47.82 C70.85 32.92, 87.92 14.42, 100.54 1.88 M59.4 48.47 C71.8 34.49, 82.27 20.68, 99.95 -0.78 M62.72 49.97 C77.58 35.43, 91.85 18.64, 108.17 1.65 M63.58 48.38 C73.23 37.39, 83.43 25.18, 106.3 0.18 M70.37 47.38 C82 33.87, 90 23.06, 109.92 -0.42 M70.04 48.34 C81.29 34.83, 91.83 23.47, 110.44 0.03 M76.07 46.92 C87.77 32.81, 97.66 21.75, 112.36 6.88 M74.85 48.04 C82.9 38.66, 90.1 29.44, 110.12 7.04 M80.44 47.34 C87.71 39.1, 99.02 27, 110.93 10.21 M79.34 48.06 C86.32 39.52, 94.81 32.08, 110.56 12.02 M84.87 48.97 C91.05 42.46, 94.88 34.42, 110.64 19.72 M84.69 49.08 C95.97 37.64, 106.51 25.74, 110.52 17.8 M91.14 47.26 C95.93 38.49, 105.78 32.12, 109.62 26.04 M90.95 49 C98.38 39.24, 104.44 31.15, 111.31 23.94 M94.57 50.46 C99.91 42.05, 104.85 38.38, 111.53 30.25 M95.63 48.21 C101.9 42.7, 105.8 35.19, 110.64 30.1 M100.02 48.98 C102.5 46.41, 104.16 42.19, 110.22 37.5 M100.87 48.58 C102.77 45.43, 105.3 42.85, 110.59 37.4 M105.73 49.26 C107.73 45.75, 109.63 43.22, 111.41 43.28 M105.89 48.88 C107.44 47.21, 109.08 45.8, 111.38 42.76" stroke="#40c057" stroke-width="0.5" fill="none"></path><path d="M0.97 -1.73 C36.09 -1.25, 75.05 0.17, 109.6 -0.62 M0.29 -0.04 C26.72 0.42, 52.19 0.68, 110.38 -0.69 M109.54 -0.47 C111.94 15.75, 112.22 26.35, 111.49 49.81 M111.27 -0.17 C110.14 17.97, 110.55 35.05, 110.2 48.94 M112.36 47.22 C69.68 49.9, 28.21 47.81, 1.46 47.54 M111.72 48.06 C70.09 49.1, 27.33 48.45, 0.22 47.37 M-0.42 48.27 C-0.24 28.89, -1.88 8.45, 0.88 1.69 M0.47 47.15 C-0.14 33.65, 0.54 20.02, -0.91 0.09" stroke="#000000" stroke-width="1" fill="none"></path></g><g transform="translate(462.19002532958984 106.5) rotate(0 23.309974670410156 12.5)"><text x="23.309974670410156" y="0" font-family="Virgil, Segoe UI Emoji" font-size="20px" fill="#000000" text-anchor="middle" style="white-space: pre;" direction="ltr" dominant-baseline="text-before-edge">First</text></g><g stroke-linecap="round"><g transform="translate(342.70541870081377 14.886168231018871) rotate(0 -16.664816119998477 15.1969905881503)"><path d="M1.11 0.38 C-4.51 5.57, -27.76 26.16, -33.81 30.86 M0.23 -0.46 C-5.48 4.44, -28.94 24.37, -34.44 29.32" stroke="#000000" stroke-width="1" fill="none"></path></g></g><mask></mask><g stroke-linecap="round"><g transform="translate(305.1454928758069 14.886168231018871) rotate(0 19.534569243255362 15.816116532934672)"><path d="M-0.11 -0.52 C6.31 4.79, 31.95 26.97, 38.38 32.16 M-1.63 1.82 C5.19 6.78, 34.2 25.52, 40.7 30.48" stroke="#000000" stroke-width="1" fill="none"></path></g></g><mask></mask><g stroke-linecap="round"><g transform="translate(347.52789212393566 96.83385256081817) rotate(0 -21.449850116870323 19.329519949085082)"><path d="M1.11 0.38 C-6.1 6.94, -35.73 33.05, -43.38 39.12 M0.23 -0.46 C-7.08 5.81, -36.92 31.26, -44.01 37.59" stroke="#000000" stroke-width="1" fill="none"></path></g></g><mask></mask><g stroke-linecap="round"><g transform="translate(299.52789212393566 96.83385256081817) rotate(0 24.972107876064285 20.1661474391818)"><path d="M-0.11 -0.52 C8.12 6.24, 41.01 34.22, 49.25 40.86 M-1.63 1.82 C7 8.23, 43.26 32.77, 51.57 39.18" stroke="#000000" stroke-width="1" fill="none"></path></g></g><mask></mask><g stroke-linecap="round"><g transform="translate(751.401201671211 20.70597334180445) rotate(0 -16.07431729373036 14.687014329100535)"><path d="M1.11 0.38 C-4.31 5.4, -26.77 25.31, -32.63 29.84 M0.23 -0.46 C-5.28 4.27, -27.96 23.52, -33.26 28.3" stroke="#000000" stroke-width="1" fill="none"></path></g></g><mask></mask><g stroke-linecap="round"><g transform="translate(715.1296369216982 20.70597334180445) rotate(0 18.86354784976885 15.279299418145442)"><path d="M-0.11 -0.52 C6.09 4.61, 30.83 26.07, 37.04 31.08 M-1.63 1.82 C4.97 6.6, 33.08 24.63, 39.36 29.41" stroke="#000000" stroke-width="1" fill="none"></path></g></g><mask></mask><g stroke-linecap="round"><g transform="translate(750.3345149804858 102.69472484317458) rotate(0 -15.601475231804727 14.278650730164784)"><path d="M1.11 0.38 C-4.15 5.26, -25.99 24.63, -31.69 29.02 M0.23 -0.46 C-5.13 4.13, -27.17 22.84, -32.31 27.49" stroke="#000000" stroke-width="1" fill="none"></path></g></g><mask></mask><g stroke-linecap="round"><g transform="translate(715.0946056388107 102.69472484317458) rotate(0 18.32622732485339 14.849442998213078)"><path d="M-0.11 -0.52 C5.91 4.47, 29.93 25.35, 35.96 30.22 M-1.63 1.82 C4.79 6.46, 32.18 23.91, 38.28 28.55" stroke="#000000" stroke-width="1" fill="none"></path></g></g><mask></mask><g stroke-linecap="round" transform="translate(16 211) rotate(0 57.5 24)"><path d="M0 0 C0 0, 0 0, 0 0 M0 0 C0 0, 0 0, 0 0 M0.21 6.18 C1.15 5.59, 1.92 3.34, 5.75 0.42 M-0.3 6.41 C0.65 5.26, 1.99 3.77, 4.59 0.34 M-1.2 11.75 C4.6 9.84, 6.2 7.08, 9.58 1.56 M-0.41 12.4 C2.8 8.09, 5.99 4.15, 11.38 -0.7 M-0.89 18.92 C3.04 14.02, 8.7 7.06, 16.62 -1.1 M-1 17.83 C3.41 13.59, 7.36 11.13, 15.65 -0.48 M2.06 22.93 C5.96 14.52, 15.25 7.53, 20.13 0 M-0.65 24.19 C7.1 16.57, 13.09 9.23, 20.67 -0.33 M-1.83 31.73 C11.03 19.28, 18.94 8.96, 28.21 -0.79 M0.95 30.87 C8.26 20.67, 15.4 12.51, 26.73 -0.01 M0.94 36.36 C12.23 22.05, 23.99 8.51, 29.9 1.4 M0.08 36.57 C12.18 23.53, 23.49 10.69, 32.73 0.25 M-1.11 40.77 C9.66 34.61, 15.19 26.15, 35.97 -0.03 M0.61 42.92 C8.54 33.35, 15.5 24.45, 36.87 0.83 M0.62 46.96 C10.55 37.27, 19.96 25.88, 42.64 -1.53 M0.61 49.1 C13.71 32.18, 28.92 16.88, 41.76 -0.16 M3.76 47.06 C20.28 33.9, 33.21 18.58, 48.61 0.25 M4.61 47.53 C20.01 31.1, 34.08 14.79, 46.96 0.36 M11.58 46.77 C18.97 38.02, 28.42 27.42, 54.77 -1.93 M11.74 48.91 C21.58 35.16, 33.47 23.38, 54.05 -0.38 M14.47 48.21 C26.81 38.76, 37.42 24.07, 57.27 -0.29 M16.62 48.52 C28.28 32.34, 42.2 17.46, 57.19 0.14 M20.38 49.5 C35.6 33.8, 44.66 19.82, 63.17 1.63 M21.2 47.49 C35.04 32.21, 49.85 17.74, 64.18 -1.01 M27.89 50.45 C38.35 33.76, 52.84 15.57, 67.55 -1.45 M27.33 47.96 C40.83 30.8, 57.58 13.01, 69.02 0.93 M33.87 46.11 C47.31 28.54, 64.15 13.11, 73.15 1.13 M31.82 48.24 C49.27 29.3, 64.59 12.11, 74.99 -0.42 M38.58 48.5 C48.62 38.16, 57.75 24.46, 79.47 1.55 M36.98 48.08 C51.13 30.3, 65.95 14.69, 79.19 0.7 M41.31 48.12 C56.95 33.34, 69.17 18.79, 86.45 -0.87 M43.72 47.76 C51.22 37.12, 59.71 28.18, 85.62 -0.76 M49.52 47.66 C60.86 33.12, 76.54 14.86, 91.5 2.02 M48.07 49.35 C64.58 31.54, 79.27 12.82, 89.73 0.65 M54.43 47.6 C63.76 36.64, 74.34 23.04, 97.24 0.75 M54.3 47.87 C67.28 29.96, 81.98 13.34, 95.49 0.01 M60.16 47.82 C70.85 32.92, 87.92 14.42, 100.54 1.88 M59.4 48.47 C71.8 34.49, 82.27 20.68, 99.95 -0.78 M62.72 49.97 C77.58 35.43, 91.85 18.64, 108.17 1.65 M63.58 48.38 C73.23 37.39, 83.43 25.18, 106.3 0.18 M70.37 47.38 C82 33.87, 90 23.06, 109.92 -0.42 M70.04 48.34 C81.29 34.83, 91.83 23.47, 110.44 0.03 M76.07 46.92 C89.33 31.08, 100.76 18.24, 116.95 1.59 M74.85 48.04 C83.93 37.52, 92.14 27.14, 114.71 1.76 M80.44 47.34 C89.1 37.49, 101.83 23.75, 115.52 4.93 M79.34 48.06 C87.39 38.28, 96.92 29.63, 115.15 6.73 M84.87 48.97 C92.08 41.25, 96.98 32, 115.23 14.43 M84.69 49.08 C97.79 35.58, 110.15 21.6, 115.11 12.52 M91.14 47.26 C97.77 36.37, 109.46 27.88, 114.87 20 M90.95 49 C100.19 37.16, 108.1 26.94, 116.56 17.9 M94.57 50.46 C101.45 40.26, 107.9 34.84, 116.12 24.97 M95.63 48.21 C103.53 40.78, 109.07 31.37, 115.23 24.82 M99.63 49.24 C103.2 45.48, 105.69 39.54, 114.55 32.42 M100.76 48.71 C103.58 44.15, 107.25 40.36, 115.03 32.29 M105.35 49.86 C109.08 43.28, 112.65 38.53, 115.99 38.65 M105.64 49.15 C108.55 46.01, 111.61 43.38, 115.92 37.68 M111.74 48.71 C112.94 46.53, 114.15 46.53, 116.12 44.17 M111.57 48.41 C112.65 46.92, 113.98 45.68, 115.71 43.43" stroke="red" stroke-width="0.5" fill="none"></path><path d="M0.97 -1.73 C37.44 -1.22, 77.74 0.2, 113.6 -0.62 M0.29 -0.04 C27.67 0.42, 54.09 0.68, 114.38 -0.69 M113.54 -0.47 C115.94 15.75, 116.22 26.35, 115.49 49.81 M115.27 -0.17 C114.14 17.97, 114.55 35.05, 114.2 48.94 M116.36 47.22 C72.21 49.93, 29.26 47.83, 1.46 47.54 M115.72 48.06 C72.59 49.11, 28.33 48.46, 0.22 47.37 M-0.42 48.27 C-0.24 28.89, -1.88 8.45, 0.88 1.69 M0.47 47.15 C-0.14 33.65, 0.54 20.02, -0.91 0.09" stroke="#000000" stroke-width="1" fill="none"></path></g><g transform="translate(49.76002502441406 222.5) rotate(0 23.739974975585938 12.5)"><text x="23.739974975585938" y="0" font-family="Virgil, Segoe UI Emoji" font-size="20px" fill="#000000" text-anchor="middle" style="white-space: pre;" direction="ltr" dominant-baseline="text-before-edge">Last</text></g><g stroke-linecap="round" transform="translate(144 288) rotate(0 57.5 24)"><path d="M0 0 C0 0, 0 0, 0 0 M0 0 C0 0, 0 0, 0 0 M0.21 6.18 C1.15 5.59, 1.92 3.34, 5.75 0.42 M-0.3 6.41 C0.65 5.26, 1.99 3.77, 4.59 0.34 M-1.2 11.75 C4.6 9.84, 6.2 7.08, 9.58 1.56 M-0.41 12.4 C2.8 8.09, 5.99 4.15, 11.38 -0.7 M-0.89 18.92 C3.04 14.02, 8.7 7.06, 16.62 -1.1 M-1 17.83 C3.41 13.59, 7.36 11.13, 15.65 -0.48 M2.06 22.93 C5.96 14.52, 15.25 7.53, 20.13 0 M-0.65 24.19 C7.1 16.57, 13.09 9.23, 20.67 -0.33 M-1.83 31.73 C11.03 19.28, 18.94 8.96, 28.21 -0.79 M0.95 30.87 C8.26 20.67, 15.4 12.51, 26.73 -0.01 M0.94 36.36 C12.23 22.05, 23.99 8.51, 29.9 1.4 M0.08 36.57 C12.18 23.53, 23.49 10.69, 32.73 0.25 M-1.11 40.77 C9.66 34.61, 15.19 26.15, 35.97 -0.03 M0.61 42.92 C8.54 33.35, 15.5 24.45, 36.87 0.83 M0.62 46.96 C10.55 37.27, 19.96 25.88, 42.64 -1.53 M0.61 49.1 C13.71 32.18, 28.92 16.88, 41.76 -0.16 M3.76 47.06 C20.28 33.9, 33.21 18.58, 48.61 0.25 M4.61 47.53 C20.01 31.1, 34.08 14.79, 46.96 0.36 M11.58 46.77 C18.97 38.02, 28.42 27.42, 54.77 -1.93 M11.74 48.91 C21.58 35.16, 33.47 23.38, 54.05 -0.38 M14.47 48.21 C26.81 38.76, 37.42 24.07, 57.27 -0.29 M16.62 48.52 C28.28 32.34, 42.2 17.46, 57.19 0.14 M20.38 49.5 C35.6 33.8, 44.66 19.82, 63.17 1.63 M21.2 47.49 C35.04 32.21, 49.85 17.74, 64.18 -1.01 M27.89 50.45 C38.35 33.76, 52.84 15.57, 67.55 -1.45 M27.33 47.96 C40.83 30.8, 57.58 13.01, 69.02 0.93 M33.87 46.11 C47.31 28.54, 64.15 13.11, 73.15 1.13 M31.82 48.24 C49.27 29.3, 64.59 12.11, 74.99 -0.42 M38.58 48.5 C48.62 38.16, 57.75 24.46, 79.47 1.55 M36.98 48.08 C51.13 30.3, 65.95 14.69, 79.19 0.7 M41.31 48.12 C56.95 33.34, 69.17 18.79, 86.45 -0.87 M43.72 47.76 C51.22 37.12, 59.71 28.18, 85.62 -0.76 M49.52 47.66 C60.86 33.12, 76.54 14.86, 91.5 2.02 M48.07 49.35 C64.58 31.54, 79.27 12.82, 89.73 0.65 M54.43 47.6 C63.76 36.64, 74.34 23.04, 97.24 0.75 M54.3 47.87 C67.28 29.96, 81.98 13.34, 95.49 0.01 M60.16 47.82 C70.85 32.92, 87.92 14.42, 100.54 1.88 M59.4 48.47 C71.8 34.49, 82.27 20.68, 99.95 -0.78 M62.72 49.97 C77.58 35.43, 91.85 18.64, 108.17 1.65 M63.58 48.38 C73.23 37.39, 83.43 25.18, 106.3 0.18 M70.37 47.38 C82 33.87, 90 23.06, 109.92 -0.42 M70.04 48.34 C81.29 34.83, 91.83 23.47, 110.44 0.03 M76.07 46.92 C89.33 31.08, 100.76 18.24, 116.95 1.59 M74.85 48.04 C83.93 37.52, 92.14 27.14, 114.71 1.76 M80.44 47.34 C89.1 37.49, 101.83 23.75, 115.52 4.93 M79.34 48.06 C87.39 38.28, 96.92 29.63, 115.15 6.73 M84.87 48.97 C92.08 41.25, 96.98 32, 115.23 14.43 M84.69 49.08 C97.79 35.58, 110.15 21.6, 115.11 12.52 M91.14 47.26 C97.77 36.37, 109.46 27.88, 114.87 20 M90.95 49 C100.19 37.16, 108.1 26.94, 116.56 17.9 M94.57 50.46 C101.45 40.26, 107.9 34.84, 116.12 24.97 M95.63 48.21 C103.53 40.78, 109.07 31.37, 115.23 24.82 M99.63 49.24 C103.2 45.48, 105.69 39.54, 114.55 32.42 M100.76 48.71 C103.58 44.15, 107.25 40.36, 115.03 32.29 M105.35 49.86 C109.08 43.28, 112.65 38.53, 115.99 38.65 M105.64 49.15 C108.55 46.01, 111.61 43.38, 115.92 37.68 M111.74 48.71 C112.94 46.53, 114.15 46.53, 116.12 44.17 M111.57 48.41 C112.65 46.92, 113.98 45.68, 115.71 43.43" stroke="blue" stroke-width="0.5" fill="none"></path><path d="M0.97 -1.73 C37.44 -1.22, 77.74 0.2, 113.6 -0.62 M0.29 -0.04 C27.67 0.42, 54.09 0.68, 114.38 -0.69 M113.54 -0.47 C115.94 15.75, 116.22 26.35, 115.49 49.81 M115.27 -0.17 C114.14 17.97, 114.55 35.05, 114.2 48.94 M116.36 47.22 C72.21 49.93, 29.26 47.83, 1.46 47.54 M115.72 48.06 C72.59 49.11, 28.33 48.46, 0.22 47.37 M-0.42 48.27 C-0.24 28.89, -1.88 8.45, 0.88 1.69 M0.47 47.15 C-0.14 33.65, 0.54 20.02, -0.91 0.09" stroke="#000000" stroke-width="1" fill="none"></path></g><g transform="translate(172.17002868652344 299.5) rotate(0 29.329971313476562 12.5)"><text x="29.329971313476562" y="0" font-family="Virgil, Segoe UI Emoji" font-size="20px" fill="#000000" text-anchor="middle" style="white-space: pre;" direction="ltr" dominant-baseline="text-before-edge">Middle</text></g><g stroke-linecap="round" transform="translate(21 287) rotate(0 55.5 24)"><path d="M0 0 C0 0, 0 0, 0 0 M0 0 C0 0, 0 0, 0 0 M0.21 6.18 C1.15 5.59, 1.92 3.34, 5.75 0.42 M-0.3 6.41 C0.65 5.26, 1.99 3.77, 4.59 0.34 M-1.2 11.75 C4.6 9.84, 6.2 7.08, 9.58 1.56 M-0.41 12.4 C2.8 8.09, 5.99 4.15, 11.38 -0.7 M-0.89 18.92 C3.04 14.02, 8.7 7.06, 16.62 -1.1 M-1 17.83 C3.41 13.59, 7.36 11.13, 15.65 -0.48 M2.06 22.93 C5.96 14.52, 15.25 7.53, 20.13 0 M-0.65 24.19 C7.1 16.57, 13.09 9.23, 20.67 -0.33 M-1.83 31.73 C11.03 19.28, 18.94 8.96, 28.21 -0.79 M0.95 30.87 C8.26 20.67, 15.4 12.51, 26.73 -0.01 M0.94 36.36 C12.23 22.05, 23.99 8.51, 29.9 1.4 M0.08 36.57 C12.18 23.53, 23.49 10.69, 32.73 0.25 M-1.11 40.77 C9.66 34.61, 15.19 26.15, 35.97 -0.03 M0.61 42.92 C8.54 33.35, 15.5 24.45, 36.87 0.83 M0.62 46.96 C10.55 37.27, 19.96 25.88, 42.64 -1.53 M0.61 49.1 C13.71 32.18, 28.92 16.88, 41.76 -0.16 M3.76 47.06 C20.28 33.9, 33.21 18.58, 48.61 0.25 M4.61 47.53 C20.01 31.1, 34.08 14.79, 46.96 0.36 M11.58 46.77 C18.97 38.02, 28.42 27.42, 54.77 -1.93 M11.74 48.91 C21.58 35.16, 33.47 23.38, 54.05 -0.38 M14.47 48.21 C26.81 38.76, 37.42 24.07, 57.27 -0.29 M16.62 48.52 C28.28 32.34, 42.2 17.46, 57.19 0.14 M20.38 49.5 C35.6 33.8, 44.66 19.82, 63.17 1.63 M21.2 47.49 C35.04 32.21, 49.85 17.74, 64.18 -1.01 M27.89 50.45 C38.35 33.76, 52.84 15.57, 67.55 -1.45 M27.33 47.96 C40.83 30.8, 57.58 13.01, 69.02 0.93 M33.87 46.11 C47.31 28.54, 64.15 13.11, 73.15 1.13 M31.82 48.24 C49.27 29.3, 64.59 12.11, 74.99 -0.42 M38.58 48.5 C48.62 38.16, 57.75 24.46, 79.47 1.55 M36.98 48.08 C51.13 30.3, 65.95 14.69, 79.19 0.7 M41.31 48.12 C56.95 33.34, 69.17 18.79, 86.45 -0.87 M43.72 47.76 C51.22 37.12, 59.71 28.18, 85.62 -0.76 M49.52 47.66 C60.86 33.12, 76.54 14.86, 91.5 2.02 M48.07 49.35 C64.58 31.54, 79.27 12.82, 89.73 0.65 M54.43 47.6 C63.76 36.64, 74.34 23.04, 97.24 0.75 M54.3 47.87 C67.28 29.96, 81.98 13.34, 95.49 0.01 M60.16 47.82 C70.85 32.92, 87.92 14.42, 100.54 1.88 M59.4 48.47 C71.8 34.49, 82.27 20.68, 99.95 -0.78 M62.72 49.97 C77.58 35.43, 91.85 18.64, 108.17 1.65 M63.58 48.38 C73.23 37.39, 83.43 25.18, 106.3 0.18 M70.37 47.38 C82 33.87, 90 23.06, 109.92 -0.42 M70.04 48.34 C81.29 34.83, 91.83 23.47, 110.44 0.03 M76.07 46.92 C87.77 32.81, 97.66 21.75, 112.36 6.88 M74.85 48.04 C82.9 38.66, 90.1 29.44, 110.12 7.04 M80.44 47.34 C87.71 39.1, 99.02 27, 110.93 10.21 M79.34 48.06 C86.32 39.52, 94.81 32.08, 110.56 12.02 M84.87 48.97 C91.05 42.46, 94.88 34.42, 110.64 19.72 M84.69 49.08 C95.97 37.64, 106.51 25.74, 110.52 17.8 M91.14 47.26 C95.93 38.49, 105.78 32.12, 109.62 26.04 M90.95 49 C98.38 39.24, 104.44 31.15, 111.31 23.94 M94.57 50.46 C99.91 42.05, 104.85 38.38, 111.53 30.25 M95.63 48.21 C101.9 42.7, 105.8 35.19, 110.64 30.1 M100.02 48.98 C102.5 46.41, 104.16 42.19, 110.22 37.5 M100.87 48.58 C102.77 45.43, 105.3 42.85, 110.59 37.4 M105.73 49.26 C107.73 45.75, 109.63 43.22, 111.41 43.28 M105.89 48.88 C107.44 47.21, 109.08 45.8, 111.38 42.76" stroke="#ced4da" stroke-width="0.5" fill="none"></path><path d="M0.97 -1.73 C36.09 -1.25, 75.05 0.17, 109.6 -0.62 M0.29 -0.04 C26.72 0.42, 52.19 0.68, 110.38 -0.69 M109.54 -0.47 C111.94 15.75, 112.22 26.35, 111.49 49.81 M111.27 -0.17 C110.14 17.97, 110.55 35.05, 110.2 48.94 M112.36 47.22 C69.68 49.9, 28.21 47.81, 1.46 47.54 M111.72 48.06 C70.09 49.1, 27.33 48.45, 0.22 47.37 M-0.42 48.27 C-0.24 28.89, -1.88 8.45, 0.88 1.69 M0.47 47.15 C-0.14 33.65, 0.54 20.02, -0.91 0.09" stroke="#000000" stroke-width="1" fill="none"></path></g><g transform="translate(48.1600341796875 298.5) rotate(0 28.3399658203125 12.5)"><text x="28.3399658203125" y="0" font-family="Virgil, Segoe UI Emoji" font-size="20px" fill="#000000" text-anchor="middle" style="white-space: pre;" direction="ltr" dominant-baseline="text-before-edge">Empty</text></g><g stroke-linecap="round" transform="translate(541 206) rotate(0 57.5 24)"><path d="M0 0 C0 0, 0 0, 0 0 M0 0 C0 0, 0 0, 0 0 M0.21 6.18 C1.15 5.59, 1.92 3.34, 5.75 0.42 M-0.3 6.41 C0.65 5.26, 1.99 3.77, 4.59 0.34 M-1.2 11.75 C4.6 9.84, 6.2 7.08, 9.58 1.56 M-0.41 12.4 C2.8 8.09, 5.99 4.15, 11.38 -0.7 M-0.89 18.92 C3.04 14.02, 8.7 7.06, 16.62 -1.1 M-1 17.83 C3.41 13.59, 7.36 11.13, 15.65 -0.48 M2.06 22.93 C5.96 14.52, 15.25 7.53, 20.13 0 M-0.65 24.19 C7.1 16.57, 13.09 9.23, 20.67 -0.33 M-1.83 31.73 C11.03 19.28, 18.94 8.96, 28.21 -0.79 M0.95 30.87 C8.26 20.67, 15.4 12.51, 26.73 -0.01 M0.94 36.36 C12.23 22.05, 23.99 8.51, 29.9 1.4 M0.08 36.57 C12.18 23.53, 23.49 10.69, 32.73 0.25 M-1.11 40.77 C9.66 34.61, 15.19 26.15, 35.97 -0.03 M0.61 42.92 C8.54 33.35, 15.5 24.45, 36.87 0.83 M0.62 46.96 C10.55 37.27, 19.96 25.88, 42.64 -1.53 M0.61 49.1 C13.71 32.18, 28.92 16.88, 41.76 -0.16 M3.76 47.06 C20.28 33.9, 33.21 18.58, 48.61 0.25 M4.61 47.53 C20.01 31.1, 34.08 14.79, 46.96 0.36 M11.58 46.77 C18.97 38.02, 28.42 27.42, 54.77 -1.93 M11.74 48.91 C21.58 35.16, 33.47 23.38, 54.05 -0.38 M14.47 48.21 C26.81 38.76, 37.42 24.07, 57.27 -0.29 M16.62 48.52 C28.28 32.34, 42.2 17.46, 57.19 0.14 M20.38 49.5 C35.6 33.8, 44.66 19.82, 63.17 1.63 M21.2 47.49 C35.04 32.21, 49.85 17.74, 64.18 -1.01 M27.89 50.45 C38.35 33.76, 52.84 15.57, 67.55 -1.45 M27.33 47.96 C40.83 30.8, 57.58 13.01, 69.02 0.93 M33.87 46.11 C47.31 28.54, 64.15 13.11, 73.15 1.13 M31.82 48.24 C49.27 29.3, 64.59 12.11, 74.99 -0.42 M38.58 48.5 C48.62 38.16, 57.75 24.46, 79.47 1.55 M36.98 48.08 C51.13 30.3, 65.95 14.69, 79.19 0.7 M41.31 48.12 C56.95 33.34, 69.17 18.79, 86.45 -0.87 M43.72 47.76 C51.22 37.12, 59.71 28.18, 85.62 -0.76 M49.52 47.66 C60.86 33.12, 76.54 14.86, 91.5 2.02 M48.07 49.35 C64.58 31.54, 79.27 12.82, 89.73 0.65 M54.43 47.6 C63.76 36.64, 74.34 23.04, 97.24 0.75 M54.3 47.87 C67.28 29.96, 81.98 13.34, 95.49 0.01 M60.16 47.82 C70.85 32.92, 87.92 14.42, 100.54 1.88 M59.4 48.47 C71.8 34.49, 82.27 20.68, 99.95 -0.78 M62.72 49.97 C77.58 35.43, 91.85 18.64, 108.17 1.65 M63.58 48.38 C73.23 37.39, 83.43 25.18, 106.3 0.18 M70.37 47.38 C82 33.87, 90 23.06, 109.92 -0.42 M70.04 48.34 C81.29 34.83, 91.83 23.47, 110.44 0.03 M76.07 46.92 C89.33 31.08, 100.76 18.24, 116.95 1.59 M74.85 48.04 C83.93 37.52, 92.14 27.14, 114.71 1.76 M80.44 47.34 C89.1 37.49, 101.83 23.75, 115.52 4.93 M79.34 48.06 C87.39 38.28, 96.92 29.63, 115.15 6.73 M84.87 48.97 C92.08 41.25, 96.98 32, 115.23 14.43 M84.69 49.08 C97.79 35.58, 110.15 21.6, 115.11 12.52 M91.14 47.26 C97.77 36.37, 109.46 27.88, 114.87 20 M90.95 49 C100.19 37.16, 108.1 26.94, 116.56 17.9 M94.57 50.46 C101.45 40.26, 107.9 34.84, 116.12 24.97 M95.63 48.21 C103.53 40.78, 109.07 31.37, 115.23 24.82 M99.63 49.24 C103.2 45.48, 105.69 39.54, 114.55 32.42 M100.76 48.71 C103.58 44.15, 107.25 40.36, 115.03 32.29 M105.35 49.86 C109.08 43.28, 112.65 38.53, 115.99 38.65 M105.64 49.15 C108.55 46.01, 111.61 43.38, 115.92 37.68 M111.74 48.71 C112.94 46.53, 114.15 46.53, 116.12 44.17 M111.57 48.41 C112.65 46.92, 113.98 45.68, 115.71 43.43" stroke="purple" stroke-width="0.5" fill="none"></path><path d="M0.97 -1.73 C37.44 -1.22, 77.74 0.2, 113.6 -0.62 M0.29 -0.04 C27.67 0.42, 54.09 0.68, 114.38 -0.69 M113.54 -0.47 C115.94 15.75, 116.22 26.35, 115.49 49.81 M115.27 -0.17 C114.14 17.97, 114.55 35.05, 114.2 48.94 M116.36 47.22 C72.21 49.93, 29.26 47.83, 1.46 47.54 M115.72 48.06 C72.59 49.11, 28.33 48.46, 0.22 47.37 M-0.42 48.27 C-0.24 28.89, -1.88 8.45, 0.88 1.69 M0.47 47.15 C-0.14 33.65, 0.54 20.02, -0.91 0.09" stroke="#000000" stroke-width="1" fill="none"></path></g><g transform="translate(572.3800277709961 217.5) rotate(0 26.119972229003906 12.5)"><text x="26.119972229003906" y="0" font-family="Virgil, Segoe UI Emoji" font-size="20px" fill="#000000" text-anchor="middle" style="white-space: pre;" direction="ltr" dominant-baseline="text-before-edge">Flast</text></g><g stroke-linecap="round" transform="translate(416 205) rotate(0 57.5 24)"><path d="M0 0 C0 0, 0 0, 0 0 M0 0 C0 0, 0 0, 0 0 M0.21 6.18 C1.15 5.59, 1.92 3.34, 5.75 0.42 M-0.3 6.41 C0.65 5.26, 1.99 3.77, 4.59 0.34 M-1.2 11.75 C4.6 9.84, 6.2 7.08, 9.58 1.56 M-0.41 12.4 C2.8 8.09, 5.99 4.15, 11.38 -0.7 M-0.89 18.92 C3.04 14.02, 8.7 7.06, 16.62 -1.1 M-1 17.83 C3.41 13.59, 7.36 11.13, 15.65 -0.48 M2.06 22.93 C5.96 14.52, 15.25 7.53, 20.13 0 M-0.65 24.19 C7.1 16.57, 13.09 9.23, 20.67 -0.33 M-1.83 31.73 C11.03 19.28, 18.94 8.96, 28.21 -0.79 M0.95 30.87 C8.26 20.67, 15.4 12.51, 26.73 -0.01 M0.94 36.36 C12.23 22.05, 23.99 8.51, 29.9 1.4 M0.08 36.57 C12.18 23.53, 23.49 10.69, 32.73 0.25 M-1.11 40.77 C9.66 34.61, 15.19 26.15, 35.97 -0.03 M0.61 42.92 C8.54 33.35, 15.5 24.45, 36.87 0.83 M0.62 46.96 C10.55 37.27, 19.96 25.88, 42.64 -1.53 M0.61 49.1 C13.71 32.18, 28.92 16.88, 41.76 -0.16 M3.76 47.06 C20.28 33.9, 33.21 18.58, 48.61 0.25 M4.61 47.53 C20.01 31.1, 34.08 14.79, 46.96 0.36 M11.58 46.77 C18.97 38.02, 28.42 27.42, 54.77 -1.93 M11.74 48.91 C21.58 35.16, 33.47 23.38, 54.05 -0.38 M14.47 48.21 C26.81 38.76, 37.42 24.07, 57.27 -0.29 M16.62 48.52 C28.28 32.34, 42.2 17.46, 57.19 0.14 M20.38 49.5 C35.6 33.8, 44.66 19.82, 63.17 1.63 M21.2 47.49 C35.04 32.21, 49.85 17.74, 64.18 -1.01 M27.89 50.45 C38.35 33.76, 52.84 15.57, 67.55 -1.45 M27.33 47.96 C40.83 30.8, 57.58 13.01, 69.02 0.93 M33.87 46.11 C47.31 28.54, 64.15 13.11, 73.15 1.13 M31.82 48.24 C49.27 29.3, 64.59 12.11, 74.99 -0.42 M38.58 48.5 C48.62 38.16, 57.75 24.46, 79.47 1.55 M36.98 48.08 C51.13 30.3, 65.95 14.69, 79.19 0.7 M41.31 48.12 C56.95 33.34, 69.17 18.79, 86.45 -0.87 M43.72 47.76 C51.22 37.12, 59.71 28.18, 85.62 -0.76 M49.52 47.66 C60.86 33.12, 76.54 14.86, 91.5 2.02 M48.07 49.35 C64.58 31.54, 79.27 12.82, 89.73 0.65 M54.43 47.6 C63.76 36.64, 74.34 23.04, 97.24 0.75 M54.3 47.87 C67.28 29.96, 81.98 13.34, 95.49 0.01 M60.16 47.82 C70.85 32.92, 87.92 14.42, 100.54 1.88 M59.4 48.47 C71.8 34.49, 82.27 20.68, 99.95 -0.78 M62.72 49.97 C77.58 35.43, 91.85 18.64, 108.17 1.65 M63.58 48.38 C73.23 37.39, 83.43 25.18, 106.3 0.18 M70.37 47.38 C82 33.87, 90 23.06, 109.92 -0.42 M70.04 48.34 C81.29 34.83, 91.83 23.47, 110.44 0.03 M76.07 46.92 C89.33 31.08, 100.76 18.24, 116.95 1.59 M74.85 48.04 C83.93 37.52, 92.14 27.14, 114.71 1.76 M80.44 47.34 C89.1 37.49, 101.83 23.75, 115.52 4.93 M79.34 48.06 C87.39 38.28, 96.92 29.63, 115.15 6.73 M84.87 48.97 C92.08 41.25, 96.98 32, 115.23 14.43 M84.69 49.08 C97.79 35.58, 110.15 21.6, 115.11 12.52 M91.14 47.26 C97.77 36.37, 109.46 27.88, 114.87 20 M90.95 49 C100.19 37.16, 108.1 26.94, 116.56 17.9 M94.57 50.46 C101.45 40.26, 107.9 34.84, 116.12 24.97 M95.63 48.21 C103.53 40.78, 109.07 31.37, 115.23 24.82 M99.63 49.24 C103.2 45.48, 105.69 39.54, 114.55 32.42 M100.76 48.71 C103.58 44.15, 107.25 40.36, 115.03 32.29 M105.35 49.86 C109.08 43.28, 112.65 38.53, 115.99 38.65 M105.64 49.15 C108.55 46.01, 111.61 43.38, 115.92 37.68 M111.74 48.71 C112.94 46.53, 114.15 46.53, 116.12 44.17 M111.57 48.41 C112.65 46.92, 113.98 45.68, 115.71 43.43" stroke="blue" stroke-width="0.5" fill="none"></path><path d="M0.97 -1.73 C37.44 -1.22, 77.74 0.2, 113.6 -0.62 M0.29 -0.04 C27.67 0.42, 54.09 0.68, 114.38 -0.69 M113.54 -0.47 C115.94 15.75, 116.22 26.35, 115.49 49.81 M115.27 -0.17 C114.14 17.97, 114.55 35.05, 114.2 48.94 M116.36 47.22 C72.21 49.93, 29.26 47.83, 1.46 47.54 M115.72 48.06 C72.59 49.11, 28.33 48.46, 0.22 47.37 M-0.42 48.27 C-0.24 28.89, -1.88 8.45, 0.88 1.69 M0.47 47.15 C-0.14 33.65, 0.54 20.02, -0.91 0.09" stroke="#000000" stroke-width="1" fill="none"></path></g><g transform="translate(444.17002868652344 216.5) rotate(0 29.329971313476562 12.5)"><text x="29.329971313476562" y="0" font-family="Virgil, Segoe UI Emoji" font-size="20px" fill="#000000" text-anchor="middle" style="white-space: pre;" direction="ltr" dominant-baseline="text-before-edge">Middle</text></g><g stroke-linecap="round" transform="translate(545.5 283.5) rotate(0 57.5 24)"><path d="M0 0 C0 0, 0 0, 0 0 M0 0 C0 0, 0 0, 0 0 M0.21 6.18 C1.15 5.59, 1.92 3.34, 5.75 0.42 M-0.3 6.41 C0.65 5.26, 1.99 3.77, 4.59 0.34 M-1.2 11.75 C4.6 9.84, 6.2 7.08, 9.58 1.56 M-0.41 12.4 C2.8 8.09, 5.99 4.15, 11.38 -0.7 M-0.89 18.92 C3.04 14.02, 8.7 7.06, 16.62 -1.1 M-1 17.83 C3.41 13.59, 7.36 11.13, 15.65 -0.48 M2.06 22.93 C5.96 14.52, 15.25 7.53, 20.13 0 M-0.65 24.19 C7.1 16.57, 13.09 9.23, 20.67 -0.33 M-1.83 31.73 C11.03 19.28, 18.94 8.96, 28.21 -0.79 M0.95 30.87 C8.26 20.67, 15.4 12.51, 26.73 -0.01 M0.94 36.36 C12.23 22.05, 23.99 8.51, 29.9 1.4 M0.08 36.57 C12.18 23.53, 23.49 10.69, 32.73 0.25 M-1.11 40.77 C9.66 34.61, 15.19 26.15, 35.97 -0.03 M0.61 42.92 C8.54 33.35, 15.5 24.45, 36.87 0.83 M0.62 46.96 C10.55 37.27, 19.96 25.88, 42.64 -1.53 M0.61 49.1 C13.71 32.18, 28.92 16.88, 41.76 -0.16 M3.76 47.06 C20.28 33.9, 33.21 18.58, 48.61 0.25 M4.61 47.53 C20.01 31.1, 34.08 14.79, 46.96 0.36 M11.58 46.77 C18.97 38.02, 28.42 27.42, 54.77 -1.93 M11.74 48.91 C21.58 35.16, 33.47 23.38, 54.05 -0.38 M14.47 48.21 C26.81 38.76, 37.42 24.07, 57.27 -0.29 M16.62 48.52 C28.28 32.34, 42.2 17.46, 57.19 0.14 M20.38 49.5 C35.6 33.8, 44.66 19.82, 63.17 1.63 M21.2 47.49 C35.04 32.21, 49.85 17.74, 64.18 -1.01 M27.89 50.45 C38.35 33.76, 52.84 15.57, 67.55 -1.45 M27.33 47.96 C40.83 30.8, 57.58 13.01, 69.02 0.93 M33.87 46.11 C47.31 28.54, 64.15 13.11, 73.15 1.13 M31.82 48.24 C49.27 29.3, 64.59 12.11, 74.99 -0.42 M38.58 48.5 C48.62 38.16, 57.75 24.46, 79.47 1.55 M36.98 48.08 C51.13 30.3, 65.95 14.69, 79.19 0.7 M41.31 48.12 C56.95 33.34, 69.17 18.79, 86.45 -0.87 M43.72 47.76 C51.22 37.12, 59.71 28.18, 85.62 -0.76 M49.52 47.66 C60.86 33.12, 76.54 14.86, 91.5 2.02 M48.07 49.35 C64.58 31.54, 79.27 12.82, 89.73 0.65 M54.43 47.6 C63.76 36.64, 74.34 23.04, 97.24 0.75 M54.3 47.87 C67.28 29.96, 81.98 13.34, 95.49 0.01 M60.16 47.82 C70.85 32.92, 87.92 14.42, 100.54 1.88 M59.4 48.47 C71.8 34.49, 82.27 20.68, 99.95 -0.78 M62.72 49.97 C77.58 35.43, 91.85 18.64, 108.17 1.65 M63.58 48.38 C73.23 37.39, 83.43 25.18, 106.3 0.18 M70.37 47.38 C82 33.87, 90 23.06, 109.92 -0.42 M70.04 48.34 C81.29 34.83, 91.83 23.47, 110.44 0.03 M76.07 46.92 C89.33 31.08, 100.76 18.24, 116.95 1.59 M74.85 48.04 C83.93 37.52, 92.14 27.14, 114.71 1.76 M80.44 47.34 C89.1 37.49, 101.83 23.75, 115.52 4.93 M79.34 48.06 C87.39 38.28, 96.92 29.63, 115.15 6.73 M84.87 48.97 C92.08 41.25, 96.98 32, 115.23 14.43 M84.69 49.08 C97.79 35.58, 110.15 21.6, 115.11 12.52 M91.14 47.26 C97.77 36.37, 109.46 27.88, 114.87 20 M90.95 49 C100.19 37.16, 108.1 26.94, 116.56 17.9 M94.57 50.46 C101.45 40.26, 107.9 34.84, 116.12 24.97 M95.63 48.21 C103.53 40.78, 109.07 31.37, 115.23 24.82 M99.63 49.24 C103.2 45.48, 105.69 39.54, 114.55 32.42 M100.76 48.71 C103.58 44.15, 107.25 40.36, 115.03 32.29 M105.35 49.86 C109.08 43.28, 112.65 38.53, 115.99 38.65 M105.64 49.15 C108.55 46.01, 111.61 43.38, 115.92 37.68 M111.74 48.71 C112.94 46.53, 114.15 46.53, 116.12 44.17 M111.57 48.41 C112.65 46.92, 113.98 45.68, 115.71 43.43" stroke="purple" stroke-width="0.5" fill="none"></path><path d="M0.97 -1.73 C37.44 -1.22, 77.74 0.2, 113.6 -0.62 M0.29 -0.04 C27.67 0.42, 54.09 0.68, 114.38 -0.69 M113.54 -0.47 C115.94 15.75, 116.22 26.35, 115.49 49.81 M115.27 -0.17 C114.14 17.97, 114.55 35.05, 114.2 48.94 M116.36 47.22 C72.21 49.93, 29.26 47.83, 1.46 47.54 M115.72 48.06 C72.59 49.11, 28.33 48.46, 0.22 47.37 M-0.42 48.27 C-0.24 28.89, -1.88 8.45, 0.88 1.69 M0.47 47.15 C-0.14 33.65, 0.54 20.02, -0.91 0.09" stroke="#000000" stroke-width="1" fill="none"></path></g><g transform="translate(576.8800277709961 295) rotate(0 26.119972229003906 12.5)"><text x="26.119972229003906" y="0" font-family="Virgil, Segoe UI Emoji" font-size="20px" fill="#000000" text-anchor="middle" style="white-space: pre;" direction="ltr" dominant-baseline="text-before-edge">Flast</text></g><g stroke-linecap="round"><g transform="translate(343.41368201682155 218.15055700178686) rotate(0 -15.601475231804727 14.27865073016477)"><path d="M1.11 0.38 C-4.15 5.26, -25.99 24.63, -31.69 29.02 M0.23 -0.46 C-5.13 4.13, -27.17 22.84, -32.31 27.49" stroke="#000000" stroke-width="1" fill="none"></path></g></g><mask></mask><g stroke-linecap="round"><g transform="translate(308.17377267514655 218.15055700178686) rotate(0 18.326227324853335 14.849442998213078)"><path d="M-0.11 -0.52 C5.91 4.47, 29.93 25.35, 35.96 30.22 M-1.63 1.82 C4.79 6.46, 32.18 23.91, 38.28 28.55" stroke="#000000" stroke-width="1" fill="none"></path></g></g><mask></mask><g stroke-linecap="round"><g transform="translate(345.41368201682155 295.15055700178686) rotate(0 -15.601475231804727 14.27865073016477)"><path d="M1.11 0.38 C-4.15 5.26, -25.99 24.63, -31.69 29.02 M0.23 -0.46 C-5.13 4.13, -27.17 22.84, -32.31 27.49" stroke="#000000" stroke-width="1" fill="none"></path></g></g><mask></mask><g stroke-linecap="round"><g transform="translate(310.17377267514655 295.15055700178686) rotate(0 18.326227324853335 14.849442998213078)"><path d="M-0.11 -0.52 C5.91 4.47, 29.93 25.35, 35.96 30.22 M-1.63 1.82 C4.79 6.46, 32.18 23.91, 38.28 28.55" stroke="#000000" stroke-width="1" fill="none"></path></g></g><mask></mask><g stroke-linecap="round"><g transform="translate(739.4136820168214 209.15055700178686) rotate(0 -15.601475231804727 14.27865073016477)"><path d="M1.11 0.38 C-4.15 5.26, -25.99 24.63, -31.69 29.02 M0.23 -0.46 C-5.13 4.13, -27.17 22.84, -32.31 27.49" stroke="#000000" stroke-width="1" fill="none"></path></g></g><mask></mask><g stroke-linecap="round"><g transform="translate(704.1737726751467 209.15055700178686) rotate(0 18.32622732485339 14.849442998213078)"><path d="M-0.11 -0.52 C5.91 4.47, 29.93 25.35, 35.96 30.22 M-1.63 1.82 C4.79 6.46, 32.18 23.91, 38.28 28.55" stroke="#000000" stroke-width="1" fill="none"></path></g></g><mask></mask><g stroke-linecap="round"><g transform="translate(745.4136820168214 290.15055700178686) rotate(0 -15.601475231804727 14.27865073016477)"><path d="M1.11 0.38 C-4.15 5.26, -25.99 24.63, -31.69 29.02 M0.23 -0.46 C-5.13 4.13, -27.17 22.84, -32.31 27.49" stroke="#000000" stroke-width="1" fill="none"></path></g></g><mask></mask><g stroke-linecap="round"><g transform="translate(710.1737726751467 290.15055700178686) rotate(0 18.32622732485339 14.849442998213078)"><path d="M-0.11 -0.52 C5.91 4.47, 29.93 25.35, 35.96 30.22 M-1.63 1.82 C4.79 6.46, 32.18 23.91, 38.28 28.55" stroke="#000000" stroke-width="1" fill="none"></path></g></g><mask></mask></svg>