<svg version="1.1" xmlns="http://www.w3.org/2000/svg" viewBox="0 0 909 538" width="909" height="538">
  <!-- svg-source:excalidraw -->
  
  <defs>
    <style class="style-fonts">
      @font-face {
        font-family: "Virgil";
        src: url("https://file%2B.vscode-resource.vscode-cdn.net/home/kiarie404/.vscode/extensions/pomdtr.excalidraw-editor-3.5.1/public//dist/excalidraw-assets/Virgil.woff2");
      }
      @font-face {
        font-family: "Cascadia";
        src: url("https://file%2B.vscode-resource.vscode-cdn.net/home/kiarie404/.vscode/extensions/pomdtr.excalidraw-editor-3.5.1/public//dist/excalidraw-assets/Cascadia.woff2");
      }
    </style>
  </defs>
  <rect x="0" y="0" width="909" height="538" fill="#ffffff"></rect><g stroke-linecap="round" transform="translate(10 11) rotate(0 127.5 27.5)"><path d="M13.75 0 M13.75 0 C69.05 -2.45, 123.19 -3.11, 241.25 0 M13.75 0 C70.9 -2.47, 128.34 -2.68, 241.25 0 M241.25 0 C250.56 1.23, 253.46 5.89, 255 13.75 M241.25 0 C250.13 -0.73, 256.72 5.68, 255 13.75 M255 13.75 C253.99 21.43, 256.76 29.04, 255 41.25 M255 13.75 C254.68 23.49, 256.09 31.74, 255 41.25 M255 41.25 C254.06 49.64, 249.08 54.68, 241.25 55 M255 41.25 C254.32 51.09, 251.47 54.12, 241.25 55 M241.25 55 C176.26 53.57, 109 55.81, 13.75 55 M241.25 55 C163.63 56.28, 85.83 55.62, 13.75 55 M13.75 55 C3.53 56.64, -1.88 49.37, 0 41.25 M13.75 55 C2.52 54.45, 0.69 52.5, 0 41.25 M0 41.25 C0.99 34.54, -1.21 24.55, 0 13.75 M0 41.25 C0.01 32.27, 0.47 24.28, 0 13.75 M0 13.75 C-1.25 5.67, 4.3 0.42, 13.75 0 M0 13.75 C0.26 4.54, 5.66 -1.4, 13.75 0" stroke="#000000" stroke-width="1" fill="none"></path></g><g stroke-linecap="round" transform="translate(404 10) rotate(0 139.5 29)"><path d="M14.5 0 M14.5 0 C108.6 0.68, 206.11 2.55, 264.5 0 M14.5 0 C93.12 -1.15, 170.53 -1.72, 264.5 0 M264.5 0 C274.4 -0.13, 279.08 4.82, 279 14.5 M264.5 0 C273.23 1.05, 279.42 3.39, 279 14.5 M279 14.5 C279.18 24.74, 279.9 33.83, 279 43.5 M279 14.5 C279.51 22.46, 279.43 28.08, 279 43.5 M279 43.5 C279.19 53, 272.7 59.35, 264.5 58 M279 43.5 C281.25 53.03, 271.95 58.35, 264.5 58 M264.5 58 C196.62 59.37, 128.22 59.78, 14.5 58 M264.5 58 C182.99 55.83, 102.18 56.92, 14.5 58 M14.5 58 C3.9 57.52, 1.59 52.74, 0 43.5 M14.5 58 C6.01 57.23, 1.4 53.24, 0 43.5 M0 43.5 C0.87 35.6, 1.26 27.42, 0 14.5 M0 43.5 C-0.78 32.49, 0.91 21.98, 0 14.5 M0 14.5 C1.44 6.17, 3.91 -1.38, 14.5 0 M0 14.5 C-0.83 2.57, 4.36 -1.46, 14.5 0" stroke="#000000" stroke-width="1" fill="none"></path></g><a href="http://wiki.ros.org/Courses"><g stroke-linecap="round" transform="translate(193 201) rotate(0 136 29.5)"><path d="M14.75 0 M14.75 0 C64.88 0.39, 113.16 0.47, 257.25 0 M14.75 0 C69.02 0.01, 121.42 -0.88, 257.25 0 M257.25 0 C266.1 -0.37, 270.29 5.92, 272 14.75 M257.25 0 C265.51 -0.03, 273.69 3.73, 272 14.75 M272 14.75 C273.84 22.79, 271.94 34.08, 272 44.25 M272 14.75 C271.81 24.66, 271.49 34.08, 272 44.25 M272 44.25 C271.2 54.46, 268.12 60.22, 257.25 59 M272 44.25 C272.14 56.14, 265.99 57.8, 257.25 59 M257.25 59 C203.67 56.9, 147.01 56.94, 14.75 59 M257.25 59 C193.63 60.27, 130.16 59.87, 14.75 59 M14.75 59 C3.73 57.81, -0.5 53.13, 0 44.25 M14.75 59 C4.66 60.79, -1.36 55.44, 0 44.25 M0 44.25 C-0.82 38.28, 1.25 30.34, 0 14.75 M0 44.25 C-0.2 38.51, -0.05 31.7, 0 14.75 M0 14.75 C-1.86 4.35, 5.53 1.21, 14.75 0 M0 14.75 C-1.21 6.5, 3.05 -1.94, 14.75 0" stroke="#000000" stroke-width="1" fill="none"></path></g></a><g stroke-linecap="round" transform="translate(190 201) rotate(0 354.5 162.5)"><path d="M-0.09 0.62 C170.2 1.82, 340.65 1, 709.39 -0.38 M-0.39 0.1 C222.54 1.97, 444.72 2.03, 708.73 -0.37 M708.27 0.95 C708.57 87.06, 710.3 176.08, 707.67 324.57 M708.94 -0.46 C708.7 68.33, 708.48 136.62, 709.37 324.34 M709.6 324.66 C554.58 327.37, 398.92 326.87, 0.53 325.17 M708.73 324.88 C462.14 324.95, 215.27 325.01, 0.39 325.31 M-0.6 325.15 C-1.42 241.36, -0.08 156.76, -1.21 0.86 M0.46 325.13 C0.74 232.19, 0.48 140.3, 0.55 0.2" stroke="#000000" stroke-width="1" fill="none"></path></g><g mask="url(#mask-Ywdmi55qemoevPldMwxHL)" stroke-linecap="round"><g transform="translate(159 66) rotate(0 56 65.5)"><path d="M0 0 C11.5 9, 50.33 32.17, 69 54 C87.67 75.83, 104.83 118.17, 112 131 M0 0 C11.5 9, 50.33 32.17, 69 54 C87.67 75.83, 104.83 118.17, 112 131" stroke="#000000" stroke-width="1" fill="none"></path></g><g transform="translate(159 66) rotate(0 56 65.5)"><path d="M90.36 110.22 C97.13 116.71, 103.89 123.21, 112 131 M90.36 110.22 C97.76 117.32, 105.16 124.43, 112 131" stroke="#000000" stroke-width="1" fill="none"></path></g><g transform="translate(159 66) rotate(0 56 65.5)"><path d="M108.78 101.17 C109.79 110.49, 110.79 119.82, 112 131 M108.78 101.17 C109.88 111.37, 110.98 121.57, 112 131" stroke="#000000" stroke-width="1" fill="none"></path></g></g><mask id="mask-Ywdmi55qemoevPldMwxHL"><rect x="0" y="0" fill="#fff" width="371" height="297"></rect><rect x="122.7578125" y="110.80000000000001" fill="#000" width="210.484375" height="18.4" opacity="1"></rect></mask><g transform="translate(122.7578125 110.80000000000001) rotate(0 92.2421875 20.69999999999999)"><text x="105.2421875" y="0" font-family="Helvetica, Segoe UI Emoji" font-size="16px" fill="#000000" text-anchor="middle" style="white-space: pre;" direction="ltr" dominant-baseline="text-before-edge">UART Serial Input connection</text></g><g mask="url(#mask-oRwm9BHn6b79F1H9QuG1N)" stroke-linecap="round"><g transform="translate(433 201) rotate(0 73.5 -66.5)"><path d="M0 0 C7.67 -13.17, 21.5 -56.83, 46 -79 C70.5 -101.17, 130.17 -124, 147 -133 M0 0 C7.67 -13.17, 21.5 -56.83, 46 -79 C70.5 -101.17, 130.17 -124, 147 -133" stroke="#000000" stroke-width="1" fill="none"></path></g><g transform="translate(433 201) rotate(0 73.5 -66.5)"><path d="M125.76 -111.81 C131.98 -118.01, 138.2 -124.21, 147 -133 M125.76 -111.81 C131.69 -117.72, 137.62 -123.64, 147 -133" stroke="#000000" stroke-width="1" fill="none"></path></g><g transform="translate(433 201) rotate(0 73.5 -66.5)"><path d="M117.11 -130.42 C125.86 -131.17, 134.61 -131.93, 147 -133 M117.11 -130.42 C125.45 -131.14, 133.8 -131.86, 147 -133" stroke="#000000" stroke-width="1" fill="none"></path></g></g><mask id="mask-oRwm9BHn6b79F1H9QuG1N"><rect x="0" y="0" fill="#fff" width="680" height="434"></rect><rect x="372.27734375" y="112.80000000000001" fill="#000" width="213.4453125" height="18.4" opacity="1"></rect></mask><g transform="translate(372.27734375 112.80000000000001) rotate(0 134.22265625 21.69999999999999)"><text x="106.72265625" y="0" font-family="Helvetica, Segoe UI Emoji" font-size="16px" fill="#000000" text-anchor="middle" style="white-space: pre;" direction="ltr" dominant-baseline="text-before-edge">Uart Serial Output Connection</text></g><g transform="translate(75 35) rotate(0 45.75995635986328 12.5)"><text x="0" y="0" font-family="Virgil, Segoe UI Emoji" font-size="20px" fill="#000000" text-anchor="start" style="white-space: pre;" direction="ltr" dominant-baseline="text-before-edge">KeyBoard</text></g><g transform="translate(477 36) rotate(0 75.56991577148438 12.5)"><text x="0" y="0" font-family="Virgil, Segoe UI Emoji" font-size="20px" fill="#000000" text-anchor="start" style="white-space: pre;" direction="ltr" dominant-baseline="text-before-edge">Console Output</text></g><g transform="translate(271 218) rotate(0 64.453125 12)"><text x="0" y="0" font-family="Cascadia, Segoe UI Emoji" font-size="20px" fill="#000000" text-anchor="start" style="white-space: pre;" direction="ltr" dominant-baseline="text-before-edge">Uart Device</text></g><g stroke-linecap="round"><g transform="translate(296 259) rotate(0 0.5 21)"><path d="M0 0 C0.17 7, 0.83 35, 1 42 M0 0 C0.17 7, 0.83 35, 1 42" stroke="#000000" stroke-width="1" fill="none"></path></g></g><mask></mask><g stroke-linecap="round"><g transform="translate(310.5 258) rotate(0 0.5 21)"><path d="M0 0 C0.17 7, 0.83 35, 1 42 M0 0 C0.17 7, 0.83 35, 1 42" stroke="#000000" stroke-width="1" fill="none"></path></g></g><mask></mask><g stroke-linecap="round"><g transform="translate(328.5 261) rotate(0 1 19)"><path d="M0 0 C0.33 6.33, 1.67 31.67, 2 38 M0 0 C0.33 6.33, 1.67 31.67, 2 38" stroke="#000000" stroke-width="1" fill="none"></path></g></g><mask></mask><g stroke-linecap="round"><g transform="translate(347.5 260) rotate(0 0.5 21)"><path d="M0 0 C0.17 7, 0.83 35, 1 42 M0 0 C0.17 7, 0.83 35, 1 42" stroke="#000000" stroke-width="1" fill="none"></path></g></g><mask></mask><g transform="translate(214 304) rotate(0 175.21484375 9.199999999999989)"><text x="0" y="0" font-family="Helvetica, Segoe UI Emoji" font-size="16px" fill="#000000" text-anchor="start" style="white-space: pre;" direction="ltr" dominant-baseline="text-before-edge">Parallel connection to the rest of the Motherboard</text></g><g stroke-linecap="round"><g transform="translate(297.75 333) rotate(0 0.5 21)"><path d="M0 0 C0.17 7, 0.83 35, 1 42 M0 0 C0.17 7, 0.83 35, 1 42" stroke="#000000" stroke-width="1" fill="none"></path></g></g><mask></mask><g stroke-linecap="round"><g transform="translate(312.25 332) rotate(0 0.5 21)"><path d="M0 0 C0.17 7, 0.83 35, 1 42 M0 0 C0.17 7, 0.83 35, 1 42" stroke="#000000" stroke-width="1" fill="none"></path></g></g><mask></mask><g stroke-linecap="round"><g transform="translate(330.25 335) rotate(0 1 19)"><path d="M0 0 C0.33 6.33, 1.67 31.67, 2 38 M0 0 C0.33 6.33, 1.67 31.67, 2 38" stroke="#000000" stroke-width="1" fill="none"></path></g></g><mask></mask><g stroke-linecap="round"><g transform="translate(349.25 334) rotate(0 0.5 21)"><path d="M0 0 C0.17 7, 0.83 35, 1 42 M0 0 C0.17 7, 0.83 35, 1 42" stroke="#000000" stroke-width="1" fill="none"></path></g></g><mask></mask><g stroke-linecap="round" transform="translate(197 372) rotate(0 341 78)"><path d="M32 0 M32 0 C254.98 0, 477.96 0, 650 0 M32 0 C279.08 0, 526.17 0, 650 0 M650 0 C671.33 0, 682 10.67, 682 32 M650 0 C671.33 0, 682 10.67, 682 32 M682 32 C682 56.2, 682 80.4, 682 124 M682 32 C682 60.15, 682 88.3, 682 124 M682 124 C682 145.33, 671.33 156, 650 156 M682 124 C682 145.33, 671.33 156, 650 156 M650 156 C518.22 156, 386.44 156, 32 156 M650 156 C461.72 156, 273.44 156, 32 156 M32 156 C10.67 156, 0 145.33, 0 124 M32 156 C10.67 156, 0 145.33, 0 124 M0 124 C0 88.94, 0 53.87, 0 32 M0 124 C0 94.88, 0 65.75, 0 32 M0 32 C0 10.67, 10.67 0, 32 0 M0 32 C0 10.67, 10.67 0, 32 0" stroke="#000000" stroke-width="1" fill="none"></path></g><g transform="translate(275 433) rotate(0 103.1640625 9.199999999999989)"><text x="0" y="0" font-family="Helvetica, Segoe UI Emoji" font-size="16px" fill="#000000" text-anchor="start" style="white-space: pre;" direction="ltr" dominant-baseline="text-before-edge">The Rest of the MotherBoard</text></g></svg>