<svg version="1.1" xmlns="http://www.w3.org/2000/svg" viewBox="0 0 958.4591674804688 604" width="958.4591674804688" height="604">
  <!-- svg-source:excalidraw -->
  
  <defs>
    <style class="style-fonts">
      @font-face {
        font-family: "Virgil";
        src: url("https://file%2B.vscode-resource.vscode-cdn.net/home/kiarie404/.vscode/extensions/pomdtr.excalidraw-editor-3.5.1/public//dist/excalidraw-assets/Virgil.woff2");
      }
      @font-face {
        font-family: "Cascadia";
        src: url("https://file%2B.vscode-resource.vscode-cdn.net/home/kiarie404/.vscode/extensions/pomdtr.excalidraw-editor-3.5.1/public//dist/excalidraw-assets/Cascadia.woff2");
      }
    </style>
  </defs>
  <rect x="0" y="0" width="958.4591674804688" height="604" fill="#ffffff"></rect><g stroke-linecap="round" transform="translate(135 176) rotate(0 93 26)"><path d="M1.29 0.66 C70.03 0.7, 140.25 0.15, 187.53 -0.84 M-0.1 0.5 C41.93 -0.01, 83.53 -0.41, 185.5 0.93 M184.41 1.96 C186.83 17, 185.23 37.19, 186.03 50.54 M185.78 -0.66 C185.72 19.48, 186.14 38.58, 185.66 52.57 M187.29 52.67 C147.49 49.66, 107.11 51.53, 1.14 52.46 M185.06 52.87 C119.07 50.94, 51.57 50.28, 0.53 52.64 M0.38 52.09 C-1.61 31.36, -0.42 14.46, -1.94 0.36 M-0.71 51.45 C-0.65 41.59, -0.6 30.86, -0.91 -0.4" stroke="#1864ab" stroke-width="1" fill="none"></path></g><g transform="translate(199 189) rotate(0 28.359970092773438 12.5)"><text x="0" y="0" font-family="Virgil, Segoe UI Emoji" font-size="20px" fill="#1864ab" text-anchor="start" style="white-space: pre;" direction="ltr" dominant-baseline="text-before-edge">Kinit()</text></g><g stroke-linecap="round" transform="translate(140 388) rotate(0 97.5 24.5)"><path d="M-0.84 -1.58 C79.73 0.46, 154.92 0.2, 194.98 -1.3 M-0.34 0.63 C47.47 -1.46, 96.48 -2.08, 194.72 0.42 M195.56 -0.26 C196.1 10.52, 196.49 21.37, 193.2 48.39 M195.41 -0.86 C195.29 18.09, 194.36 35.09, 195.73 49.64 M196.25 49.92 C120.32 49.29, 44.31 51.74, 1.24 48.38 M194.37 49.8 C131.3 48.68, 67.68 49.19, -0.58 49.08 M0.85 48.09 C1.01 37.79, -0.18 24.84, 1.47 1.94 M0.01 49.53 C-0.06 29.69, -0.2 11.77, -0.3 0.79" stroke="#1864ab" stroke-width="1" fill="none"></path></g><g transform="translate(202 401) rotate(0 33.51996612548828 12.5)"><text x="0" y="0" font-family="Virgil, Segoe UI Emoji" font-size="20px" fill="#1864ab" text-anchor="start" style="white-space: pre;" direction="ltr" dominant-baseline="text-before-edge">Kmain()</text></g><g stroke-linecap="round" transform="translate(634 168) rotate(0 94 24)"><path d="M0.12 -1.27 C38.96 -0.77, 77.64 0.59, 189.99 -0.01 M0.03 0.33 C50.64 1.36, 102.55 0.88, 187.66 -0.31 M187.45 -1.26 C188.49 11.29, 187.56 20.67, 187.74 49 M188.65 0.84 C187.74 14.25, 187.73 26.9, 187.65 48.48 M188.6 49.45 C114.6 48.37, 42.05 49.19, 1.56 48.3 M188.4 47.58 C125.63 47.69, 63.4 47.62, -0.62 47.43 M1.93 46.04 C0.4 36.93, -1.57 21.79, -1.84 -0.16 M0.02 47.74 C0.01 31.52, -1 15.51, -0.41 -0.81" stroke="#364fc7" stroke-width="1" fill="none"></path></g><g transform="translate(668 179) rotate(0 63.87992858886719 12.5)"><text x="0" y="0" font-family="Virgil, Segoe UI Emoji" font-size="20px" fill="#364fc7" text-anchor="start" style="white-space: pre;" direction="ltr" dominant-baseline="text-before-edge">Trap Handler</text></g><g stroke-linecap="round" transform="translate(650 344) rotate(0 98 21.5)"><path d="M1.91 -0.09 C49.27 0.08, 97.96 -3.03, 196.35 -0.98 M-0.42 -0.79 C47.98 1.21, 97.38 1.01, 196.88 -0.22 M197.36 1.58 C194.14 17.23, 194.9 32.6, 195.47 44.09 M195.24 0.12 C196.74 10.99, 196.68 20.23, 195.72 42.84 M196.8 42.41 C118.83 42.82, 40.3 42.69, 1.05 41.67 M195.87 43.61 C132.81 43.88, 69.72 44.7, 0.04 42.53 M0.83 41.34 C-1.8 29.65, 1.66 14.35, -1.92 -0.56 M-0.88 43.98 C0.23 27.31, 0.92 12.2, -0.54 0.6" stroke="#000000" stroke-width="1" fill="none"></path></g><g transform="translate(689 359) rotate(0 51.449951171875 12.5)"><text x="0" y="0" font-family="Virgil, Segoe UI Emoji" font-size="20px" fill="#000000" text-anchor="start" style="white-space: pre;" direction="ltr" dominant-baseline="text-before-edge">Shut Down</text></g><g stroke-linecap="round" transform="translate(53 10) rotate(0 417.5 248)"><path d="M-0.02 0.62 C308.65 0.68, 616.73 1.57, 834.55 0.44 M0.18 0.13 C200.11 2.67, 399.71 2.68, 835.34 0.24 M834.8 0.76 C834.14 137.6, 833.75 276.14, 835.24 495.29 M834.93 0.29 C835.32 140.87, 835.19 281.81, 834.96 496.23 M834.85 496.3 C543.79 498.14, 252.31 498.04, 0.49 495.95 M835.35 495.99 C655.02 493.31, 474.54 493.67, -0.19 496.16 M-0.12 496.35 C0.6 344.6, 0.48 191.14, 0.57 -0.73 M0.03 495.76 C-1.32 318.17, -1.07 140.51, 0.18 0.31" stroke="#000000" stroke-width="1" fill="none"></path></g><g transform="translate(65 21) rotate(0 92.73989868164062 12.5)"><text x="0" y="0" font-family="Virgil, Segoe UI Emoji" font-size="20px" fill="#000000" text-anchor="start" style="white-space: pre;" direction="ltr" dominant-baseline="text-before-edge">Booze Glue (Boot)</text></g><g stroke-linecap="round" transform="translate(76 74) rotate(0 5 6)"><path d="M2.27 1.32 C2.95 0.53, 4.18 -0.07, 5.45 -0.05 C6.71 -0.04, 9.06 0.32, 9.87 1.41 C10.67 2.5, 10.54 5.18, 10.26 6.47 C9.99 7.77, 9.05 8.12, 8.21 9.17 C7.38 10.22, 6.04 12.35, 5.23 12.8 C4.42 13.24, 4.33 12.72, 3.36 11.85 C2.39 10.98, -0.21 9.07, -0.58 7.6 C-0.96 6.13, 0.39 4.11, 1.11 3.02 C1.83 1.93, 3.45 1.54, 3.75 1.04 C4.06 0.54, 3.09 -0.03, 2.93 0.03 M4.94 0.37 C6.02 0.12, 7.82 -0.08, 8.8 0.62 C9.77 1.32, 10.88 3.1, 10.79 4.59 C10.7 6.08, 8.95 8.15, 8.28 9.56 C7.61 10.96, 7.58 12.63, 6.78 13.02 C5.98 13.4, 4.56 12.83, 3.47 11.86 C2.38 10.9, 1.05 8.26, 0.25 7.23 C-0.54 6.2, -1.45 6.57, -1.29 5.69 C-1.12 4.82, -0.08 2.87, 1.26 1.99 C2.59 1.1, 5.87 0.93, 6.74 0.38 C7.61 -0.17, 6.5 -1.5, 6.49 -1.31" stroke="#000000" stroke-width="1" fill="none"></path></g><g mask="url(#mask-BH2BfwU0vmGb04XtU6MvO)" stroke-linecap="round"><g transform="translate(90 79) rotate(0 68.95048799945843 43.39177912418231)"><path d="M0.32 0.36 C22.36 -0.13, 117.45 -20.09, 133.37 -3.98 C149.29 12.13, 101.8 80.22, 95.84 97.03 M-0.97 -0.49 C21.37 -0.77, 119.8 -18.91, 135.75 -2.95 C151.71 13, 101.58 78.94, 94.76 95.23" stroke="#000000" stroke-width="1" fill="none"></path></g><g transform="translate(90 79) rotate(0 68.95048799945843 43.39177912418231)"><path d="M100.77 64.68 C96.15 76.38, 97.37 90.99, 96.24 93.55 M101.01 66.21 C98.61 73.19, 97.14 81.96, 94.94 95.15" stroke="#000000" stroke-width="1" fill="none"></path></g><g transform="translate(90 79) rotate(0 68.95048799945843 43.39177912418231)"><path d="M118.48 75.05 C106.96 82.71, 101.19 93.22, 96.24 93.55 M118.71 76.59 C111.44 80.62, 105.18 86.58, 94.94 95.15" stroke="#000000" stroke-width="1" fill="none"></path></g></g><mask id="mask-BH2BfwU0vmGb04XtU6MvO"><rect x="0" y="0" fill="#fff" width="324" height="278"></rect><rect x="130.41010284423828" y="51" fill="#000" width="187.17979431152344" height="50" opacity="1"></rect></mask><g transform="translate(130.41010284423828 51) rotate(0 28.54038515522015 71.3917791241823)"><text x="93.58989715576172" y="0" font-family="Virgil, Segoe UI Emoji" font-size="20px" fill="#000000" text-anchor="middle" style="white-space: pre;" direction="ltr" dominant-baseline="text-before-edge">init environment for</text><text x="93.58989715576172" y="25" font-family="Virgil, Segoe UI Emoji" font-size="20px" fill="#000000" text-anchor="middle" style="white-space: pre;" direction="ltr" dominant-baseline="text-before-edge">kinit</text></g><g mask="url(#mask-d6R6R8Sf23s0dh63WOZpI)" stroke-linecap="round"><g transform="translate(197 228) rotate(0 -0.07247745578268905 78.34238839807918)"><path d="M0.3 -0.46 C0.45 25.9, 0.93 130.92, 0.84 157.28 M-1 -1.75 C-0.93 24.83, 0.35 131.68, 0.33 158.43" stroke="#000000" stroke-width="1" fill="none"></path></g><g transform="translate(197 228) rotate(0 -0.07247745578268905 78.34238839807918)"><path d="M-10.87 131.71 C-8.43 138.22, -4.72 148.28, 0.3 158.64 M-10.89 130.91 C-6.89 142.05, -1.37 152.1, 0.18 158.27" stroke="#000000" stroke-width="1" fill="none"></path></g><g transform="translate(197 228) rotate(0 -0.07247745578268905 78.34238839807918)"><path d="M9.65 131.58 C6.02 138.18, 3.65 148.27, 0.3 158.64 M9.63 130.78 C5.64 141.8, 3.18 151.91, 0.18 158.27" stroke="#000000" stroke-width="1" fill="none"></path></g></g><mask id="mask-d6R6R8Sf23s0dh63WOZpI"><rect x="0" y="0" fill="#fff" width="297" height="486"></rect><rect x="98.41011047363281" y="282" fill="#000" width="197.17977905273438" height="50" opacity="1"></rect></mask><g transform="translate(98.41011047363281 282) rotate(0 98.5174120705845 24.34238839807918)"><text x="98.58988952636719" y="0" font-family="Virgil, Segoe UI Emoji" font-size="20px" fill="#000000" text-anchor="middle" style="white-space: pre;" direction="ltr" dominant-baseline="text-before-edge">init environment for </text><text x="98.58988952636719" y="25" font-family="Virgil, Segoe UI Emoji" font-size="20px" fill="#000000" text-anchor="middle" style="white-space: pre;" direction="ltr" dominant-baseline="text-before-edge">kmain</text></g><g mask="url(#mask-vg8uo_Ji3uTghKlWJjLec)" stroke-linecap="round"><g transform="translate(338 412) rotate(0 155.832600119547 -22.655233629047842)"><path d="M-1.11 0.81 C50.44 -6.8, 258.43 -38.56, 310.39 -46.12 M0.5 0.18 C52.36 -7.27, 261.25 -37.36, 312.78 -45.17" stroke="#1864ab" stroke-width="1" fill="none"></path></g><g transform="translate(338 412) rotate(0 155.832600119547 -22.655233629047842)"><path d="M287.73 -31.93 C294.81 -36.78, 307.65 -42.21, 314.08 -46.66 M286.22 -31.56 C292.62 -34.01, 297.47 -37.49, 313.36 -45.14" stroke="#1864ab" stroke-width="1" fill="none"></path></g><g transform="translate(338 412) rotate(0 155.832600119547 -22.655233629047842)"><path d="M284.74 -52.23 C292.9 -49.19, 306.9 -46.75, 314.08 -46.66 M283.23 -51.86 C290.44 -49.64, 295.97 -48.44, 313.36 -45.14" stroke="#1864ab" stroke-width="1" fill="none"></path></g></g><mask id="mask-vg8uo_Ji3uTghKlWJjLec"><rect x="0" y="0" fill="#fff" width="749" height="557"></rect><rect x="407.0801010131836" y="364.5" fill="#000" width="172.8397979736328" height="50" opacity="1"></rect></mask><g transform="translate(407.0801010131836 364.5) rotate(0 86.75249910636342 24.844766370952158)"><text x="86.4198989868164" y="0" font-family="Virgil, Segoe UI Emoji" font-size="20px" fill="#1864ab" text-anchor="middle" style="white-space: pre;" direction="ltr" dominant-baseline="text-before-edge">kmain returns to </text><text x="86.4198989868164" y="25" font-family="Virgil, Segoe UI Emoji" font-size="20px" fill="#1864ab" text-anchor="middle" style="white-space: pre;" direction="ltr" dominant-baseline="text-before-edge">booze</text></g><g stroke-linecap="round"><g transform="translate(318 200) rotate(0 69.17818415910006 31.627543918788433)"><path d="M-0.39 -0.33 C22.79 10.37, 115.62 52.95, 138.75 63.59" stroke="#000000" stroke-width="1.5" fill="none" stroke-dasharray="8 9"></path></g><g transform="translate(318 200) rotate(0 69.17818415910006 31.627543918788433)"><path d="M28.95 1.69 C20.77 0.35, 12.51 1.87, 0.22 0.29" stroke="#000000" stroke-width="1.5" fill="none"></path></g><g transform="translate(318 200) rotate(0 69.17818415910006 31.627543918788433)"><path d="M20.38 20.34 C14.61 13.99, 8.66 10.48, 0.22 0.29" stroke="#000000" stroke-width="1.5" fill="none"></path></g></g><mask></mask><g mask="url(#mask-xC2JoInppBITpQnC4IwuJ)" stroke-linecap="round"><g transform="translate(334.32181584090006 381.87245608121157) rotate(0 147.50287276059385 -84.42897337228058)"><path d="M-0.39 -0.33 C21.07 -16.44, 79.13 -69.25, 128.43 -97.28 C177.72 -125.31, 267.35 -156.8, 295.4 -168.52" stroke="#000000" stroke-width="1.5" fill="none" stroke-dasharray="8 9"></path></g><g transform="translate(334.32181584090006 381.87245608121157) rotate(0 147.50287276059385 -84.42897337228058)"><path d="M14.65 -26.38 C10.18 -20.1, 5.78 -11, 0.22 0.29" stroke="#000000" stroke-width="1.5" fill="none"></path></g><g transform="translate(334.32181584090006 381.87245608121157) rotate(0 147.50287276059385 -84.42897337228058)"><path d="M27.47 -10.36 C19.62 -8.45, 11.76 -3.67, 0.22 0.29" stroke="#000000" stroke-width="1.5" fill="none"></path></g><g transform="translate(334.32181584090006 381.87245608121157) rotate(0 147.50287276059385 -84.42897337228058)"><path d="M272.31 -149.14 C278.36 -155, 284.26 -158.16, 296.01 -167.9" stroke="#000000" stroke-width="1.5" fill="none"></path></g><g transform="translate(334.32181584090006 381.87245608121157) rotate(0 147.50287276059385 -84.42897337228058)"><path d="M264.85 -168.26 C272.82 -168.93, 280.73 -166.94, 296.01 -167.9" stroke="#000000" stroke-width="1.5" fill="none"></path></g></g><mask id="mask-xC2JoInppBITpQnC4IwuJ"><rect x="0" y="0" fill="#fff" width="730.3218158409001" height="649.8724560812116"></rect><rect x="389.97008514404286" y="272.5" fill="#000" width="146.05982971191406" height="25" opacity="1"></rect></mask><g transform="translate(389.97008514404297 272.5) rotate(0 91.85460345745093 24.943482708930986)"><text x="73.02991485595703" y="0" font-family="Virgil, Segoe UI Emoji" font-size="20px" fill="#000000" text-anchor="middle" style="white-space: pre;" direction="ltr" dominant-baseline="text-before-edge">glue these two</text></g><g transform="translate(10 544) rotate(0 469.2295837402344 25)"><text x="0" y="0" font-family="Virgil, Segoe UI Emoji" font-size="20px" fill="#000000" text-anchor="start" style="white-space: pre;" direction="ltr" dominant-baseline="text-before-edge">Anything that is not in Blue is Done by Booze(Boot Glue). Anything in Blue is independent code</text><text x="0" y="25" font-family="Virgil, Segoe UI Emoji" font-size="20px" fill="#000000" text-anchor="start" style="white-space: pre;" direction="ltr" dominant-baseline="text-before-edge">that is not part of Booze</text></g></svg>