<svg version="1.1" xmlns="http://www.w3.org/2000/svg" viewBox="0 0 955 906.8088235294118" width="955" height="906.8088235294118">
  <!-- svg-source:excalidraw -->
  
  <defs>
    <style class="style-fonts">
      @font-face {
        font-family: "Virgil";
        src: url("https://file%2B.vscode-resource.vscode-cdn.net/home/kiarie404/.vscode/extensions/pomdtr.excalidraw-editor-3.5.1/public//dist/excalidraw-assets/Virgil.woff2");
      }
      @font-face {
        font-family: "Cascadia";
        src: url("https://file%2B.vscode-resource.vscode-cdn.net/home/kiarie404/.vscode/extensions/pomdtr.excalidraw-editor-3.5.1/public//dist/excalidraw-assets/Cascadia.woff2");
      }
    </style>
  </defs>
  <rect x="0" y="0" width="955" height="906.8088235294118" fill="#ffffff"></rect><g stroke-linecap="round" transform="translate(13.5 94) rotate(0 55.5 24)"><path d="M0.97 -1.73 C36.09 -1.25, 75.05 0.17, 109.6 -0.62 M0.29 -0.04 C26.72 0.42, 52.19 0.68, 110.38 -0.69 M109.54 -0.47 C111.94 15.75, 112.22 26.35, 111.49 49.81 M111.27 -0.17 C110.14 17.97, 110.55 35.05, 110.2 48.94 M112.36 47.22 C69.68 49.9, 28.21 47.81, 1.46 47.54 M111.72 48.06 C70.09 49.1, 27.33 48.45, 0.22 47.37 M-0.42 48.27 C-0.24 28.89, -1.88 8.45, 0.88 1.69 M0.47 47.15 C-0.14 33.65, 0.54 20.02, -0.91 0.09" stroke="#000000" stroke-width="1" fill="none"></path></g><g stroke-linecap="round" transform="translate(135 96) rotate(0 55.5 24)"><path d="M0.97 -1.73 C36.09 -1.25, 75.05 0.17, 109.6 -0.62 M0.29 -0.04 C26.72 0.42, 52.19 0.68, 110.38 -0.69 M109.54 -0.47 C111.94 15.75, 112.22 26.35, 111.49 49.81 M111.27 -0.17 C110.14 17.97, 110.55 35.05, 110.2 48.94 M112.36 47.22 C69.68 49.9, 28.21 47.81, 1.46 47.54 M111.72 48.06 C70.09 49.1, 27.33 48.45, 0.22 47.37 M-0.42 48.27 C-0.24 28.89, -1.88 8.45, 0.88 1.69 M0.47 47.15 C-0.14 33.65, 0.54 20.02, -0.91 0.09" stroke="#000000" stroke-width="1" fill="none"></path></g><g stroke-linecap="round" transform="translate(258 96) rotate(0 55.5 24)"><path d="M0.97 -1.73 C36.09 -1.25, 75.05 0.17, 109.6 -0.62 M0.29 -0.04 C26.72 0.42, 52.19 0.68, 110.38 -0.69 M109.54 -0.47 C111.94 15.75, 112.22 26.35, 111.49 49.81 M111.27 -0.17 C110.14 17.97, 110.55 35.05, 110.2 48.94 M112.36 47.22 C69.68 49.9, 28.21 47.81, 1.46 47.54 M111.72 48.06 C70.09 49.1, 27.33 48.45, 0.22 47.37 M-0.42 48.27 C-0.24 28.89, -1.88 8.45, 0.88 1.69 M0.47 47.15 C-0.14 33.65, 0.54 20.02, -0.91 0.09" stroke="#000000" stroke-width="1" fill="none"></path></g><g stroke-linecap="round" transform="translate(383 96) rotate(0 55.5 24)"><path d="M0.97 -1.73 C36.09 -1.25, 75.05 0.17, 109.6 -0.62 M0.29 -0.04 C26.72 0.42, 52.19 0.68, 110.38 -0.69 M109.54 -0.47 C111.94 15.75, 112.22 26.35, 111.49 49.81 M111.27 -0.17 C110.14 17.97, 110.55 35.05, 110.2 48.94 M112.36 47.22 C69.68 49.9, 28.21 47.81, 1.46 47.54 M111.72 48.06 C70.09 49.1, 27.33 48.45, 0.22 47.37 M-0.42 48.27 C-0.24 28.89, -1.88 8.45, 0.88 1.69 M0.47 47.15 C-0.14 33.65, 0.54 20.02, -0.91 0.09" stroke="#000000" stroke-width="1" fill="none"></path></g><g stroke-linecap="round" transform="translate(508 97) rotate(0 55.5 24)"><path d="M0.97 -1.73 C36.09 -1.25, 75.05 0.17, 109.6 -0.62 M0.29 -0.04 C26.72 0.42, 52.19 0.68, 110.38 -0.69 M109.54 -0.47 C111.94 15.75, 112.22 26.35, 111.49 49.81 M111.27 -0.17 C110.14 17.97, 110.55 35.05, 110.2 48.94 M112.36 47.22 C69.68 49.9, 28.21 47.81, 1.46 47.54 M111.72 48.06 C70.09 49.1, 27.33 48.45, 0.22 47.37 M-0.42 48.27 C-0.24 28.89, -1.88 8.45, 0.88 1.69 M0.47 47.15 C-0.14 33.65, 0.54 20.02, -0.91 0.09" stroke="#000000" stroke-width="1" fill="none"></path></g><g stroke-linecap="round" transform="translate(12.75 208.5) rotate(0 53.323529411764696 121.55882352941177)"><path d="M0.97 -1.73 C34.63 -1.28, 72.12 0.15, 105.24 -0.62 M0.29 -0.04 C25.69 0.42, 50.13 0.67, 106.02 -0.69 M105.44 -0.39 C108.55 72.79, 108.79 141.31, 107.05 244.62 M106.87 -0.14 C105.45 91.18, 105.79 181.63, 105.98 243.9 M108 242.33 C66.94 244.99, 27.07 242.9, 1.46 242.66 M107.36 243.18 C67.37 244.2, 26.25 243.55, 0.22 242.49 M-0.35 243.34 C-0.17 147.59, -1.52 50.97, 0.73 1.4 M0.39 242.42 C1.41 170.29, 1.97 98.05, -0.76 0.08" stroke="#000000" stroke-width="1" fill="none"></path></g><g stroke-linecap="round" transform="translate(135.48529411764707 208.42156862745097) rotate(0 53.323529411764696 120.05882352941175)"><path d="M0.97 -1.73 C34.63 -1.28, 72.12 0.15, 105.24 -0.62 M0.29 -0.04 C25.69 0.42, 50.13 0.67, 106.02 -0.69 M105.43 -0.39 C108.55 71.91, 108.78 139.54, 107.06 241.63 M106.87 -0.14 C105.45 90.06, 105.79 179.38, 105.98 240.9 M108 239.33 C66.94 241.99, 27.07 239.9, 1.46 239.66 M107.36 240.18 C67.37 241.2, 26.25 240.55, 0.22 239.49 M-0.35 240.34 C-0.17 145.77, -1.53 50.31, 0.73 1.41 M0.39 239.41 C1.4 168.19, 1.96 96.86, -0.76 0.08" stroke="#000000" stroke-width="1" fill="none"></path></g><g stroke-linecap="round" transform="translate(257.6617647058823 206.42156862745097) rotate(0 53.323529411764696 119.55882352941175)"><path d="M0.97 -1.73 C34.63 -1.28, 72.12 0.15, 105.24 -0.62 M0.29 -0.04 C25.69 0.42, 50.13 0.67, 106.02 -0.69 M105.43 -0.4 C108.55 71.62, 108.78 138.95, 107.06 240.63 M106.87 -0.14 C105.45 89.68, 105.79 178.62, 105.98 239.9 M108 238.33 C66.94 240.99, 27.07 238.9, 1.46 238.66 M107.36 239.18 C67.37 240.2, 26.25 239.55, 0.22 238.49 M-0.35 239.34 C-0.17 145.16, -1.54 50.09, 0.74 1.41 M0.39 238.41 C1.39 167.49, 1.96 96.46, -0.76 0.08" stroke="#000000" stroke-width="1" fill="none"></path></g><g stroke-linecap="round" transform="translate(380.7598039215686 207.42156862745097) rotate(0 53.323529411764696 121.05882352941175)"><path d="M0.97 -1.73 C34.63 -1.28, 72.12 0.15, 105.24 -0.62 M0.29 -0.04 C25.69 0.42, 50.13 0.67, 106.02 -0.69 M105.43 -0.39 C108.55 72.5, 108.78 140.72, 107.06 243.62 M106.87 -0.14 C105.45 90.81, 105.79 180.88, 105.98 242.9 M108 241.33 C66.94 243.99, 27.07 241.9, 1.46 241.66 M107.36 242.18 C67.37 243.2, 26.25 242.55, 0.22 241.49 M-0.35 242.34 C-0.17 146.98, -1.53 50.75, 0.73 1.41 M0.39 241.42 C1.41 169.59, 1.97 97.65, -0.76 0.08" stroke="#000000" stroke-width="1" fill="none"></path></g><g stroke-linecap="round" transform="translate(510.8578431372549 206.38235294117646) rotate(0 53.323529411764696 119.55882352941177)"><path d="M0.97 -1.73 C34.63 -1.28, 72.12 0.15, 105.24 -0.62 M0.29 -0.04 C25.69 0.42, 50.13 0.67, 106.02 -0.69 M105.43 -0.4 C108.55 71.62, 108.78 138.95, 107.06 240.63 M106.87 -0.14 C105.45 89.68, 105.79 178.62, 105.98 239.9 M108 238.33 C66.94 240.99, 27.07 238.9, 1.46 238.66 M107.36 239.18 C67.37 240.2, 26.25 239.55, 0.22 238.49 M-0.35 239.34 C-0.17 145.16, -1.54 50.09, 0.74 1.41 M0.39 238.41 C1.39 167.49, 1.96 96.46, -0.76 0.08" stroke="#000000" stroke-width="1" fill="none"></path></g><g stroke-linecap="round" transform="translate(825 77) rotate(0 55.5 24)"><path d="M0 0 C0 0, 0 0, 0 0 M0 0 C0 0, 0 0, 0 0 M0.21 6.18 C1.15 5.59, 1.92 3.34, 5.75 0.42 M-0.3 6.41 C0.65 5.26, 1.99 3.77, 4.59 0.34 M-1.2 11.75 C4.6 9.84, 6.2 7.08, 9.58 1.56 M-0.41 12.4 C2.8 8.09, 5.99 4.15, 11.38 -0.7 M-0.89 18.92 C3.04 14.02, 8.7 7.06, 16.62 -1.1 M-1 17.83 C3.41 13.59, 7.36 11.13, 15.65 -0.48 M2.06 22.93 C5.96 14.52, 15.25 7.53, 20.13 0 M-0.65 24.19 C7.1 16.57, 13.09 9.23, 20.67 -0.33 M-1.83 31.73 C11.03 19.28, 18.94 8.96, 28.21 -0.79 M0.95 30.87 C8.26 20.67, 15.4 12.51, 26.73 -0.01 M0.94 36.36 C12.23 22.05, 23.99 8.51, 29.9 1.4 M0.08 36.57 C12.18 23.53, 23.49 10.69, 32.73 0.25 M-1.11 40.77 C9.66 34.61, 15.19 26.15, 35.97 -0.03 M0.61 42.92 C8.54 33.35, 15.5 24.45, 36.87 0.83 M0.62 46.96 C10.55 37.27, 19.96 25.88, 42.64 -1.53 M0.61 49.1 C13.71 32.18, 28.92 16.88, 41.76 -0.16 M3.76 47.06 C20.28 33.9, 33.21 18.58, 48.61 0.25 M4.61 47.53 C20.01 31.1, 34.08 14.79, 46.96 0.36 M11.58 46.77 C18.97 38.02, 28.42 27.42, 54.77 -1.93 M11.74 48.91 C21.58 35.16, 33.47 23.38, 54.05 -0.38 M14.47 48.21 C26.81 38.76, 37.42 24.07, 57.27 -0.29 M16.62 48.52 C28.28 32.34, 42.2 17.46, 57.19 0.14 M20.38 49.5 C35.6 33.8, 44.66 19.82, 63.17 1.63 M21.2 47.49 C35.04 32.21, 49.85 17.74, 64.18 -1.01 M27.89 50.45 C38.35 33.76, 52.84 15.57, 67.55 -1.45 M27.33 47.96 C40.83 30.8, 57.58 13.01, 69.02 0.93 M33.87 46.11 C47.31 28.54, 64.15 13.11, 73.15 1.13 M31.82 48.24 C49.27 29.3, 64.59 12.11, 74.99 -0.42 M38.58 48.5 C48.62 38.16, 57.75 24.46, 79.47 1.55 M36.98 48.08 C51.13 30.3, 65.95 14.69, 79.19 0.7 M41.31 48.12 C56.95 33.34, 69.17 18.79, 86.45 -0.87 M43.72 47.76 C51.22 37.12, 59.71 28.18, 85.62 -0.76 M49.52 47.66 C60.86 33.12, 76.54 14.86, 91.5 2.02 M48.07 49.35 C64.58 31.54, 79.27 12.82, 89.73 0.65 M54.43 47.6 C63.76 36.64, 74.34 23.04, 97.24 0.75 M54.3 47.87 C67.28 29.96, 81.98 13.34, 95.49 0.01 M60.16 47.82 C70.85 32.92, 87.92 14.42, 100.54 1.88 M59.4 48.47 C71.8 34.49, 82.27 20.68, 99.95 -0.78 M62.72 49.97 C77.58 35.43, 91.85 18.64, 108.17 1.65 M63.58 48.38 C73.23 37.39, 83.43 25.18, 106.3 0.18 M70.37 47.38 C82 33.87, 90 23.06, 109.92 -0.42 M70.04 48.34 C81.29 34.83, 91.83 23.47, 110.44 0.03 M76.07 46.92 C87.77 32.81, 97.66 21.75, 112.36 6.88 M74.85 48.04 C82.9 38.66, 90.1 29.44, 110.12 7.04 M80.44 47.34 C87.71 39.1, 99.02 27, 110.93 10.21 M79.34 48.06 C86.32 39.52, 94.81 32.08, 110.56 12.02 M84.87 48.97 C91.05 42.46, 94.88 34.42, 110.64 19.72 M84.69 49.08 C95.97 37.64, 106.51 25.74, 110.52 17.8 M91.14 47.26 C95.93 38.49, 105.78 32.12, 109.62 26.04 M90.95 49 C98.38 39.24, 104.44 31.15, 111.31 23.94 M94.57 50.46 C99.91 42.05, 104.85 38.38, 111.53 30.25 M95.63 48.21 C101.9 42.7, 105.8 35.19, 110.64 30.1 M100.02 48.98 C102.5 46.41, 104.16 42.19, 110.22 37.5 M100.87 48.58 C102.77 45.43, 105.3 42.85, 110.59 37.4 M105.73 49.26 C107.73 45.75, 109.63 43.22, 111.41 43.28 M105.89 48.88 C107.44 47.21, 109.08 45.8, 111.38 42.76" stroke="#ced4da" stroke-width="0.5" fill="none"></path><path d="M0.97 -1.73 C36.09 -1.25, 75.05 0.17, 109.6 -0.62 M0.29 -0.04 C26.72 0.42, 52.19 0.68, 110.38 -0.69 M109.54 -0.47 C111.94 15.75, 112.22 26.35, 111.49 49.81 M111.27 -0.17 C110.14 17.97, 110.55 35.05, 110.2 48.94 M112.36 47.22 C69.68 49.9, 28.21 47.81, 1.46 47.54 M111.72 48.06 C70.09 49.1, 27.33 48.45, 0.22 47.37 M-0.42 48.27 C-0.24 28.89, -1.88 8.45, 0.88 1.69 M0.47 47.15 C-0.14 33.65, 0.54 20.02, -0.91 0.09" stroke="#000000" stroke-width="1" fill="none"></path></g><g transform="translate(852.1600341796875 88.5) rotate(0 28.3399658203125 12.5)"><text x="28.3399658203125" y="0" font-family="Virgil, Segoe UI Emoji" font-size="20px" fill="#000000" text-anchor="middle" style="white-space: pre;" direction="ltr" dominant-baseline="text-before-edge">Empty</text></g><g stroke-linecap="round" transform="translate(829 147) rotate(0 55.5 24)"><path d="M0 0 C0 0, 0 0, 0 0 M0 0 C0 0, 0 0, 0 0 M0.21 6.18 C1.15 5.59, 1.92 3.34, 5.75 0.42 M-0.3 6.41 C0.65 5.26, 1.99 3.77, 4.59 0.34 M-1.2 11.75 C4.6 9.84, 6.2 7.08, 9.58 1.56 M-0.41 12.4 C2.8 8.09, 5.99 4.15, 11.38 -0.7 M-0.89 18.92 C3.04 14.02, 8.7 7.06, 16.62 -1.1 M-1 17.83 C3.41 13.59, 7.36 11.13, 15.65 -0.48 M2.06 22.93 C5.96 14.52, 15.25 7.53, 20.13 0 M-0.65 24.19 C7.1 16.57, 13.09 9.23, 20.67 -0.33 M-1.83 31.73 C11.03 19.28, 18.94 8.96, 28.21 -0.79 M0.95 30.87 C8.26 20.67, 15.4 12.51, 26.73 -0.01 M0.94 36.36 C12.23 22.05, 23.99 8.51, 29.9 1.4 M0.08 36.57 C12.18 23.53, 23.49 10.69, 32.73 0.25 M-1.11 40.77 C9.66 34.61, 15.19 26.15, 35.97 -0.03 M0.61 42.92 C8.54 33.35, 15.5 24.45, 36.87 0.83 M0.62 46.96 C10.55 37.27, 19.96 25.88, 42.64 -1.53 M0.61 49.1 C13.71 32.18, 28.92 16.88, 41.76 -0.16 M3.76 47.06 C20.28 33.9, 33.21 18.58, 48.61 0.25 M4.61 47.53 C20.01 31.1, 34.08 14.79, 46.96 0.36 M11.58 46.77 C18.97 38.02, 28.42 27.42, 54.77 -1.93 M11.74 48.91 C21.58 35.16, 33.47 23.38, 54.05 -0.38 M14.47 48.21 C26.81 38.76, 37.42 24.07, 57.27 -0.29 M16.62 48.52 C28.28 32.34, 42.2 17.46, 57.19 0.14 M20.38 49.5 C35.6 33.8, 44.66 19.82, 63.17 1.63 M21.2 47.49 C35.04 32.21, 49.85 17.74, 64.18 -1.01 M27.89 50.45 C38.35 33.76, 52.84 15.57, 67.55 -1.45 M27.33 47.96 C40.83 30.8, 57.58 13.01, 69.02 0.93 M33.87 46.11 C47.31 28.54, 64.15 13.11, 73.15 1.13 M31.82 48.24 C49.27 29.3, 64.59 12.11, 74.99 -0.42 M38.58 48.5 C48.62 38.16, 57.75 24.46, 79.47 1.55 M36.98 48.08 C51.13 30.3, 65.95 14.69, 79.19 0.7 M41.31 48.12 C56.95 33.34, 69.17 18.79, 86.45 -0.87 M43.72 47.76 C51.22 37.12, 59.71 28.18, 85.62 -0.76 M49.52 47.66 C60.86 33.12, 76.54 14.86, 91.5 2.02 M48.07 49.35 C64.58 31.54, 79.27 12.82, 89.73 0.65 M54.43 47.6 C63.76 36.64, 74.34 23.04, 97.24 0.75 M54.3 47.87 C67.28 29.96, 81.98 13.34, 95.49 0.01 M60.16 47.82 C70.85 32.92, 87.92 14.42, 100.54 1.88 M59.4 48.47 C71.8 34.49, 82.27 20.68, 99.95 -0.78 M62.72 49.97 C77.58 35.43, 91.85 18.64, 108.17 1.65 M63.58 48.38 C73.23 37.39, 83.43 25.18, 106.3 0.18 M70.37 47.38 C82 33.87, 90 23.06, 109.92 -0.42 M70.04 48.34 C81.29 34.83, 91.83 23.47, 110.44 0.03 M76.07 46.92 C87.77 32.81, 97.66 21.75, 112.36 6.88 M74.85 48.04 C82.9 38.66, 90.1 29.44, 110.12 7.04 M80.44 47.34 C87.71 39.1, 99.02 27, 110.93 10.21 M79.34 48.06 C86.32 39.52, 94.81 32.08, 110.56 12.02 M84.87 48.97 C91.05 42.46, 94.88 34.42, 110.64 19.72 M84.69 49.08 C95.97 37.64, 106.51 25.74, 110.52 17.8 M91.14 47.26 C95.93 38.49, 105.78 32.12, 109.62 26.04 M90.95 49 C98.38 39.24, 104.44 31.15, 111.31 23.94 M94.57 50.46 C99.91 42.05, 104.85 38.38, 111.53 30.25 M95.63 48.21 C101.9 42.7, 105.8 35.19, 110.64 30.1 M100.02 48.98 C102.5 46.41, 104.16 42.19, 110.22 37.5 M100.87 48.58 C102.77 45.43, 105.3 42.85, 110.59 37.4 M105.73 49.26 C107.73 45.75, 109.63 43.22, 111.41 43.28 M105.89 48.88 C107.44 47.21, 109.08 45.8, 111.38 42.76" stroke="#40c057" stroke-width="0.5" fill="none"></path><path d="M0.97 -1.73 C36.09 -1.25, 75.05 0.17, 109.6 -0.62 M0.29 -0.04 C26.72 0.42, 52.19 0.68, 110.38 -0.69 M109.54 -0.47 C111.94 15.75, 112.22 26.35, 111.49 49.81 M111.27 -0.17 C110.14 17.97, 110.55 35.05, 110.2 48.94 M112.36 47.22 C69.68 49.9, 28.21 47.81, 1.46 47.54 M111.72 48.06 C70.09 49.1, 27.33 48.45, 0.22 47.37 M-0.42 48.27 C-0.24 28.89, -1.88 8.45, 0.88 1.69 M0.47 47.15 C-0.14 33.65, 0.54 20.02, -0.91 0.09" stroke="#000000" stroke-width="1" fill="none"></path></g><g transform="translate(861.1900253295898 158.5) rotate(0 23.309974670410156 12.5)"><text x="23.309974670410156" y="0" font-family="Virgil, Segoe UI Emoji" font-size="20px" fill="#000000" text-anchor="middle" style="white-space: pre;" direction="ltr" dominant-baseline="text-before-edge">First</text></g><g stroke-linecap="round" transform="translate(826 232) rotate(0 57.5 24)"><path d="M0 0 C0 0, 0 0, 0 0 M0 0 C0 0, 0 0, 0 0 M0.21 6.18 C1.15 5.59, 1.92 3.34, 5.75 0.42 M-0.3 6.41 C0.65 5.26, 1.99 3.77, 4.59 0.34 M-1.2 11.75 C4.6 9.84, 6.2 7.08, 9.58 1.56 M-0.41 12.4 C2.8 8.09, 5.99 4.15, 11.38 -0.7 M-0.89 18.92 C3.04 14.02, 8.7 7.06, 16.62 -1.1 M-1 17.83 C3.41 13.59, 7.36 11.13, 15.65 -0.48 M2.06 22.93 C5.96 14.52, 15.25 7.53, 20.13 0 M-0.65 24.19 C7.1 16.57, 13.09 9.23, 20.67 -0.33 M-1.83 31.73 C11.03 19.28, 18.94 8.96, 28.21 -0.79 M0.95 30.87 C8.26 20.67, 15.4 12.51, 26.73 -0.01 M0.94 36.36 C12.23 22.05, 23.99 8.51, 29.9 1.4 M0.08 36.57 C12.18 23.53, 23.49 10.69, 32.73 0.25 M-1.11 40.77 C9.66 34.61, 15.19 26.15, 35.97 -0.03 M0.61 42.92 C8.54 33.35, 15.5 24.45, 36.87 0.83 M0.62 46.96 C10.55 37.27, 19.96 25.88, 42.64 -1.53 M0.61 49.1 C13.71 32.18, 28.92 16.88, 41.76 -0.16 M3.76 47.06 C20.28 33.9, 33.21 18.58, 48.61 0.25 M4.61 47.53 C20.01 31.1, 34.08 14.79, 46.96 0.36 M11.58 46.77 C18.97 38.02, 28.42 27.42, 54.77 -1.93 M11.74 48.91 C21.58 35.16, 33.47 23.38, 54.05 -0.38 M14.47 48.21 C26.81 38.76, 37.42 24.07, 57.27 -0.29 M16.62 48.52 C28.28 32.34, 42.2 17.46, 57.19 0.14 M20.38 49.5 C35.6 33.8, 44.66 19.82, 63.17 1.63 M21.2 47.49 C35.04 32.21, 49.85 17.74, 64.18 -1.01 M27.89 50.45 C38.35 33.76, 52.84 15.57, 67.55 -1.45 M27.33 47.96 C40.83 30.8, 57.58 13.01, 69.02 0.93 M33.87 46.11 C47.31 28.54, 64.15 13.11, 73.15 1.13 M31.82 48.24 C49.27 29.3, 64.59 12.11, 74.99 -0.42 M38.58 48.5 C48.62 38.16, 57.75 24.46, 79.47 1.55 M36.98 48.08 C51.13 30.3, 65.95 14.69, 79.19 0.7 M41.31 48.12 C56.95 33.34, 69.17 18.79, 86.45 -0.87 M43.72 47.76 C51.22 37.12, 59.71 28.18, 85.62 -0.76 M49.52 47.66 C60.86 33.12, 76.54 14.86, 91.5 2.02 M48.07 49.35 C64.58 31.54, 79.27 12.82, 89.73 0.65 M54.43 47.6 C63.76 36.64, 74.34 23.04, 97.24 0.75 M54.3 47.87 C67.28 29.96, 81.98 13.34, 95.49 0.01 M60.16 47.82 C70.85 32.92, 87.92 14.42, 100.54 1.88 M59.4 48.47 C71.8 34.49, 82.27 20.68, 99.95 -0.78 M62.72 49.97 C77.58 35.43, 91.85 18.64, 108.17 1.65 M63.58 48.38 C73.23 37.39, 83.43 25.18, 106.3 0.18 M70.37 47.38 C82 33.87, 90 23.06, 109.92 -0.42 M70.04 48.34 C81.29 34.83, 91.83 23.47, 110.44 0.03 M76.07 46.92 C89.33 31.08, 100.76 18.24, 116.95 1.59 M74.85 48.04 C83.93 37.52, 92.14 27.14, 114.71 1.76 M80.44 47.34 C89.1 37.49, 101.83 23.75, 115.52 4.93 M79.34 48.06 C87.39 38.28, 96.92 29.63, 115.15 6.73 M84.87 48.97 C92.08 41.25, 96.98 32, 115.23 14.43 M84.69 49.08 C97.79 35.58, 110.15 21.6, 115.11 12.52 M91.14 47.26 C97.77 36.37, 109.46 27.88, 114.87 20 M90.95 49 C100.19 37.16, 108.1 26.94, 116.56 17.9 M94.57 50.46 C101.45 40.26, 107.9 34.84, 116.12 24.97 M95.63 48.21 C103.53 40.78, 109.07 31.37, 115.23 24.82 M99.63 49.24 C103.2 45.48, 105.69 39.54, 114.55 32.42 M100.76 48.71 C103.58 44.15, 107.25 40.36, 115.03 32.29 M105.35 49.86 C109.08 43.28, 112.65 38.53, 115.99 38.65 M105.64 49.15 C108.55 46.01, 111.61 43.38, 115.92 37.68 M111.74 48.71 C112.94 46.53, 114.15 46.53, 116.12 44.17 M111.57 48.41 C112.65 46.92, 113.98 45.68, 115.71 43.43" stroke="purple" stroke-width="0.5" fill="none"></path><path d="M0.97 -1.73 C37.44 -1.22, 77.74 0.2, 113.6 -0.62 M0.29 -0.04 C27.67 0.42, 54.09 0.68, 114.38 -0.69 M113.54 -0.47 C115.94 15.75, 116.22 26.35, 115.49 49.81 M115.27 -0.17 C114.14 17.97, 114.55 35.05, 114.2 48.94 M116.36 47.22 C72.21 49.93, 29.26 47.83, 1.46 47.54 M115.72 48.06 C72.59 49.11, 28.33 48.46, 0.22 47.37 M-0.42 48.27 C-0.24 28.89, -1.88 8.45, 0.88 1.69 M0.47 47.15 C-0.14 33.65, 0.54 20.02, -0.91 0.09" stroke="#000000" stroke-width="1" fill="none"></path></g><g transform="translate(857.3800277709961 243.5) rotate(0 26.119972229003906 12.5)"><text x="26.119972229003906" y="0" font-family="Virgil, Segoe UI Emoji" font-size="20px" fill="#000000" text-anchor="middle" style="white-space: pre;" direction="ltr" dominant-baseline="text-before-edge">Flast</text></g><g stroke-linecap="round" transform="translate(826 321) rotate(0 57.5 24)"><path d="M0 0 C0 0, 0 0, 0 0 M0 0 C0 0, 0 0, 0 0 M0.21 6.18 C1.15 5.59, 1.92 3.34, 5.75 0.42 M-0.3 6.41 C0.65 5.26, 1.99 3.77, 4.59 0.34 M-1.2 11.75 C4.6 9.84, 6.2 7.08, 9.58 1.56 M-0.41 12.4 C2.8 8.09, 5.99 4.15, 11.38 -0.7 M-0.89 18.92 C3.04 14.02, 8.7 7.06, 16.62 -1.1 M-1 17.83 C3.41 13.59, 7.36 11.13, 15.65 -0.48 M2.06 22.93 C5.96 14.52, 15.25 7.53, 20.13 0 M-0.65 24.19 C7.1 16.57, 13.09 9.23, 20.67 -0.33 M-1.83 31.73 C11.03 19.28, 18.94 8.96, 28.21 -0.79 M0.95 30.87 C8.26 20.67, 15.4 12.51, 26.73 -0.01 M0.94 36.36 C12.23 22.05, 23.99 8.51, 29.9 1.4 M0.08 36.57 C12.18 23.53, 23.49 10.69, 32.73 0.25 M-1.11 40.77 C9.66 34.61, 15.19 26.15, 35.97 -0.03 M0.61 42.92 C8.54 33.35, 15.5 24.45, 36.87 0.83 M0.62 46.96 C10.55 37.27, 19.96 25.88, 42.64 -1.53 M0.61 49.1 C13.71 32.18, 28.92 16.88, 41.76 -0.16 M3.76 47.06 C20.28 33.9, 33.21 18.58, 48.61 0.25 M4.61 47.53 C20.01 31.1, 34.08 14.79, 46.96 0.36 M11.58 46.77 C18.97 38.02, 28.42 27.42, 54.77 -1.93 M11.74 48.91 C21.58 35.16, 33.47 23.38, 54.05 -0.38 M14.47 48.21 C26.81 38.76, 37.42 24.07, 57.27 -0.29 M16.62 48.52 C28.28 32.34, 42.2 17.46, 57.19 0.14 M20.38 49.5 C35.6 33.8, 44.66 19.82, 63.17 1.63 M21.2 47.49 C35.04 32.21, 49.85 17.74, 64.18 -1.01 M27.89 50.45 C38.35 33.76, 52.84 15.57, 67.55 -1.45 M27.33 47.96 C40.83 30.8, 57.58 13.01, 69.02 0.93 M33.87 46.11 C47.31 28.54, 64.15 13.11, 73.15 1.13 M31.82 48.24 C49.27 29.3, 64.59 12.11, 74.99 -0.42 M38.58 48.5 C48.62 38.16, 57.75 24.46, 79.47 1.55 M36.98 48.08 C51.13 30.3, 65.95 14.69, 79.19 0.7 M41.31 48.12 C56.95 33.34, 69.17 18.79, 86.45 -0.87 M43.72 47.76 C51.22 37.12, 59.71 28.18, 85.62 -0.76 M49.52 47.66 C60.86 33.12, 76.54 14.86, 91.5 2.02 M48.07 49.35 C64.58 31.54, 79.27 12.82, 89.73 0.65 M54.43 47.6 C63.76 36.64, 74.34 23.04, 97.24 0.75 M54.3 47.87 C67.28 29.96, 81.98 13.34, 95.49 0.01 M60.16 47.82 C70.85 32.92, 87.92 14.42, 100.54 1.88 M59.4 48.47 C71.8 34.49, 82.27 20.68, 99.95 -0.78 M62.72 49.97 C77.58 35.43, 91.85 18.64, 108.17 1.65 M63.58 48.38 C73.23 37.39, 83.43 25.18, 106.3 0.18 M70.37 47.38 C82 33.87, 90 23.06, 109.92 -0.42 M70.04 48.34 C81.29 34.83, 91.83 23.47, 110.44 0.03 M76.07 46.92 C89.33 31.08, 100.76 18.24, 116.95 1.59 M74.85 48.04 C83.93 37.52, 92.14 27.14, 114.71 1.76 M80.44 47.34 C89.1 37.49, 101.83 23.75, 115.52 4.93 M79.34 48.06 C87.39 38.28, 96.92 29.63, 115.15 6.73 M84.87 48.97 C92.08 41.25, 96.98 32, 115.23 14.43 M84.69 49.08 C97.79 35.58, 110.15 21.6, 115.11 12.52 M91.14 47.26 C97.77 36.37, 109.46 27.88, 114.87 20 M90.95 49 C100.19 37.16, 108.1 26.94, 116.56 17.9 M94.57 50.46 C101.45 40.26, 107.9 34.84, 116.12 24.97 M95.63 48.21 C103.53 40.78, 109.07 31.37, 115.23 24.82 M99.63 49.24 C103.2 45.48, 105.69 39.54, 114.55 32.42 M100.76 48.71 C103.58 44.15, 107.25 40.36, 115.03 32.29 M105.35 49.86 C109.08 43.28, 112.65 38.53, 115.99 38.65 M105.64 49.15 C108.55 46.01, 111.61 43.38, 115.92 37.68 M111.74 48.71 C112.94 46.53, 114.15 46.53, 116.12 44.17 M111.57 48.41 C112.65 46.92, 113.98 45.68, 115.71 43.43" stroke="blue" stroke-width="0.5" fill="none"></path><path d="M0.97 -1.73 C37.44 -1.22, 77.74 0.2, 113.6 -0.62 M0.29 -0.04 C27.67 0.42, 54.09 0.68, 114.38 -0.69 M113.54 -0.47 C115.94 15.75, 116.22 26.35, 115.49 49.81 M115.27 -0.17 C114.14 17.97, 114.55 35.05, 114.2 48.94 M116.36 47.22 C72.21 49.93, 29.26 47.83, 1.46 47.54 M115.72 48.06 C72.59 49.11, 28.33 48.46, 0.22 47.37 M-0.42 48.27 C-0.24 28.89, -1.88 8.45, 0.88 1.69 M0.47 47.15 C-0.14 33.65, 0.54 20.02, -0.91 0.09" stroke="#000000" stroke-width="1" fill="none"></path></g><g transform="translate(854.1700286865234 332.5) rotate(0 29.329971313476562 12.5)"><text x="29.329971313476562" y="0" font-family="Virgil, Segoe UI Emoji" font-size="20px" fill="#000000" text-anchor="middle" style="white-space: pre;" direction="ltr" dominant-baseline="text-before-edge">Middle</text></g><g stroke-linecap="round" transform="translate(830 397) rotate(0 57.5 24)"><path d="M0 0 C0 0, 0 0, 0 0 M0 0 C0 0, 0 0, 0 0 M0.21 6.18 C1.15 5.59, 1.92 3.34, 5.75 0.42 M-0.3 6.41 C0.65 5.26, 1.99 3.77, 4.59 0.34 M-1.2 11.75 C4.6 9.84, 6.2 7.08, 9.58 1.56 M-0.41 12.4 C2.8 8.09, 5.99 4.15, 11.38 -0.7 M-0.89 18.92 C3.04 14.02, 8.7 7.06, 16.62 -1.1 M-1 17.83 C3.41 13.59, 7.36 11.13, 15.65 -0.48 M2.06 22.93 C5.96 14.52, 15.25 7.53, 20.13 0 M-0.65 24.19 C7.1 16.57, 13.09 9.23, 20.67 -0.33 M-1.83 31.73 C11.03 19.28, 18.94 8.96, 28.21 -0.79 M0.95 30.87 C8.26 20.67, 15.4 12.51, 26.73 -0.01 M0.94 36.36 C12.23 22.05, 23.99 8.51, 29.9 1.4 M0.08 36.57 C12.18 23.53, 23.49 10.69, 32.73 0.25 M-1.11 40.77 C9.66 34.61, 15.19 26.15, 35.97 -0.03 M0.61 42.92 C8.54 33.35, 15.5 24.45, 36.87 0.83 M0.62 46.96 C10.55 37.27, 19.96 25.88, 42.64 -1.53 M0.61 49.1 C13.71 32.18, 28.92 16.88, 41.76 -0.16 M3.76 47.06 C20.28 33.9, 33.21 18.58, 48.61 0.25 M4.61 47.53 C20.01 31.1, 34.08 14.79, 46.96 0.36 M11.58 46.77 C18.97 38.02, 28.42 27.42, 54.77 -1.93 M11.74 48.91 C21.58 35.16, 33.47 23.38, 54.05 -0.38 M14.47 48.21 C26.81 38.76, 37.42 24.07, 57.27 -0.29 M16.62 48.52 C28.28 32.34, 42.2 17.46, 57.19 0.14 M20.38 49.5 C35.6 33.8, 44.66 19.82, 63.17 1.63 M21.2 47.49 C35.04 32.21, 49.85 17.74, 64.18 -1.01 M27.89 50.45 C38.35 33.76, 52.84 15.57, 67.55 -1.45 M27.33 47.96 C40.83 30.8, 57.58 13.01, 69.02 0.93 M33.87 46.11 C47.31 28.54, 64.15 13.11, 73.15 1.13 M31.82 48.24 C49.27 29.3, 64.59 12.11, 74.99 -0.42 M38.58 48.5 C48.62 38.16, 57.75 24.46, 79.47 1.55 M36.98 48.08 C51.13 30.3, 65.95 14.69, 79.19 0.7 M41.31 48.12 C56.95 33.34, 69.17 18.79, 86.45 -0.87 M43.72 47.76 C51.22 37.12, 59.71 28.18, 85.62 -0.76 M49.52 47.66 C60.86 33.12, 76.54 14.86, 91.5 2.02 M48.07 49.35 C64.58 31.54, 79.27 12.82, 89.73 0.65 M54.43 47.6 C63.76 36.64, 74.34 23.04, 97.24 0.75 M54.3 47.87 C67.28 29.96, 81.98 13.34, 95.49 0.01 M60.16 47.82 C70.85 32.92, 87.92 14.42, 100.54 1.88 M59.4 48.47 C71.8 34.49, 82.27 20.68, 99.95 -0.78 M62.72 49.97 C77.58 35.43, 91.85 18.64, 108.17 1.65 M63.58 48.38 C73.23 37.39, 83.43 25.18, 106.3 0.18 M70.37 47.38 C82 33.87, 90 23.06, 109.92 -0.42 M70.04 48.34 C81.29 34.83, 91.83 23.47, 110.44 0.03 M76.07 46.92 C89.33 31.08, 100.76 18.24, 116.95 1.59 M74.85 48.04 C83.93 37.52, 92.14 27.14, 114.71 1.76 M80.44 47.34 C89.1 37.49, 101.83 23.75, 115.52 4.93 M79.34 48.06 C87.39 38.28, 96.92 29.63, 115.15 6.73 M84.87 48.97 C92.08 41.25, 96.98 32, 115.23 14.43 M84.69 49.08 C97.79 35.58, 110.15 21.6, 115.11 12.52 M91.14 47.26 C97.77 36.37, 109.46 27.88, 114.87 20 M90.95 49 C100.19 37.16, 108.1 26.94, 116.56 17.9 M94.57 50.46 C101.45 40.26, 107.9 34.84, 116.12 24.97 M95.63 48.21 C103.53 40.78, 109.07 31.37, 115.23 24.82 M99.63 49.24 C103.2 45.48, 105.69 39.54, 114.55 32.42 M100.76 48.71 C103.58 44.15, 107.25 40.36, 115.03 32.29 M105.35 49.86 C109.08 43.28, 112.65 38.53, 115.99 38.65 M105.64 49.15 C108.55 46.01, 111.61 43.38, 115.92 37.68 M111.74 48.71 C112.94 46.53, 114.15 46.53, 116.12 44.17 M111.57 48.41 C112.65 46.92, 113.98 45.68, 115.71 43.43" stroke="red" stroke-width="0.5" fill="none"></path><path d="M0.97 -1.73 C37.44 -1.22, 77.74 0.2, 113.6 -0.62 M0.29 -0.04 C27.67 0.42, 54.09 0.68, 114.38 -0.69 M113.54 -0.47 C115.94 15.75, 116.22 26.35, 115.49 49.81 M115.27 -0.17 C114.14 17.97, 114.55 35.05, 114.2 48.94 M116.36 47.22 C72.21 49.93, 29.26 47.83, 1.46 47.54 M115.72 48.06 C72.59 49.11, 28.33 48.46, 0.22 47.37 M-0.42 48.27 C-0.24 28.89, -1.88 8.45, 0.88 1.69 M0.47 47.15 C-0.14 33.65, 0.54 20.02, -0.91 0.09" stroke="#000000" stroke-width="1" fill="none"></path></g><g transform="translate(863.7600250244141 408.5) rotate(0 23.739974975585938 12.5)"><text x="23.739974975585938" y="0" font-family="Virgil, Segoe UI Emoji" font-size="20px" fill="#000000" text-anchor="middle" style="white-space: pre;" direction="ltr" dominant-baseline="text-before-edge">Last</text></g><g stroke-linecap="round" transform="translate(10 96) rotate(0 55.5 24)"><path d="M0 0 C0 0, 0 0, 0 0 M0 0 C0 0, 0 0, 0 0 M0.21 6.18 C1.15 5.59, 1.92 3.34, 5.75 0.42 M-0.3 6.41 C0.65 5.26, 1.99 3.77, 4.59 0.34 M-1.2 11.75 C4.6 9.84, 6.2 7.08, 9.58 1.56 M-0.41 12.4 C2.8 8.09, 5.99 4.15, 11.38 -0.7 M-0.89 18.92 C3.04 14.02, 8.7 7.06, 16.62 -1.1 M-1 17.83 C3.41 13.59, 7.36 11.13, 15.65 -0.48 M2.06 22.93 C5.96 14.52, 15.25 7.53, 20.13 0 M-0.65 24.19 C7.1 16.57, 13.09 9.23, 20.67 -0.33 M-1.83 31.73 C11.03 19.28, 18.94 8.96, 28.21 -0.79 M0.95 30.87 C8.26 20.67, 15.4 12.51, 26.73 -0.01 M0.94 36.36 C12.23 22.05, 23.99 8.51, 29.9 1.4 M0.08 36.57 C12.18 23.53, 23.49 10.69, 32.73 0.25 M-1.11 40.77 C9.66 34.61, 15.19 26.15, 35.97 -0.03 M0.61 42.92 C8.54 33.35, 15.5 24.45, 36.87 0.83 M0.62 46.96 C10.55 37.27, 19.96 25.88, 42.64 -1.53 M0.61 49.1 C13.71 32.18, 28.92 16.88, 41.76 -0.16 M3.76 47.06 C20.28 33.9, 33.21 18.58, 48.61 0.25 M4.61 47.53 C20.01 31.1, 34.08 14.79, 46.96 0.36 M11.58 46.77 C18.97 38.02, 28.42 27.42, 54.77 -1.93 M11.74 48.91 C21.58 35.16, 33.47 23.38, 54.05 -0.38 M14.47 48.21 C26.81 38.76, 37.42 24.07, 57.27 -0.29 M16.62 48.52 C28.28 32.34, 42.2 17.46, 57.19 0.14 M20.38 49.5 C35.6 33.8, 44.66 19.82, 63.17 1.63 M21.2 47.49 C35.04 32.21, 49.85 17.74, 64.18 -1.01 M27.89 50.45 C38.35 33.76, 52.84 15.57, 67.55 -1.45 M27.33 47.96 C40.83 30.8, 57.58 13.01, 69.02 0.93 M33.87 46.11 C47.31 28.54, 64.15 13.11, 73.15 1.13 M31.82 48.24 C49.27 29.3, 64.59 12.11, 74.99 -0.42 M38.58 48.5 C48.62 38.16, 57.75 24.46, 79.47 1.55 M36.98 48.08 C51.13 30.3, 65.95 14.69, 79.19 0.7 M41.31 48.12 C56.95 33.34, 69.17 18.79, 86.45 -0.87 M43.72 47.76 C51.22 37.12, 59.71 28.18, 85.62 -0.76 M49.52 47.66 C60.86 33.12, 76.54 14.86, 91.5 2.02 M48.07 49.35 C64.58 31.54, 79.27 12.82, 89.73 0.65 M54.43 47.6 C63.76 36.64, 74.34 23.04, 97.24 0.75 M54.3 47.87 C67.28 29.96, 81.98 13.34, 95.49 0.01 M60.16 47.82 C70.85 32.92, 87.92 14.42, 100.54 1.88 M59.4 48.47 C71.8 34.49, 82.27 20.68, 99.95 -0.78 M62.72 49.97 C77.58 35.43, 91.85 18.64, 108.17 1.65 M63.58 48.38 C73.23 37.39, 83.43 25.18, 106.3 0.18 M70.37 47.38 C82 33.87, 90 23.06, 109.92 -0.42 M70.04 48.34 C81.29 34.83, 91.83 23.47, 110.44 0.03 M76.07 46.92 C87.77 32.81, 97.66 21.75, 112.36 6.88 M74.85 48.04 C82.9 38.66, 90.1 29.44, 110.12 7.04 M80.44 47.34 C87.71 39.1, 99.02 27, 110.93 10.21 M79.34 48.06 C86.32 39.52, 94.81 32.08, 110.56 12.02 M84.87 48.97 C91.05 42.46, 94.88 34.42, 110.64 19.72 M84.69 49.08 C95.97 37.64, 106.51 25.74, 110.52 17.8 M91.14 47.26 C95.93 38.49, 105.78 32.12, 109.62 26.04 M90.95 49 C98.38 39.24, 104.44 31.15, 111.31 23.94 M94.57 50.46 C99.91 42.05, 104.85 38.38, 111.53 30.25 M95.63 48.21 C101.9 42.7, 105.8 35.19, 110.64 30.1 M100.02 48.98 C102.5 46.41, 104.16 42.19, 110.22 37.5 M100.87 48.58 C102.77 45.43, 105.3 42.85, 110.59 37.4 M105.73 49.26 C107.73 45.75, 109.63 43.22, 111.41 43.28 M105.89 48.88 C107.44 47.21, 109.08 45.8, 111.38 42.76" stroke="#ced4da" stroke-width="0.5" fill="none"></path><path d="M0.97 -1.73 C36.09 -1.25, 75.05 0.17, 109.6 -0.62 M0.29 -0.04 C26.72 0.42, 52.19 0.68, 110.38 -0.69 M109.54 -0.47 C111.94 15.75, 112.22 26.35, 111.49 49.81 M111.27 -0.17 C110.14 17.97, 110.55 35.05, 110.2 48.94 M112.36 47.22 C69.68 49.9, 28.21 47.81, 1.46 47.54 M111.72 48.06 C70.09 49.1, 27.33 48.45, 0.22 47.37 M-0.42 48.27 C-0.24 28.89, -1.88 8.45, 0.88 1.69 M0.47 47.15 C-0.14 33.65, 0.54 20.02, -0.91 0.09" stroke="#000000" stroke-width="1" fill="none"></path></g><g transform="translate(37.1600341796875 107.5) rotate(0 28.3399658203125 12.5)"><text x="28.3399658203125" y="0" font-family="Virgil, Segoe UI Emoji" font-size="20px" fill="#000000" text-anchor="middle" style="white-space: pre;" direction="ltr" dominant-baseline="text-before-edge">Empty</text></g><g stroke-linecap="round" transform="translate(135 96) rotate(0 55.5 24)"><path d="M0 0 C0 0, 0 0, 0 0 M0 0 C0 0, 0 0, 0 0 M0.21 6.18 C1.15 5.59, 1.92 3.34, 5.75 0.42 M-0.3 6.41 C0.65 5.26, 1.99 3.77, 4.59 0.34 M-1.2 11.75 C4.6 9.84, 6.2 7.08, 9.58 1.56 M-0.41 12.4 C2.8 8.09, 5.99 4.15, 11.38 -0.7 M-0.89 18.92 C3.04 14.02, 8.7 7.06, 16.62 -1.1 M-1 17.83 C3.41 13.59, 7.36 11.13, 15.65 -0.48 M2.06 22.93 C5.96 14.52, 15.25 7.53, 20.13 0 M-0.65 24.19 C7.1 16.57, 13.09 9.23, 20.67 -0.33 M-1.83 31.73 C11.03 19.28, 18.94 8.96, 28.21 -0.79 M0.95 30.87 C8.26 20.67, 15.4 12.51, 26.73 -0.01 M0.94 36.36 C12.23 22.05, 23.99 8.51, 29.9 1.4 M0.08 36.57 C12.18 23.53, 23.49 10.69, 32.73 0.25 M-1.11 40.77 C9.66 34.61, 15.19 26.15, 35.97 -0.03 M0.61 42.92 C8.54 33.35, 15.5 24.45, 36.87 0.83 M0.62 46.96 C10.55 37.27, 19.96 25.88, 42.64 -1.53 M0.61 49.1 C13.71 32.18, 28.92 16.88, 41.76 -0.16 M3.76 47.06 C20.28 33.9, 33.21 18.58, 48.61 0.25 M4.61 47.53 C20.01 31.1, 34.08 14.79, 46.96 0.36 M11.58 46.77 C18.97 38.02, 28.42 27.42, 54.77 -1.93 M11.74 48.91 C21.58 35.16, 33.47 23.38, 54.05 -0.38 M14.47 48.21 C26.81 38.76, 37.42 24.07, 57.27 -0.29 M16.62 48.52 C28.28 32.34, 42.2 17.46, 57.19 0.14 M20.38 49.5 C35.6 33.8, 44.66 19.82, 63.17 1.63 M21.2 47.49 C35.04 32.21, 49.85 17.74, 64.18 -1.01 M27.89 50.45 C38.35 33.76, 52.84 15.57, 67.55 -1.45 M27.33 47.96 C40.83 30.8, 57.58 13.01, 69.02 0.93 M33.87 46.11 C47.31 28.54, 64.15 13.11, 73.15 1.13 M31.82 48.24 C49.27 29.3, 64.59 12.11, 74.99 -0.42 M38.58 48.5 C48.62 38.16, 57.75 24.46, 79.47 1.55 M36.98 48.08 C51.13 30.3, 65.95 14.69, 79.19 0.7 M41.31 48.12 C56.95 33.34, 69.17 18.79, 86.45 -0.87 M43.72 47.76 C51.22 37.12, 59.71 28.18, 85.62 -0.76 M49.52 47.66 C60.86 33.12, 76.54 14.86, 91.5 2.02 M48.07 49.35 C64.58 31.54, 79.27 12.82, 89.73 0.65 M54.43 47.6 C63.76 36.64, 74.34 23.04, 97.24 0.75 M54.3 47.87 C67.28 29.96, 81.98 13.34, 95.49 0.01 M60.16 47.82 C70.85 32.92, 87.92 14.42, 100.54 1.88 M59.4 48.47 C71.8 34.49, 82.27 20.68, 99.95 -0.78 M62.72 49.97 C77.58 35.43, 91.85 18.64, 108.17 1.65 M63.58 48.38 C73.23 37.39, 83.43 25.18, 106.3 0.18 M70.37 47.38 C82 33.87, 90 23.06, 109.92 -0.42 M70.04 48.34 C81.29 34.83, 91.83 23.47, 110.44 0.03 M76.07 46.92 C87.77 32.81, 97.66 21.75, 112.36 6.88 M74.85 48.04 C82.9 38.66, 90.1 29.44, 110.12 7.04 M80.44 47.34 C87.71 39.1, 99.02 27, 110.93 10.21 M79.34 48.06 C86.32 39.52, 94.81 32.08, 110.56 12.02 M84.87 48.97 C91.05 42.46, 94.88 34.42, 110.64 19.72 M84.69 49.08 C95.97 37.64, 106.51 25.74, 110.52 17.8 M91.14 47.26 C95.93 38.49, 105.78 32.12, 109.62 26.04 M90.95 49 C98.38 39.24, 104.44 31.15, 111.31 23.94 M94.57 50.46 C99.91 42.05, 104.85 38.38, 111.53 30.25 M95.63 48.21 C101.9 42.7, 105.8 35.19, 110.64 30.1 M100.02 48.98 C102.5 46.41, 104.16 42.19, 110.22 37.5 M100.87 48.58 C102.77 45.43, 105.3 42.85, 110.59 37.4 M105.73 49.26 C107.73 45.75, 109.63 43.22, 111.41 43.28 M105.89 48.88 C107.44 47.21, 109.08 45.8, 111.38 42.76" stroke="#40c057" stroke-width="0.5" fill="none"></path><path d="M0.97 -1.73 C36.09 -1.25, 75.05 0.17, 109.6 -0.62 M0.29 -0.04 C26.72 0.42, 52.19 0.68, 110.38 -0.69 M109.54 -0.47 C111.94 15.75, 112.22 26.35, 111.49 49.81 M111.27 -0.17 C110.14 17.97, 110.55 35.05, 110.2 48.94 M112.36 47.22 C69.68 49.9, 28.21 47.81, 1.46 47.54 M111.72 48.06 C70.09 49.1, 27.33 48.45, 0.22 47.37 M-0.42 48.27 C-0.24 28.89, -1.88 8.45, 0.88 1.69 M0.47 47.15 C-0.14 33.65, 0.54 20.02, -0.91 0.09" stroke="#000000" stroke-width="1" fill="none"></path></g><g transform="translate(167.19002532958984 107.5) rotate(0 23.309974670410156 12.5)"><text x="23.309974670410156" y="0" font-family="Virgil, Segoe UI Emoji" font-size="20px" fill="#000000" text-anchor="middle" style="white-space: pre;" direction="ltr" dominant-baseline="text-before-edge">First</text></g><g stroke-linecap="round" transform="translate(257 95) rotate(0 57.5 24)"><path d="M0 0 C0 0, 0 0, 0 0 M0 0 C0 0, 0 0, 0 0 M0.21 6.18 C1.15 5.59, 1.92 3.34, 5.75 0.42 M-0.3 6.41 C0.65 5.26, 1.99 3.77, 4.59 0.34 M-1.2 11.75 C4.6 9.84, 6.2 7.08, 9.58 1.56 M-0.41 12.4 C2.8 8.09, 5.99 4.15, 11.38 -0.7 M-0.89 18.92 C3.04 14.02, 8.7 7.06, 16.62 -1.1 M-1 17.83 C3.41 13.59, 7.36 11.13, 15.65 -0.48 M2.06 22.93 C5.96 14.52, 15.25 7.53, 20.13 0 M-0.65 24.19 C7.1 16.57, 13.09 9.23, 20.67 -0.33 M-1.83 31.73 C11.03 19.28, 18.94 8.96, 28.21 -0.79 M0.95 30.87 C8.26 20.67, 15.4 12.51, 26.73 -0.01 M0.94 36.36 C12.23 22.05, 23.99 8.51, 29.9 1.4 M0.08 36.57 C12.18 23.53, 23.49 10.69, 32.73 0.25 M-1.11 40.77 C9.66 34.61, 15.19 26.15, 35.97 -0.03 M0.61 42.92 C8.54 33.35, 15.5 24.45, 36.87 0.83 M0.62 46.96 C10.55 37.27, 19.96 25.88, 42.64 -1.53 M0.61 49.1 C13.71 32.18, 28.92 16.88, 41.76 -0.16 M3.76 47.06 C20.28 33.9, 33.21 18.58, 48.61 0.25 M4.61 47.53 C20.01 31.1, 34.08 14.79, 46.96 0.36 M11.58 46.77 C18.97 38.02, 28.42 27.42, 54.77 -1.93 M11.74 48.91 C21.58 35.16, 33.47 23.38, 54.05 -0.38 M14.47 48.21 C26.81 38.76, 37.42 24.07, 57.27 -0.29 M16.62 48.52 C28.28 32.34, 42.2 17.46, 57.19 0.14 M20.38 49.5 C35.6 33.8, 44.66 19.82, 63.17 1.63 M21.2 47.49 C35.04 32.21, 49.85 17.74, 64.18 -1.01 M27.89 50.45 C38.35 33.76, 52.84 15.57, 67.55 -1.45 M27.33 47.96 C40.83 30.8, 57.58 13.01, 69.02 0.93 M33.87 46.11 C47.31 28.54, 64.15 13.11, 73.15 1.13 M31.82 48.24 C49.27 29.3, 64.59 12.11, 74.99 -0.42 M38.58 48.5 C48.62 38.16, 57.75 24.46, 79.47 1.55 M36.98 48.08 C51.13 30.3, 65.95 14.69, 79.19 0.7 M41.31 48.12 C56.95 33.34, 69.17 18.79, 86.45 -0.87 M43.72 47.76 C51.22 37.12, 59.71 28.18, 85.62 -0.76 M49.52 47.66 C60.86 33.12, 76.54 14.86, 91.5 2.02 M48.07 49.35 C64.58 31.54, 79.27 12.82, 89.73 0.65 M54.43 47.6 C63.76 36.64, 74.34 23.04, 97.24 0.75 M54.3 47.87 C67.28 29.96, 81.98 13.34, 95.49 0.01 M60.16 47.82 C70.85 32.92, 87.92 14.42, 100.54 1.88 M59.4 48.47 C71.8 34.49, 82.27 20.68, 99.95 -0.78 M62.72 49.97 C77.58 35.43, 91.85 18.64, 108.17 1.65 M63.58 48.38 C73.23 37.39, 83.43 25.18, 106.3 0.18 M70.37 47.38 C82 33.87, 90 23.06, 109.92 -0.42 M70.04 48.34 C81.29 34.83, 91.83 23.47, 110.44 0.03 M76.07 46.92 C89.33 31.08, 100.76 18.24, 116.95 1.59 M74.85 48.04 C83.93 37.52, 92.14 27.14, 114.71 1.76 M80.44 47.34 C89.1 37.49, 101.83 23.75, 115.52 4.93 M79.34 48.06 C87.39 38.28, 96.92 29.63, 115.15 6.73 M84.87 48.97 C92.08 41.25, 96.98 32, 115.23 14.43 M84.69 49.08 C97.79 35.58, 110.15 21.6, 115.11 12.52 M91.14 47.26 C97.77 36.37, 109.46 27.88, 114.87 20 M90.95 49 C100.19 37.16, 108.1 26.94, 116.56 17.9 M94.57 50.46 C101.45 40.26, 107.9 34.84, 116.12 24.97 M95.63 48.21 C103.53 40.78, 109.07 31.37, 115.23 24.82 M99.63 49.24 C103.2 45.48, 105.69 39.54, 114.55 32.42 M100.76 48.71 C103.58 44.15, 107.25 40.36, 115.03 32.29 M105.35 49.86 C109.08 43.28, 112.65 38.53, 115.99 38.65 M105.64 49.15 C108.55 46.01, 111.61 43.38, 115.92 37.68 M111.74 48.71 C112.94 46.53, 114.15 46.53, 116.12 44.17 M111.57 48.41 C112.65 46.92, 113.98 45.68, 115.71 43.43" stroke="blue" stroke-width="0.5" fill="none"></path><path d="M0.97 -1.73 C37.44 -1.22, 77.74 0.2, 113.6 -0.62 M0.29 -0.04 C27.67 0.42, 54.09 0.68, 114.38 -0.69 M113.54 -0.47 C115.94 15.75, 116.22 26.35, 115.49 49.81 M115.27 -0.17 C114.14 17.97, 114.55 35.05, 114.2 48.94 M116.36 47.22 C72.21 49.93, 29.26 47.83, 1.46 47.54 M115.72 48.06 C72.59 49.11, 28.33 48.46, 0.22 47.37 M-0.42 48.27 C-0.24 28.89, -1.88 8.45, 0.88 1.69 M0.47 47.15 C-0.14 33.65, 0.54 20.02, -0.91 0.09" stroke="#000000" stroke-width="1" fill="none"></path></g><g transform="translate(285.17002868652344 106.5) rotate(0 29.329971313476562 12.5)"><text x="29.329971313476562" y="0" font-family="Virgil, Segoe UI Emoji" font-size="20px" fill="#000000" text-anchor="middle" style="white-space: pre;" direction="ltr" dominant-baseline="text-before-edge">Middle</text></g><g stroke-linecap="round" transform="translate(384 97) rotate(0 57.5 24)"><path d="M0 0 C0 0, 0 0, 0 0 M0 0 C0 0, 0 0, 0 0 M0.21 6.18 C1.15 5.59, 1.92 3.34, 5.75 0.42 M-0.3 6.41 C0.65 5.26, 1.99 3.77, 4.59 0.34 M-1.2 11.75 C4.6 9.84, 6.2 7.08, 9.58 1.56 M-0.41 12.4 C2.8 8.09, 5.99 4.15, 11.38 -0.7 M-0.89 18.92 C3.04 14.02, 8.7 7.06, 16.62 -1.1 M-1 17.83 C3.41 13.59, 7.36 11.13, 15.65 -0.48 M2.06 22.93 C5.96 14.52, 15.25 7.53, 20.13 0 M-0.65 24.19 C7.1 16.57, 13.09 9.23, 20.67 -0.33 M-1.83 31.73 C11.03 19.28, 18.94 8.96, 28.21 -0.79 M0.95 30.87 C8.26 20.67, 15.4 12.51, 26.73 -0.01 M0.94 36.36 C12.23 22.05, 23.99 8.51, 29.9 1.4 M0.08 36.57 C12.18 23.53, 23.49 10.69, 32.73 0.25 M-1.11 40.77 C9.66 34.61, 15.19 26.15, 35.97 -0.03 M0.61 42.92 C8.54 33.35, 15.5 24.45, 36.87 0.83 M0.62 46.96 C10.55 37.27, 19.96 25.88, 42.64 -1.53 M0.61 49.1 C13.71 32.18, 28.92 16.88, 41.76 -0.16 M3.76 47.06 C20.28 33.9, 33.21 18.58, 48.61 0.25 M4.61 47.53 C20.01 31.1, 34.08 14.79, 46.96 0.36 M11.58 46.77 C18.97 38.02, 28.42 27.42, 54.77 -1.93 M11.74 48.91 C21.58 35.16, 33.47 23.38, 54.05 -0.38 M14.47 48.21 C26.81 38.76, 37.42 24.07, 57.27 -0.29 M16.62 48.52 C28.28 32.34, 42.2 17.46, 57.19 0.14 M20.38 49.5 C35.6 33.8, 44.66 19.82, 63.17 1.63 M21.2 47.49 C35.04 32.21, 49.85 17.74, 64.18 -1.01 M27.89 50.45 C38.35 33.76, 52.84 15.57, 67.55 -1.45 M27.33 47.96 C40.83 30.8, 57.58 13.01, 69.02 0.93 M33.87 46.11 C47.31 28.54, 64.15 13.11, 73.15 1.13 M31.82 48.24 C49.27 29.3, 64.59 12.11, 74.99 -0.42 M38.58 48.5 C48.62 38.16, 57.75 24.46, 79.47 1.55 M36.98 48.08 C51.13 30.3, 65.95 14.69, 79.19 0.7 M41.31 48.12 C56.95 33.34, 69.17 18.79, 86.45 -0.87 M43.72 47.76 C51.22 37.12, 59.71 28.18, 85.62 -0.76 M49.52 47.66 C60.86 33.12, 76.54 14.86, 91.5 2.02 M48.07 49.35 C64.58 31.54, 79.27 12.82, 89.73 0.65 M54.43 47.6 C63.76 36.64, 74.34 23.04, 97.24 0.75 M54.3 47.87 C67.28 29.96, 81.98 13.34, 95.49 0.01 M60.16 47.82 C70.85 32.92, 87.92 14.42, 100.54 1.88 M59.4 48.47 C71.8 34.49, 82.27 20.68, 99.95 -0.78 M62.72 49.97 C77.58 35.43, 91.85 18.64, 108.17 1.65 M63.58 48.38 C73.23 37.39, 83.43 25.18, 106.3 0.18 M70.37 47.38 C82 33.87, 90 23.06, 109.92 -0.42 M70.04 48.34 C81.29 34.83, 91.83 23.47, 110.44 0.03 M76.07 46.92 C89.33 31.08, 100.76 18.24, 116.95 1.59 M74.85 48.04 C83.93 37.52, 92.14 27.14, 114.71 1.76 M80.44 47.34 C89.1 37.49, 101.83 23.75, 115.52 4.93 M79.34 48.06 C87.39 38.28, 96.92 29.63, 115.15 6.73 M84.87 48.97 C92.08 41.25, 96.98 32, 115.23 14.43 M84.69 49.08 C97.79 35.58, 110.15 21.6, 115.11 12.52 M91.14 47.26 C97.77 36.37, 109.46 27.88, 114.87 20 M90.95 49 C100.19 37.16, 108.1 26.94, 116.56 17.9 M94.57 50.46 C101.45 40.26, 107.9 34.84, 116.12 24.97 M95.63 48.21 C103.53 40.78, 109.07 31.37, 115.23 24.82 M99.63 49.24 C103.2 45.48, 105.69 39.54, 114.55 32.42 M100.76 48.71 C103.58 44.15, 107.25 40.36, 115.03 32.29 M105.35 49.86 C109.08 43.28, 112.65 38.53, 115.99 38.65 M105.64 49.15 C108.55 46.01, 111.61 43.38, 115.92 37.68 M111.74 48.71 C112.94 46.53, 114.15 46.53, 116.12 44.17 M111.57 48.41 C112.65 46.92, 113.98 45.68, 115.71 43.43" stroke="blue" stroke-width="0.5" fill="none"></path><path d="M0.97 -1.73 C37.44 -1.22, 77.74 0.2, 113.6 -0.62 M0.29 -0.04 C27.67 0.42, 54.09 0.68, 114.38 -0.69 M113.54 -0.47 C115.94 15.75, 116.22 26.35, 115.49 49.81 M115.27 -0.17 C114.14 17.97, 114.55 35.05, 114.2 48.94 M116.36 47.22 C72.21 49.93, 29.26 47.83, 1.46 47.54 M115.72 48.06 C72.59 49.11, 28.33 48.46, 0.22 47.37 M-0.42 48.27 C-0.24 28.89, -1.88 8.45, 0.88 1.69 M0.47 47.15 C-0.14 33.65, 0.54 20.02, -0.91 0.09" stroke="#000000" stroke-width="1" fill="none"></path></g><g transform="translate(412.17002868652344 108.5) rotate(0 29.329971313476562 12.5)"><text x="29.329971313476562" y="0" font-family="Virgil, Segoe UI Emoji" font-size="20px" fill="#000000" text-anchor="middle" style="white-space: pre;" direction="ltr" dominant-baseline="text-before-edge">Middle</text></g><g stroke-linecap="round" transform="translate(508 95) rotate(0 57.5 24)"><path d="M0 0 C0 0, 0 0, 0 0 M0 0 C0 0, 0 0, 0 0 M0.21 6.18 C1.15 5.59, 1.92 3.34, 5.75 0.42 M-0.3 6.41 C0.65 5.26, 1.99 3.77, 4.59 0.34 M-1.2 11.75 C4.6 9.84, 6.2 7.08, 9.58 1.56 M-0.41 12.4 C2.8 8.09, 5.99 4.15, 11.38 -0.7 M-0.89 18.92 C3.04 14.02, 8.7 7.06, 16.62 -1.1 M-1 17.83 C3.41 13.59, 7.36 11.13, 15.65 -0.48 M2.06 22.93 C5.96 14.52, 15.25 7.53, 20.13 0 M-0.65 24.19 C7.1 16.57, 13.09 9.23, 20.67 -0.33 M-1.83 31.73 C11.03 19.28, 18.94 8.96, 28.21 -0.79 M0.95 30.87 C8.26 20.67, 15.4 12.51, 26.73 -0.01 M0.94 36.36 C12.23 22.05, 23.99 8.51, 29.9 1.4 M0.08 36.57 C12.18 23.53, 23.49 10.69, 32.73 0.25 M-1.11 40.77 C9.66 34.61, 15.19 26.15, 35.97 -0.03 M0.61 42.92 C8.54 33.35, 15.5 24.45, 36.87 0.83 M0.62 46.96 C10.55 37.27, 19.96 25.88, 42.64 -1.53 M0.61 49.1 C13.71 32.18, 28.92 16.88, 41.76 -0.16 M3.76 47.06 C20.28 33.9, 33.21 18.58, 48.61 0.25 M4.61 47.53 C20.01 31.1, 34.08 14.79, 46.96 0.36 M11.58 46.77 C18.97 38.02, 28.42 27.42, 54.77 -1.93 M11.74 48.91 C21.58 35.16, 33.47 23.38, 54.05 -0.38 M14.47 48.21 C26.81 38.76, 37.42 24.07, 57.27 -0.29 M16.62 48.52 C28.28 32.34, 42.2 17.46, 57.19 0.14 M20.38 49.5 C35.6 33.8, 44.66 19.82, 63.17 1.63 M21.2 47.49 C35.04 32.21, 49.85 17.74, 64.18 -1.01 M27.89 50.45 C38.35 33.76, 52.84 15.57, 67.55 -1.45 M27.33 47.96 C40.83 30.8, 57.58 13.01, 69.02 0.93 M33.87 46.11 C47.31 28.54, 64.15 13.11, 73.15 1.13 M31.82 48.24 C49.27 29.3, 64.59 12.11, 74.99 -0.42 M38.58 48.5 C48.62 38.16, 57.75 24.46, 79.47 1.55 M36.98 48.08 C51.13 30.3, 65.95 14.69, 79.19 0.7 M41.31 48.12 C56.95 33.34, 69.17 18.79, 86.45 -0.87 M43.72 47.76 C51.22 37.12, 59.71 28.18, 85.62 -0.76 M49.52 47.66 C60.86 33.12, 76.54 14.86, 91.5 2.02 M48.07 49.35 C64.58 31.54, 79.27 12.82, 89.73 0.65 M54.43 47.6 C63.76 36.64, 74.34 23.04, 97.24 0.75 M54.3 47.87 C67.28 29.96, 81.98 13.34, 95.49 0.01 M60.16 47.82 C70.85 32.92, 87.92 14.42, 100.54 1.88 M59.4 48.47 C71.8 34.49, 82.27 20.68, 99.95 -0.78 M62.72 49.97 C77.58 35.43, 91.85 18.64, 108.17 1.65 M63.58 48.38 C73.23 37.39, 83.43 25.18, 106.3 0.18 M70.37 47.38 C82 33.87, 90 23.06, 109.92 -0.42 M70.04 48.34 C81.29 34.83, 91.83 23.47, 110.44 0.03 M76.07 46.92 C89.33 31.08, 100.76 18.24, 116.95 1.59 M74.85 48.04 C83.93 37.52, 92.14 27.14, 114.71 1.76 M80.44 47.34 C89.1 37.49, 101.83 23.75, 115.52 4.93 M79.34 48.06 C87.39 38.28, 96.92 29.63, 115.15 6.73 M84.87 48.97 C92.08 41.25, 96.98 32, 115.23 14.43 M84.69 49.08 C97.79 35.58, 110.15 21.6, 115.11 12.52 M91.14 47.26 C97.77 36.37, 109.46 27.88, 114.87 20 M90.95 49 C100.19 37.16, 108.1 26.94, 116.56 17.9 M94.57 50.46 C101.45 40.26, 107.9 34.84, 116.12 24.97 M95.63 48.21 C103.53 40.78, 109.07 31.37, 115.23 24.82 M99.63 49.24 C103.2 45.48, 105.69 39.54, 114.55 32.42 M100.76 48.71 C103.58 44.15, 107.25 40.36, 115.03 32.29 M105.35 49.86 C109.08 43.28, 112.65 38.53, 115.99 38.65 M105.64 49.15 C108.55 46.01, 111.61 43.38, 115.92 37.68 M111.74 48.71 C112.94 46.53, 114.15 46.53, 116.12 44.17 M111.57 48.41 C112.65 46.92, 113.98 45.68, 115.71 43.43" stroke="red" stroke-width="0.5" fill="none"></path><path d="M0.97 -1.73 C37.44 -1.22, 77.74 0.2, 113.6 -0.62 M0.29 -0.04 C27.67 0.42, 54.09 0.68, 114.38 -0.69 M113.54 -0.47 C115.94 15.75, 116.22 26.35, 115.49 49.81 M115.27 -0.17 C114.14 17.97, 114.55 35.05, 114.2 48.94 M116.36 47.22 C72.21 49.93, 29.26 47.83, 1.46 47.54 M115.72 48.06 C72.59 49.11, 28.33 48.46, 0.22 47.37 M-0.42 48.27 C-0.24 28.89, -1.88 8.45, 0.88 1.69 M0.47 47.15 C-0.14 33.65, 0.54 20.02, -0.91 0.09" stroke="#000000" stroke-width="1" fill="none"></path></g><g transform="translate(541.7600250244141 106.5) rotate(0 23.739974975585938 12.5)"><text x="23.739974975585938" y="0" font-family="Virgil, Segoe UI Emoji" font-size="20px" fill="#000000" text-anchor="middle" style="white-space: pre;" direction="ltr" dominant-baseline="text-before-edge">Last</text></g><g stroke-linecap="round" transform="translate(638 96) rotate(0 55.5 24)"><path d="M0 0 C0 0, 0 0, 0 0 M0 0 C0 0, 0 0, 0 0 M0.21 6.18 C1.15 5.59, 1.92 3.34, 5.75 0.42 M-0.3 6.41 C0.65 5.26, 1.99 3.77, 4.59 0.34 M-1.2 11.75 C4.6 9.84, 6.2 7.08, 9.58 1.56 M-0.41 12.4 C2.8 8.09, 5.99 4.15, 11.38 -0.7 M-0.89 18.92 C3.04 14.02, 8.7 7.06, 16.62 -1.1 M-1 17.83 C3.41 13.59, 7.36 11.13, 15.65 -0.48 M2.06 22.93 C5.96 14.52, 15.25 7.53, 20.13 0 M-0.65 24.19 C7.1 16.57, 13.09 9.23, 20.67 -0.33 M-1.83 31.73 C11.03 19.28, 18.94 8.96, 28.21 -0.79 M0.95 30.87 C8.26 20.67, 15.4 12.51, 26.73 -0.01 M0.94 36.36 C12.23 22.05, 23.99 8.51, 29.9 1.4 M0.08 36.57 C12.18 23.53, 23.49 10.69, 32.73 0.25 M-1.11 40.77 C9.66 34.61, 15.19 26.15, 35.97 -0.03 M0.61 42.92 C8.54 33.35, 15.5 24.45, 36.87 0.83 M0.62 46.96 C10.55 37.27, 19.96 25.88, 42.64 -1.53 M0.61 49.1 C13.71 32.18, 28.92 16.88, 41.76 -0.16 M3.76 47.06 C20.28 33.9, 33.21 18.58, 48.61 0.25 M4.61 47.53 C20.01 31.1, 34.08 14.79, 46.96 0.36 M11.58 46.77 C18.97 38.02, 28.42 27.42, 54.77 -1.93 M11.74 48.91 C21.58 35.16, 33.47 23.38, 54.05 -0.38 M14.47 48.21 C26.81 38.76, 37.42 24.07, 57.27 -0.29 M16.62 48.52 C28.28 32.34, 42.2 17.46, 57.19 0.14 M20.38 49.5 C35.6 33.8, 44.66 19.82, 63.17 1.63 M21.2 47.49 C35.04 32.21, 49.85 17.74, 64.18 -1.01 M27.89 50.45 C38.35 33.76, 52.84 15.57, 67.55 -1.45 M27.33 47.96 C40.83 30.8, 57.58 13.01, 69.02 0.93 M33.87 46.11 C47.31 28.54, 64.15 13.11, 73.15 1.13 M31.82 48.24 C49.27 29.3, 64.59 12.11, 74.99 -0.42 M38.58 48.5 C48.62 38.16, 57.75 24.46, 79.47 1.55 M36.98 48.08 C51.13 30.3, 65.95 14.69, 79.19 0.7 M41.31 48.12 C56.95 33.34, 69.17 18.79, 86.45 -0.87 M43.72 47.76 C51.22 37.12, 59.71 28.18, 85.62 -0.76 M49.52 47.66 C60.86 33.12, 76.54 14.86, 91.5 2.02 M48.07 49.35 C64.58 31.54, 79.27 12.82, 89.73 0.65 M54.43 47.6 C63.76 36.64, 74.34 23.04, 97.24 0.75 M54.3 47.87 C67.28 29.96, 81.98 13.34, 95.49 0.01 M60.16 47.82 C70.85 32.92, 87.92 14.42, 100.54 1.88 M59.4 48.47 C71.8 34.49, 82.27 20.68, 99.95 -0.78 M62.72 49.97 C77.58 35.43, 91.85 18.64, 108.17 1.65 M63.58 48.38 C73.23 37.39, 83.43 25.18, 106.3 0.18 M70.37 47.38 C82 33.87, 90 23.06, 109.92 -0.42 M70.04 48.34 C81.29 34.83, 91.83 23.47, 110.44 0.03 M76.07 46.92 C87.77 32.81, 97.66 21.75, 112.36 6.88 M74.85 48.04 C82.9 38.66, 90.1 29.44, 110.12 7.04 M80.44 47.34 C87.71 39.1, 99.02 27, 110.93 10.21 M79.34 48.06 C86.32 39.52, 94.81 32.08, 110.56 12.02 M84.87 48.97 C91.05 42.46, 94.88 34.42, 110.64 19.72 M84.69 49.08 C95.97 37.64, 106.51 25.74, 110.52 17.8 M91.14 47.26 C95.93 38.49, 105.78 32.12, 109.62 26.04 M90.95 49 C98.38 39.24, 104.44 31.15, 111.31 23.94 M94.57 50.46 C99.91 42.05, 104.85 38.38, 111.53 30.25 M95.63 48.21 C101.9 42.7, 105.8 35.19, 110.64 30.1 M100.02 48.98 C102.5 46.41, 104.16 42.19, 110.22 37.5 M100.87 48.58 C102.77 45.43, 105.3 42.85, 110.59 37.4 M105.73 49.26 C107.73 45.75, 109.63 43.22, 111.41 43.28 M105.89 48.88 C107.44 47.21, 109.08 45.8, 111.38 42.76" stroke="#ced4da" stroke-width="0.5" fill="none"></path><path d="M0.97 -1.73 C36.09 -1.25, 75.05 0.17, 109.6 -0.62 M0.29 -0.04 C26.72 0.42, 52.19 0.68, 110.38 -0.69 M109.54 -0.47 C111.94 15.75, 112.22 26.35, 111.49 49.81 M111.27 -0.17 C110.14 17.97, 110.55 35.05, 110.2 48.94 M112.36 47.22 C69.68 49.9, 28.21 47.81, 1.46 47.54 M111.72 48.06 C70.09 49.1, 27.33 48.45, 0.22 47.37 M-0.42 48.27 C-0.24 28.89, -1.88 8.45, 0.88 1.69 M0.47 47.15 C-0.14 33.65, 0.54 20.02, -0.91 0.09" stroke="#000000" stroke-width="1" fill="none"></path></g><g transform="translate(665.1600341796875 107.5) rotate(0 28.3399658203125 12.5)"><text x="28.3399658203125" y="0" font-family="Virgil, Segoe UI Emoji" font-size="20px" fill="#000000" text-anchor="middle" style="white-space: pre;" direction="ltr" dominant-baseline="text-before-edge">Empty</text></g><g stroke-linecap="round" transform="translate(647.2303883421655 206.13235294117646) rotate(0 53.323529411764696 119.55882352941177)"><path d="M0.97 -1.73 C34.63 -1.28, 72.12 0.15, 105.24 -0.62 M0.29 -0.04 C25.69 0.42, 50.13 0.67, 106.02 -0.69 M105.43 -0.4 C108.55 71.62, 108.78 138.95, 107.06 240.63 M106.87 -0.14 C105.45 89.68, 105.79 178.62, 105.98 239.9 M108 238.33 C66.94 240.99, 27.07 238.9, 1.46 238.66 M107.36 239.18 C67.37 240.2, 26.25 239.55, 0.22 238.49 M-0.35 239.34 C-0.17 145.16, -1.54 50.09, 0.74 1.41 M0.39 238.41 C1.39 167.49, 1.96 96.46, -0.76 0.08" stroke="#000000" stroke-width="1" fill="none"></path></g><g stroke-linecap="round"><g transform="translate(60.5 148) rotate(0 0.1829439974227114 29.66909984126687)"><path d="M0.5 1.45 C1.78 16.09, 1.51 30.76, -0.89 57.88" stroke="#000000" stroke-width="1.5" fill="none" stroke-dasharray="8 9"></path></g><g transform="translate(60.5 148) rotate(0 0.1829439974227114 29.66909984126687)"><path d="M-8.11 31.91 C-4.83 38.47, -2.98 45.02, -1.78 58.77" stroke="#000000" stroke-width="1.5" fill="none"></path></g><g transform="translate(60.5 148) rotate(0 0.1829439974227114 29.66909984126687)"><path d="M11.33 33.36 C9.26 39.42, 5.78 45.58, -1.78 58.77" stroke="#000000" stroke-width="1.5" fill="none"></path></g></g><mask></mask><g stroke-linecap="round"><g transform="translate(189.31705600257737 148.33090015873313) rotate(0 0.1829439974227114 29.66909984126687)"><path d="M0.5 1.45 C1.78 16.09, 1.51 30.76, -0.89 57.88" stroke="#000000" stroke-width="1.5" fill="none" stroke-dasharray="8 9"></path></g><g transform="translate(189.31705600257737 148.33090015873313) rotate(0 0.1829439974227114 29.66909984126687)"><path d="M-8.11 31.91 C-4.83 38.47, -2.98 45.02, -1.78 58.77" stroke="#000000" stroke-width="1.5" fill="none"></path></g><g transform="translate(189.31705600257737 148.33090015873313) rotate(0 0.1829439974227114 29.66909984126687)"><path d="M11.33 33.36 C9.26 39.42, 5.78 45.58, -1.78 58.77" stroke="#000000" stroke-width="1.5" fill="none"></path></g></g><mask></mask><g stroke-linecap="round"><g transform="translate(311.3170560025774 144.33090015873313) rotate(0 0.1829439974227398 29.66909984126687)"><path d="M0.5 1.45 C1.78 16.09, 1.51 30.76, -0.89 57.88" stroke="#000000" stroke-width="1.5" fill="none" stroke-dasharray="8 9"></path></g><g transform="translate(311.3170560025774 144.33090015873313) rotate(0 0.1829439974227398 29.66909984126687)"><path d="M-8.11 31.91 C-4.83 38.47, -2.98 45.02, -1.78 58.77" stroke="#000000" stroke-width="1.5" fill="none"></path></g><g transform="translate(311.3170560025774 144.33090015873313) rotate(0 0.1829439974227398 29.66909984126687)"><path d="M11.33 33.36 C9.26 39.42, 5.78 45.58, -1.78 58.77" stroke="#000000" stroke-width="1.5" fill="none"></path></g></g><mask></mask><g stroke-linecap="round"><g transform="translate(441.3170560025774 146.33090015873313) rotate(0 0.1829439974227398 29.66909984126687)"><path d="M0.5 1.45 C1.78 16.09, 1.51 30.76, -0.89 57.88" stroke="#000000" stroke-width="1.5" fill="none" stroke-dasharray="8 9"></path></g><g transform="translate(441.3170560025774 146.33090015873313) rotate(0 0.1829439974227398 29.66909984126687)"><path d="M-8.11 31.91 C-4.83 38.47, -2.98 45.02, -1.78 58.77" stroke="#000000" stroke-width="1.5" fill="none"></path></g><g transform="translate(441.3170560025774 146.33090015873313) rotate(0 0.1829439974227398 29.66909984126687)"><path d="M11.33 33.36 C9.26 39.42, 5.78 45.58, -1.78 58.77" stroke="#000000" stroke-width="1.5" fill="none"></path></g></g><mask></mask><g stroke-linecap="round"><g transform="translate(560.3170560025774 143.33090015873313) rotate(0 0.1829439974227398 29.66909984126687)"><path d="M0.5 1.45 C1.78 16.09, 1.51 30.76, -0.89 57.88" stroke="#000000" stroke-width="1.5" fill="none" stroke-dasharray="8 9"></path></g><g transform="translate(560.3170560025774 143.33090015873313) rotate(0 0.1829439974227398 29.66909984126687)"><path d="M-8.11 31.91 C-4.83 38.47, -2.98 45.02, -1.78 58.77" stroke="#000000" stroke-width="1.5" fill="none"></path></g><g transform="translate(560.3170560025774 143.33090015873313) rotate(0 0.1829439974227398 29.66909984126687)"><path d="M11.33 33.36 C9.26 39.42, 5.78 45.58, -1.78 58.77" stroke="#000000" stroke-width="1.5" fill="none"></path></g></g><mask></mask><g stroke-linecap="round"><g transform="translate(695.3170560025774 146.33090015873313) rotate(0 0.1829439974227398 29.66909984126687)"><path d="M0.5 1.45 C1.78 16.09, 1.51 30.76, -0.89 57.88" stroke="#000000" stroke-width="1.5" fill="none" stroke-dasharray="8 9"></path></g><g transform="translate(695.3170560025774 146.33090015873313) rotate(0 0.1829439974227398 29.66909984126687)"><path d="M-8.11 31.91 C-4.83 38.47, -2.98 45.02, -1.78 58.77" stroke="#000000" stroke-width="1.5" fill="none"></path></g><g transform="translate(695.3170560025774 146.33090015873313) rotate(0 0.1829439974227398 29.66909984126687)"><path d="M11.33 33.36 C9.26 39.42, 5.78 45.58, -1.78 58.77" stroke="#000000" stroke-width="1.5" fill="none"></path></g></g><mask></mask><g transform="translate(172.5 10) rotate(0 75.82991027832031 25)"><text x="0" y="0" font-family="Virgil, Segoe UI Emoji" font-size="20px" fill="#000000" text-anchor="start" style="white-space: pre;" direction="ltr" dominant-baseline="text-before-edge">Possible Orders</text><text x="0" y="25" font-family="Virgil, Segoe UI Emoji" font-size="20px" fill="#000000" text-anchor="start" style="white-space: pre;" direction="ltr" dominant-baseline="text-before-edge"></text></g><g stroke-linecap="round" transform="translate(21.75 539.1911764705883) rotate(0 55.5 24)"><path d="M0.97 -1.73 C36.09 -1.25, 75.05 0.17, 109.6 -0.62 M0.29 -0.04 C26.72 0.42, 52.19 0.68, 110.38 -0.69 M109.54 -0.47 C111.94 15.75, 112.22 26.35, 111.49 49.81 M111.27 -0.17 C110.14 17.97, 110.55 35.05, 110.2 48.94 M112.36 47.22 C69.68 49.9, 28.21 47.81, 1.46 47.54 M111.72 48.06 C70.09 49.1, 27.33 48.45, 0.22 47.37 M-0.42 48.27 C-0.24 28.89, -1.88 8.45, 0.88 1.69 M0.47 47.15 C-0.14 33.65, 0.54 20.02, -0.91 0.09" stroke="#000000" stroke-width="1" fill="none"></path></g><g stroke-linecap="round" transform="translate(21 653.6911764705883) rotate(0 53.323529411764696 121.55882352941177)"><path d="M0.97 -1.73 C34.63 -1.28, 72.12 0.15, 105.24 -0.62 M0.29 -0.04 C25.69 0.42, 50.13 0.67, 106.02 -0.69 M105.44 -0.39 C108.55 72.79, 108.79 141.31, 107.05 244.62 M106.87 -0.14 C105.45 91.18, 105.79 181.63, 105.98 243.9 M108 242.33 C66.94 244.99, 27.07 242.9, 1.46 242.66 M107.36 243.18 C67.37 244.2, 26.25 243.55, 0.22 242.49 M-0.35 243.34 C-0.17 147.59, -1.52 50.97, 0.73 1.4 M0.39 242.42 C1.41 170.29, 1.97 98.05, -0.76 0.08" stroke="#000000" stroke-width="1" fill="none"></path></g><g stroke-linecap="round" transform="translate(18.25 541.1911764705883) rotate(0 55.5 24)"><path d="M0 0 C0 0, 0 0, 0 0 M0 0 C0 0, 0 0, 0 0 M0.21 6.18 C1.15 5.59, 1.92 3.34, 5.75 0.42 M-0.3 6.41 C0.65 5.26, 1.99 3.77, 4.59 0.34 M-1.2 11.75 C4.6 9.84, 6.2 7.08, 9.58 1.56 M-0.41 12.4 C2.8 8.09, 5.99 4.15, 11.38 -0.7 M-0.89 18.92 C3.04 14.02, 8.7 7.06, 16.62 -1.1 M-1 17.83 C3.41 13.59, 7.36 11.13, 15.65 -0.48 M2.06 22.93 C5.96 14.52, 15.25 7.53, 20.13 0 M-0.65 24.19 C7.1 16.57, 13.09 9.23, 20.67 -0.33 M-1.83 31.73 C11.03 19.28, 18.94 8.96, 28.21 -0.79 M0.95 30.87 C8.26 20.67, 15.4 12.51, 26.73 -0.01 M0.94 36.36 C12.23 22.05, 23.99 8.51, 29.9 1.4 M0.08 36.57 C12.18 23.53, 23.49 10.69, 32.73 0.25 M-1.11 40.77 C9.66 34.61, 15.19 26.15, 35.97 -0.03 M0.61 42.92 C8.54 33.35, 15.5 24.45, 36.87 0.83 M0.62 46.96 C10.55 37.27, 19.96 25.88, 42.64 -1.53 M0.61 49.1 C13.71 32.18, 28.92 16.88, 41.76 -0.16 M3.76 47.06 C20.28 33.9, 33.21 18.58, 48.61 0.25 M4.61 47.53 C20.01 31.1, 34.08 14.79, 46.96 0.36 M11.58 46.77 C18.97 38.02, 28.42 27.42, 54.77 -1.93 M11.74 48.91 C21.58 35.16, 33.47 23.38, 54.05 -0.38 M14.47 48.21 C26.81 38.76, 37.42 24.07, 57.27 -0.29 M16.62 48.52 C28.28 32.34, 42.2 17.46, 57.19 0.14 M20.38 49.5 C35.6 33.8, 44.66 19.82, 63.17 1.63 M21.2 47.49 C35.04 32.21, 49.85 17.74, 64.18 -1.01 M27.89 50.45 C38.35 33.76, 52.84 15.57, 67.55 -1.45 M27.33 47.96 C40.83 30.8, 57.58 13.01, 69.02 0.93 M33.87 46.11 C47.31 28.54, 64.15 13.11, 73.15 1.13 M31.82 48.24 C49.27 29.3, 64.59 12.11, 74.99 -0.42 M38.58 48.5 C48.62 38.16, 57.75 24.46, 79.47 1.55 M36.98 48.08 C51.13 30.3, 65.95 14.69, 79.19 0.7 M41.31 48.12 C56.95 33.34, 69.17 18.79, 86.45 -0.87 M43.72 47.76 C51.22 37.12, 59.71 28.18, 85.62 -0.76 M49.52 47.66 C60.86 33.12, 76.54 14.86, 91.5 2.02 M48.07 49.35 C64.58 31.54, 79.27 12.82, 89.73 0.65 M54.43 47.6 C63.76 36.64, 74.34 23.04, 97.24 0.75 M54.3 47.87 C67.28 29.96, 81.98 13.34, 95.49 0.01 M60.16 47.82 C70.85 32.92, 87.92 14.42, 100.54 1.88 M59.4 48.47 C71.8 34.49, 82.27 20.68, 99.95 -0.78 M62.72 49.97 C77.58 35.43, 91.85 18.64, 108.17 1.65 M63.58 48.38 C73.23 37.39, 83.43 25.18, 106.3 0.18 M70.37 47.38 C82 33.87, 90 23.06, 109.92 -0.42 M70.04 48.34 C81.29 34.83, 91.83 23.47, 110.44 0.03 M76.07 46.92 C87.77 32.81, 97.66 21.75, 112.36 6.88 M74.85 48.04 C82.9 38.66, 90.1 29.44, 110.12 7.04 M80.44 47.34 C87.71 39.1, 99.02 27, 110.93 10.21 M79.34 48.06 C86.32 39.52, 94.81 32.08, 110.56 12.02 M84.87 48.97 C91.05 42.46, 94.88 34.42, 110.64 19.72 M84.69 49.08 C95.97 37.64, 106.51 25.74, 110.52 17.8 M91.14 47.26 C95.93 38.49, 105.78 32.12, 109.62 26.04 M90.95 49 C98.38 39.24, 104.44 31.15, 111.31 23.94 M94.57 50.46 C99.91 42.05, 104.85 38.38, 111.53 30.25 M95.63 48.21 C101.9 42.7, 105.8 35.19, 110.64 30.1 M100.02 48.98 C102.5 46.41, 104.16 42.19, 110.22 37.5 M100.87 48.58 C102.77 45.43, 105.3 42.85, 110.59 37.4 M105.73 49.26 C107.73 45.75, 109.63 43.22, 111.41 43.28 M105.89 48.88 C107.44 47.21, 109.08 45.8, 111.38 42.76" stroke="#ced4da" stroke-width="0.5" fill="none"></path><path d="M0.97 -1.73 C36.09 -1.25, 75.05 0.17, 109.6 -0.62 M0.29 -0.04 C26.72 0.42, 52.19 0.68, 110.38 -0.69 M109.54 -0.47 C111.94 15.75, 112.22 26.35, 111.49 49.81 M111.27 -0.17 C110.14 17.97, 110.55 35.05, 110.2 48.94 M112.36 47.22 C69.68 49.9, 28.21 47.81, 1.46 47.54 M111.72 48.06 C70.09 49.1, 27.33 48.45, 0.22 47.37 M-0.42 48.27 C-0.24 28.89, -1.88 8.45, 0.88 1.69 M0.47 47.15 C-0.14 33.65, 0.54 20.02, -0.91 0.09" stroke="#000000" stroke-width="1" fill="none"></path></g><g transform="translate(45.4100341796875 552.6911764705883) rotate(0 28.3399658203125 12.5)"><text x="28.3399658203125" y="0" font-family="Virgil, Segoe UI Emoji" font-size="20px" fill="#000000" text-anchor="middle" style="white-space: pre;" direction="ltr" dominant-baseline="text-before-edge">Empty</text></g><g stroke-linecap="round"><g transform="translate(68.75 593.1911764705883) rotate(0 0.1829439974227114 29.66909984126687)"><path d="M0.5 1.45 C1.78 16.09, 1.51 30.76, -0.89 57.88" stroke="#000000" stroke-width="1.5" fill="none" stroke-dasharray="8 9"></path></g><g transform="translate(68.75 593.1911764705883) rotate(0 0.1829439974227114 29.66909984126687)"><path d="M-8.11 31.91 C-4.83 38.47, -2.98 45.02, -1.78 58.77" stroke="#000000" stroke-width="1.5" fill="none"></path></g><g transform="translate(68.75 593.1911764705883) rotate(0 0.1829439974227114 29.66909984126687)"><path d="M11.33 33.36 C9.26 39.42, 5.78 45.58, -1.78 58.77" stroke="#000000" stroke-width="1.5" fill="none"></path></g></g><mask></mask><g stroke-linecap="round" transform="translate(154 538.7303921568628) rotate(0 55.5 24)"><path d="M0.97 -1.73 C36.09 -1.25, 75.05 0.17, 109.6 -0.62 M0.29 -0.04 C26.72 0.42, 52.19 0.68, 110.38 -0.69 M109.54 -0.47 C111.94 15.75, 112.22 26.35, 111.49 49.81 M111.27 -0.17 C110.14 17.97, 110.55 35.05, 110.2 48.94 M112.36 47.22 C69.68 49.9, 28.21 47.81, 1.46 47.54 M111.72 48.06 C70.09 49.1, 27.33 48.45, 0.22 47.37 M-0.42 48.27 C-0.24 28.89, -1.88 8.45, 0.88 1.69 M0.47 47.15 C-0.14 33.65, 0.54 20.02, -0.91 0.09" stroke="#000000" stroke-width="1" fill="none"></path></g><g stroke-linecap="round" transform="translate(154.48529411764707 651.1519607843137) rotate(0 53.323529411764696 120.05882352941177)"><path d="M0.97 -1.73 C34.63 -1.28, 72.12 0.15, 105.24 -0.62 M0.29 -0.04 C25.69 0.42, 50.13 0.67, 106.02 -0.69 M105.43 -0.39 C108.55 71.91, 108.78 139.54, 107.06 241.63 M106.87 -0.14 C105.45 90.06, 105.79 179.38, 105.98 240.9 M108 239.33 C66.94 241.99, 27.07 239.9, 1.46 239.66 M107.36 240.18 C67.37 241.2, 26.25 240.55, 0.22 239.49 M-0.35 240.34 C-0.17 145.77, -1.53 50.31, 0.73 1.41 M0.39 239.41 C1.4 168.19, 1.96 96.86, -0.76 0.08" stroke="#000000" stroke-width="1" fill="none"></path></g><g stroke-linecap="round"><g transform="translate(208.31705600257737 591.0612923155959) rotate(0 0.1829439974227114 29.66909984126687)"><path d="M0.5 1.45 C1.78 16.09, 1.51 30.76, -0.89 57.88" stroke="#000000" stroke-width="1.5" fill="none" stroke-dasharray="8 9"></path></g><g transform="translate(208.31705600257737 591.0612923155959) rotate(0 0.1829439974227114 29.66909984126687)"><path d="M-8.11 31.91 C-4.83 38.47, -2.98 45.02, -1.78 58.77" stroke="#000000" stroke-width="1.5" fill="none"></path></g><g transform="translate(208.31705600257737 591.0612923155959) rotate(0 0.1829439974227114 29.66909984126687)"><path d="M11.33 33.36 C9.26 39.42, 5.78 45.58, -1.78 58.77" stroke="#000000" stroke-width="1.5" fill="none"></path></g></g><mask></mask><g stroke-linecap="round" transform="translate(150 539) rotate(0 57.5 24)"><path d="M0 0 C0 0, 0 0, 0 0 M0 0 C0 0, 0 0, 0 0 M0.21 6.18 C1.15 5.59, 1.92 3.34, 5.75 0.42 M-0.3 6.41 C0.65 5.26, 1.99 3.77, 4.59 0.34 M-1.2 11.75 C4.6 9.84, 6.2 7.08, 9.58 1.56 M-0.41 12.4 C2.8 8.09, 5.99 4.15, 11.38 -0.7 M-0.89 18.92 C3.04 14.02, 8.7 7.06, 16.62 -1.1 M-1 17.83 C3.41 13.59, 7.36 11.13, 15.65 -0.48 M2.06 22.93 C5.96 14.52, 15.25 7.53, 20.13 0 M-0.65 24.19 C7.1 16.57, 13.09 9.23, 20.67 -0.33 M-1.83 31.73 C11.03 19.28, 18.94 8.96, 28.21 -0.79 M0.95 30.87 C8.26 20.67, 15.4 12.51, 26.73 -0.01 M0.94 36.36 C12.23 22.05, 23.99 8.51, 29.9 1.4 M0.08 36.57 C12.18 23.53, 23.49 10.69, 32.73 0.25 M-1.11 40.77 C9.66 34.61, 15.19 26.15, 35.97 -0.03 M0.61 42.92 C8.54 33.35, 15.5 24.45, 36.87 0.83 M0.62 46.96 C10.55 37.27, 19.96 25.88, 42.64 -1.53 M0.61 49.1 C13.71 32.18, 28.92 16.88, 41.76 -0.16 M3.76 47.06 C20.28 33.9, 33.21 18.58, 48.61 0.25 M4.61 47.53 C20.01 31.1, 34.08 14.79, 46.96 0.36 M11.58 46.77 C18.97 38.02, 28.42 27.42, 54.77 -1.93 M11.74 48.91 C21.58 35.16, 33.47 23.38, 54.05 -0.38 M14.47 48.21 C26.81 38.76, 37.42 24.07, 57.27 -0.29 M16.62 48.52 C28.28 32.34, 42.2 17.46, 57.19 0.14 M20.38 49.5 C35.6 33.8, 44.66 19.82, 63.17 1.63 M21.2 47.49 C35.04 32.21, 49.85 17.74, 64.18 -1.01 M27.89 50.45 C38.35 33.76, 52.84 15.57, 67.55 -1.45 M27.33 47.96 C40.83 30.8, 57.58 13.01, 69.02 0.93 M33.87 46.11 C47.31 28.54, 64.15 13.11, 73.15 1.13 M31.82 48.24 C49.27 29.3, 64.59 12.11, 74.99 -0.42 M38.58 48.5 C48.62 38.16, 57.75 24.46, 79.47 1.55 M36.98 48.08 C51.13 30.3, 65.95 14.69, 79.19 0.7 M41.31 48.12 C56.95 33.34, 69.17 18.79, 86.45 -0.87 M43.72 47.76 C51.22 37.12, 59.71 28.18, 85.62 -0.76 M49.52 47.66 C60.86 33.12, 76.54 14.86, 91.5 2.02 M48.07 49.35 C64.58 31.54, 79.27 12.82, 89.73 0.65 M54.43 47.6 C63.76 36.64, 74.34 23.04, 97.24 0.75 M54.3 47.87 C67.28 29.96, 81.98 13.34, 95.49 0.01 M60.16 47.82 C70.85 32.92, 87.92 14.42, 100.54 1.88 M59.4 48.47 C71.8 34.49, 82.27 20.68, 99.95 -0.78 M62.72 49.97 C77.58 35.43, 91.85 18.64, 108.17 1.65 M63.58 48.38 C73.23 37.39, 83.43 25.18, 106.3 0.18 M70.37 47.38 C82 33.87, 90 23.06, 109.92 -0.42 M70.04 48.34 C81.29 34.83, 91.83 23.47, 110.44 0.03 M76.07 46.92 C89.33 31.08, 100.76 18.24, 116.95 1.59 M74.85 48.04 C83.93 37.52, 92.14 27.14, 114.71 1.76 M80.44 47.34 C89.1 37.49, 101.83 23.75, 115.52 4.93 M79.34 48.06 C87.39 38.28, 96.92 29.63, 115.15 6.73 M84.87 48.97 C92.08 41.25, 96.98 32, 115.23 14.43 M84.69 49.08 C97.79 35.58, 110.15 21.6, 115.11 12.52 M91.14 47.26 C97.77 36.37, 109.46 27.88, 114.87 20 M90.95 49 C100.19 37.16, 108.1 26.94, 116.56 17.9 M94.57 50.46 C101.45 40.26, 107.9 34.84, 116.12 24.97 M95.63 48.21 C103.53 40.78, 109.07 31.37, 115.23 24.82 M99.63 49.24 C103.2 45.48, 105.69 39.54, 114.55 32.42 M100.76 48.71 C103.58 44.15, 107.25 40.36, 115.03 32.29 M105.35 49.86 C109.08 43.28, 112.65 38.53, 115.99 38.65 M105.64 49.15 C108.55 46.01, 111.61 43.38, 115.92 37.68 M111.74 48.71 C112.94 46.53, 114.15 46.53, 116.12 44.17 M111.57 48.41 C112.65 46.92, 113.98 45.68, 115.71 43.43" stroke="purple" stroke-width="0.5" fill="none"></path><path d="M0.97 -1.73 C37.44 -1.22, 77.74 0.2, 113.6 -0.62 M0.29 -0.04 C27.67 0.42, 54.09 0.68, 114.38 -0.69 M113.54 -0.47 C115.94 15.75, 116.22 26.35, 115.49 49.81 M115.27 -0.17 C114.14 17.97, 114.55 35.05, 114.2 48.94 M116.36 47.22 C72.21 49.93, 29.26 47.83, 1.46 47.54 M115.72 48.06 C72.59 49.11, 28.33 48.46, 0.22 47.37 M-0.42 48.27 C-0.24 28.89, -1.88 8.45, 0.88 1.69 M0.47 47.15 C-0.14 33.65, 0.54 20.02, -0.91 0.09" stroke="#000000" stroke-width="1" fill="none"></path></g><g transform="translate(181.3800277709961 550.5) rotate(0 26.119972229003906 12.5)"><text x="26.119972229003906" y="0" font-family="Virgil, Segoe UI Emoji" font-size="20px" fill="#000000" text-anchor="middle" style="white-space: pre;" direction="ltr" dominant-baseline="text-before-edge">Flast</text></g><g stroke-linecap="round" transform="translate(291.75 536.1911764705883) rotate(0 55.5 24)"><path d="M0.97 -1.73 C36.09 -1.25, 75.05 0.17, 109.6 -0.62 M0.29 -0.04 C26.72 0.42, 52.19 0.68, 110.38 -0.69 M109.54 -0.47 C111.94 15.75, 112.22 26.35, 111.49 49.81 M111.27 -0.17 C110.14 17.97, 110.55 35.05, 110.2 48.94 M112.36 47.22 C69.68 49.9, 28.21 47.81, 1.46 47.54 M111.72 48.06 C70.09 49.1, 27.33 48.45, 0.22 47.37 M-0.42 48.27 C-0.24 28.89, -1.88 8.45, 0.88 1.69 M0.47 47.15 C-0.14 33.65, 0.54 20.02, -0.91 0.09" stroke="#000000" stroke-width="1" fill="none"></path></g><g stroke-linecap="round" transform="translate(291 650.6911764705883) rotate(0 53.323529411764696 121.55882352941177)"><path d="M0.97 -1.73 C34.63 -1.28, 72.12 0.15, 105.24 -0.62 M0.29 -0.04 C25.69 0.42, 50.13 0.67, 106.02 -0.69 M105.44 -0.39 C108.55 72.79, 108.79 141.31, 107.05 244.62 M106.87 -0.14 C105.45 91.18, 105.79 181.63, 105.98 243.9 M108 242.33 C66.94 244.99, 27.07 242.9, 1.46 242.66 M107.36 243.18 C67.37 244.2, 26.25 243.55, 0.22 242.49 M-0.35 243.34 C-0.17 147.59, -1.52 50.97, 0.73 1.4 M0.39 242.42 C1.41 170.29, 1.97 98.05, -0.76 0.08" stroke="#000000" stroke-width="1" fill="none"></path></g><g stroke-linecap="round" transform="translate(288.25 538.1911764705883) rotate(0 55.5 24)"><path d="M0 0 C0 0, 0 0, 0 0 M0 0 C0 0, 0 0, 0 0 M0.21 6.18 C1.15 5.59, 1.92 3.34, 5.75 0.42 M-0.3 6.41 C0.65 5.26, 1.99 3.77, 4.59 0.34 M-1.2 11.75 C4.6 9.84, 6.2 7.08, 9.58 1.56 M-0.41 12.4 C2.8 8.09, 5.99 4.15, 11.38 -0.7 M-0.89 18.92 C3.04 14.02, 8.7 7.06, 16.62 -1.1 M-1 17.83 C3.41 13.59, 7.36 11.13, 15.65 -0.48 M2.06 22.93 C5.96 14.52, 15.25 7.53, 20.13 0 M-0.65 24.19 C7.1 16.57, 13.09 9.23, 20.67 -0.33 M-1.83 31.73 C11.03 19.28, 18.94 8.96, 28.21 -0.79 M0.95 30.87 C8.26 20.67, 15.4 12.51, 26.73 -0.01 M0.94 36.36 C12.23 22.05, 23.99 8.51, 29.9 1.4 M0.08 36.57 C12.18 23.53, 23.49 10.69, 32.73 0.25 M-1.11 40.77 C9.66 34.61, 15.19 26.15, 35.97 -0.03 M0.61 42.92 C8.54 33.35, 15.5 24.45, 36.87 0.83 M0.62 46.96 C10.55 37.27, 19.96 25.88, 42.64 -1.53 M0.61 49.1 C13.71 32.18, 28.92 16.88, 41.76 -0.16 M3.76 47.06 C20.28 33.9, 33.21 18.58, 48.61 0.25 M4.61 47.53 C20.01 31.1, 34.08 14.79, 46.96 0.36 M11.58 46.77 C18.97 38.02, 28.42 27.42, 54.77 -1.93 M11.74 48.91 C21.58 35.16, 33.47 23.38, 54.05 -0.38 M14.47 48.21 C26.81 38.76, 37.42 24.07, 57.27 -0.29 M16.62 48.52 C28.28 32.34, 42.2 17.46, 57.19 0.14 M20.38 49.5 C35.6 33.8, 44.66 19.82, 63.17 1.63 M21.2 47.49 C35.04 32.21, 49.85 17.74, 64.18 -1.01 M27.89 50.45 C38.35 33.76, 52.84 15.57, 67.55 -1.45 M27.33 47.96 C40.83 30.8, 57.58 13.01, 69.02 0.93 M33.87 46.11 C47.31 28.54, 64.15 13.11, 73.15 1.13 M31.82 48.24 C49.27 29.3, 64.59 12.11, 74.99 -0.42 M38.58 48.5 C48.62 38.16, 57.75 24.46, 79.47 1.55 M36.98 48.08 C51.13 30.3, 65.95 14.69, 79.19 0.7 M41.31 48.12 C56.95 33.34, 69.17 18.79, 86.45 -0.87 M43.72 47.76 C51.22 37.12, 59.71 28.18, 85.62 -0.76 M49.52 47.66 C60.86 33.12, 76.54 14.86, 91.5 2.02 M48.07 49.35 C64.58 31.54, 79.27 12.82, 89.73 0.65 M54.43 47.6 C63.76 36.64, 74.34 23.04, 97.24 0.75 M54.3 47.87 C67.28 29.96, 81.98 13.34, 95.49 0.01 M60.16 47.82 C70.85 32.92, 87.92 14.42, 100.54 1.88 M59.4 48.47 C71.8 34.49, 82.27 20.68, 99.95 -0.78 M62.72 49.97 C77.58 35.43, 91.85 18.64, 108.17 1.65 M63.58 48.38 C73.23 37.39, 83.43 25.18, 106.3 0.18 M70.37 47.38 C82 33.87, 90 23.06, 109.92 -0.42 M70.04 48.34 C81.29 34.83, 91.83 23.47, 110.44 0.03 M76.07 46.92 C87.77 32.81, 97.66 21.75, 112.36 6.88 M74.85 48.04 C82.9 38.66, 90.1 29.44, 110.12 7.04 M80.44 47.34 C87.71 39.1, 99.02 27, 110.93 10.21 M79.34 48.06 C86.32 39.52, 94.81 32.08, 110.56 12.02 M84.87 48.97 C91.05 42.46, 94.88 34.42, 110.64 19.72 M84.69 49.08 C95.97 37.64, 106.51 25.74, 110.52 17.8 M91.14 47.26 C95.93 38.49, 105.78 32.12, 109.62 26.04 M90.95 49 C98.38 39.24, 104.44 31.15, 111.31 23.94 M94.57 50.46 C99.91 42.05, 104.85 38.38, 111.53 30.25 M95.63 48.21 C101.9 42.7, 105.8 35.19, 110.64 30.1 M100.02 48.98 C102.5 46.41, 104.16 42.19, 110.22 37.5 M100.87 48.58 C102.77 45.43, 105.3 42.85, 110.59 37.4 M105.73 49.26 C107.73 45.75, 109.63 43.22, 111.41 43.28 M105.89 48.88 C107.44 47.21, 109.08 45.8, 111.38 42.76" stroke="#ced4da" stroke-width="0.5" fill="none"></path><path d="M0.97 -1.73 C36.09 -1.25, 75.05 0.17, 109.6 -0.62 M0.29 -0.04 C26.72 0.42, 52.19 0.68, 110.38 -0.69 M109.54 -0.47 C111.94 15.75, 112.22 26.35, 111.49 49.81 M111.27 -0.17 C110.14 17.97, 110.55 35.05, 110.2 48.94 M112.36 47.22 C69.68 49.9, 28.21 47.81, 1.46 47.54 M111.72 48.06 C70.09 49.1, 27.33 48.45, 0.22 47.37 M-0.42 48.27 C-0.24 28.89, -1.88 8.45, 0.88 1.69 M0.47 47.15 C-0.14 33.65, 0.54 20.02, -0.91 0.09" stroke="#000000" stroke-width="1" fill="none"></path></g><g transform="translate(315.4100341796875 549.6911764705883) rotate(0 28.3399658203125 12.5)"><text x="28.3399658203125" y="0" font-family="Virgil, Segoe UI Emoji" font-size="20px" fill="#000000" text-anchor="middle" style="white-space: pre;" direction="ltr" dominant-baseline="text-before-edge">Empty</text></g><g stroke-linecap="round"><g transform="translate(338.75 590.1911764705883) rotate(0 0.1829439974227398 29.66909984126687)"><path d="M0.5 1.45 C1.78 16.09, 1.51 30.76, -0.89 57.88" stroke="#000000" stroke-width="1.5" fill="none" stroke-dasharray="8 9"></path></g><g transform="translate(338.75 590.1911764705883) rotate(0 0.1829439974227398 29.66909984126687)"><path d="M-8.11 31.91 C-4.83 38.47, -2.98 45.02, -1.78 58.77" stroke="#000000" stroke-width="1.5" fill="none"></path></g><g transform="translate(338.75 590.1911764705883) rotate(0 0.1829439974227398 29.66909984126687)"><path d="M11.33 33.36 C9.26 39.42, 5.78 45.58, -1.78 58.77" stroke="#000000" stroke-width="1.5" fill="none"></path></g></g><mask></mask></svg>