<svg version="1.1" xmlns="http://www.w3.org/2000/svg" viewBox="0 0 1254.375 776" width="1254.375" height="776">
  <!-- svg-source:excalidraw -->
  
  <defs>
    <style class="style-fonts">
      @font-face {
        font-family: "Virgil";
        src: url("https://file%2B.vscode-resource.vscode-cdn.net/home/kiarie404/.vscode/extensions/pomdtr.excalidraw-editor-3.5.1/public//dist/excalidraw-assets/Virgil.woff2");
      }
      @font-face {
        font-family: "Cascadia";
        src: url("https://file%2B.vscode-resource.vscode-cdn.net/home/kiarie404/.vscode/extensions/pomdtr.excalidraw-editor-3.5.1/public//dist/excalidraw-assets/Cascadia.woff2");
      }
    </style>
  </defs>
  <rect x="0" y="0" width="1254.375" height="776" fill="#ffffff"></rect><g stroke-linecap="round" transform="translate(185.125 10) rotate(0 128.5 33)"><path d="M16.5 0 M16.5 0 C103.37 -0.29, 191.61 3.28, 240.5 0 M16.5 0 C96.91 2.76, 177.64 1.99, 240.5 0 M240.5 0 C250.23 -3.43, 255.99 9.18, 257 16.5 M240.5 0 C248.28 0.09, 253.59 2.84, 257 16.5 M257 16.5 C261.05 24.78, 257.52 32.2, 257 49.5 M257 16.5 C256.85 30.63, 255.87 41.9, 257 49.5 M257 49.5 C257.68 63.56, 253.34 62.49, 240.5 66 M257 49.5 C255.97 61.07, 251.77 61.96, 240.5 66 M240.5 66 C168.53 65.89, 102.92 60.72, 16.5 66 M240.5 66 C188.29 63.96, 134.71 64.05, 16.5 66 M16.5 66 C6.65 64.04, 0.02 63.37, 0 49.5 M16.5 66 C2.06 69.34, 0.66 63.29, 0 49.5 M0 49.5 C-1.89 37.74, 4.02 27.02, 0 16.5 M0 49.5 C-1.36 39.67, 0.91 25.5, 0 16.5 M0 16.5 C-3.8 5.15, 7.88 1.26, 16.5 0 M0 16.5 C3.93 6.82, 6.76 4.42, 16.5 0" stroke="#000000" stroke-width="1" fill="none"></path></g><g stroke-linecap="round" transform="translate(185.625 207.25) rotate(0 130.625 40.625)"><path d="M20.31 0 M20.31 0 C72.05 2.77, 129.62 -0.89, 240.94 0 M20.31 0 C73.74 0.75, 124.12 2.23, 240.94 0 M240.94 0 C254.14 1.33, 265.07 9.13, 261.25 20.31 M240.94 0 C254.58 -3.68, 261.29 5.93, 261.25 20.31 M261.25 20.31 C257.31 32.31, 264.42 43.51, 261.25 60.94 M261.25 20.31 C260.59 34.29, 259.89 46.6, 261.25 60.94 M261.25 60.94 C259.72 74.44, 250.56 84.17, 240.94 81.25 M261.25 60.94 C260.98 77.92, 254.22 85.42, 240.94 81.25 M240.94 81.25 C189.42 83.49, 129.57 81.13, 20.31 81.25 M240.94 81.25 C172.28 78.33, 101.66 77.05, 20.31 81.25 M20.31 81.25 C10.47 84.73, -2.32 71.92, 0 60.94 M20.31 81.25 C2.65 77.38, 1.71 77.69, 0 60.94 M0 60.94 C-2.57 48.99, 2.26 34.02, 0 20.31 M0 60.94 C0.18 44.27, 0.92 29.46, 0 20.31 M0 20.31 C-1.37 10.29, 5.07 2.18, 20.31 0 M0 20.31 C-3.43 4.24, 2.5 4.29, 20.31 0" stroke="#000000" stroke-width="1" fill="none"></path></g><g stroke-linecap="round" transform="translate(10 474.125) rotate(0 130.625 40.625)"><path d="M20.31 0 M20.31 0 C68.58 -3.41, 123.68 -3.24, 240.94 0 M20.31 0 C105.93 -0.14, 192.24 1.65, 240.94 0 M240.94 0 C256.84 0.09, 258.05 6.8, 261.25 20.31 M240.94 0 C253.63 0.92, 258.32 5.31, 261.25 20.31 M261.25 20.31 C258.24 29.1, 258.08 35.42, 261.25 60.94 M261.25 20.31 C263.69 31.62, 261.92 42.51, 261.25 60.94 M261.25 60.94 C264.17 74.25, 257.47 81.03, 240.94 81.25 M261.25 60.94 C265.42 71.97, 256.26 82.03, 240.94 81.25 M240.94 81.25 C157.09 78.32, 74.99 74.86, 20.31 81.25 M240.94 81.25 C170.86 79.59, 103.99 76.99, 20.31 81.25 M20.31 81.25 C4.21 77.67, -3.36 75.96, 0 60.94 M20.31 81.25 C9.99 80.99, 3.44 75.8, 0 60.94 M0 60.94 C-3 53.65, 0.57 42.97, 0 20.31 M0 60.94 C-0.58 47.46, 2.38 34.5, 0 20.31 M0 20.31 C2.18 3.79, 4.57 -3.71, 20.31 0 M0 20.31 C4.29 7.73, 5.37 -4.37, 20.31 0" stroke="#000000" stroke-width="1" fill="none"></path></g><g stroke-linecap="round" transform="translate(418.125 634.75) rotate(0 92.5 65.625)"><path d="M-0.31 -1.24 C56.39 -4.42, 103.34 -4.12, 182.24 1.12 M0.84 -1.2 C62.91 0.62, 122.28 2.33, 184.83 0.66 M181.8 0.03 C185.81 52.7, 184 102.54, 181.57 130.24 M183.52 -1.16 C183.1 53.16, 182.4 104.66, 184.23 131.23 M187.99 131.03 C151.24 128.86, 111.77 131.72, 3.06 133.09 M185.12 129.49 C146.03 132.2, 104.8 130.72, 1.85 132.99 M-3.36 132.74 C4.48 99.25, 4.67 68.85, -1.96 0.02 M0.28 132.46 C2.26 80.92, 3 32.45, -0.68 1.76" stroke="#000000" stroke-width="1" fill="none"></path></g><g stroke-linecap="round" transform="translate(847.5 496.625) rotate(0 130.625 40.625)"><path d="M20.31 0 M20.31 0 C72.05 2.77, 129.62 -0.89, 240.94 0 M20.31 0 C73.74 0.75, 124.12 2.23, 240.94 0 M240.94 0 C254.14 1.33, 265.07 9.13, 261.25 20.31 M240.94 0 C254.58 -3.68, 261.29 5.93, 261.25 20.31 M261.25 20.31 C257.31 32.31, 264.42 43.51, 261.25 60.94 M261.25 20.31 C260.59 34.29, 259.89 46.6, 261.25 60.94 M261.25 60.94 C259.72 74.44, 250.56 84.17, 240.94 81.25 M261.25 60.94 C260.98 77.92, 254.22 85.42, 240.94 81.25 M240.94 81.25 C189.42 83.49, 129.57 81.13, 20.31 81.25 M240.94 81.25 C172.28 78.33, 101.66 77.05, 20.31 81.25 M20.31 81.25 C10.47 84.73, -2.32 71.92, 0 60.94 M20.31 81.25 C2.65 77.38, 1.71 77.69, 0 60.94 M0 60.94 C-2.57 48.99, 2.26 34.02, 0 20.31 M0 60.94 C0.18 44.27, 0.92 29.46, 0 20.31 M0 20.31 C-1.37 10.29, 5.07 2.18, 20.31 0 M0 20.31 C-3.43 4.24, 2.5 4.29, 20.31 0" stroke="#000000" stroke-width="1" fill="none"></path></g><g mask="url(#mask-uT7A4S_9O9aB_m32RpW2O)" stroke-linecap="round"><g transform="translate(289.375 76) rotate(0 -20.059081875383868 63.43879334598779)"><path d="M-2.06 -0.07 C-7.56 10.45, -27.02 41.21, -33.6 62.42 C-40.18 83.63, -39.97 116.02, -41.53 127.19 M2.01 -2.57 C-3.79 7.27, -28.4 36.72, -35.76 58.73 C-43.12 80.73, -41.1 117.16, -42.13 129.45" stroke="#000000" stroke-width="1" fill="none"></path></g><g transform="translate(289.375 76) rotate(0 -20.059081875383868 63.43879334598779)"><path d="M-51.73 101.21 C-45.68 112.2, -48.73 118.04, -41.12 132.86 M-52 101.85 C-49.27 109.79, -44.85 120.06, -42.71 130.9" stroke="#000000" stroke-width="1" fill="none"></path></g><g transform="translate(289.375 76) rotate(0 -20.059081875383868 63.43879334598779)"><path d="M-31.22 101.76 C-30.85 112.3, -39.59 117.98, -41.12 132.86 M-31.48 102.4 C-35.87 110.13, -38.55 120.21, -42.71 130.9" stroke="#000000" stroke-width="1" fill="none"></path></g></g><mask id="mask-uT7A4S_9O9aB_m32RpW2O"><rect x="0" y="0" fill="#fff" width="433.125" height="304.75"></rect><rect x="194.68887329101562" y="126" fill="#000" width="121.87225341796875" height="20" opacity="1"></rect></mask><g transform="translate(194.68887329101562 126) rotate(0 74.62704483360051 13.43879334598779)"><text x="60.936126708984375" y="0" font-family="Virgil, Segoe UI Emoji" font-size="16px" fill="#000000" text-anchor="middle" style="white-space: pre;" direction="ltr" dominant-baseline="text-before-edge">Bytes are sent</text></g><g transform="translate(250.625 239.75) rotate(0 27.041015625 11.5)"><text x="0" y="0" font-family="Helvetica, Segoe UI Emoji" font-size="20px" fill="#000000" text-anchor="start" style="white-space: pre;" direction="ltr" dominant-baseline="text-before-edge">UART</text></g><g transform="translate(268.125 32.25) rotate(0 43.916015625 11.5)"><text x="0" y="0" font-family="Helvetica, Segoe UI Emoji" font-size="20px" fill="#000000" text-anchor="start" style="white-space: pre;" direction="ltr" dominant-baseline="text-before-edge">KeyBoard</text></g><g mask="url(#mask-rCVMqQkOB1YDqj5VWK8ch)" stroke-linecap="round"><g transform="translate(224.375 291) rotate(0 -73.7973539781943 89.96788482371716)"><path d="M1.58 0.22 C-19.01 11.54, -98.06 38.96, -123.11 69.27 C-148.17 99.58, -143.96 163.41, -148.73 182.07 M-1.01 -2.14 C-22.06 8.16, -100.99 34.57, -125.68 64.54 C-150.38 94.51, -144.89 159.1, -149.18 177.67" stroke="#000000" stroke-width="1" fill="none"></path></g><g transform="translate(224.375 291) rotate(0 -73.7973539781943 89.96788482371716)"><path d="M-156.7 147.83 C-153.53 161.33, -148.84 166.16, -147.37 175.21 M-157.57 148.11 C-155.31 159.56, -153.68 167.85, -148.92 177.79" stroke="#000000" stroke-width="1" fill="none"></path></g><g transform="translate(224.375 291) rotate(0 -73.7973539781943 89.96788482371716)"><path d="M-136.25 149.57 C-139.53 162.75, -141.28 167.04, -147.37 175.21 M-137.12 149.85 C-141.43 160.53, -146.36 168.26, -148.92 177.79" stroke="#000000" stroke-width="1" fill="none"></path></g></g><mask id="mask-rCVMqQkOB1YDqj5VWK8ch"><rect x="0" y="0" fill="#fff" width="475.625" height="571"></rect><rect x="11.434806823730469" y="339.75" fill="#000" width="180.88038635253906" height="40" opacity="1"></rect></mask><g transform="translate(11.434806823730469 339.75) rotate(0 139.14283919807525 41.21788482371716)"><text x="90.44019317626953" y="0" font-family="Virgil, Segoe UI Emoji" font-size="16px" fill="#000000" text-anchor="middle" style="white-space: pre;" direction="ltr" dominant-baseline="text-before-edge">UART sends interrupt </text><text x="90.44019317626953" y="20" font-family="Virgil, Segoe UI Emoji" font-size="16px" fill="#000000" text-anchor="middle" style="white-space: pre;" direction="ltr" dominant-baseline="text-before-edge">signal to the PLIC</text></g><g transform="translate(105.625 495.44040704965596) rotate(0 22.2314453125 11.5)"><text x="0" y="0" font-family="Helvetica, Segoe UI Emoji" font-size="20px" fill="#000000" text-anchor="start" style="white-space: pre;" direction="ltr" dominant-baseline="text-before-edge">PLIC</text></g><g mask="url(#mask-TiPyfIRntO6wgu7VKjsAE)" stroke-linecap="round"><g transform="translate(44.375 552.7404070496559) rotate(0 183.741842209287 79.44585241466763)"><path d="M0.48 0.8 C21.27 17.44, 61 71.65, 122.62 97.94 C184.23 124.22, 328.95 148.05, 370.18 158.51 M-2.7 -1.24 C17.81 15.87, 58.01 73.55, 119.76 100.45 C181.51 127.34, 326.1 149.71, 367.8 160.13" stroke="#000000" stroke-width="1" fill="none"></path></g><g transform="translate(44.375 552.7404070496559) rotate(0 183.741842209287 79.44585241466763)"><path d="M339.26 162.88 C341.86 161.9, 347.53 160.72, 366.97 157.64 M339.75 165.48 C348.19 163.43, 358.33 160.41, 368 158.47" stroke="#000000" stroke-width="1" fill="none"></path></g><g transform="translate(44.375 552.7404070496559) rotate(0 183.741842209287 79.44585241466763)"><path d="M343.39 142.78 C344.8 146.3, 349.54 149.62, 366.97 157.64 M343.89 145.38 C350.94 150.12, 359.68 153.88, 368 158.47" stroke="#000000" stroke-width="1" fill="none"></path></g></g><mask id="mask-TiPyfIRntO6wgu7VKjsAE"><rect x="0" y="0" fill="#fff" width="515.625" height="813.9904070496559"></rect><rect x="37.700714111328125" y="632.7404070496559" fill="#000" width="260.84857177734375" height="40" opacity="1"></rect></mask><g transform="translate(37.700714111328125 632.7404070496559) rotate(0 190.41612809795888 -0.5541475853323732)"><text x="130.42428588867188" y="0" font-family="Virgil, Segoe UI Emoji" font-size="16px" fill="#000000" text-anchor="middle" style="white-space: pre;" direction="ltr" dominant-baseline="text-before-edge">PLIC informs the CPU that the </text><text x="130.42428588867188" y="20" font-family="Virgil, Segoe UI Emoji" font-size="16px" fill="#000000" text-anchor="middle" style="white-space: pre;" direction="ltr" dominant-baseline="text-before-edge">UART has received new data</text></g><g transform="translate(480.625 681.690407049656) rotate(0 21.11328125 11.5)"><text x="0" y="0" font-family="Helvetica, Segoe UI Emoji" font-size="20px" fill="#000000" text-anchor="start" style="white-space: pre;" direction="ltr" dominant-baseline="text-before-edge">CPU</text></g><g mask="url(#mask-ESQA_cNfLJLM-dDApIOw0)" stroke-linecap="round"><g transform="translate(599.375 696.4904070496559) rotate(0 192.41831992622468 -59.859110544249404)"><path d="M1.01 1.45 C37.96 -2.4, 157.33 -2.27, 221.62 -22.71 C285.9 -43.15, 359.45 -105.14, 386.72 -121.17 M-1.89 -0.23 C34.62 -3.88, 154.27 -0.8, 218.9 -20.55 C283.52 -40.29, 358.01 -102.84, 385.85 -118.7" stroke="#000000" stroke-width="1" fill="none"></path></g><g transform="translate(599.375 696.4904070496559) rotate(0 192.41831992622468 -59.859110544249404)"><path d="M370.34 -95.66 C369.53 -99.26, 376.94 -108.59, 387.41 -121.27 M367.6 -94.15 C372.53 -102.43, 375.37 -105.3, 387.7 -119.91" stroke="#000000" stroke-width="1" fill="none"></path></g><g transform="translate(599.375 696.4904070496559) rotate(0 192.41831992622468 -59.859110544249404)"><path d="M358.83 -112.65 C361.49 -111.3, 372.3 -115.59, 387.41 -121.27 M356.09 -111.14 C363.51 -115.49, 369.14 -114.24, 387.7 -119.91" stroke="#000000" stroke-width="1" fill="none"></path></g></g><mask id="mask-ESQA_cNfLJLM-dDApIOw0"><rect x="0" y="0" fill="#fff" width="1084.375" height="916.4904070496559"></rect><rect x="683.3751525878906" y="651.4904070496559" fill="#000" width="276.99969482421875" height="50" opacity="1"></rect></mask><g transform="translate(683.3751525878906 651.4904070496559) rotate(0 108.41816733833406 -14.859110544249404)"><text x="138.49984741210938" y="0" font-family="Virgil, Segoe UI Emoji" font-size="20px" fill="#000000" text-anchor="middle" style="white-space: pre;" direction="ltr" dominant-baseline="text-before-edge">CPU summons the interrupt </text><text x="138.49984741210938" y="25" font-family="Virgil, Segoe UI Emoji" font-size="20px" fill="#000000" text-anchor="middle" style="white-space: pre;" direction="ltr" dominant-baseline="text-before-edge">handler</text></g><g transform="translate(885.625 527.7404070496559) rotate(0 75.0390625 11.5)"><text x="0" y="0" font-family="Helvetica, Segoe UI Emoji" font-size="20px" fill="#000000" text-anchor="start" style="white-space: pre;" direction="ltr" dominant-baseline="text-before-edge">Interrupt Handler</text></g><g stroke-linecap="round" transform="translate(961.875 268.9904070496559) rotate(0 141.25 35.625)"><path d="M17.81 0 M17.81 0 C109.35 -3.51, 199.15 1.45, 264.69 0 M17.81 0 C68.1 -2.18, 117.49 -2.75, 264.69 0 M264.69 0 C274.73 -0.43, 278.89 2.8, 282.5 17.81 M264.69 0 C274.19 -1.29, 286.04 10.01, 282.5 17.81 M282.5 17.81 C283.17 24.78, 279.67 34.03, 282.5 53.44 M282.5 17.81 C282.78 28.47, 283.29 41.01, 282.5 53.44 M282.5 53.44 C282.44 65.99, 275.55 68.72, 264.69 71.25 M282.5 53.44 C281.79 66.77, 278.55 74.99, 264.69 71.25 M264.69 71.25 C196.02 66.84, 129.36 69.37, 17.81 71.25 M264.69 71.25 C169.69 69.82, 74.93 71.57, 17.81 71.25 M17.81 71.25 C3.29 72.6, 2.32 65.37, 0 53.44 M17.81 71.25 C7.41 71.99, -0.28 66.38, 0 53.44 M0 53.44 C1.11 43.56, 2.07 35.52, 0 17.81 M0 53.44 C-1.39 41.94, 0.62 29.88, 0 17.81 M0 17.81 C0.92 9.1, 5.89 0.24, 17.81 0 M0 17.81 C3.54 7.99, 2.96 -2.75, 17.81 0" stroke="#000000" stroke-width="1" fill="none"></path></g><g mask="url(#mask-mCD9VPR9BCmFDp9SEtFH1)" stroke-linecap="round"><g transform="translate(1053.125 496.4904070496559) rotate(0 48.853196532689026 -77.90266358666122)"><path d="M-0.05 0.17 C11.95 -11.59, 54.26 -46.55, 71.14 -72.57 C88.02 -98.6, 96.61 -142.19, 101.23 -155.98 M-3.53 -2.2 C8.4 -14.64, 53.05 -51.86, 70.2 -76.95 C87.36 -102.03, 94.76 -140.18, 99.42 -152.72" stroke="#000000" stroke-width="1" fill="none"></path></g><g transform="translate(1053.125 496.4904070496559) rotate(0 48.853196532689026 -77.90266358666122)"><path d="M101.43 -119.35 C102.81 -130.84, 101.05 -142.27, 100.8 -151.87 M101.21 -122.13 C100.89 -129.87, 100.62 -137.99, 98.02 -153.66" stroke="#000000" stroke-width="1" fill="none"></path></g><g transform="translate(1053.125 496.4904070496559) rotate(0 48.853196532689026 -77.90266358666122)"><path d="M81.77 -125.22 C88.35 -135.12, 91.86 -144.98, 100.8 -151.87 M81.55 -128 C85.86 -134.6, 90.19 -141.35, 98.02 -153.66" stroke="#000000" stroke-width="1" fill="none"></path></g></g><mask id="mask-mCD9VPR9BCmFDp9SEtFH1"><rect x="0" y="0" fill="#fff" width="1254.375" height="752.7404070496559"></rect><rect x="1030.7867889404297" y="402.7404070496559" fill="#000" width="182.17642211914062" height="40" opacity="1"></rect></mask><g transform="translate(1030.7867889404297 402.7404070496559) rotate(0 71.19140759225934 15.84733641333878)"><text x="91.08821105957031" y="0" font-family="Virgil, Segoe UI Emoji" font-size="16px" fill="#000000" text-anchor="middle" style="white-space: pre;" direction="ltr" dominant-baseline="text-before-edge">Handler interacts with </text><text x="91.08821105957031" y="20" font-family="Virgil, Segoe UI Emoji" font-size="16px" fill="#000000" text-anchor="middle" style="white-space: pre;" direction="ltr" dominant-baseline="text-before-edge">UART driver</text></g><g transform="translate(1029.375 293.9904070496559) rotate(0 56.484375 11.5)"><text x="0" y="0" font-family="Helvetica, Segoe UI Emoji" font-size="20px" fill="#000000" text-anchor="start" style="white-space: pre;" direction="ltr" dominant-baseline="text-before-edge">UART Driver</text></g><g mask="url(#mask-fCMq2Rry8lqjPWRgG9mZN)" stroke-linecap="round"><g transform="translate(843.125 533.9904070496559) rotate(0 -285.4102073829621 -10.14558296389879)"><path d="M-2.28 2.43 C-96.98 -1.46, -474.07 -17.96, -568.54 -22.73" stroke="#a61e4d" stroke-width="1.5" fill="none" stroke-dasharray="8 9"></path></g><g transform="translate(843.125 533.9904070496559) rotate(0 -285.4102073829621 -10.14558296389879)"><path d="M-536.43 -33.15 C-546.65 -31.81, -559.81 -24.82, -566.3 -22.79" stroke="#a61e4d" stroke-width="1.5" fill="none"></path></g><g transform="translate(843.125 533.9904070496559) rotate(0 -285.4102073829621 -10.14558296389879)"><path d="M-537.38 -12.65 C-547.43 -17.2, -560.32 -16.12, -566.3 -22.79" stroke="#a61e4d" stroke-width="1.5" fill="none"></path></g></g><mask id="mask-fCMq2Rry8lqjPWRgG9mZN"><rect x="0" y="0" fill="#fff" width="1510.625" height="657.7404070496559"></rect><rect x="459.88677978515625" y="492.1154070496559" fill="#000" width="198.9764404296875" height="60" opacity="1"></rect></mask><g transform="translate(459.88677978515625 492.1154070496559) rotate(0 97.82801283188167 31.72941703610121)"><text x="99.48822021484375" y="0" font-family="Virgil, Segoe UI Emoji" font-size="16px" fill="#a61e4d" text-anchor="middle" style="white-space: pre;" direction="ltr" dominant-baseline="text-before-edge">Interrupt Handler informs</text><text x="99.48822021484375" y="20" font-family="Virgil, Segoe UI Emoji" font-size="16px" fill="#a61e4d" text-anchor="middle" style="white-space: pre;" direction="ltr" dominant-baseline="text-before-edge">the PLIC that the error</text><text x="99.48822021484375" y="40" font-family="Virgil, Segoe UI Emoji" font-size="16px" fill="#a61e4d" text-anchor="middle" style="white-space: pre;" direction="ltr" dominant-baseline="text-before-edge">has been handled</text></g><g mask="url(#mask-PIdvfJnhNq--YUxUjyngb)" stroke-linecap="round"><g transform="translate(963.125 311.4904070496559) rotate(0 -290.00882657580075 24.20739566242807)"><path d="M0.14 -2.15 C-50.05 7.88, -205.83 63.34, -302.55 61.09 C-399.26 58.84, -534.48 -3.36, -580.16 -15.64 M-3.23 2.86 C-53.45 13.15, -208.2 66.68, -303.45 63.95 C-398.71 61.22, -529.42 0.1, -574.76 -13.55" stroke="#000000" stroke-width="1" fill="none"></path></g><g transform="translate(963.125 311.4904070496559) rotate(0 -290.00882657580075 24.20739566242807)"><path d="M-547.84 -9.96 C-554.29 -17.25, -562.46 -12.19, -573.06 -15.5 M-545.15 -13.87 C-554.79 -14.87, -562.11 -15, -574.62 -14.98" stroke="#000000" stroke-width="1" fill="none"></path></g><g transform="translate(963.125 311.4904070496559) rotate(0 -290.00882657580075 24.20739566242807)"><path d="M-554.91 9.3 C-559.72 -2.81, -566.13 -2.57, -573.06 -15.5 M-552.22 5.39 C-559.65 -1.6, -564.78 -7.69, -574.62 -14.98" stroke="#000000" stroke-width="1" fill="none"></path></g></g><mask id="mask-PIdvfJnhNq--YUxUjyngb"><rect x="0" y="0" fill="#fff" width="1640.625" height="487.7404070496559"></rect><rect x="498.8126525878906" y="363.9904070496559" fill="#000" width="318.62469482421875" height="20" opacity="1"></rect></mask><g transform="translate(498.8126525878906 363.9904070496559) rotate(0 174.30352083630862 -28.29260433757193)"><text x="159.31234741210938" y="0" font-family="Virgil, Segoe UI Emoji" font-size="16px" fill="#000000" text-anchor="middle" style="white-space: pre;" direction="ltr" dominant-baseline="text-before-edge">UART fetches Data from UART Buffer</text></g><g mask="url(#mask-VvDrQP2TeIXU3_-h8ohvt)" stroke-linecap="round"><g transform="translate(369.375 207.74040704965591) rotate(0 333.05480955056845 -78.91318450979887)"><path d="M-2.49 2.07 C38.6 -14.9, 136.95 -75.26, 248.8 -102.26 C360.65 -129.25, 599.47 -150.56, 668.6 -159.89 M1.35 0.72 C41.99 -17.02, 136.15 -79.99, 247.27 -106.46 C358.39 -132.92, 598.83 -149.82, 668.07 -158.08" stroke="#a61e4d" stroke-width="1" fill="none"></path></g><g transform="translate(369.375 207.74040704965591) rotate(0 333.05480955056845 -78.91318450979887)"><path d="M643.96 -143.27 C653.47 -146.21, 658.2 -158.29, 667.03 -158.69 M639.89 -146.82 C645.27 -148.83, 654.27 -152.13, 668.38 -157.17" stroke="#a61e4d" stroke-width="1" fill="none"></path></g><g transform="translate(369.375 207.74040704965591) rotate(0 333.05480955056845 -78.91318450979887)"><path d="M641.97 -163.69 C652.16 -158.84, 657.65 -163.16, 667.03 -158.69 M637.9 -167.24 C643.7 -164.89, 653.13 -163.84, 668.38 -157.17" stroke="#a61e4d" stroke-width="1" fill="none"></path></g></g><mask id="mask-VvDrQP2TeIXU3_-h8ohvt"><rect x="0" y="0" fill="#fff" width="1135.625" height="465.2404070496559"></rect><rect x="566.5628967285156" y="93.99040704965591" fill="#000" width="100.62420654296875" height="20" opacity="1"></rect></mask><g transform="translate(566.5628967285156 93.99040704965591) rotate(0 135.86691282205283 34.83681549020113)"><text x="50.312103271484375" y="0" font-family="Virgil, Segoe UI Emoji" font-size="16px" fill="#a61e4d" text-anchor="middle" style="white-space: pre;" direction="ltr" dominant-baseline="text-before-edge">[THe DATA]</text></g><g stroke-linecap="round" transform="translate(1041.875 22.740407049655914) rotate(0 95.625 29.375)"><path d="M14.69 0 M14.69 0 C47.81 2.11, 76.01 3.6, 176.56 0 M14.69 0 C72.44 1.21, 127.08 -1.18, 176.56 0 M176.56 0 C190 1.3, 188.98 8.13, 191.25 14.69 M176.56 0 C183.14 -2.38, 190.14 8.02, 191.25 14.69 M191.25 14.69 C186.79 25.89, 187.15 34.01, 191.25 44.06 M191.25 14.69 C190.86 22.33, 190.84 27.7, 191.25 44.06 M191.25 44.06 C194.5 52.75, 187.45 55.6, 176.56 58.75 M191.25 44.06 C190.45 57.43, 184.46 62.13, 176.56 58.75 M176.56 58.75 C126.75 57.14, 79.2 64.14, 14.69 58.75 M176.56 58.75 C122.52 60.29, 67.86 60.17, 14.69 58.75 M14.69 58.75 C6.97 59.3, 1.34 53.49, 0 44.06 M14.69 58.75 C1.76 59.94, -0.89 52.24, 0 44.06 M0 44.06 C0.04 40.3, -0.06 30.96, 0 14.69 M0 44.06 C0.18 34.21, 0.64 21.83, 0 14.69 M0 14.69 C-1.55 2.84, 3.96 -3.09, 14.69 0 M0 14.69 C1.28 2.11, 5.11 -1.18, 14.69 0" stroke="#a61e4d" stroke-width="1" fill="none"></path></g><g transform="translate(1076.875 40.240407049655914) rotate(0 49.2919921875 11.5)"><text x="0" y="0" font-family="Helvetica, Segoe UI Emoji" font-size="20px" fill="#a61e4d" text-anchor="start" style="white-space: pre;" direction="ltr" dominant-baseline="text-before-edge">stdin buffer</text></g></svg>