<svg version="1.1" xmlns="http://www.w3.org/2000/svg" viewBox="0 0 826 387" width="826" height="387">
  <!-- svg-source:excalidraw -->
  
  <defs>
    <style class="style-fonts">
      @font-face {
        font-family: "Virgil";
        src: url("https://file%2B.vscode-resource.vscode-cdn.net/home/kiarie404/.vscode/extensions/pomdtr.excalidraw-editor-3.5.1/public//dist/excalidraw-assets/Virgil.woff2");
      }
      @font-face {
        font-family: "Cascadia";
        src: url("https://file%2B.vscode-resource.vscode-cdn.net/home/kiarie404/.vscode/extensions/pomdtr.excalidraw-editor-3.5.1/public//dist/excalidraw-assets/Cascadia.woff2");
      }
    </style>
  </defs>
  <rect x="0" y="0" width="826" height="387" fill="#ffffff"></rect><g stroke-linecap="round" transform="translate(10 10) rotate(0 403 110)"><path d="M-0.89 0.99 C191.88 6.94, 385.63 6.71, 807.56 0.84 M-0.34 -0.56 C179.75 2.37, 360.24 1.3, 805.89 0.06 M805.22 -1.03 C810.29 53.06, 804.3 105.51, 807.32 217.76 M806.89 -0.66 C805.2 86.37, 805.25 170.32, 806.12 219.75 M804.81 219.55 C492.01 223.63, 182.24 224.39, 1.01 219.98 M806.39 220.67 C485.03 220.05, 163.74 219.23, -0.41 220.64 M-1.73 218.59 C1.24 163.71, 2.72 100.85, 2.77 0.85 M-1.72 219.3 C2 158.48, 3.09 98.63, -0.22 0.34" stroke="#000000" stroke-width="1" fill="none"></path></g><g stroke-linecap="round" transform="translate(137 52) rotate(0 117.5 84)"><path d="M0 0 C0 0, 0 0, 0 0 M0 0 C0 0, 0 0, 0 0 M0.14 5.02 C0.94 3.12, 2.53 1.72, 4.64 -0.61 M0.22 6.18 C0.89 4.83, 1.81 3.68, 4.45 -0.15 M-2.05 12.49 C1.25 12.25, 7.08 6.72, 10.26 2.6 M-0.93 13.54 C3.7 7.7, 6.63 5.54, 11.12 -1 M-1.75 16.81 C3.14 15.43, 3.69 7.75, 17.54 -1.15 M1.45 17.52 C3.57 12.05, 7.05 6.69, 15.08 -1.65 M-0.29 24.18 C3.74 22.03, 11.58 15.79, 19.25 2.3 M1.52 24.12 C4.96 20.82, 9.78 15.87, 20.59 -0.81 M2.49 30.47 C2.81 23.4, 12.09 13.49, 25.18 -0.25 M0.9 30.22 C11.12 20.54, 16.97 10.03, 27.19 2.03 M-4.19 35.71 C8.2 27.97, 14.81 19.17, 35.01 -1.78 M0.54 37.98 C7.78 26.55, 17.9 17.3, 32.64 0.78 M3.04 40.82 C6.87 28.85, 17.89 24.01, 36.6 -1.98 M1.64 41.25 C15.52 25.84, 28.47 11.86, 37.05 -1.58 M3.36 48.29 C10.59 29.86, 30.19 16.87, 42.82 -2.9 M0.88 49.67 C14.52 30.11, 32.54 11.57, 43.3 0.72 M-0.01 51.21 C18.32 37.7, 28.84 25.17, 49.95 3.46 M2.22 55.2 C15.97 35.28, 26.74 21.12, 48.96 0.13 M2.57 61.74 C18.45 34.67, 40 10.53, 50.58 -0.52 M0.81 59.94 C17.14 44.22, 29.12 24.62, 54.75 1.52 M-0.63 68.16 C21.19 42.52, 40.46 23.79, 55.94 2.33 M-1.22 66.7 C18.72 46.43, 38.15 25.54, 56.44 2.06 M-1.07 75.55 C22.38 44.69, 49.53 14.07, 60.8 -3.68 M0.46 71.04 C16.14 54.51, 30.71 37.52, 65.35 0.96 M3.74 78.38 C23.89 49.85, 54.49 18.92, 65.84 1.3 M1.61 79.38 C14.7 60.48, 29.53 43.27, 68.21 -0.64 M2.44 85.66 C12.19 67.07, 34.1 52.01, 74.53 -2.98 M-0.82 85.51 C30.52 53.17, 54.75 21.51, 75.69 -1.92 M-3.77 89.28 C23.9 58.49, 56.04 24.11, 75.49 -0.5 M1.28 92.44 C14.74 74.23, 30.29 54.12, 78.23 1.48 M-0.97 97.18 C25.74 71.46, 46.97 35.41, 87.38 1.41 M0.91 96.94 C19.32 78.24, 35.99 55.07, 86.58 -0.77 M3.21 105.94 C20.19 81.31, 40.2 58.03, 93.27 0.47 M1.23 103.59 C25.94 72.43, 54.22 42.48, 91.67 -1.85 M-2.83 109.43 C29 78.57, 57.71 42.89, 93.52 -4.22 M-1.26 108.91 C28.44 76.65, 52.6 46.8, 97.06 0.02 M1.61 111.89 C36.15 76.09, 68.51 36.93, 104.15 0.23 M-0.9 115.82 C31.74 79.69, 62.62 44.73, 98.91 1.39 M3.9 124.39 C34.52 80.82, 71.91 49.42, 105.7 -3.16 M1.03 121.56 C42.12 75.09, 84.1 24.42, 106.37 -0.63 M2.26 129.86 C42.77 81.17, 81.31 36.39, 113.65 -0.81 M0.12 128.17 C33.08 88.61, 68.66 47.63, 109.56 -0.52 M-0.51 131.76 C46.09 85.44, 84.15 41.51, 118.57 0.49 M0.02 134.57 C44.03 80.35, 90.73 32.74, 115.31 2.2 M0.53 142.72 C29.41 109.47, 54.19 69.68, 119.84 -1.77 M1.68 138.67 C42.49 93.99, 84.18 45.35, 122.44 -1 M-3.23 145.64 C32.82 110.95, 64.02 73.04, 123.29 -1.18 M1.15 145.87 C29.28 115.93, 56.5 82.12, 126.9 -1.53 M0.34 150.32 C26.8 123.53, 52.68 93.89, 133.3 2.38 M-0.49 151.08 C42.72 107.25, 80.53 61.97, 131.7 -1.08 M-3.12 161.06 C49.16 108.05, 91.4 57.76, 139.39 -2.97 M0.36 158.5 C36.04 120.16, 68.21 79.96, 136.51 1.51 M-2.62 161.63 C39.74 123.62, 80.89 78.84, 141.7 1.92 M-0.02 164.98 C36.07 120.1, 71.87 79.03, 144.17 0 M2.95 170.67 C51.9 109.89, 106.78 56.63, 150.27 -3.14 M2.23 169.76 C55.52 104.45, 113.61 39.62, 147.89 -0.1 M10.08 168.37 C49.57 125.71, 89.28 77.2, 152.16 -0.79 M8.26 168.92 C54.36 116.6, 102.31 61.52, 154.88 0.03 M14.32 165.91 C62.34 117.83, 102.69 60.43, 161.33 2.46 M11.42 168.58 C52.95 123.03, 96.14 74.42, 159.55 -1.44 M18.76 168.52 C59.08 117.1, 98.59 72.97, 164.9 -3.54 M19.14 170.03 C46.2 132.6, 76.24 95.54, 163.64 -1.2 M21.1 170.93 C73.11 106.29, 126.34 49.27, 172.65 3.04 M24.16 168.17 C55.37 133.19, 87 94.23, 170.27 1.39 M25.43 167.14 C77.36 114.99, 123.53 56.41, 177.25 -0.27 M29.7 169.34 C67.6 122.03, 106.91 79.44, 176.41 -0.27 M33.29 168.8 C90.67 106.1, 144.19 41.89, 183.07 3.57 M31.47 167.98 C84.5 111.78, 138.08 51.53, 180.72 -0.31 M41.63 166.84 C76.82 118.94, 118.01 77.87, 187.02 1.7 M39.43 167.94 C67.56 131.88, 96.68 98.64, 186.4 1.32 M40.76 170.48 C79.89 131.84, 107.61 98.82, 193.66 0.78 M42.6 169.42 C83.36 121.53, 123.55 72.57, 191.76 1.33 M46.72 168.87 C80.21 128.32, 116.02 90.06, 195.97 -1.13 M48 169.71 C81.89 133.87, 114.04 97.76, 196.52 -1.12 M51.04 170.11 C103.43 107.49, 153.8 54.02, 204.25 0.4 M55.81 170.7 C101.61 117.42, 143.78 68.02, 202.72 1.52 M59.42 170.47 C98.54 125.67, 132.53 85.16, 206.3 1.87 M59.78 170.08 C94.74 125.81, 131.9 82.91, 207.25 0 M65.29 169.07 C105.03 120.55, 148.03 70.77, 210 -0.07 M63.54 168.55 C110.54 111.52, 161.47 56.29, 213.1 1.72 M68.25 172.13 C109.43 123.05, 147.09 83.15, 217.29 -2.34 M70.98 168.48 C115.04 114.59, 164.64 61.52, 218.42 -1.26 M74.82 165.7 C107.67 128.47, 143.53 87.59, 225.46 -1.05 M74.75 170.25 C101.71 133.31, 134.06 100.57, 220.9 1.09 M79.16 171.85 C133.67 109.04, 184.28 47.55, 228.67 1.04 M81.18 171.14 C140.03 102.36, 197.2 37.62, 227.47 -1.99 M85.17 172.47 C123.98 118.78, 161.48 76.12, 233 2.6 M85.68 167.86 C140.01 105.35, 193.74 42.22, 234.6 1.57 M94.08 172.4 C134.32 122.06, 172.18 72.45, 235.28 -1.46 M90.81 169.17 C135.26 114.28, 183.46 61.32, 236.05 3.24 M98.99 171.3 C134.66 126.98, 166.65 84.78, 234.64 4.97 M95.33 167.41 C147.71 107.31, 201.72 45.19, 237.4 6.88 M99.84 171.79 C149.6 111.17, 200 57.89, 234.65 16.84 M102.21 168.49 C139.39 122.59, 179.84 78.83, 235.38 13.29 M105.15 172.31 C134.69 130.64, 162.49 97.71, 236.42 24.09 M107.25 170.31 C135.4 137.19, 161.21 103.39, 238.69 20.73 M113.47 165.99 C149.83 120.28, 193.97 77.54, 236.64 27.6 M110.75 167.38 C158.92 113.43, 206.73 56.2, 238.3 27.45 M118.72 166.88 C163.03 119.66, 207.72 60.5, 239.86 32.72 M117.3 170.65 C164.35 120.49, 207.76 69.25, 238.4 33.72 M122.1 169.11 C162.03 129.29, 202.66 86.14, 235.86 40.19 M121.38 169.63 C147.76 139.44, 177.83 107.87, 239.2 38.65 M132.72 171.6 C152.27 140.51, 181.02 107.01, 233.67 46.95 M129.78 168.09 C163.61 130.36, 200.61 90.61, 238.66 45.93 M129.97 170.41 C170.85 125.63, 212.06 80.16, 237.86 47.17 M135.53 169.9 C169.49 125.58, 206.4 83.76, 238.31 52.38 M136.4 167.14 C174.23 129.72, 210.03 94.21, 238.14 52.95 M140.4 170.8 C171.43 131.85, 204.09 93.63, 236.42 58.03 M148.12 169.28 C182.02 129.86, 216.38 85.91, 235.05 62.9 M144.78 168.25 C178.14 129.51, 210.98 94.18, 235.27 62.19 M151.61 166.62 C179.3 141.73, 206.95 106.03, 236.14 67.29 M150.14 169.22 C180.61 130.24, 212.78 92.8, 236.88 69.99 M158.17 171.58 C188.89 132.01, 217.78 93.88, 238.41 76.44 M156.95 168.02 C171.97 149.2, 190.84 127.85, 238.97 76.2 M156.74 171.6 C176.21 144.01, 194.6 128.17, 240.45 77.77 M159.14 170.08 C179.31 147.73, 198.23 125.42, 234.77 79.81 M164.3 169.56 C194.12 137.77, 222.63 107.81, 236.15 84.53 M166.05 169.82 C193.72 137.41, 222.42 105.07, 236.18 88.04 M170.09 168.83 C191.76 148.11, 209.52 121.94, 236.35 92.34 M172.16 171.15 C189.13 151.73, 202.51 133.15, 235.04 94.49 M173.25 169.95 C199.13 140.26, 222.83 115.35, 237.05 96.35 M174.35 169.57 C190.55 151.2, 205.72 132.78, 236.88 99.63 M184.5 171.24 C195.29 158.28, 207.09 141.48, 237.76 107.65 M183.1 168.21 C200.11 149.88, 214.02 130.39, 238.87 104.62 M190.32 165.9 C205.45 152.3, 220.76 130.06, 233.77 114.29 M186.3 168.43 C203.6 153.63, 217.49 136.26, 235.6 111.91 M191.38 170.44 C202.84 151.31, 220.51 137.42, 237.77 118.03 M193.14 169.59 C205.28 154.01, 215.8 139.15, 236.32 119.27 M199.37 173 C215.06 151.7, 228.47 136.77, 233.53 126.89 M198.59 170.88 C209.49 152.2, 224.42 138.37, 236.09 123.86 M203.39 169.75 C214.76 155.76, 224.5 151.85, 236.08 128.28 M203.31 171.14 C215.14 153.27, 228.88 139.88, 235.66 128.81 M206.83 169.27 C214.97 155.76, 223.07 149.25, 234.13 133.4 M210.12 170.66 C218 157.93, 224.87 148.97, 237.33 135 M209.74 172.92 C219.37 160.58, 228.54 152.72, 234.26 142.35 M211.89 171 C217.98 165.2, 222.29 158.62, 236.75 143.65 M221.7 171.18 C228.66 160.41, 232.5 151.14, 238.59 144.75 M220.02 168.79 C224.52 159.39, 231.11 154.02, 238.17 148.36 M220.19 172.11 C226.28 167.83, 231.85 162.69, 234.43 156.39 M224.36 167.58 C225.86 164.6, 230.96 160.19, 235.61 153.21 M228.28 166.96 C234.67 164.1, 233.43 162.62, 235.61 157.75 M229.55 168.14 C232.12 165.25, 235.48 163.64, 238.13 160.72" stroke="#4c6ef5" stroke-width="0.5" fill="none"></path><path d="M2.13 1.21 C59.1 4.87, 116.66 -1, 232.47 -0.82 M1.66 1.66 C59.9 -0.35, 121.09 -1.19, 235.44 1.14 M236.1 -3.13 C235.5 48.13, 231.42 96.75, 235.61 164.41 M236.02 -1.54 C232.96 59.14, 233.43 119.76, 233.9 169.41 M233.1 170.32 C181.67 166.28, 128.89 167.47, 1.68 167.68 M236.42 168.7 C152.87 168.77, 72.73 169.12, -1.18 167.03 M3.39 168.06 C0.56 129.2, 2.34 83.14, -2.49 -0.29 M-0.35 168.83 C2.58 134.02, 1.75 101.82, -1.31 1.76" stroke="#000000" stroke-width="1" fill="none"></path></g><g stroke-linecap="round" transform="translate(379 55) rotate(0 209 84)"><path d="M0 0 C0 0, 0 0, 0 0 M0 0 C0 0, 0 0, 0 0 M0.87 6.75 C-0.54 5.31, 3.11 4.72, 4.2 -0.94 M-0.31 6.5 C1.23 4.67, 3.89 2.17, 4.88 0.09 M-2.13 12.27 C2.22 10.86, 7.15 6.53, 8.03 2.78 M-0.09 10.56 C5.11 7.6, 8.21 1.61, 11.69 -0.7 M3 15.67 C6 13.93, 8.55 5.06, 16.18 0.34 M-1.46 16.69 C6.34 12.18, 9.74 5.57, 17.06 1.85 M-0.71 21.55 C7.84 15.64, 10.61 15.27, 20.33 -3.9 M2.24 23.27 C7.72 17.13, 14.97 10.58, 21.37 0.91 M3.6 26.75 C5.79 19.82, 22.59 6.83, 29.86 0.36 M-1.14 29.59 C8.36 18.44, 17.31 8.38, 25.88 -1.32 M2.1 38.94 C7.12 21.51, 25.26 14.58, 33.6 -2.52 M0.05 35.86 C8.8 27.46, 16.83 16.98, 32.29 -2.03 M-1.91 42.58 C9.26 33.37, 15.74 25.13, 40.27 0.26 M-0.99 42.2 C10.23 29.44, 18.15 18.17, 35.58 -0.76 M0.47 48.83 C16.44 30.63, 36.69 13.15, 46.1 -0.48 M-1.6 50.16 C15.7 31.52, 30.21 12.05, 41.03 -0.25 M-1.37 53.83 C12.69 36.28, 31.1 15.16, 44.01 1.74 M-1.33 54.56 C14.82 40.24, 27.07 21.61, 48.85 -1.19 M3.63 60.42 C15.22 40.02, 37.08 18.41, 55.17 2.68 M-1.31 60.8 C20.03 39.45, 35.27 19.74, 51.18 0.89 M-0.86 68.45 C12.52 47.05, 26.84 34.67, 58.16 1.03 M0.13 68.69 C14.16 47.21, 33.14 31.6, 56.68 0.89 M1.88 76.69 C11.46 57.26, 34.14 36.05, 60.58 -4.02 M-0.71 73.93 C21.91 45.71, 47.88 18.07, 63.6 -0.76 M-2.03 80.7 C28.11 50.14, 55.86 13.85, 68.2 0.92 M0.96 79.56 C23.85 53.29, 42.17 28.95, 68.33 -0.82 M1.96 83.19 C26.62 52.57, 61.31 20.54, 76.55 1 M0.83 85.87 C21.97 61.27, 47.99 32.94, 74.45 -2.12 M-2.08 87.66 C20.15 64.22, 37.71 47.73, 80.07 -1.2 M0.03 89.62 C19.24 70.31, 36.18 45.07, 81.34 -0.36 M-1.59 100.79 C21.72 68.37, 48.3 40.73, 87.72 -4.1 M-0.43 97.94 C23.8 67.78, 53.01 35.45, 85.16 -0.91 M-3.11 106.25 C33.67 63.54, 64.84 23.71, 92.13 -1.42 M2.15 103.8 C35.98 66.19, 71.49 24.17, 91.52 -1.6 M-3.85 106.66 C39.5 68.61, 71.72 28.27, 93.19 -0.63 M0.02 111.42 C28.5 71.47, 60.42 36.64, 96.44 -1.6 M-0.77 113.9 C19.84 88.14, 43.16 64.74, 99.2 -1.26 M-0.61 116.23 C22.86 90.73, 45.55 63.12, 98.99 -0.15 M2.58 122.79 C28.62 86.75, 53.97 55.01, 102.48 2.69 M1 122.05 C22.76 98.07, 45.53 72.39, 106.29 -1.46 M3.04 125.41 C24.48 99.25, 48.43 70.34, 112.51 -3.64 M0.49 129.02 C32.29 92.45, 66.08 52.36, 110.13 -1.43 M2.21 136.99 C41.17 84.28, 82 39.2, 114.9 -1.56 M0.27 135.05 C34.44 101.54, 61.87 67.47, 115.33 0.21 M-1.13 137.83 C43.26 86.6, 92.18 36.59, 123.76 -0.97 M-0.61 139.25 C32.16 104.7, 63.41 64.12, 123.6 1.38 M-0.04 147.62 C42.97 100.17, 79.88 50.22, 126.16 -2.49 M-0.12 147.85 C28.27 110.82, 60.77 72.21, 127.42 1.07 M1.52 154.8 C31.01 118.48, 63.08 80.19, 133.01 -2.76 M1.24 153.34 C38.05 105.33, 82.83 59.89, 132.38 1.16 M0.45 160.17 C31.25 128.76, 60.34 89.24, 136.58 -2.07 M-0.48 157.1 C52.25 96.19, 107.12 32.89, 135.96 2.04 M1.43 164.81 C44.7 105.15, 91.55 50.54, 144.74 -1.05 M-0.27 162.88 C53.99 102.7, 106.59 45.41, 141.84 -0.38 M0.52 171.35 C35.91 123.79, 81.07 80.09, 148.92 0.28 M2.17 170.73 C60.95 104.25, 118.75 39.19, 147.54 -0.47 M5.88 168.04 C59.17 108.21, 116.41 42.04, 156.12 -3.49 M7.24 169.44 C63.09 104.01, 120.63 41.6, 154.78 -0.28 M9.39 171.04 C47.61 134.85, 81.93 94.23, 157.82 -0.33 M10.69 168.1 C62.23 110.61, 116.76 48.97, 157.15 1.17 M18.22 168.15 C71.17 107.71, 129.57 44.65, 161.52 -1.52 M19.18 168.6 C66.02 116.09, 114.04 61.79, 164.1 1.11 M23.62 170.31 C72.26 110.76, 123.99 59.2, 166.85 1.89 M22.05 168.68 C76.91 109.56, 127.05 50.83, 168 0.06 M28.83 167.43 C61.13 133.35, 89.82 97.93, 176.31 -1.64 M27.35 167.19 C83.6 107.25, 138.27 46.5, 175.05 -1.45 M35.57 168.46 C78.73 111.94, 131.6 56.88, 178.26 -0.63 M34.07 169.48 C89.93 103.73, 147.17 37.94, 179.2 0.74 M37.57 171 C94.63 103.38, 153.28 36.64, 185.26 -1.29 M37.21 168.56 C78.53 120.62, 119.85 74.08, 186.2 0.76 M41.42 166.97 C97.88 112.37, 146.34 60.8, 189.48 2.23 M44.78 167.71 C80.71 127.83, 115.43 85.26, 190.96 0.17 M46.39 167.26 C97.67 115.79, 143.32 60.28, 194.17 0.88 M48.44 168.51 C93.27 120.39, 138.81 70.29, 194.67 1.15 M51.49 166.11 C101.01 118.08, 138.86 70.21, 203.5 0.45 M54.21 169.36 C92.79 122.99, 133.55 78.66, 202.87 -0.17 M62.13 166.51 C100.81 120.45, 137.83 70.63, 205.79 1.51 M59.43 168.07 C117.78 99.7, 176.64 34.29, 208.12 0.2 M66.14 168.34 C117.42 109.58, 170.51 56.95, 211.62 1.66 M66.04 170.29 C111.53 110.01, 161.98 50.03, 212.18 0.5 M68.19 166.92 C126.02 106.54, 173.14 52.82, 216.35 2.92 M71.64 168.76 C99.44 130.47, 130.99 92.89, 218.98 0.29 M72.37 168 C117.59 121.28, 161.77 74.31, 224.46 0.26 M75.6 168.26 C130.76 107.27, 180.76 48.42, 222.41 0.59 M79.02 169.44 C135.07 110.9, 185.48 44.6, 225.89 2.73 M80.54 168.58 C135.88 104.38, 191.34 43.4, 226.81 0.57 M88.51 168.54 C123.45 120.02, 167.32 79.1, 234.09 1.4 M85.35 168.12 C131.47 119.83, 175.91 67.67, 234.74 1.25 M91.21 171.28 C143.53 112.67, 197.78 57.11, 241.07 -1.92 M90.18 170.94 C136.28 115.4, 185.86 63, 239.34 -0.6 M98.84 172.13 C144.92 116.13, 190.93 65.44, 244.98 -3 M96.27 169.72 C128.5 135.16, 157.78 100.18, 242.85 1.26 M99.99 170.15 C140.59 131.14, 175.72 91.85, 246.79 -0.18 M100.6 169.99 C141.81 117.4, 183.43 70, 249.32 -0.06 M105.25 169.43 C135.63 138.67, 167.79 104.89, 256.85 -3.36 M106.12 169.67 C164.88 105.37, 220.01 41, 255.28 -1.27 M109.59 167.68 C164.22 102.17, 223.14 44.11, 260.79 -0.82 M112.92 169.54 C171.68 107.99, 225.98 41.4, 259.81 -0.79 M116.87 170.47 C175.44 97.86, 231.04 36.27, 268.05 -3.38 M118.1 169.95 C163.97 112.13, 212.95 55.86, 266.19 -0.31 M122.87 165.99 C157.68 130.73, 193.37 84.8, 270.86 2.59 M124.2 170.99 C155.67 133.2, 187.14 94.68, 271.33 0.54 M126.01 166.86 C169.26 115.69, 215.95 69.78, 279.03 -2.81 M128.74 169.24 C174.42 110.45, 226.09 54.18, 274.3 -0.82 M131.04 171.11 C179.73 113.99, 233.53 58.92, 278.92 1.51 M132.62 168.21 C185.32 111.38, 238.3 50.85, 279.49 -1.16 M139.12 169.6 C202.24 96.98, 254.8 30.6, 288.89 -0.94 M139.99 168.18 C175.83 129.04, 208.13 89.16, 287.99 0.16 M144.61 168.92 C179.33 128.64, 211.22 90.87, 290.73 3.35 M146.04 169.84 C204.8 100.67, 262.08 34.05, 290.44 -0.45 M152.7 171.28 C193.36 114.4, 240.75 58.25, 298.85 -0.02 M150.6 167.56 C210.1 102.14, 264.92 37.45, 296.16 1.49 M155.54 169.88 C210.09 108.15, 261.26 50.02, 298.64 0.5 M156.23 170.14 C203.05 111.1, 250.91 56.44, 301.99 -0.32 M163.63 170.1 C214.28 104.38, 277.64 35.17, 308.76 -1.8 M161.26 170.09 C212.16 108.72, 264.78 47.82, 307.67 -0.37 M168.2 171.14 C199.42 134.7, 229.44 95.64, 312.6 1.36 M164.68 167.82 C201.09 128.51, 234.84 89.96, 312.18 -0.13 M171.94 167.26 C207.32 119.58, 248.45 79.32, 320.59 2.77 M172.28 169.12 C209.99 121.92, 246.89 77.45, 318.78 0.7 M175.3 166.92 C232.03 103.39, 283.34 40.47, 322.29 -0.71 M177.38 167.81 C214.18 127.67, 249.76 82.57, 324.48 -0.76 M180.02 167.28 C223.95 117.4, 264.73 65.7, 328.07 2.58 M181 167.94 C238.48 103.99, 293.9 38.41, 328.54 -1.89 M188.86 165.68 C223.3 118.91, 263.33 75.02, 334.95 -3.23 M185.99 169.21 C234.6 115.07, 279.42 62.12, 332.24 0.51 M192.1 172.32 C245.98 107.64, 299.64 48, 340.78 -2.66 M193.35 168.86 C237.31 112.39, 284.57 58.41, 340.52 -1.68 M195.46 166.04 C248.03 107.58, 306.21 45.1, 344.45 1.89 M197 170.44 C255.72 104.69, 309.88 40.78, 344.56 1.47 M199.69 168.79 C233.85 133.28, 265.64 93.73, 352.56 1.72 M204.13 168.47 C245.94 122.01, 289.69 69.93, 350.2 -0.68 M207.86 167.1 C247.95 128.84, 287.21 84.58, 355.37 -2.54 M209.41 167.53 C262.23 103.4, 322.28 37.9, 353.57 0.06 M211.85 172.78 C246.09 128.49, 279.29 91.07, 361.3 -2.32 M211.83 170.41 C246.26 127.64, 283.08 88.32, 359.51 -0.42 M220.28 171.88 C267.29 114.51, 319.19 53.52, 365.75 -0.58 M219.88 169.62 C272.49 112.02, 322.27 53.93, 367.13 -0.42 M224.3 171.66 C268.91 108.92, 322.72 51.83, 368.47 -2.56 M223.74 169.94 C269.17 117.4, 310.17 67.52, 371.26 0.89 M232.47 170.15 C273.1 114.56, 318.1 58.1, 377.47 -1.58 M227.9 169.66 C263.63 132.72, 291.78 94.7, 376.14 0.1 M236.53 168.75 C283.25 115.46, 333.18 57.86, 378.28 2.64 M233.68 169.36 C279.9 118.13, 324.85 63.42, 379.7 0.16 M239.4 169.33 C281.93 117.15, 332.6 64.11, 385.92 -2.39 M240.93 170.29 C268.93 136.12, 299.5 101.52, 387.22 0.13 M248.45 166.14 C275.09 136.03, 307.22 98.56, 393.6 1.62 M244.3 169.44 C301.15 107.08, 354.83 44.07, 392.21 -1.18 M248.46 170.47 C303.87 106.93, 352.7 46.62, 397.15 2.36 M252.07 168.27 C294.98 119.71, 337.67 70.13, 396.92 -1.63 M256.87 168.13 C309.84 106.52, 362.32 41.12, 405.64 0.43 M255.02 167.72 C283.98 134.25, 312.84 100.02, 403.52 1.03 M262.25 171.64 C308.23 113.22, 350.19 61.97, 410.74 3.04 M262.39 170.06 C305.3 117.03, 354.79 60.12, 407.16 -1.11 M265.87 170.87 C301.17 127.84, 335.25 81.19, 411.14 -1.29 M267.27 170.5 C300.43 132.4, 335.28 95.26, 414.62 1.69 M275.16 171.42 C322.21 107.82, 374.86 47.56, 415.65 -0.14 M272.33 169.36 C316.16 117.7, 360.96 64.44, 419.49 -0.2 M276.46 165.83 C318.39 127.1, 353.48 77.41, 417.44 6.05 M275.78 170.55 C320.9 115.96, 368.71 60.95, 418.91 4.51 M283.02 166.05 C318.64 130.25, 351.73 94.66, 420.27 15.44 M282.82 170.34 C324.69 127.03, 366.72 78.06, 418.55 10.9 M290.47 171.22 C324.74 127.93, 362.39 79.43, 421.97 20.63 M287.69 169.37 C315.77 138.31, 340.91 106.5, 417.06 19.4 M296.51 171.35 C330.67 130.46, 366.96 84.55, 421.65 24.92 M292.6 168.85 C334.08 122.62, 376.3 77.93, 418.56 23.78 M298.09 172.03 C344.87 116.24, 388.68 71.38, 415 27.96 M300.13 168.56 C334.94 130.32, 370.18 90.87, 418.72 29.53 M303.84 165.85 C349.99 121.19, 393.61 64.45, 419.87 34.14 M303.09 169.79 C334.14 136.3, 366.47 99.84, 419.05 36.58 M305.75 165.55 C352.06 117.76, 390.04 69.64, 417.65 46.64 M307.68 168.55 C332.62 141.8, 356.83 117.58, 417.55 42.36 M316.36 165.67 C350.25 123.79, 390.71 80.28, 420.22 45.82 M312.06 170.83 C355.67 126.73, 393 77.88, 419.05 47.64 M316.37 168.16 C340.69 143.11, 364.45 121.5, 422.34 59.05 M321.4 169.76 C349.29 137.07, 376.48 106.7, 417.11 56.05 M323.73 167.98 C347.8 136.21, 374.49 111.4, 422.11 58.63 M322.45 168.78 C357.2 129.2, 389.71 93.69, 417.82 63.48 M333.33 170.78 C369.3 125.01, 400.41 88.25, 419.9 64.14 M330.61 170.86 C357.02 138.21, 380.96 109.42, 420.23 66 M338.04 170.47 C356.96 144.44, 376.34 123.04, 419.47 76.08 M336.47 169.65 C358.7 144.31, 384.77 114.99, 416.93 73.1 M340.43 166.9 C357.76 146.67, 378.84 132.53, 418.95 82.21 M340.9 170.71 C359.54 145.18, 379.38 124.02, 418.39 79.57 M341.82 167.42 C364.7 148.73, 382.64 131.23, 415.27 83.46 M345.6 170.66 C363.3 148.78, 382.24 124.62, 416.89 86.97 M353.93 172.57 C366.16 148.8, 382.28 131.63, 420.52 91.81 M352.17 170.4 C372.64 146.1, 390.53 123.43, 416.29 91.08 M356.02 169.66 C375.73 144.31, 400.15 119.06, 416.95 100.63 M356.64 170.27 C367.45 153.26, 382.2 135.7, 418.49 95.78 M362.49 166.41 C381.38 147.5, 409.86 121.6, 418.09 102.35 M360.58 167.25 C380.39 144.82, 399.97 123.23, 417.96 104.32 M364.04 168.59 C377.4 153.5, 396.78 137.76, 415.72 106.79 M365.63 170.15 C379.44 151.52, 393.56 136.79, 416.15 109.18 M371.25 165.6 C387.87 155.95, 400.29 139.26, 420.27 115.04 M372.57 168.78 C381.63 158.51, 391.18 146.25, 419.36 115.55 M379.74 172.15 C392.22 151.3, 412.43 131.92, 417.22 121.4 M375.91 169.18 C390.64 152.37, 407.58 134.58, 418.54 122.78 M381.76 165.86 C393.17 155.5, 408.88 136.39, 422.07 127.65 M382.89 170.74 C389.72 157.52, 399.98 150.67, 417.74 128.27 M387.37 168.88 C401.16 156.27, 405.94 143.5, 417.51 132.77 M388.1 169.47 C397.27 161.24, 402.49 154.38, 418.63 132.69 M396.02 169.52 C406.74 157.9, 416.12 146.95, 416.31 139.26 M392.53 167.11 C401.59 161.6, 406.07 151.21, 416.96 139.92 M401.67 171.86 C401.48 163.23, 412.67 158.51, 417.79 147.02 M398.11 170.35 C401.54 164.24, 406.27 159.35, 418.35 146.46 M403.8 166.17 C411.37 163.91, 408.26 158.12, 416.2 151.26 M402.14 168.81 C408.65 165.81, 409.64 163.38, 420.15 152.91 M408.29 167.45 C414.42 164.04, 416.69 163.28, 419.38 160.15 M410.62 170 C412.44 164.8, 415.54 162.21, 418.12 158.08 M414.11 168.37 C416.01 169.64, 416.6 167.88, 417.51 165.84 M413.91 169.86 C415.77 168.52, 416.29 166.98, 418.81 165.02" stroke="#15aabf" stroke-width="0.5" fill="none"></path><path d="M-1.75 0.49 C134.4 -1.64, 270.25 -0.99, 417.62 1.96 M-0.11 -1.05 C133.14 3.03, 266.13 3.22, 417.03 -0.2 M418.12 -1.32 C419.23 55.12, 417.35 109.13, 414.09 168.91 M417.41 1.73 C417.42 59.4, 415.47 120.85, 417.4 169.79 M419.27 166.64 C281.58 172.31, 143.01 170.9, -1.26 167.87 M417.85 168.39 C282.53 165.68, 149.62 165.78, -0.28 169 M-0.55 165.68 C-4.86 100.14, -3.73 34.57, -3.68 -2.29 M-0.58 169.55 C1.62 113.12, -0.54 57.54, -1.68 -1.04" stroke="#000000" stroke-width="1" fill="none"></path></g><g transform="translate(175 87) rotate(0 89.71990203857422 25)"><text x="0" y="0" font-family="Virgil, Segoe UI Emoji" font-size="20px" fill="#000000" text-anchor="start" style="white-space: pre;" direction="ltr" dominant-baseline="text-before-edge">Dedicated for </text><text x="0" y="25" font-family="Virgil, Segoe UI Emoji" font-size="20px" fill="#000000" text-anchor="start" style="white-space: pre;" direction="ltr" dominant-baseline="text-before-edge">Kernel (512 pages)</text></g><g transform="translate(401 96) rotate(0 174.25979614257812 12.5)"><text x="0" y="0" font-family="Virgil, Segoe UI Emoji" font-size="20px" fill="#000000" text-anchor="start" style="white-space: pre;" direction="ltr" dominant-baseline="text-before-edge">Pages Reserved for User Programs</text></g><g transform="translate(157 22) rotate(0 138.72984313964844 12.5)"><text x="0" y="0" font-family="Virgil, Segoe UI Emoji" font-size="20px" fill="#000000" text-anchor="start" style="white-space: pre;" direction="ltr" dominant-baseline="text-before-edge">Kernel Heap divided into two</text></g><g stroke-linecap="round" transform="translate(30 44) rotate(0 46.5 85.5)"><path d="M0 0 C0 0, 0 0, 0 0 M0 0 C0 0, 0 0, 0 0 M0.97 4.8 C0 3.65, 2.29 3.19, 3.96 -0.94 M-0.58 6.33 C1.12 4.28, 3.54 1.43, 4.73 -0.24 M1.26 8.89 C3.89 6.68, 3.39 4.34, 10.31 -1.35 M0.48 12.9 C2.29 7.76, 5.85 2.09, 11.84 -1.42 M0.13 19.03 C6.91 13.53, 12.52 7.08, 13.39 -2.74 M-1.58 17.98 C3.39 12.32, 7.54 8.96, 13.79 -0.01 M1.68 21.78 C8.35 20.76, 5.42 11.07, 18.37 2.58 M1.78 23.77 C6.79 14.64, 15.72 7.06, 20.29 -0.86 M2.18 34.35 C7.2 22.1, 14.36 15.26, 25.92 3 M-1.26 29.59 C6.72 23.01, 15.12 14.04, 25.77 -0.49 M-2.48 40.54 C14.62 26.52, 18.03 14.48, 34.69 0.84 M0.55 38.59 C12.09 23.32, 22.23 9.98, 30.48 -1.04 M3.85 39.78 C17.37 24.11, 28.44 10.41, 38.34 -2.23 M1.48 43.46 C15.48 27.32, 28.39 10.19, 35.37 0.55 M1.98 45.08 C13.58 33.03, 35.17 11.45, 45.23 -3.67 M0.66 49.84 C13.46 36.11, 21.83 21.18, 41.18 1.71 M-3.57 53.31 C14.83 36.9, 28.33 14.46, 51.44 1.61 M0.48 54.23 C16.8 31.75, 35.8 12.04, 46.96 1.47 M-3.57 62.93 C11.17 49.06, 30.37 26.33, 52.49 -1.14 M1.18 59.24 C21.65 37.8, 44.5 12.91, 53.16 1.6 M3.01 68.26 C11.86 54.31, 26.28 35.4, 56.42 3.1 M-0.77 67.48 C24.02 42.89, 45.1 16.33, 56.18 1.84 M1.33 73.42 C18.46 53.84, 43.16 30.22, 63.41 -3.22 M1.16 73.01 C15.24 59.66, 26.76 43.3, 63.45 1.05 M-2.9 78.21 C30.11 51.43, 55.95 15.62, 70.93 3.37 M-0.55 78.77 C25.18 52.99, 49.33 23.54, 67.98 0.45 M-0.42 84.45 C18.68 68.82, 32.06 46.36, 77.35 1.02 M0.89 84.55 C16.18 65.83, 36.14 43.12, 75.39 0.73 M-1.34 93.61 C16.1 71.06, 34.33 47.82, 79.06 -3.85 M-0.82 92.13 C16.39 71.22, 33.01 51.6, 78.55 1.32 M-4.14 97.22 C16.55 82.03, 34.29 58.59, 82.12 1.08 M-0.69 97.26 C31.6 60.54, 65.18 20.16, 84.58 1.51 M0.74 102.7 C29.16 70.47, 56.4 38.01, 91.35 3.69 M1.41 103.06 C29.51 70.78, 58.31 36.53, 89.41 -0.31 M-0.73 107.26 C27.03 75.73, 58.11 45.59, 96.66 2.51 M-1.4 111.5 C20.18 89.05, 43.29 63.57, 95.58 -0.01 M-3.16 116.27 C24.56 87.06, 43.15 61.08, 94.19 8.39 M-0.61 117.27 C34.93 79.42, 67.73 38.49, 94.76 7.54 M-0.64 120.9 C26.75 96.22, 53.19 58.93, 97.78 12.99 M-1.75 123.08 C22.29 94.45, 46.89 70.58, 94.69 12.53 M0.24 124.45 C23.33 100.98, 48.6 76.02, 93.61 18.61 M-1.99 129.46 C29.12 89.67, 58.73 53.61, 95.28 21.53 M-3.22 132.28 C22.7 104.42, 51.79 78.17, 95.78 27.13 M-0.3 134.31 C25.28 105.93, 53.95 75.09, 95.56 26.1 M2.61 137.65 C35.77 95.8, 66.4 56.64, 95.39 33.78 M-1.6 142.27 C24.19 110.48, 53.77 80.81, 96.25 30.02 M-1.38 144.11 C31.49 102.28, 63.58 69.66, 95.55 37.42 M-0.34 144.69 C20.86 125.06, 41.28 103.15, 94.23 39.2 M-1.89 155.12 C21.71 123.33, 47.79 99.18, 95.79 46.43 M0.02 152.82 C32.81 116.74, 60.74 82.53, 96.3 45.11 M-2.25 156.42 C20.32 132.35, 47.29 103.21, 96.42 48.65 M-0.54 157.72 C23.8 128.27, 53.02 95.63, 95.05 50.28 M-2.01 165.91 C34.41 129.66, 64.93 98.48, 97.54 57.64 M1.24 163.71 C22.06 142.51, 43.96 119.91, 93.31 56.14 M3.45 167.53 C27.52 140.78, 60.83 106.28, 92.15 62.44 M1.71 171.83 C23.12 143.21, 48.22 114.3, 92.65 60.29 M4.55 174.61 C30.31 143.9, 55.27 114.25, 97.13 65.81 M3.36 174.72 C22.75 154.04, 42.07 128.6, 93.82 68.4 M9.33 173.54 C39.03 132.03, 78.19 96.82, 93.62 70.22 M8.16 173.9 C40.54 141.69, 70.95 106.54, 92.59 75.63 M15.15 173.37 C29.49 156.78, 42.53 138.52, 91.46 83.64 M12.58 172.86 C42.72 140.25, 77.31 103.38, 93.6 82.14 M18.99 177.43 C39.49 154.7, 50.07 134.84, 92.13 89.98 M19.42 174.34 C42.25 142.96, 71.76 114.74, 92.73 86.93 M26.5 171.97 C51.2 139.82, 79.45 112.46, 93.9 90.65 M22.25 172.42 C48.88 146.05, 69.25 122.29, 95.73 91.1 M33.08 175.76 C52.63 146.43, 72.93 125.11, 94.78 99.02 M27.97 171.79 C47.49 151.57, 70.07 131.08, 92.56 99.77 M35.57 169.72 C56.59 148.74, 80.8 118.01, 92.92 106.18 M35.87 172.87 C59.46 149.02, 84.3 118.79, 95.26 105.49 M37.31 170.59 C53.29 165.47, 57.43 146.28, 91.05 114.95 M40.21 175.07 C49.34 157.77, 61.96 147.19, 93.8 109.72 M43.8 176.49 C57.58 156.9, 69.16 146.63, 95.41 114.12 M45.25 173.9 C60.81 154.15, 77.72 136.64, 96.48 118.72 M51.83 176.59 C59.92 157.81, 74.81 141.76, 92.91 124.2 M51.84 172.22 C67.83 152.12, 83.87 136.03, 94.49 124.79 M53.07 176.7 C61.38 162.97, 70.37 151.46, 98.07 131.69 M56.46 173.4 C63.26 163.85, 72.04 153.42, 94.32 130.18 M63.24 176.95 C71.87 159.25, 88.5 143.89, 93.43 139.01 M61.8 172.51 C75.21 159.83, 87.04 143.58, 93.61 136.5 M69.68 173.34 C77.69 157.85, 90.99 148.77, 93.97 138.39 M67.84 173.5 C75.51 163.14, 81.92 155.76, 94.97 140.22 M68.55 175.45 C76.75 166.9, 85.39 157.72, 94.08 146.18 M70.36 172.42 C78.13 163.03, 90.16 155.67, 96.42 146.55 M76.38 175.97 C83.63 162.74, 91.85 160.57, 96.68 156.56 M76.04 174.55 C82.86 165.59, 89.07 158.93, 93.92 152.68 M79.54 176.13 C89.61 167.96, 88.86 167.29, 92.35 159.85 M81.15 173.65 C86.28 167.59, 89.54 164.02, 95.64 161.48 M86.15 172.94 C89.23 169.74, 90.23 168.78, 92.68 165 M86.96 173.14 C89.62 170.26, 92.64 167.42, 93.56 165.74" stroke="#fa5252" stroke-width="0.5" fill="none"></path><path d="M0.32 3.5 C17.71 -3.15, 39.26 -1.88, 91.06 3.45 M-0.93 -1.64 C22.45 0.61, 45.48 0.29, 93.62 0.28 M94.66 -2.01 C93.2 60.48, 90.08 114.06, 89.23 169.11 M91.11 -0.5 C91.56 39.45, 94.86 82.75, 92.34 169.82 M89.36 174.77 C59.78 170.42, 16.36 174.89, -0.96 170.59 M94.48 170.13 C59.72 170.44, 27.49 171.71, -1.91 171.25 M0.21 168.24 C1.2 111.35, -2.14 47.23, -1.26 3.25 M1.38 170.81 C-0.07 114.88, -0.28 63.28, -0.75 1.77" stroke="#000000" stroke-width="1" fill="none"></path></g><g stroke-linecap="round"><g transform="translate(78 217) rotate(0 29.37063998542726 69.96273655928672)"><path d="M-1.06 2.48 C0.49 17.81, -1.61 70.96, 8.53 93.46 C18.68 115.95, 51.59 129.74, 59.8 137.44" stroke="#000000" stroke-width="1.5" fill="none" stroke-dasharray="1.5 7"></path></g><g transform="translate(78 217) rotate(0 29.37063998542726 69.96273655928672)"><path d="M34.24 129.48 C36.53 136.35, 47.32 135.47, 63.6 139.74" stroke="#000000" stroke-width="1.5" fill="none" stroke-dasharray="1.5 5"></path></g><g transform="translate(78 217) rotate(0 29.37063998542726 69.96273655928672)"><path d="M45.74 112.48 C45.06 123.92, 52.71 127.68, 63.6 139.74" stroke="#000000" stroke-width="1.5" fill="none" stroke-dasharray="1.5 5"></path></g></g><mask></mask><g transform="translate(143 352) rotate(0 84.81990051269531 12.5)"><text x="0" y="0" font-family="Virgil, Segoe UI Emoji" font-size="20px" fill="#000000" text-anchor="start" style="white-space: pre;" direction="ltr" dominant-baseline="text-before-edge">Page Descriptors</text></g></svg>