<svg version="1.1" xmlns="http://www.w3.org/2000/svg" viewBox="0 0 969.2970443166076 788.7374875133761" width="969.2970443166076" height="788.7374875133761">
  <!-- svg-source:excalidraw -->
  
  <defs>
    <style class="style-fonts">
      @font-face {
        font-family: "Virgil";
        src: url("https://file%2B.vscode-resource.vscode-cdn.net/home/kiarie404/.vscode/extensions/pomdtr.excalidraw-editor-3.5.1/public//dist/excalidraw-assets/Virgil.woff2");
      }
      @font-face {
        font-family: "Cascadia";
        src: url("https://file%2B.vscode-resource.vscode-cdn.net/home/kiarie404/.vscode/extensions/pomdtr.excalidraw-editor-3.5.1/public//dist/excalidraw-assets/Cascadia.woff2");
      }
    </style>
  </defs>
  <rect x="0" y="0" width="969.2970443166076" height="788.7374875133761" fill="#ffffff"></rect><g stroke-linecap="round" transform="translate(56.476815618135845 78.19887543941479) rotate(0 139.015214089819 25.060565805307505)"><path d="M0 0 C0 0, 0 0, 0 0 M0 0 C0 0, 0 0, 0 0 M-0.05 6.89 C0.26 4.81, 2 3.7, 4.48 -0.1 M-0.5 6.55 C1.68 4.67, 3.55 2.1, 4.74 0.67 M0.04 11.73 C4.33 6.17, 9.09 2.86, 10.11 -0.06 M0.58 12.12 C2.38 8.46, 5.25 6.92, 10.03 -0.33 M-0.41 20.29 C5.92 15, 9.59 8.68, 16.17 0.77 M0.34 17.7 C5.21 11.41, 11.21 6.33, 16.12 1.29 M0.99 23.73 C6.86 19.25, 8.97 12.19, 20.48 -1.9 M0.17 24.03 C5.98 16.42, 13.16 9.59, 21.56 -1.05 M-1.58 30.48 C8.67 20.92, 17.49 9.06, 25.86 -0.91 M-0.64 29.68 C8.61 22.5, 15.04 13.66, 26.97 -0.43 M0.89 37.09 C9.26 25.37, 19.5 17, 33.31 0.63 M-0.79 36.92 C8.2 28.38, 13.89 20.19, 32.14 0.4 M-1.64 43.34 C8.84 32.19, 18.82 23.81, 38.72 2.26 M0.66 42.06 C12.04 30.4, 21.04 17.71, 37.07 0.02 M1.82 49.42 C13.77 33.66, 30.47 15.5, 42.13 1.12 M0.81 48.76 C10.9 34.97, 22.19 22.27, 42.77 0.33 M1.9 53.35 C17.59 37.44, 29.47 18.55, 48.6 0.92 M2.93 52.44 C14.54 37.28, 26.19 23.28, 48.36 -0.36 M7.73 50.21 C16.81 41.12, 29.32 26.84, 53.48 -1.19 M7.7 51.7 C26.4 32.03, 45.18 10.86, 53.91 0.61 M13.02 51.31 C23.75 39.94, 36.64 24.27, 59.24 -1.64 M12.74 52.55 C30.02 32.02, 46.29 12.86, 57.56 -0.61 M19.98 51.88 C35.22 35.46, 50.93 13.71, 64.8 0.48 M18.9 52.16 C32.83 33.79, 49.32 15.92, 64.32 -0.46 M23.5 52.97 C40.52 31.76, 58.56 13.4, 70.3 0.41 M23.88 51.93 C35.06 39.32, 46.41 24.52, 69.21 -0.84 M30.48 50.43 C42.04 33.9, 58.13 17.76, 74.45 -1.44 M29.91 52.5 C46.41 31.28, 64.35 10.95, 74.05 -1.14 M34.59 53.84 C49 36.2, 62.26 17.17, 79.32 1.54 M33.98 51.79 C45.95 36.43, 60.5 21.7, 78.63 0.82 M39.66 51.44 C52.12 36.83, 61.75 26.24, 83.69 1.03 M39.59 52.02 C55.34 33.73, 68.93 16.22, 85.45 -1.21 M46.42 53.06 C58.08 38.3, 71.32 20.56, 91.79 -1.22 M44.94 51.77 C59.3 34.35, 74.75 18.76, 90.94 -0.83 M51.21 51.82 C66.02 32.62, 82.8 17.62, 94.69 1.48 M49.99 51.72 C66.22 33.15, 84.78 13.46, 96.17 -1 M56.03 51.33 C65.95 39.22, 75.6 29.16, 99.07 1.77 M55.97 52.97 C68.1 37.05, 82.28 20.21, 100.06 0.99 M60.68 50.84 C75.31 36.61, 86.38 23.58, 104.53 1.1 M59.89 52.29 C79.01 32.33, 94.95 11.32, 106.14 -0.41 M67.37 52.96 C83.45 34.49, 97.3 13.33, 112.44 -1.26 M66.58 52.94 C78.82 37.19, 90.79 23.12, 111.72 -0.02 M69.58 52.6 C87.51 29.91, 105.6 9.14, 114.54 -0.59 M71.92 51.65 C82.71 40.38, 92.29 28, 115.96 0.89 M77.31 51.86 C90.83 37.46, 102.97 22.6, 121.08 -1.49 M77.56 52.69 C95.48 31.31, 112.03 11.64, 122.42 -0.18 M81.95 53.04 C95.76 35.43, 112.09 16.75, 126.9 1.28 M82.15 52.89 C97.07 36.85, 109.86 19.29, 126.48 -0.59 M85.59 53.51 C97.93 37.74, 114.47 20.32, 134.08 0.5 M88.03 51.67 C99.25 37.7, 110.87 24.8, 132.47 -0.87 M93.78 50.71 C101.93 40.25, 112.11 28.27, 138.76 -0.57 M92.46 52.09 C110.38 32.18, 127.6 11.67, 137.86 -0.61 M96.89 53.02 C110.09 39.45, 121.16 27.29, 142.44 0.73 M98.37 52.81 C109.04 40.38, 119.61 27.29, 142.98 0.49 M102.92 52.75 C113.92 39.45, 123.04 27.57, 146.82 1.41 M103.52 53.24 C117.59 35.89, 133.18 16.98, 147.24 0.75 M106.79 53.06 C120.12 39.29, 131.54 23.27, 153.06 1.79 M109.28 51.47 C123.15 33.96, 138.89 17.13, 152.86 -0.57 M115.16 52.89 C123.8 38.25, 136.64 28.96, 160.68 0.39 M113.79 51.33 C122.17 42.05, 132.17 30.91, 159.06 0.86 M119.76 53.91 C135.48 35.47, 149.75 18.04, 162.76 -1.11 M118.75 52.46 C132.12 36.52, 144.09 21.8, 163.8 -0.58 M122.18 53.45 C132.42 41.18, 142.36 32.3, 168.85 1.09 M124.54 53.28 C140.15 34.38, 156.51 14.98, 170.02 -0.42 M131.2 51.44 C138.88 41.78, 148.78 28.2, 176.24 -2.19 M129.06 51.05 C143.08 36.15, 156.3 21.87, 175.31 -1.09 M135.57 51.34 C150.96 34.76, 165.32 16.48, 180.76 1.87 M134.83 52.94 C148.62 35.44, 163.32 18.88, 180.16 0.18 M141.39 51.11 C153.85 38.09, 167.64 19.26, 184.13 0.95 M139.8 51.98 C152.64 38.58, 164.58 23.54, 185.68 0.29 M144.83 52.09 C154.27 40.29, 163.02 31.08, 188.73 0.65 M144.51 52.16 C161.5 32.77, 178.5 12.63, 189.79 0.4 M149.53 49.98 C162.24 37.77, 174.1 24.74, 196.96 1.29 M150.85 52.41 C161.66 40.2, 171.29 27.6, 196.99 -1.11 M155.36 51.79 C171.56 35.39, 184.9 17.38, 201.99 0.96 M155.24 51.7 C170.94 33.74, 186.37 16.61, 200.53 -0.57 M159.08 51.47 C174.09 36.8, 189.53 19.34, 207.15 0.39 M160.73 51.75 C172.22 39.7, 184.77 26.07, 206.14 0.01 M166.47 51.14 C175.71 41.3, 186.64 29.01, 212.68 1.93 M167.47 52.32 C182.56 32.46, 200.6 14.11, 212.29 0.93 M170.36 52.3 C183.09 39, 193.71 26.48, 219.06 -1.57 M172.23 51.55 C188.11 33.41, 206.61 13.47, 217.82 -0.1 M177.37 53.44 C185.94 39.3, 194.79 29.42, 221.84 0.26 M177.45 51.67 C194.45 32.6, 212.53 12.09, 222.27 0 M182.63 53.07 C195.45 39.54, 209.03 22.8, 226.92 0.17 M181.46 53.11 C194.93 39.02, 206.89 25.41, 227.5 -1.24 M189.18 50.57 C204.33 32.21, 221.54 14.73, 233.42 0.27 M188.21 51.42 C198.1 42.16, 206.69 30.82, 233.99 0.18 M194.72 53.21 C205.85 39.8, 217.15 27.96, 236.24 1.71 M193.49 53.42 C207.52 35.07, 221.28 18.92, 237.82 0.5 M198.95 53.01 C211.89 35.59, 228.27 18.01, 244.27 -0.15 M198.62 52.15 C211.51 37.39, 223.58 23.32, 244.24 0.48 M202.36 53.75 C216.15 36.86, 231.78 21.8, 248.38 1.5 M202.69 52.93 C213.2 41.98, 222.47 31.44, 248.15 0.72 M209.58 51.83 C226.83 31.98, 240.49 12.79, 254.16 0.51 M208.29 52.4 C224.02 35.93, 237.59 20.19, 254.13 0.37 M216.18 51.31 C224.13 40.25, 238.46 22.92, 258.66 -1.17 M213.71 52.54 C229.57 35.57, 243.23 19.02, 259.71 0.23 M219.94 52.71 C232.21 34.47, 246.84 19.39, 263.76 1.33 M220.67 51.68 C228.45 42.32, 237.97 30.25, 266.05 0.75 M223.73 52.1 C242.43 30.88, 261.98 10.32, 268.94 0.84 M224.52 52.58 C239.54 34.62, 256.17 17.28, 269.17 1.06 M230.76 53.91 C244.24 38.43, 255 20.28, 276.64 1 M229.99 51.43 C248.15 30.57, 265.43 11.5, 276.69 -1.01 M235.46 53.94 C251.48 34.22, 265.89 16.23, 279.7 2.77 M235.37 51.88 C245.29 41.64, 255 29.39, 279.7 1.66 M242.7 52.27 C255.78 35.44, 270.26 18.69, 278.72 7.33 M240.28 52.06 C251.97 41.24, 261.46 28.31, 279.49 7.46 M246.72 52.22 C255.17 43.75, 264.16 31.48, 278.74 11.99 M245.82 52.67 C254.06 43.15, 260.63 34.96, 278.67 14.03 M250.32 53.25 C256.99 45.06, 263.37 34.67, 280.02 21.18 M252.36 51.93 C259.8 40.93, 270.14 31.83, 279.35 20.4 M255.78 53.94 C260.92 43.7, 268.81 38.04, 278.83 26.87 M255.71 51.67 C264.76 43.58, 272.05 34.61, 280.33 25.47 M264.08 52.89 C268.13 46.61, 272.7 39.19, 280.1 32.25 M262.86 52.34 C266.13 46.24, 270.41 41.82, 279.14 32.77 M265.87 51.71 C270.01 49.75, 275.52 45.37, 281.4 36.96 M268.15 53.01 C272.12 47.22, 276.23 41.36, 280.51 37.8 M272.67 51.81 C275.08 48.55, 277.77 46.58, 279.51 44.16 M273.09 52.18 C274.91 49.87, 276.56 47.97, 279.8 44.25" stroke="#fd7e14" stroke-width="0.5" fill="none"></path><path d="M-0.53 -0.34 C110.68 0.47, 219.68 0.9, 278.84 0.9 M0.54 0.31 C80.77 -0.17, 163.85 0.22, 278.24 0.66 M278.83 1.93 C278.6 11.28, 278.39 22.83, 276.65 48.76 M278.65 0.43 C277.97 18.39, 278.82 37.09, 278.95 49.5 M278.97 51.1 C206.59 49.62, 136.81 51.25, 0.5 48.66 M278.54 50.06 C190.69 50.98, 103.62 50.52, -0.26 50.75 M0.16 48.7 C1.17 31.09, 2.26 14.11, -1.87 -1.45 M-0.92 50.71 C-0.76 33.43, -0.45 16.92, 0.04 0.63" stroke="#000000" stroke-width="1" fill="none"></path></g><g transform="translate(95.24976648672481 92.38410136694733) rotate(0 92.70731353759763 11.821021606277128)"><text x="0" y="0" font-family="Virgil, Segoe UI Emoji" font-size="18.913634570043406px" fill="#000000" text-anchor="start" style="white-space: pre;" direction="ltr" dominant-baseline="text-before-edge">Kernel Text Section</text></g><g stroke-linecap="round" transform="translate(60.25954253214451 152.43489112683517) rotate(0 139.015214089819 25.060565805307505)"><path d="M0 0 C0 0, 0 0, 0 0 M0 0 C0 0, 0 0, 0 0 M-0.05 6.89 C0.26 4.81, 2 3.7, 4.48 -0.1 M-0.5 6.55 C1.68 4.67, 3.55 2.1, 4.74 0.67 M0.04 11.73 C4.33 6.17, 9.09 2.86, 10.11 -0.06 M0.58 12.12 C2.38 8.46, 5.25 6.92, 10.03 -0.33 M-0.41 20.29 C5.92 15, 9.59 8.68, 16.17 0.77 M0.34 17.7 C5.21 11.41, 11.21 6.33, 16.12 1.29 M0.99 23.73 C6.86 19.25, 8.97 12.19, 20.48 -1.9 M0.17 24.03 C5.98 16.42, 13.16 9.59, 21.56 -1.05 M-1.58 30.48 C8.67 20.92, 17.49 9.06, 25.86 -0.91 M-0.64 29.68 C8.61 22.5, 15.04 13.66, 26.97 -0.43 M0.89 37.09 C9.26 25.37, 19.5 17, 33.31 0.63 M-0.79 36.92 C8.2 28.38, 13.89 20.19, 32.14 0.4 M-1.64 43.34 C8.84 32.19, 18.82 23.81, 38.72 2.26 M0.66 42.06 C12.04 30.4, 21.04 17.71, 37.07 0.02 M1.82 49.42 C13.77 33.66, 30.47 15.5, 42.13 1.12 M0.81 48.76 C10.9 34.97, 22.19 22.27, 42.77 0.33 M1.9 53.35 C17.59 37.44, 29.47 18.55, 48.6 0.92 M2.93 52.44 C14.54 37.28, 26.19 23.28, 48.36 -0.36 M7.73 50.21 C16.81 41.12, 29.32 26.84, 53.48 -1.19 M7.7 51.7 C26.4 32.03, 45.18 10.86, 53.91 0.61 M13.02 51.31 C23.75 39.94, 36.64 24.27, 59.24 -1.64 M12.74 52.55 C30.02 32.02, 46.29 12.86, 57.56 -0.61 M19.98 51.88 C35.22 35.46, 50.93 13.71, 64.8 0.48 M18.9 52.16 C32.83 33.79, 49.32 15.92, 64.32 -0.46 M23.5 52.97 C40.52 31.76, 58.56 13.4, 70.3 0.41 M23.88 51.93 C35.06 39.32, 46.41 24.52, 69.21 -0.84 M30.48 50.43 C42.04 33.9, 58.13 17.76, 74.45 -1.44 M29.91 52.5 C46.41 31.28, 64.35 10.95, 74.05 -1.14 M34.59 53.84 C49 36.2, 62.26 17.17, 79.32 1.54 M33.98 51.79 C45.95 36.43, 60.5 21.7, 78.63 0.82 M39.66 51.44 C52.12 36.83, 61.75 26.24, 83.69 1.03 M39.59 52.02 C55.34 33.73, 68.93 16.22, 85.45 -1.21 M46.42 53.06 C58.08 38.3, 71.32 20.56, 91.79 -1.22 M44.94 51.77 C59.3 34.35, 74.75 18.76, 90.94 -0.83 M51.21 51.82 C66.02 32.62, 82.8 17.62, 94.69 1.48 M49.99 51.72 C66.22 33.15, 84.78 13.46, 96.17 -1 M56.03 51.33 C65.95 39.22, 75.6 29.16, 99.07 1.77 M55.97 52.97 C68.1 37.05, 82.28 20.21, 100.06 0.99 M60.68 50.84 C75.31 36.61, 86.38 23.58, 104.53 1.1 M59.89 52.29 C79.01 32.33, 94.95 11.32, 106.14 -0.41 M67.37 52.96 C83.45 34.49, 97.3 13.33, 112.44 -1.26 M66.58 52.94 C78.82 37.19, 90.79 23.12, 111.72 -0.02 M69.58 52.6 C87.51 29.91, 105.6 9.14, 114.54 -0.59 M71.92 51.65 C82.71 40.38, 92.29 28, 115.96 0.89 M77.31 51.86 C90.83 37.46, 102.97 22.6, 121.08 -1.49 M77.56 52.69 C95.48 31.31, 112.03 11.64, 122.42 -0.18 M81.95 53.04 C95.76 35.43, 112.09 16.75, 126.9 1.28 M82.15 52.89 C97.07 36.85, 109.86 19.29, 126.48 -0.59 M85.59 53.51 C97.93 37.74, 114.47 20.32, 134.08 0.5 M88.03 51.67 C99.25 37.7, 110.87 24.8, 132.47 -0.87 M93.78 50.71 C101.93 40.25, 112.11 28.27, 138.76 -0.57 M92.46 52.09 C110.38 32.18, 127.6 11.67, 137.86 -0.61 M96.89 53.02 C110.09 39.45, 121.16 27.29, 142.44 0.73 M98.37 52.81 C109.04 40.38, 119.61 27.29, 142.98 0.49 M102.92 52.75 C113.92 39.45, 123.04 27.57, 146.82 1.41 M103.52 53.24 C117.59 35.89, 133.18 16.98, 147.24 0.75 M106.79 53.06 C120.12 39.29, 131.54 23.27, 153.06 1.79 M109.28 51.47 C123.15 33.96, 138.89 17.13, 152.86 -0.57 M115.16 52.89 C123.8 38.25, 136.64 28.96, 160.68 0.39 M113.79 51.33 C122.17 42.05, 132.17 30.91, 159.06 0.86 M119.76 53.91 C135.48 35.47, 149.75 18.04, 162.76 -1.11 M118.75 52.46 C132.12 36.52, 144.09 21.8, 163.8 -0.58 M122.18 53.45 C132.42 41.18, 142.36 32.3, 168.85 1.09 M124.54 53.28 C140.15 34.38, 156.51 14.98, 170.02 -0.42 M131.2 51.44 C138.88 41.78, 148.78 28.2, 176.24 -2.19 M129.06 51.05 C143.08 36.15, 156.3 21.87, 175.31 -1.09 M135.57 51.34 C150.96 34.76, 165.32 16.48, 180.76 1.87 M134.83 52.94 C148.62 35.44, 163.32 18.88, 180.16 0.18 M141.39 51.11 C153.85 38.09, 167.64 19.26, 184.13 0.95 M139.8 51.98 C152.64 38.58, 164.58 23.54, 185.68 0.29 M144.83 52.09 C154.27 40.29, 163.02 31.08, 188.73 0.65 M144.51 52.16 C161.5 32.77, 178.5 12.63, 189.79 0.4 M149.53 49.98 C162.24 37.77, 174.1 24.74, 196.96 1.29 M150.85 52.41 C161.66 40.2, 171.29 27.6, 196.99 -1.11 M155.36 51.79 C171.56 35.39, 184.9 17.38, 201.99 0.96 M155.24 51.7 C170.94 33.74, 186.37 16.61, 200.53 -0.57 M159.08 51.47 C174.09 36.8, 189.53 19.34, 207.15 0.39 M160.73 51.75 C172.22 39.7, 184.77 26.07, 206.14 0.01 M166.47 51.14 C175.71 41.3, 186.64 29.01, 212.68 1.93 M167.47 52.32 C182.56 32.46, 200.6 14.11, 212.29 0.93 M170.36 52.3 C183.09 39, 193.71 26.48, 219.06 -1.57 M172.23 51.55 C188.11 33.41, 206.61 13.47, 217.82 -0.1 M177.37 53.44 C185.94 39.3, 194.79 29.42, 221.84 0.26 M177.45 51.67 C194.45 32.6, 212.53 12.09, 222.27 0 M182.63 53.07 C195.45 39.54, 209.03 22.8, 226.92 0.17 M181.46 53.11 C194.93 39.02, 206.89 25.41, 227.5 -1.24 M189.18 50.57 C204.33 32.21, 221.54 14.73, 233.42 0.27 M188.21 51.42 C198.1 42.16, 206.69 30.82, 233.99 0.18 M194.72 53.21 C205.85 39.8, 217.15 27.96, 236.24 1.71 M193.49 53.42 C207.52 35.07, 221.28 18.92, 237.82 0.5 M198.95 53.01 C211.89 35.59, 228.27 18.01, 244.27 -0.15 M198.62 52.15 C211.51 37.39, 223.58 23.32, 244.24 0.48 M202.36 53.75 C216.15 36.86, 231.78 21.8, 248.38 1.5 M202.69 52.93 C213.2 41.98, 222.47 31.44, 248.15 0.72 M209.58 51.83 C226.83 31.98, 240.49 12.79, 254.16 0.51 M208.29 52.4 C224.02 35.93, 237.59 20.19, 254.13 0.37 M216.18 51.31 C224.13 40.25, 238.46 22.92, 258.66 -1.17 M213.71 52.54 C229.57 35.57, 243.23 19.02, 259.71 0.23 M219.94 52.71 C232.21 34.47, 246.84 19.39, 263.76 1.33 M220.67 51.68 C228.45 42.32, 237.97 30.25, 266.05 0.75 M223.73 52.1 C242.43 30.88, 261.98 10.32, 268.94 0.84 M224.52 52.58 C239.54 34.62, 256.17 17.28, 269.17 1.06 M230.76 53.91 C244.24 38.43, 255 20.28, 276.64 1 M229.99 51.43 C248.15 30.57, 265.43 11.5, 276.69 -1.01 M235.46 53.94 C251.48 34.22, 265.89 16.23, 279.7 2.77 M235.37 51.88 C245.29 41.64, 255 29.39, 279.7 1.66 M242.7 52.27 C255.78 35.44, 270.26 18.69, 278.72 7.33 M240.28 52.06 C251.97 41.24, 261.46 28.31, 279.49 7.46 M246.72 52.22 C255.17 43.75, 264.16 31.48, 278.74 11.99 M245.82 52.67 C254.06 43.15, 260.63 34.96, 278.67 14.03 M250.32 53.25 C256.99 45.06, 263.37 34.67, 280.02 21.18 M252.36 51.93 C259.8 40.93, 270.14 31.83, 279.35 20.4 M255.78 53.94 C260.92 43.7, 268.81 38.04, 278.83 26.87 M255.71 51.67 C264.76 43.58, 272.05 34.61, 280.33 25.47 M264.08 52.89 C268.13 46.61, 272.7 39.19, 280.1 32.25 M262.86 52.34 C266.13 46.24, 270.41 41.82, 279.14 32.77 M265.87 51.71 C270.01 49.75, 275.52 45.37, 281.4 36.96 M268.15 53.01 C272.12 47.22, 276.23 41.36, 280.51 37.8 M272.67 51.81 C275.08 48.55, 277.77 46.58, 279.51 44.16 M273.09 52.18 C274.91 49.87, 276.56 47.97, 279.8 44.25" stroke="#fd7e14" stroke-width="0.5" fill="none"></path><path d="M-0.53 -0.34 C110.68 0.47, 219.68 0.9, 278.84 0.9 M0.54 0.31 C80.77 -0.17, 163.85 0.22, 278.24 0.66 M278.83 1.93 C278.6 11.28, 278.39 22.83, 276.65 48.76 M278.65 0.43 C277.97 18.39, 278.82 37.09, 278.95 49.5 M278.97 51.1 C206.59 49.62, 136.81 51.25, 0.5 48.66 M278.54 50.06 C190.69 50.98, 103.62 50.52, -0.26 50.75 M0.16 48.7 C1.17 31.09, 2.26 14.11, -1.87 -1.45 M-0.92 50.71 C-0.76 33.43, -0.45 16.92, 0.04 0.63" stroke="#000000" stroke-width="1" fill="none"></path></g><g transform="translate(99.03249340073347 166.6201170543677) rotate(0 111.76491546630857 11.821021606277128)"><text x="0" y="0" font-family="Virgil, Segoe UI Emoji" font-size="18.913634570043406px" fill="#000000" text-anchor="start" style="white-space: pre;" direction="ltr" dominant-baseline="text-before-edge">Kernel RO-Data Section</text></g><g stroke-linecap="round" transform="translate(61.20522426064673 224.3067024930001) rotate(0 139.015214089819 25.060565805307505)"><path d="M0 0 C0 0, 0 0, 0 0 M0 0 C0 0, 0 0, 0 0 M-0.05 6.89 C0.26 4.81, 2 3.7, 4.48 -0.1 M-0.5 6.55 C1.68 4.67, 3.55 2.1, 4.74 0.67 M0.04 11.73 C4.33 6.17, 9.09 2.86, 10.11 -0.06 M0.58 12.12 C2.38 8.46, 5.25 6.92, 10.03 -0.33 M-0.41 20.29 C5.92 15, 9.59 8.68, 16.17 0.77 M0.34 17.7 C5.21 11.41, 11.21 6.33, 16.12 1.29 M0.99 23.73 C6.86 19.25, 8.97 12.19, 20.48 -1.9 M0.17 24.03 C5.98 16.42, 13.16 9.59, 21.56 -1.05 M-1.58 30.48 C8.67 20.92, 17.49 9.06, 25.86 -0.91 M-0.64 29.68 C8.61 22.5, 15.04 13.66, 26.97 -0.43 M0.89 37.09 C9.26 25.37, 19.5 17, 33.31 0.63 M-0.79 36.92 C8.2 28.38, 13.89 20.19, 32.14 0.4 M-1.64 43.34 C8.84 32.19, 18.82 23.81, 38.72 2.26 M0.66 42.06 C12.04 30.4, 21.04 17.71, 37.07 0.02 M1.82 49.42 C13.77 33.66, 30.47 15.5, 42.13 1.12 M0.81 48.76 C10.9 34.97, 22.19 22.27, 42.77 0.33 M1.9 53.35 C17.59 37.44, 29.47 18.55, 48.6 0.92 M2.93 52.44 C14.54 37.28, 26.19 23.28, 48.36 -0.36 M7.73 50.21 C16.81 41.12, 29.32 26.84, 53.48 -1.19 M7.7 51.7 C26.4 32.03, 45.18 10.86, 53.91 0.61 M13.02 51.31 C23.75 39.94, 36.64 24.27, 59.24 -1.64 M12.74 52.55 C30.02 32.02, 46.29 12.86, 57.56 -0.61 M19.98 51.88 C35.22 35.46, 50.93 13.71, 64.8 0.48 M18.9 52.16 C32.83 33.79, 49.32 15.92, 64.32 -0.46 M23.5 52.97 C40.52 31.76, 58.56 13.4, 70.3 0.41 M23.88 51.93 C35.06 39.32, 46.41 24.52, 69.21 -0.84 M30.48 50.43 C42.04 33.9, 58.13 17.76, 74.45 -1.44 M29.91 52.5 C46.41 31.28, 64.35 10.95, 74.05 -1.14 M34.59 53.84 C49 36.2, 62.26 17.17, 79.32 1.54 M33.98 51.79 C45.95 36.43, 60.5 21.7, 78.63 0.82 M39.66 51.44 C52.12 36.83, 61.75 26.24, 83.69 1.03 M39.59 52.02 C55.34 33.73, 68.93 16.22, 85.45 -1.21 M46.42 53.06 C58.08 38.3, 71.32 20.56, 91.79 -1.22 M44.94 51.77 C59.3 34.35, 74.75 18.76, 90.94 -0.83 M51.21 51.82 C66.02 32.62, 82.8 17.62, 94.69 1.48 M49.99 51.72 C66.22 33.15, 84.78 13.46, 96.17 -1 M56.03 51.33 C65.95 39.22, 75.6 29.16, 99.07 1.77 M55.97 52.97 C68.1 37.05, 82.28 20.21, 100.06 0.99 M60.68 50.84 C75.31 36.61, 86.38 23.58, 104.53 1.1 M59.89 52.29 C79.01 32.33, 94.95 11.32, 106.14 -0.41 M67.37 52.96 C83.45 34.49, 97.3 13.33, 112.44 -1.26 M66.58 52.94 C78.82 37.19, 90.79 23.12, 111.72 -0.02 M69.58 52.6 C87.51 29.91, 105.6 9.14, 114.54 -0.59 M71.92 51.65 C82.71 40.38, 92.29 28, 115.96 0.89 M77.31 51.86 C90.83 37.46, 102.97 22.6, 121.08 -1.49 M77.56 52.69 C95.48 31.31, 112.03 11.64, 122.42 -0.18 M81.95 53.04 C95.76 35.43, 112.09 16.75, 126.9 1.28 M82.15 52.89 C97.07 36.85, 109.86 19.29, 126.48 -0.59 M85.59 53.51 C97.93 37.74, 114.47 20.32, 134.08 0.5 M88.03 51.67 C99.25 37.7, 110.87 24.8, 132.47 -0.87 M93.78 50.71 C101.93 40.25, 112.11 28.27, 138.76 -0.57 M92.46 52.09 C110.38 32.18, 127.6 11.67, 137.86 -0.61 M96.89 53.02 C110.09 39.45, 121.16 27.29, 142.44 0.73 M98.37 52.81 C109.04 40.38, 119.61 27.29, 142.98 0.49 M102.92 52.75 C113.92 39.45, 123.04 27.57, 146.82 1.41 M103.52 53.24 C117.59 35.89, 133.18 16.98, 147.24 0.75 M106.79 53.06 C120.12 39.29, 131.54 23.27, 153.06 1.79 M109.28 51.47 C123.15 33.96, 138.89 17.13, 152.86 -0.57 M115.16 52.89 C123.8 38.25, 136.64 28.96, 160.68 0.39 M113.79 51.33 C122.17 42.05, 132.17 30.91, 159.06 0.86 M119.76 53.91 C135.48 35.47, 149.75 18.04, 162.76 -1.11 M118.75 52.46 C132.12 36.52, 144.09 21.8, 163.8 -0.58 M122.18 53.45 C132.42 41.18, 142.36 32.3, 168.85 1.09 M124.54 53.28 C140.15 34.38, 156.51 14.98, 170.02 -0.42 M131.2 51.44 C138.88 41.78, 148.78 28.2, 176.24 -2.19 M129.06 51.05 C143.08 36.15, 156.3 21.87, 175.31 -1.09 M135.57 51.34 C150.96 34.76, 165.32 16.48, 180.76 1.87 M134.83 52.94 C148.62 35.44, 163.32 18.88, 180.16 0.18 M141.39 51.11 C153.85 38.09, 167.64 19.26, 184.13 0.95 M139.8 51.98 C152.64 38.58, 164.58 23.54, 185.68 0.29 M144.83 52.09 C154.27 40.29, 163.02 31.08, 188.73 0.65 M144.51 52.16 C161.5 32.77, 178.5 12.63, 189.79 0.4 M149.53 49.98 C162.24 37.77, 174.1 24.74, 196.96 1.29 M150.85 52.41 C161.66 40.2, 171.29 27.6, 196.99 -1.11 M155.36 51.79 C171.56 35.39, 184.9 17.38, 201.99 0.96 M155.24 51.7 C170.94 33.74, 186.37 16.61, 200.53 -0.57 M159.08 51.47 C174.09 36.8, 189.53 19.34, 207.15 0.39 M160.73 51.75 C172.22 39.7, 184.77 26.07, 206.14 0.01 M166.47 51.14 C175.71 41.3, 186.64 29.01, 212.68 1.93 M167.47 52.32 C182.56 32.46, 200.6 14.11, 212.29 0.93 M170.36 52.3 C183.09 39, 193.71 26.48, 219.06 -1.57 M172.23 51.55 C188.11 33.41, 206.61 13.47, 217.82 -0.1 M177.37 53.44 C185.94 39.3, 194.79 29.42, 221.84 0.26 M177.45 51.67 C194.45 32.6, 212.53 12.09, 222.27 0 M182.63 53.07 C195.45 39.54, 209.03 22.8, 226.92 0.17 M181.46 53.11 C194.93 39.02, 206.89 25.41, 227.5 -1.24 M189.18 50.57 C204.33 32.21, 221.54 14.73, 233.42 0.27 M188.21 51.42 C198.1 42.16, 206.69 30.82, 233.99 0.18 M194.72 53.21 C205.85 39.8, 217.15 27.96, 236.24 1.71 M193.49 53.42 C207.52 35.07, 221.28 18.92, 237.82 0.5 M198.95 53.01 C211.89 35.59, 228.27 18.01, 244.27 -0.15 M198.62 52.15 C211.51 37.39, 223.58 23.32, 244.24 0.48 M202.36 53.75 C216.15 36.86, 231.78 21.8, 248.38 1.5 M202.69 52.93 C213.2 41.98, 222.47 31.44, 248.15 0.72 M209.58 51.83 C226.83 31.98, 240.49 12.79, 254.16 0.51 M208.29 52.4 C224.02 35.93, 237.59 20.19, 254.13 0.37 M216.18 51.31 C224.13 40.25, 238.46 22.92, 258.66 -1.17 M213.71 52.54 C229.57 35.57, 243.23 19.02, 259.71 0.23 M219.94 52.71 C232.21 34.47, 246.84 19.39, 263.76 1.33 M220.67 51.68 C228.45 42.32, 237.97 30.25, 266.05 0.75 M223.73 52.1 C242.43 30.88, 261.98 10.32, 268.94 0.84 M224.52 52.58 C239.54 34.62, 256.17 17.28, 269.17 1.06 M230.76 53.91 C244.24 38.43, 255 20.28, 276.64 1 M229.99 51.43 C248.15 30.57, 265.43 11.5, 276.69 -1.01 M235.46 53.94 C251.48 34.22, 265.89 16.23, 279.7 2.77 M235.37 51.88 C245.29 41.64, 255 29.39, 279.7 1.66 M242.7 52.27 C255.78 35.44, 270.26 18.69, 278.72 7.33 M240.28 52.06 C251.97 41.24, 261.46 28.31, 279.49 7.46 M246.72 52.22 C255.17 43.75, 264.16 31.48, 278.74 11.99 M245.82 52.67 C254.06 43.15, 260.63 34.96, 278.67 14.03 M250.32 53.25 C256.99 45.06, 263.37 34.67, 280.02 21.18 M252.36 51.93 C259.8 40.93, 270.14 31.83, 279.35 20.4 M255.78 53.94 C260.92 43.7, 268.81 38.04, 278.83 26.87 M255.71 51.67 C264.76 43.58, 272.05 34.61, 280.33 25.47 M264.08 52.89 C268.13 46.61, 272.7 39.19, 280.1 32.25 M262.86 52.34 C266.13 46.24, 270.41 41.82, 279.14 32.77 M265.87 51.71 C270.01 49.75, 275.52 45.37, 281.4 36.96 M268.15 53.01 C272.12 47.22, 276.23 41.36, 280.51 37.8 M272.67 51.81 C275.08 48.55, 277.77 46.58, 279.51 44.16 M273.09 52.18 C274.91 49.87, 276.56 47.97, 279.8 44.25" stroke="#12b886" stroke-width="0.5" fill="none"></path><path d="M-0.53 -0.34 C110.68 0.47, 219.68 0.9, 278.84 0.9 M0.54 0.31 C80.77 -0.17, 163.85 0.22, 278.24 0.66 M278.83 1.93 C278.6 11.28, 278.39 22.83, 276.65 48.76 M278.65 0.43 C277.97 18.39, 278.82 37.09, 278.95 49.5 M278.97 51.1 C206.59 49.62, 136.81 51.25, 0.5 48.66 M278.54 50.06 C190.69 50.98, 103.62 50.52, -0.26 50.75 M0.16 48.7 C1.17 31.09, 2.26 14.11, -1.87 -1.45 M-0.92 50.71 C-0.76 33.43, -0.45 16.92, 0.04 0.63" stroke="#000000" stroke-width="1" fill="none"></path></g><g transform="translate(99.9781751292357 238.49192842053264) rotate(0 94.60739898681638 11.821021606277128)"><text x="0" y="0" font-family="Virgil, Segoe UI Emoji" font-size="18.913634570043406px" fill="#000000" text-anchor="start" style="white-space: pre;" direction="ltr" dominant-baseline="text-before-edge">Kernel Data Section</text></g><g stroke-linecap="round" transform="translate(62.15090598914884 293.3414686736585) rotate(0 139.01521408981907 25.060565805307505)"><path d="M0 0 C0 0, 0 0, 0 0 M0 0 C0 0, 0 0, 0 0 M-0.05 6.89 C0.26 4.81, 2 3.7, 4.48 -0.1 M-0.5 6.55 C1.68 4.67, 3.55 2.1, 4.74 0.67 M0.04 11.73 C4.33 6.17, 9.09 2.86, 10.11 -0.06 M0.58 12.12 C2.38 8.46, 5.25 6.92, 10.03 -0.33 M-0.41 20.29 C5.92 15, 9.59 8.68, 16.17 0.77 M0.34 17.7 C5.21 11.41, 11.21 6.33, 16.12 1.29 M0.99 23.73 C6.86 19.25, 8.97 12.19, 20.48 -1.9 M0.17 24.03 C5.98 16.42, 13.16 9.59, 21.56 -1.05 M-1.58 30.48 C8.67 20.92, 17.49 9.06, 25.86 -0.91 M-0.64 29.68 C8.61 22.5, 15.04 13.66, 26.97 -0.43 M0.89 37.09 C9.26 25.37, 19.5 17, 33.31 0.63 M-0.79 36.92 C8.2 28.38, 13.89 20.19, 32.14 0.4 M-1.64 43.34 C8.84 32.19, 18.82 23.81, 38.72 2.26 M0.66 42.06 C12.04 30.4, 21.04 17.71, 37.07 0.02 M1.82 49.42 C13.77 33.66, 30.47 15.5, 42.13 1.12 M0.81 48.76 C10.9 34.97, 22.19 22.27, 42.77 0.33 M1.9 53.35 C17.59 37.44, 29.47 18.55, 48.6 0.92 M2.93 52.44 C14.54 37.28, 26.19 23.28, 48.36 -0.36 M7.73 50.21 C16.81 41.12, 29.32 26.84, 53.48 -1.19 M7.7 51.7 C26.4 32.03, 45.18 10.86, 53.91 0.61 M13.02 51.31 C23.75 39.94, 36.64 24.27, 59.24 -1.64 M12.74 52.55 C30.02 32.02, 46.29 12.86, 57.56 -0.61 M19.98 51.88 C35.22 35.46, 50.93 13.71, 64.8 0.48 M18.9 52.16 C32.83 33.79, 49.32 15.92, 64.32 -0.46 M23.5 52.97 C40.52 31.76, 58.56 13.4, 70.3 0.41 M23.88 51.93 C35.06 39.32, 46.41 24.52, 69.21 -0.84 M30.48 50.43 C42.04 33.9, 58.13 17.76, 74.45 -1.44 M29.91 52.5 C46.41 31.28, 64.35 10.95, 74.05 -1.14 M34.59 53.84 C49 36.2, 62.26 17.17, 79.32 1.54 M33.98 51.79 C45.95 36.43, 60.5 21.7, 78.63 0.82 M39.66 51.44 C52.12 36.83, 61.75 26.24, 83.69 1.03 M39.59 52.02 C55.34 33.73, 68.93 16.22, 85.45 -1.21 M46.42 53.06 C58.08 38.3, 71.32 20.56, 91.79 -1.22 M44.94 51.77 C59.3 34.35, 74.75 18.76, 90.94 -0.83 M51.21 51.82 C66.02 32.62, 82.8 17.62, 94.69 1.48 M49.99 51.72 C66.22 33.15, 84.78 13.46, 96.17 -1 M56.03 51.33 C65.95 39.22, 75.6 29.16, 99.07 1.77 M55.97 52.97 C68.1 37.05, 82.28 20.21, 100.06 0.99 M60.68 50.84 C75.31 36.61, 86.38 23.58, 104.53 1.1 M59.89 52.29 C79.01 32.33, 94.95 11.32, 106.14 -0.41 M67.37 52.96 C83.45 34.49, 97.3 13.33, 112.44 -1.26 M66.58 52.94 C78.82 37.19, 90.79 23.12, 111.72 -0.02 M69.58 52.6 C87.51 29.91, 105.6 9.14, 114.54 -0.59 M71.92 51.65 C82.71 40.38, 92.29 28, 115.96 0.89 M77.31 51.86 C90.83 37.46, 102.97 22.6, 121.08 -1.49 M77.56 52.69 C95.48 31.31, 112.03 11.64, 122.42 -0.18 M81.95 53.04 C95.76 35.43, 112.09 16.75, 126.9 1.28 M82.15 52.89 C97.07 36.85, 109.86 19.29, 126.48 -0.59 M85.59 53.51 C97.93 37.74, 114.47 20.32, 134.08 0.5 M88.03 51.67 C99.25 37.7, 110.87 24.8, 132.47 -0.87 M93.78 50.71 C101.93 40.25, 112.11 28.27, 138.76 -0.57 M92.46 52.09 C110.38 32.18, 127.6 11.67, 137.86 -0.61 M96.89 53.02 C110.09 39.45, 121.16 27.29, 142.44 0.73 M98.37 52.81 C109.04 40.38, 119.61 27.29, 142.98 0.49 M102.92 52.75 C113.92 39.45, 123.04 27.57, 146.82 1.41 M103.52 53.24 C117.59 35.89, 133.18 16.98, 147.24 0.75 M106.79 53.06 C120.12 39.29, 131.54 23.27, 153.06 1.79 M109.28 51.47 C123.15 33.96, 138.89 17.13, 152.86 -0.57 M115.16 52.89 C123.8 38.25, 136.64 28.96, 160.68 0.39 M113.79 51.33 C122.17 42.05, 132.17 30.91, 159.06 0.86 M119.76 53.91 C135.48 35.47, 149.75 18.04, 162.76 -1.11 M118.75 52.46 C132.12 36.52, 144.09 21.8, 163.8 -0.58 M122.18 53.45 C132.42 41.18, 142.36 32.3, 168.85 1.09 M124.54 53.28 C140.15 34.38, 156.51 14.98, 170.02 -0.42 M131.2 51.44 C138.88 41.78, 148.78 28.2, 176.24 -2.19 M129.06 51.05 C143.08 36.15, 156.3 21.87, 175.31 -1.09 M135.57 51.34 C150.96 34.76, 165.32 16.48, 180.76 1.87 M134.83 52.94 C148.62 35.44, 163.32 18.88, 180.16 0.18 M141.39 51.11 C153.85 38.09, 167.64 19.26, 184.13 0.95 M139.8 51.98 C152.64 38.58, 164.58 23.54, 185.68 0.29 M144.83 52.09 C154.27 40.29, 163.02 31.08, 188.73 0.65 M144.51 52.16 C161.5 32.77, 178.5 12.63, 189.79 0.4 M149.53 49.98 C162.24 37.77, 174.1 24.74, 196.96 1.29 M150.85 52.41 C161.66 40.2, 171.29 27.6, 196.99 -1.11 M155.36 51.79 C171.56 35.39, 184.9 17.38, 201.99 0.96 M155.24 51.7 C170.94 33.74, 186.37 16.61, 200.53 -0.57 M159.08 51.47 C174.09 36.8, 189.53 19.34, 207.15 0.39 M160.73 51.75 C172.22 39.7, 184.77 26.07, 206.14 0.01 M166.47 51.14 C175.71 41.3, 186.64 29.01, 212.68 1.93 M167.47 52.32 C182.56 32.46, 200.6 14.11, 212.29 0.93 M170.36 52.3 C183.09 39, 193.71 26.48, 219.06 -1.57 M172.23 51.55 C188.11 33.41, 206.61 13.47, 217.82 -0.1 M177.37 53.44 C185.94 39.3, 194.79 29.42, 221.84 0.26 M177.45 51.67 C194.45 32.6, 212.53 12.09, 222.27 0 M182.63 53.07 C195.45 39.54, 209.03 22.8, 226.92 0.17 M181.46 53.11 C194.93 39.02, 206.89 25.41, 227.5 -1.24 M189.18 50.57 C204.33 32.21, 221.54 14.73, 233.42 0.27 M188.21 51.42 C198.1 42.16, 206.69 30.82, 233.99 0.18 M194.72 53.21 C205.85 39.8, 217.15 27.96, 236.24 1.71 M193.49 53.42 C207.52 35.07, 221.28 18.92, 237.82 0.5 M198.95 53.01 C211.89 35.59, 228.27 18.01, 244.27 -0.15 M198.62 52.15 C211.51 37.39, 223.58 23.32, 244.24 0.48 M202.36 53.75 C216.15 36.86, 231.78 21.8, 248.38 1.5 M202.69 52.93 C213.2 41.98, 222.47 31.44, 248.15 0.72 M209.58 51.83 C226.83 31.98, 240.49 12.79, 254.16 0.51 M208.29 52.4 C224.02 35.93, 237.59 20.19, 254.13 0.37 M216.18 51.31 C224.13 40.25, 238.46 22.92, 258.66 -1.17 M213.71 52.54 C229.57 35.57, 243.23 19.02, 259.71 0.23 M219.94 52.71 C232.21 34.47, 246.84 19.39, 263.76 1.33 M220.67 51.68 C228.45 42.32, 237.97 30.25, 266.05 0.75 M223.73 52.1 C242.43 30.88, 261.98 10.32, 268.94 0.84 M224.52 52.58 C239.54 34.62, 256.17 17.28, 269.17 1.06 M230.76 53.91 C244.24 38.43, 255 20.28, 276.64 1 M229.99 51.43 C248.15 30.57, 265.43 11.5, 276.69 -1.01 M235.46 53.94 C251.48 34.22, 265.89 16.23, 279.7 2.77 M235.37 51.88 C245.29 41.64, 255 29.39, 279.7 1.66 M242.7 52.27 C255.78 35.44, 270.26 18.69, 278.72 7.33 M240.28 52.06 C251.97 41.24, 261.46 28.31, 279.49 7.46 M246.72 52.22 C255.17 43.75, 264.16 31.48, 278.74 11.99 M245.82 52.67 C254.06 43.15, 260.63 34.96, 278.67 14.03 M250.32 53.25 C256.99 45.06, 263.37 34.67, 280.02 21.18 M252.36 51.93 C259.8 40.93, 270.14 31.83, 279.35 20.4 M255.78 53.94 C260.92 43.7, 268.81 38.04, 278.83 26.87 M255.71 51.67 C264.76 43.58, 272.05 34.61, 280.33 25.47 M264.08 52.89 C268.13 46.61, 272.7 39.19, 280.1 32.25 M262.86 52.34 C266.13 46.24, 270.41 41.82, 279.14 32.77 M265.87 51.71 C270.01 49.75, 275.52 45.37, 281.4 36.96 M268.15 53.01 C272.12 47.22, 276.23 41.36, 280.51 37.8 M272.67 51.81 C275.08 48.55, 277.77 46.58, 279.51 44.16 M273.09 52.18 C274.91 49.87, 276.56 47.97, 279.8 44.25" stroke="#12b886" stroke-width="0.5" fill="none"></path><path d="M-0.53 -0.34 C110.68 0.47, 219.68 0.9, 278.84 0.9 M0.54 0.31 C80.77 -0.17, 163.85 0.22, 278.24 0.66 M278.83 1.93 C278.6 11.28, 278.39 22.83, 276.65 48.76 M278.65 0.43 C277.97 18.39, 278.82 37.09, 278.95 49.5 M278.97 51.1 C206.59 49.62, 136.81 51.25, 0.5 48.66 M278.54 50.06 C190.69 50.98, 103.62 50.52, -0.26 50.75 M0.16 48.7 C1.17 31.09, 2.26 14.11, -1.87 -1.45 M-0.92 50.71 C-0.76 33.43, -0.45 16.92, 0.04 0.63" stroke="#000000" stroke-width="1" fill="none"></path></g><g transform="translate(100.9238568577378 307.5266946011911) rotate(0 87.6498718261719 11.821021606277128)"><text x="0" y="0" font-family="Virgil, Segoe UI Emoji" font-size="18.913634570043406px" fill="#000000" text-anchor="start" style="white-space: pre;" direction="ltr" dominant-baseline="text-before-edge">Kernel BSS Section</text></g><g stroke-linecap="round" transform="translate(62.15090598914884 361.43055312581475) rotate(0 139.01521408981907 55.322381117377006)"><path d="M0 0 C0 0, 0 0, 0 0 M0 0 C0 0, 0 0, 0 0 M-0.05 6.89 C0.26 4.81, 2 3.7, 4.48 -0.1 M-0.5 6.55 C1.68 4.67, 3.55 2.1, 4.74 0.67 M0.04 11.73 C4.33 6.17, 9.09 2.86, 10.11 -0.06 M0.58 12.12 C2.38 8.46, 5.25 6.92, 10.03 -0.33 M-0.41 20.29 C5.92 15, 9.59 8.68, 16.17 0.77 M0.34 17.7 C5.21 11.41, 11.21 6.33, 16.12 1.29 M0.99 23.73 C6.86 19.25, 8.97 12.19, 20.48 -1.9 M0.17 24.03 C5.98 16.42, 13.16 9.59, 21.56 -1.05 M-1.58 30.48 C8.67 20.92, 17.49 9.06, 25.86 -0.91 M-0.64 29.68 C8.61 22.5, 15.04 13.66, 26.97 -0.43 M0.89 37.09 C9.26 25.37, 19.5 17, 33.31 0.63 M-0.79 36.92 C8.2 28.38, 13.89 20.19, 32.14 0.4 M-1.64 43.34 C8.84 32.19, 18.82 23.81, 38.72 2.26 M0.66 42.06 C12.04 30.4, 21.04 17.71, 37.07 0.02 M1.82 49.42 C13.77 33.66, 30.47 15.5, 42.13 1.12 M0.81 48.76 C10.9 34.97, 22.19 22.27, 42.77 0.33 M-0.07 55.61 C16.26 38.98, 28.77 19.36, 48.6 0.92 M0.96 54.71 C13.11 38.9, 25.29 24.28, 48.36 -0.36 M-0.15 59.26 C10.67 48.12, 24.97 31.79, 53.48 -1.19 M-0.18 60.75 C21.73 37.54, 43.64 12.78, 53.91 0.61 M-0.11 66.41 C14.1 51.11, 30.44 31.47, 59.24 -1.64 M-0.38 67.64 C21.83 41.43, 42.93 16.7, 57.56 -0.61 M1.61 73.01 C23.16 49.14, 45.27 20.02, 64.8 0.48 M0.53 73.29 C20.5 47.78, 43.25 22.72, 64.32 -0.46 M-0.12 80.14 C25.85 49.06, 52.59 20.7, 70.3 0.41 M0.26 79.1 C17.61 59.49, 35.13 37.59, 69.21 -0.84 M1.61 83.64 C22.3 56.67, 47.38 30.19, 74.45 -1.44 M1.04 85.71 C28.95 51.29, 58.12 18.05, 74.05 -1.14 M0.48 93.09 C25.68 62.45, 49.99 30.71, 79.32 1.54 M-0.14 91.04 C21.27 64.07, 45.63 38.04, 78.63 0.82 M-0.36 97.48 C22.42 70.81, 42.19 48.56, 83.69 1.03 M-0.43 98.06 C28.31 64.08, 55.35 31.12, 85.45 -1.21 M1.81 104.38 C26.95 74.09, 53.41 41.15, 91.79 -1.22 M0.33 103.09 C28.93 68.86, 58.94 36.52, 90.94 -0.83 M1.35 109.18 C33.9 70.04, 67.87 35.27, 94.69 1.48 M0.13 109.08 C35.13 69.57, 72.17 28.61, 96.17 -1 M2.89 112.46 C25.39 86.11, 47.39 61.83, 99.07 1.77 M2.83 114.1 C30.94 79.65, 61.16 44.36, 100.06 0.99 M8.2 111.22 C37.97 79.69, 63.93 49.53, 104.53 1.1 M7.4 112.67 C46.84 69.49, 82.58 25.69, 106.14 -0.41 M14.23 114.09 C48.79 74.1, 81.69 31.03, 112.44 -1.26 M13.44 114.07 C40.54 81.53, 67.55 50.16, 111.72 -0.02 M17.09 112.97 C56.26 66.46, 95.32 21.57, 114.54 -0.59 M19.43 112.02 C42.94 86.64, 64.88 60.05, 115.96 0.89 M24.17 112.99 C52.41 80.96, 79.44 48.97, 121.08 -1.49 M24.42 113.82 C63.39 68.53, 100.4 25.34, 122.42 -0.18 M29.47 113.42 C61.24 74.57, 95.95 34.74, 126.9 1.28 M29.67 113.27 C61.37 78.12, 90.93 41.28, 126.48 -0.59 M32.45 114.65 C59.56 80.99, 91.17 46.23, 134.08 0.5 M34.89 112.81 C60.47 82.44, 86.29 53.21, 132.47 -0.87 M41.3 111.09 C61.71 87.27, 83.66 61.75, 138.76 -0.57 M39.98 112.46 C78.92 68.91, 117.12 24.26, 137.86 -0.61 M43.75 114.15 C69.77 86.44, 93.29 59.96, 142.44 0.73 M45.23 113.94 C67.91 87.09, 91 59.61, 142.98 0.49 M50.44 113.13 C73.6 84.92, 95.27 58.59, 146.82 1.41 M51.04 113.62 C82.64 76.03, 116.19 36.46, 147.24 0.75 M53.65 114.19 C81.28 83.25, 107.41 50.29, 153.06 1.79 M56.14 112.6 C87.86 74.12, 121.69 36.48, 152.86 -0.57 M62.68 113.27 C84.54 84.15, 110.11 60.22, 160.68 0.39 M61.31 111.71 C80.06 89.51, 100.91 65.89, 159.06 0.86 M66.62 115.04 C100.81 76.45, 132.96 38.44, 162.76 -1.11 M65.6 113.59 C94.14 80.29, 120.85 48.6, 163.8 -0.58 M69.7 113.83 C90.85 88.98, 111.87 67.35, 168.85 1.09 M72.06 113.65 C106.48 73.1, 141.22 32.55, 170.02 -0.42 M78.06 112.57 C97.84 90.13, 119.3 63.25, 176.24 -2.19 M75.92 112.18 C105.03 79.63, 133.57 47.73, 175.31 -1.09 M83.09 111.72 C116.97 74.3, 149.81 34.77, 180.76 1.87 M82.35 113.32 C112.93 76.13, 144.61 40.03, 180.16 0.18 M88.25 112.24 C116.56 80.99, 146.51 43.57, 184.13 0.95 M86.66 113.11 C113.85 83.4, 139.57 52.51, 185.68 0.29 M92.35 112.47 C112.57 88.24, 131.91 66.86, 188.73 0.65 M92.03 112.53 C128.34 70.73, 164.96 28.02, 189.79 0.4 M96.39 111.11 C122.46 82.57, 148.12 53.66, 196.96 1.29 M97.71 113.55 C119.92 87.32, 141.38 61.11, 196.99 -1.11 M102.87 112.17 C136.62 75.83, 167.09 38.13, 201.99 0.96 M102.76 112.08 C136.69 73.54, 170.1 35.74, 200.53 -0.57 M106.6 111.84 C138.66 77.06, 171.34 39.76, 207.15 0.39 M108.24 112.12 C133.52 84.98, 159.44 55.97, 206.14 0.01 M113.98 111.52 C134.74 88.34, 157.3 62.67, 212.68 1.93 M114.98 112.69 C149.51 70.96, 186.83 30.43, 212.29 0.93 M117.88 112.67 C143.04 84.91, 165.91 58.3, 219.06 -1.57 M119.74 111.92 C154.95 71.25, 193.33 28.44, 217.82 -0.1 M124.23 114.57 C144.04 87.13, 164.22 64.22, 221.84 0.26 M124.31 112.81 C161.27 69.93, 199.6 26.13, 222.27 0 M130.15 113.44 C157.34 83.18, 185.48 49.68, 226.92 0.17 M128.97 113.49 C156.12 84.08, 181.85 54.63, 227.5 -1.24 M136.04 111.7 C169.86 71.82, 206.03 32.53, 233.42 0.27 M135.07 112.55 C156.56 90.76, 176.38 66.51, 233.99 0.18 M142.24 113.58 C166.44 85.37, 190.49 58.86, 236.24 1.71 M141.01 113.8 C172.04 76.31, 202.51 40.93, 237.82 0.5 M145.8 114.14 C176.15 76.63, 210.41 38.48, 244.27 -0.15 M145.47 113.28 C173.6 80.97, 200.62 49.7, 244.24 0.48 M149.87 114.12 C179.31 79.74, 210.28 47.02, 248.38 1.5 M150.2 113.31 C171.31 90.37, 191.37 67.41, 248.15 0.72 M156.44 112.97 C193.02 71.03, 226.22 29.37, 254.16 0.51 M155.15 113.53 C187.18 78.2, 217.22 43.5, 254.13 0.37 M163.69 111.68 C185.28 84.55, 213.66 51.05, 258.66 -1.17 M161.23 112.91 C194.48 76.45, 225.34 40.12, 259.71 0.23 M166.8 113.85 C194.27 77.19, 224.53 44.13, 263.76 1.33 M167.53 112.81 C186.39 91.08, 207.13 66.11, 266.05 0.75 M171.24 112.48 C210.3 67.45, 250.36 23.31, 268.94 0.84 M172.04 112.96 C204.89 74.39, 239.03 36.92, 269.17 1.06 M177.62 115.04 C205.94 81.7, 232.12 45.81, 276.64 1 M176.85 112.56 C215.78 67.21, 253.98 24.07, 276.69 -1.01 M182.97 114.31 C218.44 72.42, 251.87 32.56, 279.7 2.77 M182.89 112.25 C204.64 88.46, 225.77 63.09, 279.7 1.66 M189.56 113.4 C221.38 74.1, 254.96 35.38, 278.72 7.33 M187.14 113.19 C212.42 86.68, 235.86 57.72, 279.49 7.46 M194.23 112.6 C216.53 88.38, 239.38 60.18, 278.74 11.99 M193.34 113.05 C213.25 90.1, 231.33 68.67, 278.67 14.03 M197.18 114.38 C215.96 91.79, 234.85 67.02, 280.02 21.18 M199.22 113.06 C223.68 83.13, 250.87 54.65, 279.35 20.4 M203.29 114.32 C221.61 88.45, 242.94 67.32, 278.83 26.87 M203.23 112.05 C229.86 84.56, 254.16 56.02, 280.33 25.47 M210.94 114.02 C229.61 90.83, 249.09 66.26, 280.1 32.25 M209.72 113.47 C226.75 91.77, 244.46 71.9, 279.14 32.77 M213.31 112.07 C232.36 93.57, 252.64 72.3, 281.48 36.91 M215.71 113.43 C238.47 85.28, 261.56 57.53, 280.55 37.8 M219.21 112.96 C241.6 86.03, 265.06 61.29, 279.48 44.08 M220.06 113.7 C235.85 95.55, 251.26 77.81, 280.06 44.24 M226.37 114.03 C245.26 89.24, 262.17 67.13, 280.09 50.22 M226.22 111.79 C242.29 93.07, 259.58 75.18, 278.97 49.8 M230.28 114.42 C244.3 96.18, 257.97 82.17, 281.61 56.07 M231.45 111.96 C245.21 94.24, 261.63 76.59, 280.61 56.2 M236.8 114.73 C246.52 99, 259.45 86.96, 281.31 64.25 M234.85 113.97 C251.52 94.43, 269.6 74.55, 279.39 62.97 M242.32 114.23 C250.71 104.79, 258.93 95.55, 281.5 66.48 M241.9 112.41 C252.68 98.6, 266.84 82.67, 280.29 67.72 M247.79 114.04 C257.66 98.89, 267.14 88.32, 277.67 72.78 M245.95 112.97 C259.09 100.17, 269.69 85.19, 279.37 75.47 M253.42 114.81 C258.72 105.73, 267.63 97.1, 279.07 79.13 M251.24 112.19 C260.99 100.65, 272.05 91.18, 279.85 81.35 M257.48 111.68 C263.95 104.05, 273.3 92.41, 281.63 88.45 M257.18 113.53 C262.16 107.25, 268.13 100.55, 279.3 87.71 M263.59 111.17 C266.96 109.86, 271.05 102.17, 280.49 94.23 M262.06 112.36 C267.92 106.15, 274.65 98.54, 279.71 92.83 M267.56 114.14 C271.6 108.53, 276.76 104.4, 278.3 97.8 M267.21 114.02 C272.4 107.31, 276.08 101.84, 280 98.3 M272.86 112.84 C274.71 109, 278.23 106.5, 279.18 104.25 M272.88 112.86 C274.59 110.27, 277.18 107.95, 279.55 105.15" stroke="#12b886" stroke-width="0.5" fill="none"></path><path d="M-0.53 -0.34 C110.68 0.47, 219.68 0.9, 278.84 0.9 M0.54 0.31 C80.77 -0.17, 163.85 0.22, 278.24 0.66 M278.83 1.93 C278.31 25.16, 278.1 50.58, 276.65 109.29 M278.65 0.43 C277.75 40.74, 278.6 81.8, 278.95 110.03 M278.97 111.63 C206.59 110.14, 136.81 111.77, 0.5 109.18 M278.54 110.58 C190.69 111.51, 103.62 111.04, -0.26 111.27 M0.16 109.23 C1.65 69.41, 2.75 30.23, -1.87 -1.45 M-0.92 111.23 C-1.02 74.36, -0.71 38.26, 0.04 0.63" stroke="#000000" stroke-width="1" fill="none"></path></g><g stroke-linecap="round"><g transform="translate(62.15090598914884 388.3824823881266) rotate(0 137.10792330521045 -0.1571752660522634)"><path d="M0.64 -1.01 C106.51 0.47, 211.17 1.34, 273.76 0.1 M0.45 -0.47 C104.23 0.73, 207.44 -0.14, 272.57 -0.96" stroke="#000000" stroke-width="1" fill="none"></path></g></g><mask></mask><g stroke-linecap="round"><g transform="translate(62.246752764537575 422.60713358390285) rotate(0 137.10792330521045 -0.1571752660522634)"><path d="M0.64 -1.01 C106.51 0.47, 211.17 1.34, 273.76 0.1 M0.45 -0.47 C104.23 0.73, 207.44 -0.14, 272.57 -0.96" stroke="#000000" stroke-width="1" fill="none"></path></g></g><mask></mask><g stroke-linecap="round"><g transform="translate(60.355389307533244 448.1405402534615) rotate(0 137.10792330521045 -0.1571752660522634)"><path d="M0.64 -1.01 C106.51 0.47, 211.17 1.34, 273.76 0.1 M0.45 -0.47 C104.23 0.73, 207.44 -0.14, 272.57 -0.96" stroke="#000000" stroke-width="1" fill="none"></path></g></g><mask></mask><g transform="translate(132.13135389830956 364.7404391755723) rotate(0 58.57189178466797 11.821021606277156)"><text x="0" y="0" font-family="Virgil, Segoe UI Emoji" font-size="18.913634570043406px" fill="#000000" text-anchor="start" style="white-space: pre;" direction="ltr" dominant-baseline="text-before-edge">Kernel Stack</text></g><g stroke-linecap="round" transform="translate(60.25954253214451 489.1564599131725) rotate(0 141.37941841107445 118.68305692702234)"><path d="M0 0 C0 0, 0 0, 0 0 M0 0 C0 0, 0 0, 0 0 M0.39 6.76 C2.05 4.77, 2.43 3.02, 5.61 1.13 M-0.35 6.52 C1.38 4.59, 3.13 2.77, 5.33 0.64 M-0.47 12.28 C1.57 7.27, 7.15 6.28, 10.56 0.89 M0.59 12.41 C3.17 8.76, 6.35 4.58, 10.02 0.59 M-1.9 17.18 C2.82 13.93, 7.31 8.88, 17.16 -1.06 M-0.7 17.91 C5.37 13.1, 10.91 6.82, 15.68 1.3 M0.64 23.13 C7.42 16.68, 17.07 7.03, 19.53 -1.53 M0.63 24.88 C4.84 18.03, 11.64 10.88, 21.59 -0.24 M-0.37 29.57 C9.96 20.61, 17.51 10.48, 26.87 -1.1 M-0.07 29.99 C9.8 18, 20.98 6.4, 26.03 1.04 M-2.14 37.56 C7.38 24.37, 19.3 16.54, 31.73 0.82 M0.42 37.22 C9.22 25.49, 19.81 14.44, 31.29 -1.01 M0.34 43.09 C8.62 30.56, 18.45 24.22, 36.88 1.21 M-0.18 43.21 C12.6 29, 24.72 12.73, 37.76 0.45 M0.43 48.28 C8.26 37.57, 19.05 28.57, 42.55 -1.71 M-0.18 49.62 C15.63 31.66, 30.27 13.97, 41.61 0.23 M-1.51 54.99 C9.1 43.88, 20.96 28.53, 49.3 -1.47 M1.18 54.79 C13.43 38.37, 26.14 23.69, 47.05 1.18 M0.68 59.84 C15.1 45.33, 26.76 29.68, 53.29 1.56 M-0.09 61.9 C17.27 41.74, 34.49 23.21, 54.01 -0.8 M1.62 67.84 C14.73 50.35, 25.8 35.53, 57.13 -0.89 M0.37 66.65 C22.58 41.5, 45.76 15.01, 58.39 -0.69 M-1.51 71.6 C23.35 47.53, 42.65 22.54, 65.17 -0.06 M0.74 73.59 C16.46 55.92, 31.29 37.7, 63.74 0.6 M-0.87 80.54 C16.77 57.32, 36.21 40.44, 70.3 0.79 M-0.48 79.41 C17.12 59.68, 34.84 39.52, 69.53 0.36 M-1.34 84.53 C21.37 62.09, 41.6 40.59, 73.31 -0.7 M-0.37 85.66 C21.12 61.09, 41.79 38.15, 74.83 -0.95 M0.36 90.86 C14.53 73.33, 32.59 51.45, 77.63 0.99 M-0.42 91.89 C27.11 59.97, 53.94 29.43, 78.55 0.35 M0.24 95.94 C22.61 68.81, 45.28 44.94, 84.73 0.13 M-0.44 98.3 C19.35 75.17, 41.06 51.01, 85.14 0.16 M-0.8 102.42 C19.62 82.3, 39.38 57.82, 88.85 -1.25 M-0.06 103.13 C26.58 71.59, 53.4 41.28, 90.82 0.7 M1.13 110.47 C35.28 72.36, 69.66 31.64, 96.38 -0.49 M0.77 110.88 C23.55 80.45, 49.79 51.23, 95.3 -0.54 M-0.52 115.4 C34.63 74.59, 73.93 33.58, 100.6 0.69 M0.82 116.1 C30.44 80.18, 62.65 44.39, 99.99 -0.69 M0.19 122.62 C23.3 94.3, 48.71 64.36, 105.09 1.09 M-0.17 121.47 C41.33 75.05, 83.44 28.16, 105.74 -0.54 M0.25 129.35 C35.62 86.97, 72.14 39.7, 110.43 -0.99 M-0.45 127.51 C34.51 86.75, 72.9 42.93, 111.03 -0.46 M1.85 135.74 C41.42 81.33, 88.14 31.23, 116.95 1.9 M-0.74 134.89 C34.68 95.3, 68.58 56.68, 117.05 1.36 M0.44 142.15 C45.95 89.31, 91.33 32.5, 122.77 1.54 M0.24 139.73 C24.71 112.57, 50.71 82.4, 121.19 -0.81 M1.43 144.76 C43.92 97.06, 87.91 49.08, 127.93 -0.72 M-0.13 146.35 C29.38 112.77, 59.13 78.71, 127.56 1.06 M0.84 152.53 C48.61 98.41, 93.09 44.63, 131.15 1.48 M0.74 152.35 C52.82 91.19, 104.46 29.78, 132.97 -0.45 M-1.36 158.93 C34.22 116.28, 72.59 73.17, 137.88 1.3 M-0.8 159.26 C38.56 114.69, 75.21 70.94, 138.33 0.62 M1.02 163.26 C32.03 124.09, 66.73 84.54, 143.33 0.32 M0.62 164.21 C32.63 126.45, 67.12 87.78, 143.35 0.17 M1.28 169.2 C56.04 108.39, 111.93 46.08, 147.52 -1.33 M0.64 171.34 C38.17 126.83, 77.17 81.7, 147.43 0.46 M0.41 175.2 C39.6 131.96, 80.11 85.36, 153.15 0.23 M0.91 176.87 C39.76 129.83, 80.94 83.41, 154.3 0.37 M1.54 181.46 C40.76 137.65, 77.56 93.27, 158.76 0.72 M-0.15 182.17 C42.34 133.47, 85.09 86.04, 158.63 0.7 M-0.54 190.42 C58.67 123.84, 116.61 53.56, 164.14 -0.38 M-0.73 189.15 C52.46 129.77, 104.01 68.82, 164.51 -0.14 M-1.19 193.35 C62.21 123.75, 124.41 48.92, 170.07 1.58 M0.27 194.31 C49.89 136.73, 100 78.5, 168.7 0.69 M0.34 201.13 C56.78 136.29, 112.74 71.78, 173.83 -1.63 M0.12 201.73 C38.83 156.92, 77.68 112.46, 175.41 -0.43 M-0.53 207.18 C38.96 167.42, 74.54 126.54, 181.59 -0.33 M-0.31 206.5 C43.39 159.78, 83.36 111.99, 180.08 -0.21 M-1.47 212.23 C47.53 156.27, 95.94 103.77, 185.29 -0.88 M0.01 212.69 C57.44 150.52, 114.59 84.7, 185.45 -0.9 M-1.38 219.36 C51.23 159.44, 103.54 97.89, 190.35 1.58 M0.24 220.18 C50.32 160.22, 101.89 102.35, 190.26 -0.29 M-0.58 226.28 C59.84 156.52, 115.78 88.71, 196 -0.56 M0.78 224.81 C55.5 160.27, 111.45 96.39, 195.69 -0.8 M0.3 231.59 C61.89 158.86, 122.97 89.81, 200.98 -1.03 M-0.62 231.19 C54.69 167.99, 108.67 105.3, 201.95 0.39 M0.52 237.41 C65.37 162.84, 131.54 86.17, 205.81 -0.23 M0.34 237.63 C79.91 146.74, 158.62 55.56, 207.28 -0.6 M5.13 238.3 C63.22 169.71, 122.21 103.67, 211.82 0.41 M5.52 237.83 C54.67 180.17, 104.26 123.47, 211.8 -0.3 M10.07 238.48 C54.6 189.14, 98.65 136.87, 217.98 -1.2 M11.35 237.96 C53.32 189.53, 96.54 140.94, 217.97 0.31 M15.65 237.55 C95.63 145.62, 177.37 51.99, 222.74 0.22 M16.12 237.43 C59.71 186.74, 103.63 135.62, 222.85 -0.22 M22.33 238.22 C62.88 191.24, 103.77 143.35, 229.35 0.62 M21.71 236.78 C75.03 174.98, 127.73 112.44, 228.67 0.07 M25.48 238.85 C85.08 169.28, 143.95 101.03, 233.55 0.41 M26.51 238.01 C108.85 143.1, 190.37 49.36, 233.66 0.58 M33.47 237.99 C104.49 152.76, 178.79 69.75, 239.55 -0.16 M32.51 237.91 C83.98 179.24, 133.72 121.51, 237.67 -0.02 M36.93 238.26 C117.25 143.88, 198.88 51.94, 242.55 0.54 M36.75 238.32 C80.22 189.19, 123.03 140.39, 243.38 0.61 M43.83 236.73 C92.63 178.49, 146.06 118.62, 249.42 -0.12 M42.61 236.61 C116.95 151.78, 189.96 67.23, 248.28 0.84 M48.74 237.26 C94.73 181.05, 142.21 128.13, 253.66 -0.82 M47.1 237.4 C98.81 179.51, 149.72 122.11, 253.84 0.46 M53.72 238.06 C115.71 166.97, 178.59 96.53, 258.46 -0.98 M53.52 237.33 C135.49 144.29, 215.91 51.37, 259.92 -0.36 M57.44 238.42 C119.15 169.9, 180.48 101.12, 266.48 0.98 M58.75 238.19 C126.25 159.03, 193.95 81.66, 264.62 -0.72 M64.75 237.52 C119.53 176.72, 170.97 115.2, 268.91 0.18 M64.51 237.4 C114.1 180.03, 162.73 124.09, 270.05 0.02 M70.12 238.38 C140.79 154.86, 213.63 72.53, 274.89 1.12 M68.86 238.28 C115.79 185.71, 161.26 131.84, 275.13 -0.27 M75.68 238.15 C137.41 166.06, 198.8 93.6, 280.78 -1.09 M74.67 237.67 C150.43 149.78, 226.3 61.65, 281.3 -0.42 M80.35 237.73 C151.66 153.89, 225.01 70.39, 284.1 2.34 M79.73 237.68 C152.57 152.34, 226.63 67.06, 285.46 1.68 M85.94 238.51 C151.08 161.66, 216.37 83.12, 283.93 6.5 M84.46 238.28 C158.1 152.13, 233.09 66.15, 284.26 8.03 M89.38 236.75 C155.97 161.67, 220.59 86.78, 283.55 14.73 M89.61 238.19 C150.39 170.08, 207.02 103.6, 284.09 13.98 M93.89 236.61 C146.81 175.88, 199.69 113.88, 283.69 19.18 M94.69 237.77 C137.32 190.67, 180.39 141.72, 285.39 19.86 M102.19 236.92 C159.45 171.36, 218.53 104.27, 286.13 26.87 M100.61 236.8 C145.1 187.07, 190.32 134.93, 284.81 26.46 M106.25 239.31 C146.65 193.27, 184.29 148.65, 285.56 32.11 M106.34 238.42 C171.69 160.54, 238.99 82.72, 284.75 31.93 M110.97 236.5 C178.65 160.85, 244.6 82.81, 284.26 39.21 M112.17 236.79 C171.96 168.66, 232.75 98.64, 284.25 38.03 M115.33 236.37 C157.6 194.17, 194.15 147.86, 284.43 43.78 M116.31 237.95 C169.93 178.34, 221.19 118.79, 284.27 44.63 M120.68 238.05 C156.15 198.11, 193.25 159.46, 284.76 51.88 M121.45 238.2 C158.52 196.32, 194.21 154.47, 284.88 49.84 M127.22 236.57 C181.99 173.51, 238.9 108.5, 284.74 57.96 M126.68 237.04 C186.67 168.54, 245.87 100.76, 284.22 56.22 M132.63 237.37 C184.22 180.17, 235.98 118.59, 284.49 64.59 M132.23 238.02 C194.06 169.17, 252.49 101.18, 283.58 63.07 M138.49 238.41 C171.81 198.96, 205.34 158.27, 286.18 69.13 M137.95 237.27 C185.7 182.2, 234.38 126.68, 285.08 68.61 M142.12 238.09 C188.59 186.28, 232.67 132.86, 283.58 75.17 M142.99 237.63 C180.4 196.02, 217.82 152, 284.86 74.88 M146.88 237.1 C185.22 199.31, 219.54 158.86, 283.9 81.3 M147.85 236.86 C177.98 204.66, 207.75 168.5, 284.07 80.77 M153.6 236.67 C196.6 186.21, 242.74 135.56, 283.5 85.86 M154.01 237.2 C203.61 183.69, 251.38 128.52, 284.16 87.23 M160.96 236.89 C190.87 201.85, 219.02 169.35, 283.45 93.95 M159.08 238.39 C196.94 195.2, 234.08 151.25, 284.09 93.67 M165.79 238.38 C186.8 205.96, 212.28 177.7, 285.15 99.39 M165.04 236.37 C196.61 200.47, 229.73 162.53, 285.58 99.52 M168.79 235.76 C204.37 198.96, 241.24 157.27, 284.98 107.5 M169.83 236.86 C202.59 196.52, 237.07 158.15, 285.19 106.42 M175.57 236.5 C219.05 188.91, 258.7 139.98, 284.81 112.89 M175.96 237.3 C210 195.96, 245.19 155.62, 285.29 112.01 M181.47 237.86 C208.5 205.63, 232.55 177.78, 282.81 118.42 M179.74 237.88 C217.65 194.71, 255.09 151.02, 284.28 117.94 M184.91 237.81 C215.45 200.58, 247.66 165.81, 284.12 124.82 M186 237.56 C211.46 205.91, 238.87 176.31, 283.61 123.68 M192.17 236.01 C224.56 197.56, 260.3 159.39, 282.94 129.95 M191.31 237.13 C220.56 203.78, 248.7 170.57, 285.34 128.8 M194.7 236.69 C226.43 199.65, 257.83 167.81, 282.62 137.96 M196.7 237.18 C217.5 211.87, 239.93 187.61, 284.59 136.22 M201.98 237.63 C233.88 200.14, 266.64 162.57, 284.31 142.94 M200.87 237.22 C232.96 201.08, 262.14 164.31, 285.64 141.03 M206.09 237.85 C236.04 203.72, 265.47 168.59, 283.77 149.94 M206.24 238.38 C223.46 219.35, 241.52 199.9, 285.13 147.51 M213.9 238.74 C239.55 205.84, 265.56 175.59, 284.06 154.57 M211.51 236.73 C231.16 215.66, 252.43 192.35, 284.1 153.89 M217.08 239.33 C243.52 208.85, 269.71 176.27, 283.6 160.25 M217.07 237.58 C235.09 217.77, 252.82 196.17, 284.55 159.65 M222.83 237.93 C234.83 221.6, 247.81 208.38, 286.26 165.36 M222.14 237.19 C243.61 212.77, 264.49 187.81, 284.88 165.81 M228.63 239.06 C249.15 215.51, 269.74 188.33, 284.04 172.95 M226.94 236.91 C248.44 214.75, 269.02 189.85, 285 172.68 M233.58 238.4 C251.26 218.36, 268.35 196.34, 283.87 177.69 M234.46 238.09 C253.72 216.12, 272.78 193.67, 284.5 177.94 M237.24 237.77 C253.1 220.55, 272.2 202.4, 286.27 183.49 M238.6 238.22 C255.85 217.75, 275.1 196.87, 283.76 184.36 M242.87 237.96 C259.29 219.12, 275.29 200.04, 283.45 190.76 M243.97 237.86 C259.39 219.34, 274.85 201.86, 285.41 190.13 M248.33 237.8 C261.11 221, 274.25 207.65, 283.37 197.59 M250.05 236.78 C260.33 223.42, 272 211.99, 284.87 196.12 M253.32 238.98 C264.34 224.58, 275.32 214.36, 286.44 203.4 M254.96 236.89 C261.61 228.49, 270.35 218.23, 284.38 202.68 M258.24 237.08 C267.76 227.36, 275.95 221.37, 286.31 209.89 M259.62 238.34 C266.24 231.29, 271.78 224.35, 284.21 208.63 M263.46 238.44 C267.63 233.64, 275.22 227.97, 282.54 216.75 M265.53 236.52 C271.13 230.19, 276.81 223.32, 284.78 216.1 M272.18 239.15 C272.8 231.5, 280.33 227.47, 284.67 222.81 M270.92 238.1 C273.65 233.16, 275.85 230.11, 285.1 221.75 M277.12 237.7 C279.6 232.83, 281.47 230.33, 285.71 228.66 M276.37 237.78 C279.36 234.01, 282.39 230.91, 284.39 227.23 M281.4 238.09 C282.18 236.94, 283.3 235.58, 284.63 233.21 M281.27 237.67 C281.87 236.67, 282.7 235.92, 284.87 232.87" stroke="#12b886" stroke-width="0.5" fill="none"></path><path d="M-1.18 1.03 C91.23 -1.99, 180.96 -0.33, 283.26 0.68 M0.2 -0.54 C65.67 1.58, 130.52 1.98, 282.91 -0.4 M283.47 -0.71 C283.09 62.54, 282.65 126.39, 281.6 235.85 M283 0.27 C281.63 70.83, 280.75 142.52, 283.54 236.73 M282.07 236.33 C172.19 237.64, 62.09 236.78, 0.56 237.33 M282.16 237.51 C192.19 237.93, 101.36 237.67, 0.25 237.37 M1.13 236.96 C-1.71 168.51, -0.44 95.54, -1.36 0.9 M-0.56 237.12 C-0.09 166.41, -0.76 96.78, -0.35 0.19" stroke="#000000" stroke-width="1" fill="none"></path></g><g transform="translate(140.6424894548291 589.3128125756127) rotate(0 53.17412567138672 11.8210216062771)"><text x="0" y="0" font-family="Virgil, Segoe UI Emoji" font-size="18.913634570043406px" fill="#000000" text-anchor="start" style="white-space: pre;" direction="ltr" dominant-baseline="text-before-edge">Kernel Heap</text></g><g stroke-linecap="round" transform="translate(10 10) rotate(0 182.87920580359634 384.36874375668805)"><path d="M0 0 C0 0, 0 0, 0 0 M0 0 C0 0, 0 0, 0 0 M-0.32 5.71 C0.59 4.31, 2.36 3.06, 5.28 1 M-0.56 6.53 C0.75 5.24, 2 3.84, 4.91 0.18 M0.09 12.54 C2.87 9.02, 8.48 4, 10.51 -0.81 M-0.23 11.86 C3.64 8.6, 5.7 5.91, 9.88 0.24 M0.89 18.28 C4.38 14.6, 5.53 11.26, 16.97 1.01 M0.46 17.84 C2.51 13.71, 6.83 10.52, 15.72 0.61 M2.14 24.09 C7.41 17.92, 11.76 11.14, 20.62 1.32 M-0.64 24.96 C6.17 16.53, 11.53 9.78, 21.54 -0.39 M0.77 30.51 C4.98 24.14, 13.46 15.59, 26.13 1.69 M-0.28 29.57 C10.34 18.11, 19.28 8.13, 25.36 0.51 M-1.9 38.67 C4.19 29.16, 14.23 23.84, 33.7 0.36 M-0.23 36.42 C11.92 23.68, 21.4 11.87, 32.23 -0.66 M-1.2 42.66 C16.31 26.16, 27.07 11.1, 36.68 2.14 M0.7 43.38 C11.36 27.8, 24.35 15.32, 37.81 0.5 M-0.14 47.91 C15.25 32.32, 34.48 10.08, 43.77 -1.55 M-0.25 49.17 C14.19 31.5, 30.42 14.12, 41.7 -0.84 M0.13 55.95 C18.38 33.04, 36.74 13.4, 48.7 1.4 M0.79 54.52 C19.26 32.64, 36.53 11.62, 47.13 0.79 M1.97 62.49 C13.55 45.63, 24.72 32.48, 52.43 -0.16 M0.14 61.72 C14 44.61, 27.36 27.94, 52.34 -0.43 M0.84 66.25 C18.93 44.13, 37.12 22.85, 56.84 1.43 M-0.83 67.78 C17.36 45.47, 35.96 26.77, 58.31 -0.1 M-1.78 71.23 C14.27 57.79, 25.97 43.35, 62.9 0.69 M-0.63 72.16 C21.7 48.02, 42.04 24.7, 64.02 -1.16 M0.6 79.09 C19.48 57.46, 38.81 36.75, 68.38 1.08 M0.42 79.5 C17.12 58.06, 34.52 38.82, 68.3 -0.38 M-1 83.87 C22.77 56.67, 47.84 29.97, 74 -0.95 M-0.18 85.83 C20.42 64.12, 39.52 41.34, 75.03 0.05 M0.68 92.14 C30.12 54.3, 62.88 19.16, 81.16 2.11 M-0.35 91.07 C17.02 72.52, 34.17 52.34, 79 0.06 M0.63 97.78 C18.44 76.36, 37.11 55.14, 86.12 0.89 M0.19 97.17 C21.12 70.63, 44.47 45.51, 85.13 0.08 M0.6 102.26 C19.9 83.86, 35.62 60.06, 89.64 -0.8 M0.03 102.92 C21.54 78.46, 44.19 53.25, 90.27 0.6 M-2 109.02 C23.45 81.87, 51.98 51.59, 95.25 -1.92 M-0.92 109.62 C19.34 86.17, 41.43 62.4, 96.52 0.58 M-0.52 116.19 C25.7 87.94, 47.33 61.99, 98.86 1.9 M1.22 116.29 C37.17 73.55, 73.64 29.68, 100.93 0.95 M-1.39 122.77 C35.08 80.91, 68.97 41.84, 107 -1.61 M0.08 121.19 C29.59 85.77, 60.86 48.24, 106.87 -0.97 M1.39 129.34 C26.16 95.75, 54.15 67.31, 110.46 0.72 M-0.33 128.97 C33.32 88.71, 66.09 48.53, 111.74 0.09 M-0.77 132.4 C45.05 87.7, 85.68 38.82, 117.87 0.28 M-0.6 134.43 C36.33 91.79, 74.88 50.25, 115.64 0.45 M-0.06 140.75 C30.23 105.06, 58.22 73.08, 120.65 1.02 M0.22 141.26 C42.23 91.43, 85.27 43.28, 122.41 -0.69 M-0.78 146.18 C29.07 113.15, 57.07 81.74, 127.97 -0.2 M0.19 146.19 C30.09 111.89, 58.66 76.55, 127.71 -0.61 M0.34 151.72 C40.83 101.97, 85.16 53.06, 134.1 1 M-0.67 151.63 C37.34 109.41, 73.76 66.44, 132.61 -0.73 M-1.91 158.1 C36.1 116.85, 71.39 76.32, 138.84 1.12 M-1 159.31 C30.78 123.87, 59.16 90.73, 138.34 -0.45 M0.2 164.4 C50.8 107.01, 98.98 51.57, 142.81 -1.58 M0.2 164.27 C35.67 124.53, 69.63 83.85, 143.01 0.52 M-0.85 170.53 C42.75 120.86, 86.92 70.42, 147.13 0.01 M-0.96 170.91 C53.01 108.3, 107.68 45.74, 147.44 -0.56 M-1.21 177.16 C48.76 120.72, 95.89 66.09, 154.04 -1.39 M0.04 175.72 C41.25 129.95, 81.68 82.68, 154.04 -0.22 M0.97 181.57 C46.9 126, 95.97 71.34, 159.26 1.12 M-0.37 183.24 C35.65 141.47, 70.83 100.61, 158.35 0.35 M1.03 190.88 C62.66 113.63, 125.69 41.42, 163.16 -1.13 M-0.59 189.3 C60.29 119.09, 122.16 49.41, 163.63 -0.76 M1.67 194.49 C49.15 138.65, 97.11 81.1, 169.38 -1.19 M-0.11 194.66 C40.79 144.85, 84.16 96.15, 168.81 -0.01 M-1.44 200.96 C43.04 153.47, 83.59 105.82, 176.06 0.71 M0.25 200.86 C44.55 151.1, 88.91 101.5, 174.67 0.28 M0.03 206.61 C71.22 126.31, 143.82 44.56, 181.36 -1.07 M0.56 206.29 C63.13 135.37, 125.71 64.58, 180.27 0.06 M0.31 213 C61.16 142.37, 123.75 73.08, 184.58 -1.5 M-0.26 214.03 C69.56 135.33, 137.36 56.46, 185.82 -0.24 M-0.67 218.54 C43.27 170.87, 87.18 117.93, 190.77 0.53 M-0.66 220.09 C63.14 148.3, 126.2 75.66, 190.6 0.4 M1.05 225.27 C44.87 176.52, 87.18 128.97, 196.8 -0.19 M0.03 225.25 C54.72 161.34, 109.98 98.81, 195.88 0.3 M-1.09 232.19 C65.43 151.12, 134.05 73.6, 202.17 1.23 M0.45 232.19 C50.97 172.91, 102.07 112.85, 201.18 -0.01 M1.62 237.6 C53.87 174.5, 108.59 113.33, 207.37 -0.96 M0.44 237.71 C64.8 162.67, 130.45 87.74, 207.34 0.13 M1.03 244.94 C64.76 170.01, 128.3 97.72, 212.23 -1.09 M-0.59 244.28 C63.87 170.86, 128.42 97.03, 211.42 0.61 M0.46 250.56 C67.04 174.11, 133.26 96.22, 217.53 0.22 M-0.61 250.67 C62.77 178.3, 124.55 106.52, 218.2 -0.02 M0.5 257.16 C59.52 185.43, 118.22 117.55, 223.19 1.11 M-0.36 255.38 C66.76 181.99, 132.77 105.36, 222.46 0.3 M0.48 261.08 C49.22 207.89, 96.41 153.59, 227.43 0.78 M0.27 261.85 C88.6 160.44, 175.34 60.69, 228.69 -0.63 M-0.25 268.46 C47.11 211.9, 95.72 156.63, 232.83 -1.26 M0.78 267.42 C85.65 169.53, 170.97 71.88, 233.63 -0.19 M0.86 273.6 C70.55 193.49, 140.37 114.02, 236.94 -0.1 M0.13 273.76 C66.59 197.59, 131.33 121.73, 238.31 0.71 M0.55 279.86 C59.04 212.11, 119.79 140.68, 243.96 0.07 M-0.62 281.11 C72.64 199.43, 144.68 116.87, 243.4 0.3 M1.22 287.54 C75.79 197.86, 149.67 111.41, 249.36 1.29 M-0.33 285.95 C53.25 224.78, 106.49 163.77, 249.11 0.45 M0.67 291.78 C90.99 187.68, 182.51 83.15, 255.17 0.21 M-0.31 292.72 C96.74 181.86, 192.66 71.2, 254.9 0.25 M-0.16 297.72 C72.76 215.1, 142.38 133.93, 259.11 1.4 M0.34 297.91 C83.2 202.61, 167.46 105.11, 259.84 0.67 M-0.88 304.85 C69.25 226.62, 140.93 145.06, 265.04 0.64 M0.11 305.26 C91.46 199.63, 183.91 93.23, 265.35 -0.04 M-1.16 310.47 C61.86 242.08, 122.55 171.52, 270.13 0.44 M-0.35 311.52 C87.91 210.91, 174.87 110.87, 270.56 0.48 M-0.85 316.21 C85.19 217.88, 174.23 116.18, 275.39 0.4 M0.35 316.45 C75.03 232.41, 148.86 147.15, 275.38 -0.42 M0.56 322.55 C78.31 234.38, 155.32 145.01, 279.71 1.16 M0.21 322.93 C109.51 197.61, 219.98 71.23, 280.22 -0.22 M-0.33 328.05 C64.81 254.81, 129.69 180.59, 285.51 -0.33 M0.15 329.2 C65.54 251.77, 131.88 175.6, 286.76 -0.36 M0.97 336.22 C102.81 214.26, 206.36 94.92, 290.89 -0.7 M-0.29 335.37 C88.51 232.3, 176.34 131.44, 291.44 0.65 M0.36 342.39 C101.23 224.29, 205.23 105.41, 297.48 0.49 M0.08 341.89 C73.81 255.88, 149.72 168.54, 296.8 -0.5 M-0.02 347.01 C80.14 256.66, 160.15 163.11, 302.66 -0.63 M0.3 347 C91.57 241.46, 183.32 135.75, 301.61 -0.27 M-0.57 353.66 C113.82 223.13, 228.63 90.35, 307.32 -0.09 M-0.32 353.57 C121.76 214.91, 241.78 77, 307.19 -0.07 M0.89 359.27 C68.81 279.08, 135.32 201.89, 311.77 0.95 M0.35 359.33 C68.32 280.96, 138.12 200.97, 312.61 -0.2 M0.01 365.8 C79.38 275.09, 157.36 183.74, 317.71 -1.04 M-0.14 365.53 C70.92 286.33, 141.4 205.21, 318.19 -0.28 M-0.32 372.2 C100.81 256.15, 201.16 138.16, 322.64 0.69 M0.2 371.76 C118.17 236.98, 236.5 101.33, 323.39 0.24 M0.51 378.44 C85.42 279.74, 172.25 179.9, 328.99 -0.76 M0.24 377.93 C115.69 243.89, 230.88 111.18, 328.57 -0.14 M-0.48 383.76 C83.49 287.89, 167.7 190.52, 333.42 0.3 M-0.25 384.34 C72.59 299.61, 146.5 214.29, 333.51 -0.09 M0.67 389.37 C117.97 253.04, 236.49 117.09, 338.95 -1.11 M0.1 389.45 C109.02 263.57, 219.39 136.61, 339.41 -0.48 M0.39 395.77 C77.94 306.34, 156.21 215.09, 344.42 -0.09 M0 396.03 C122.49 253.35, 245.17 112.51, 344.87 -0.15 M-0.24 402.25 C135.18 247.66, 269.02 93.43, 349.47 0.94 M-0.35 402.51 C107.1 277.54, 215.85 153.55, 349.69 0.59 M-0.33 408.42 C82.64 315.47, 164.26 222.15, 355.37 -0.76 M0.37 408.59 C112.46 277.78, 225.42 147.69, 354.94 -0.4 M0.06 414.85 C105.17 291.91, 210.28 170.96, 360.2 -0.29 M-0.13 414.93 C75.99 330.6, 149.43 245.05, 360.15 0.19 M-0.54 421.02 C123.99 280.21, 247.46 137.91, 366.23 -0.02 M-0.62 421.22 C122.82 280.48, 243.65 141.23, 365.98 -0.01 M0.53 425.97 C129.01 281.05, 256.59 133.86, 368.28 2.79 M-0.29 426.56 C125.55 281.38, 251.26 137.04, 368.55 2.69 M0.52 433 C87.11 333.28, 174.22 233.07, 368.51 9.24 M0.11 432.79 C75.99 347.56, 151.31 260.4, 368.75 8.65 M0.2 438.01 C96.4 329.21, 191.1 220.38, 369.17 14.25 M0.01 438.97 C137.78 280.63, 275.93 122.46, 368.52 14.51 M0.63 444.38 C112.22 317.84, 221.68 191.51, 368.7 21.01 M0.26 445.17 C81.63 352.64, 162.6 258.91, 368.72 21.02 M-0.7 451.3 C106.35 330.13, 212.22 208.51, 368.44 26.39 M-0.71 451.83 C143.65 287.31, 288.21 121.23, 368.94 26.64 M-0.29 456.83 C109.03 331.91, 215.95 207.57, 368.49 33.43 M-0.04 457.37 C90.24 351.71, 181.27 246.78, 369.11 33.29 M-0.55 463.45 C126.08 319.62, 251.38 175.33, 367.93 38.82 M0.03 463.46 C76.54 373.64, 155.04 282.99, 368.49 39.74 M-0.11 468.75 C105.97 346.79, 211.84 224.22, 368.78 44.86 M-0.06 469.13 C82.86 374.23, 166.76 278.87, 368.9 45.18 M0.56 476.32 C97.66 363.97, 196.13 251.49, 368.06 51.26 M-0.45 475.77 C104.74 355.79, 210.19 235.06, 368.8 51.73 M-0.72 481.67 C125.54 335.84, 252.35 189.45, 368.31 56.39 M-0.38 482.05 C103.87 360.91, 209.65 239.49, 369.06 57.32 M-0.59 487.35 C132.46 333.77, 265.67 180.34, 369.54 64.05 M0.17 487.6 C140 323.48, 281.67 160.03, 368.53 63.52 M0.21 494.81 C78.1 402.28, 158.69 309.34, 368.61 70.26 M0.2 493.81 C83.05 396.68, 167.7 298.89, 368.27 70.04 M-0.56 499.17 C100.08 386.09, 199.76 271.94, 368.78 75.94 M0.22 499.95 C117.82 364.09, 235.5 228.65, 368.76 75.57 M-0.33 505.64 C95.74 398.69, 188.62 291.31, 369.4 81.18 M0.28 506.24 C90.08 404.34, 179.45 301.42, 368.37 82.29 M-0.34 513.11 C102.66 395.24, 204.41 279.31, 369.2 87.23 M-0.66 512.28 C82.29 416.71, 165.35 321.16, 368.75 87.48 M0.75 518.8 C114.93 386.61, 227.34 256.8, 368.68 94.5 M-0.3 517.96 C142.24 353.06, 284.19 189.92, 368.4 94.23 M-0.32 523.8 C76.89 434.59, 153.86 346.19, 368.63 99.75 M-0.09 524.69 C99.05 411.7, 198.21 297.39, 368.89 100.69 M-0.04 530.13 C82.09 436.35, 160.87 345.4, 369.35 106.37 M0.09 530.31 C114 402.76, 225.75 273.85, 369.26 106.17 M-0.21 537.3 C131.48 388.61, 259.99 240.13, 369.08 113.04 M0.35 536.49 C126.47 389.26, 254.04 243.19, 368.92 112.74 M0.22 542.57 C116.35 405.97, 234.38 270.48, 369.74 118.11 M-0.22 542.88 C118.65 405.85, 237.42 269.19, 369.41 118.15 M-0.43 548.08 C119.45 413.83, 237.32 277.21, 368.86 124.85 M-0.3 548.32 C142.14 388.22, 282.15 226.6, 369.19 124.5 M-0.17 554.35 C128.24 408.51, 257.84 260.64, 368.55 131.36 M0.08 554.93 C123.97 411.88, 249.4 266.95, 368.64 131.08 M-0.36 561.37 C143.83 396.63, 287.26 230.68, 369.13 136.93 M0.58 560.97 C85.64 463.52, 171.06 365.56, 368.9 136.85 M0.58 567.54 C123.39 426.91, 245.29 285.7, 368.31 142.65 M0.09 567.11 C127.11 421.44, 254.06 275.69, 368.71 143.31 M0.19 573.92 C135.75 416.6, 272.34 260.77, 369.34 148.61 M-0.65 573.29 C140.65 411.32, 280.84 249.68, 369.02 148.57 M-0.07 579.41 C107.17 456.35, 214.73 331.85, 368.99 155.13 M-0.24 578.81 C109.89 454.47, 218.31 329.91, 368.95 154.79 M-0.38 586.17 C114.29 453.56, 229.72 319.78, 368.88 161.53 M-0.51 585.18 C89.15 483.94, 178 381.68, 368.83 161.5 M0.8 590.4 C129.42 442.96, 257.95 295.17, 368.28 166.78 M0.42 590.97 C87.58 492.66, 172.74 394.46, 368.58 166.83 M-0.58 598 C86.02 500.54, 172.12 402.39, 368.96 172.63 M0.13 597.73 C95.49 486.85, 192.39 375.14, 369 173.16 M0.48 604.07 C79.52 512.2, 159.25 420.55, 369.7 178.33 M-0.28 603.98 C138.86 441.52, 279.22 280.04, 368.75 179.26 M-0.45 609.67 C138.95 450.93, 275.58 292.25, 369.46 185.88 M-0.18 609.79 C77.65 517.32, 157.52 426.67, 368.77 185.65 M0.46 615.26 C112.29 488.93, 222.97 360.82, 368.34 191.62 M-0.54 615.9 C89.27 514.78, 177.28 413.3, 368.38 191.57 M0.22 621.85 C121.31 481.06, 242.04 342.62, 369.16 197.25 M0.27 621.53 C112.9 494.14, 224.68 365.73, 369.04 197.4 M0.13 628.26 C79.23 540.19, 156.26 450.91, 368.7 204.2 M-0.35 628.16 C106.44 504.03, 213.51 380.86, 368.71 203.52 M0.4 633.88 C127.11 490.87, 251.35 347.93, 369.06 209.08 M-0.24 634.81 C95.72 524.72, 192.16 414.64, 368.89 209.21 M0.12 640.15 C87.4 536.88, 178.05 433.37, 368.77 216.23 M-0.04 639.75 C110.52 513.03, 219.41 387.59, 368.99 216.06 M-0.31 646.43 C143.72 482.41, 287.13 316.64, 367.77 222.01 M0.08 646.51 C92.71 540.59, 184.67 434.58, 368.52 222.11 M0.95 651.97 C109.41 528.7, 217.75 403.82, 368.21 228.31 M0.21 652.4 C145.71 483.48, 291.35 315.96, 368.74 227.87 M-0.05 658.77 C115.93 526.25, 230.33 392.57, 368.07 234.41 M-0.15 658.32 C134.74 504.56, 269.32 350.06, 368.29 234 M-0.1 665.5 C131.57 513.63, 262.23 363.45, 368.52 239.77 M-0.64 665.29 C76.27 576.59, 152.29 489.49, 369.03 239.79 M0.75 669.8 C101.59 551.25, 204.98 431.99, 369.03 246.05 M-0.06 670.89 C119.1 531.77, 239.02 393.58, 369.16 246.19 M-0.76 676.2 C75.55 588.71, 152.92 500.02, 368.38 253.47 M0.12 677.28 C121.48 536.47, 243.05 395.89, 368.27 252.71 M-0.54 682.78 C115.22 546.79, 232.17 413.44, 369.42 259.11 M-0.04 682.57 C142.47 517.42, 285.31 353.02, 369.34 258.3 M-0.06 689.75 C125.94 543.35, 250.76 399.93, 368.7 265.57 M-0.19 688.59 C91.25 584.08, 183.45 478.16, 368.41 264.97 M-0.54 695.68 C141.71 530.39, 283.59 368.03, 368.78 270.9 M-0.3 695.42 C82.61 598.1, 167.17 501.38, 368.14 271.07 M0.23 700.66 C81.5 605.25, 163.06 511.49, 369.43 277.25 M-0.21 701.42 C81.25 606.69, 162.61 513.34, 369.02 276.52 M-0.87 706.97 C110.76 580.82, 220.74 453.28, 369.25 282.82 M-0.35 707.71 C97.19 597.13, 194.7 485.04, 368.24 283.67 M0.62 713 C85.21 614.87, 170.52 516.94, 368.22 289.32 M0.4 713.07 C140.17 551.66, 281.43 390.42, 368.7 288.64 M-0.08 719.34 C80.22 629.61, 157.73 537.44, 369.25 296.1 M-0.06 719.73 C122.85 579.11, 244.93 438.61, 368.95 295.47 M-0.84 725.93 C119.85 587.82, 240.01 448.11, 367.92 301.26 M-0.09 725.93 C91.53 619.26, 184.32 512.23, 368.2 301.9 M0.17 731.1 C123.97 589.12, 246.65 448.38, 368.5 307.97 M0.15 731.12 C76.48 642.89, 152.18 555.34, 369.18 307.38 M-0.27 737.93 C140.69 577.8, 280.69 415.76, 368.75 313.91 M-0.07 737.65 C85.77 639.86, 170.78 541.96, 368.58 313.53 M0.07 744.12 C75.28 657.08, 149.99 570.18, 369.73 319.64 M0.59 743.64 C103.55 623.27, 208.92 502.37, 368.84 319.05 M-0.74 750.51 C90.54 646.88, 179.94 543.77, 368.45 325.08 M0.28 750.04 C107.8 624.45, 216.4 499.47, 368.54 325.54 M0.16 755.79 C82.13 663.57, 163.4 569.97, 367.69 331.42 M-0.24 756.71 C111.22 629.75, 221.98 502.84, 368.57 332.39 M0.81 762.78 C101.02 649.49, 200.19 534.72, 368.8 338.62 M0.44 761.68 C113.06 635.43, 223.51 508.13, 369.01 338.09 M0.03 767.97 C115.82 633.94, 233.81 497.8, 368.5 343.72 M-0.34 768.02 C77.13 679.73, 153.96 590.56, 368.75 344.19 M3.45 771.6 C79.52 683.77, 154.89 596.37, 369.45 349.94 M2.67 770.88 C108.09 651.03, 213.28 529.54, 368.91 349.88 M7.77 772.14 C109.91 653.92, 211.6 536.65, 368.97 355.99 M7.79 770.99 C118.68 645.75, 228.56 519.22, 368.38 356.58 M12.76 770.75 C122.16 647.43, 228.94 524.69, 368.02 361.96 M13.25 771.21 C145.95 618.45, 278.06 465.51, 368.06 362.46 M19.27 771.24 C104.55 673.72, 187.44 577.19, 369.6 367.67 M18.39 771.49 C124.27 649.38, 230.81 526.64, 368.89 368.09 M24.2 771.5 C158.13 616.03, 292.12 461.84, 368.35 374.9 M23.91 770.87 C109.78 671.08, 196.59 571.92, 368.66 374.47 M29.27 771.17 C153.61 629.21, 278.25 484.93, 368.33 379.77 M29.46 771.69 C116.35 671.49, 204.11 571.25, 369.09 380.36 M35.37 771.21 C105.71 691.59, 174.64 611.35, 369.33 386.8 M34.85 770.53 C134.41 656.5, 235.09 541.07, 368.51 386.49 M40.17 771.98 C165.81 627.97, 290.01 483.42, 368.66 393.23 M40.05 771.26 C119.51 680.6, 199.18 588.89, 368.13 392.89 M45.28 771.21 C138.67 664.05, 231.14 558.59, 368.34 399.34 M45.64 771.17 C133.68 667.45, 222.34 564.99, 368.84 398.49 M50.64 771.69 C128.2 681.09, 207.91 590.01, 368.75 405.06 M50.36 771.6 C134.23 671.46, 219.58 573.29, 368.49 405.25 M56.88 771.19 C130.84 682.08, 208.22 593.61, 369.49 411.33 M56.45 770.43 C124.32 694.87, 190.81 618.42, 369.3 410.98 M61.12 771.87 C146.73 670.66, 233.78 572.96, 369.41 416.9 M61.44 771.4 C177.06 640.47, 291.41 508, 368.45 417.18 M66.17 771.66 C157.57 664.58, 249.65 559.78, 369.12 423.38 M66.74 770.4 C165.54 657.74, 264.7 543.73, 368.33 423.67 M71.5 772.05 C140.64 691.34, 208.39 615.21, 369.44 429.78 M71.25 771.05 C167.77 659.87, 264.72 549.35, 368.36 429.2 M76.82 771.23 C189.38 641.42, 302.71 510.76, 368.98 436.27 M77.54 770.67 C167.97 665.89, 259.76 559.61, 369.05 435.32 M81.99 772.08 C194.55 642.45, 306.97 511.88, 369.12 441.9 M82.28 770.71 C172.98 666.06, 263.42 560.5, 368.87 441.37 M86.32 772.02 C198.05 642.96, 311.26 512.59, 368.27 446.74 M87.62 771.83 C158.1 692.13, 228.46 611.05, 368.32 447.24 M92.05 771.21 C184.2 667.83, 273.37 564.73, 369.02 453.85 M92.81 770.75 C171.84 681.45, 249.19 592.37, 368.75 454.4 M98.92 771.98 C193.02 662.91, 285.64 553.62, 369.33 459.14 M98.4 771 C176.9 680.48, 254.68 590.61, 368.58 459.67 M103.61 771.3 C184.71 675.13, 267.07 580.51, 369.47 467.28 M104.03 771.2 C204.24 655.9, 303.03 541.1, 368.87 466.05 M108.1 772.28 C169.01 703.22, 227.73 634.85, 369.61 471.24 M108.44 771.16 C203.13 664.11, 296.5 556.12, 368.72 471.95 M113.5 771.56 C187.23 686.15, 260.54 600.22, 369.55 477.26 M114.43 771.1 C185.55 688.79, 257.28 604.79, 368.9 478.43 M119.78 770.95 C205.59 672.94, 291.96 572.72, 368.09 484.03 M118.91 771.28 C187.89 690.53, 258.66 609.81, 367.93 484.8 M125.6 771.65 C209.21 674.52, 293.9 578.97, 368.7 490.48 M124.62 771.33 C201.64 678.75, 280.51 589.38, 368.28 489.96 M130.74 771.88 C220.63 663.9, 314.77 554.93, 367.35 495.61 M130.21 771.88 C189.24 703.25, 248.33 635.9, 369.19 496.85 M135.96 770.41 C228.07 662.71, 321.11 558.72, 369.87 502 M135.97 770.53 C213.09 680.56, 292.49 590.4, 368.58 502.49 M140.82 771.77 C217.58 682.26, 298.67 588.89, 368.58 509.49 M139.84 770.8 C215.54 682.96, 291.15 596.63, 368.54 508.6 M145.66 769.8 C217.42 687.85, 288.2 603.05, 367.58 516.02 M146.02 770.7 C190.27 720.32, 233.93 668.54, 368.61 515.48 M152.28 770.72 C237.81 671.52, 325.25 568.98, 367.57 519.97 M150.62 771.53 C233.39 675.65, 316.12 579.49, 368.19 521.28 M157.76 771.34 C206.35 711.78, 258.61 653.75, 369.7 526.67 M156.74 771.55 C224.48 693.55, 293.57 613.4, 368.67 527.13 M160.41 771.65 C209.01 717.77, 256.12 663.45, 368.3 532.35 M161.22 770.89 C230.9 690.33, 301.41 610.77, 369.31 533 M167.6 771.67 C211.57 721.13, 256.53 672.25, 368.49 539.65 M167.49 770.82 C236.17 691.56, 304.22 613.68, 368.7 538.46 M171.19 770.52 C230.33 704.05, 286.74 635.75, 367.81 546.9 M171.89 771.68 C233.05 701.64, 292.89 632.03, 368.86 545.49 M177.71 772.05 C246.04 692.02, 314.58 614.82, 368.93 551.67 M178.26 770.6 C218.19 725.06, 258.7 677.56, 368.97 551.11 M183.62 771.75 C255.33 688.43, 325.65 605.38, 368.28 556.1 M182.5 770.87 C234.63 711.58, 286.27 651.57, 368.42 557.84 M188.37 771.54 C246.41 704.01, 300.27 640.32, 370.23 563.46 M188.99 771.2 C250.81 702.25, 310.21 633.21, 368.61 562.94 M193.05 772.43 C237.56 720.33, 282.12 669.86, 368.9 568.76 M193.26 771.91 C235.1 723.07, 276.5 676.23, 368.39 570.12 M198.12 772.17 C262.41 696.36, 325.39 623.84, 368.87 576.6 M198.1 770.77 C239.3 726.85, 278.12 682.08, 368.73 575.29 M205.24 772.41 C263.36 704.66, 323.2 634.79, 370.02 581.75 M203.95 770.44 C239.22 730.11, 274.83 688.89, 368.31 581 M207.85 771.33 C242.63 733.33, 275.32 692.71, 369.24 588.76 M209.17 770.86 C249.9 725.08, 291.7 677.73, 368.06 588 M216.3 769.78 C267.86 709.73, 325.34 646.13, 367.44 593.96 M214.72 770.58 C256.14 725.18, 295.84 680.73, 368.48 594.26 M218.63 770.98 C263.4 722.96, 307.88 671.37, 368.65 599.66 M219.75 770.84 C263.41 719.49, 305.99 669.89, 369.38 599.72 M226.7 772.73 C253.97 736.97, 283.8 703.88, 366.74 605.67 M225.25 771.62 C263.2 726.62, 301.62 682.52, 368.52 607.38 M229.42 769.78 C264.81 732.33, 299.7 689.31, 368.02 613.38 M229.58 772.05 C266.85 730.36, 302.56 689.4, 368.18 612.33 M236.58 770.7 C265.85 734.22, 297.81 700.08, 367.83 617.44 M235.6 771.67 C281.06 718.41, 326.99 665.28, 369.11 618.99 M241.42 772.62 C289.23 712.19, 338.84 656.49, 369.88 623.43 M241.01 770.74 C290.59 713.6, 339.88 655.32, 369.82 624.12 M247.68 770.11 C281.2 728.77, 317.42 686.54, 369.04 629.43 M247.21 770.2 C277.13 735.91, 307.96 700.28, 368.87 631.26 M252.74 770.29 C285.6 729.39, 321.3 689.37, 368.22 636.57 M251.03 771.66 C293.52 722.17, 335.93 673.87, 368.59 636.53 M257.43 772.76 C280.27 743.71, 306.06 713.62, 367.73 644.16 M258.2 771.45 C295.1 726.75, 332.51 682.16, 369.76 642.02 M263.71 771.71 C292.98 734.78, 323.26 700.19, 368.14 649.9 M263.1 770.3 C303.59 725.64, 342.59 680.54, 367.72 648.69 M268.92 771.94 C300.82 731.9, 334.97 691.55, 369.78 656.66 M267.97 771.69 C292.39 742.33, 316.48 714.26, 369.97 654.46 M271.41 770.94 C305.12 734.12, 339.96 693.53, 368.47 660.56 M272.77 771.39 C298.09 744.08, 323.72 713.32, 369.01 660.78 M276.78 770.91 C314.69 733.2, 345.48 691.66, 367.05 665.77 M278.41 769.89 C310.5 733.48, 343.18 697.02, 367.9 666.79 M283.51 772.91 C311.4 735.17, 341.64 702.68, 370.31 672.83 M284.55 771.92 C315.47 732.69, 348.39 695.47, 368.37 674.03 M289.21 772.82 C320.17 736.81, 346.21 704.35, 370 680.96 M288.87 770.84 C318.91 735.88, 351.27 699.54, 367.86 680.22 M292.27 771.48 C315.51 745.09, 338.59 720.12, 370.34 684.88 M294.88 772.19 C319.4 742.63, 343.57 712.43, 368.16 684.43 M298.03 770.72 C319.1 747.46, 340.39 720.82, 369.7 692.87 M299.16 770.11 C326.2 740.82, 354.81 708.39, 369.18 690.56 M304.53 771.43 C320.95 753.82, 332.31 737.28, 370.17 699.57 M305.17 770.81 C319.8 754.07, 335.05 736.4, 367.56 698.56 M308.64 769.59 C330.18 749.91, 350.13 729.45, 370.48 704.29 M310.52 771.07 C328.97 748.84, 347.65 727.08, 369.77 704.13 M315.76 770.4 C335.77 749.41, 355.88 723.8, 369 711.38 M314.77 771.68 C328.53 757.47, 341.05 741.85, 368.15 709.51 M321.38 773.04 C335.13 751.87, 351.3 737.08, 367.26 716.93 M320.02 770.65 C333.92 753.81, 350.22 736.33, 368.51 715.58 M328 772.99 C342.88 753.27, 357.77 735.02, 369.63 720.96 M326 770.98 C334.48 761.33, 343.85 751.04, 368.98 722.44 M332.14 770.36 C341.24 758.68, 352.93 747.51, 366.88 730.14 M330.12 771.31 C343.83 756, 357.85 742.03, 367.57 727.57 M335.87 772.67 C347.33 759.12, 362.27 744, 367.12 734.13 M337.12 770.2 C346.45 761.67, 353.76 751.71, 368.25 734.56 M342.46 770.96 C348.81 763.31, 355.07 754.06, 368.77 739.92 M341.79 770.57 C348.42 763.21, 355.26 755.91, 368.03 740.83 M348.62 769.82 C352.78 764.45, 357.75 760.45, 370.12 744.61 M347.34 771.14 C352.61 763.84, 359.49 757.48, 369.58 746.85 M352.12 771.46 C357.23 767.57, 362.64 760.98, 366.97 753.46 M352.1 770.97 C356.13 767.66, 361.41 762.19, 368.98 751.63 M356.44 770 C360.06 766.43, 363.59 762.07, 369.87 760.39 M357.88 770.89 C360.02 767.82, 363.16 764.64, 368.42 759.69 M363.66 770.89 C363.98 769.22, 366.21 768.03, 369.74 764.34 M362.8 771.59 C364.48 769.93, 366.05 768, 368.99 764.21" stroke="#ced4da" stroke-width="0.5" fill="none"></path><path d="M-1.08 -1.01 C89.12 -0.44, 177.32 0.68, 364.93 -0.36 M0.17 -0.26 C135.51 -0.09, 271.19 -0.15, 366.25 0.57 M365.38 0.51 C368 182.12, 367.68 363.29, 365.06 768.87 M365.57 -0.3 C365.5 267.31, 365.7 534.76, 366.08 768.92 M365.92 769.71 C221.64 767.88, 74.73 767.72, -0.28 769.12 M365.94 769.27 C257.26 769.31, 147.48 769.59, -0.23 768.83 M0.53 768.7 C3.03 614.87, 2 459.97, 0.45 0.37 M0.1 768.43 C-1.6 578.59, -1.87 388.68, -0.36 -0.25" stroke="#000000" stroke-width="1" fill="none"></path></g><g transform="translate(33.92301650319854 27.497897400266567) rotate(0 55.01994323730469 12.5)"><text x="0" y="0" font-family="Virgil, Segoe UI Emoji" font-size="20px" fill="#000000" text-anchor="start" style="white-space: pre;" direction="ltr" dominant-baseline="text-before-edge">Entire RAM</text></g><g transform="translate(392.5165254383072 30.178544241220692) rotate(0 256.0097351074219 50.000000000000014)"><text x="0" y="0" font-family="Virgil, Segoe UI Emoji" font-size="20px" fill="#000000" text-anchor="start" style="white-space: pre;" direction="ltr" dominant-baseline="text-before-edge">The Kernel image occupies the Entire RAM.</text><text x="0" y="25" font-family="Virgil, Segoe UI Emoji" font-size="20px" fill="#000000" text-anchor="start" style="white-space: pre;" direction="ltr" dominant-baseline="text-before-edge">User Programs Use the Heap, the kernel Heap.</text><text x="0" y="50" font-family="Virgil, Segoe UI Emoji" font-size="20px" fill="#000000" text-anchor="start" style="white-space: pre;" direction="ltr" dominant-baseline="text-before-edge">However, a small part of the heap that dedicated </text><text x="0" y="75" font-family="Virgil, Segoe UI Emoji" font-size="20px" fill="#000000" text-anchor="start" style="white-space: pre;" direction="ltr" dominant-baseline="text-before-edge">to the kernel (512 Pages)</text></g><g stroke-linecap="round" transform="translate(511.1282245476124 201.20006388719554) rotate(0 47.582600224081716 18.619278348553735)"><path d="M0 0 C0 0, 0 0, 0 0 M0 0 C0 0, 0 0, 0 0 M0.28 7.16 C1.63 5.38, 3.15 3.12, 5.32 0.02 M0.1 6.68 C1.54 4.39, 3.51 2.06, 5.33 0.1 M-0.69 11.04 C2.92 10.23, 5.32 5.84, 11.13 0.52 M-0.56 11.95 C2.65 9.81, 4.28 7.86, 9.93 -0.66 M1.65 17.87 C3.36 14.74, 8.58 11.76, 15.02 -1.35 M-0.77 17.78 C5.67 11.53, 10.94 6.13, 15.56 -0.01 M1.22 24.54 C9.57 16.75, 15.91 6.56, 23.08 -0.9 M-0.65 23.14 C4.56 19.14, 11.06 12.4, 20.64 0.29 M0.26 28.53 C10.98 18.6, 19.68 7.22, 27.79 0.94 M0.15 31.27 C5.68 24.16, 12.32 16.47, 26.32 1.25 M-1.25 37.11 C8.6 24.76, 16.92 15.92, 30.1 0.46 M-0.47 36.39 C9.03 26.03, 19.37 14.5, 31.25 -0.6 M3.76 40.41 C13.74 26.08, 22.48 14.62, 37.27 1.39 M3.38 39.34 C13.52 27.8, 23.13 15.77, 37.12 0.21 M9.17 39.78 C16.01 28.51, 29.7 17.87, 41 -1.07 M7.45 39.42 C21.4 25.29, 32.74 11.13, 41.96 0.51 M13.2 40.55 C21.57 30.86, 28.77 21.57, 47.18 1.86 M13.95 39.52 C21.95 29.02, 29.8 20.39, 47.93 -0.07 M17.4 40.12 C26.64 31.41, 36.29 21.17, 54.05 0.58 M18.6 39.62 C30.18 24.71, 44.67 9.2, 52.59 -0.57 M22.13 38.97 C36.97 25.87, 47.37 13.89, 57.87 1.16 M23.26 40.23 C38.04 24.29, 50.58 7.47, 58.67 0.73 M28.29 38.8 C41.89 23.57, 55.82 9.31, 63.13 1.42 M29.73 39.9 C37.38 28.84, 46.56 19.92, 63.39 0.77 M35.52 38.53 C45.89 29.18, 54.89 16.78, 68.23 0.99 M35.01 39.65 C44.96 27.79, 53.56 16.52, 68.21 -0.77 M39.86 40.4 C49.05 28.4, 62.3 13.08, 75.69 1.35 M39.14 40.47 C50.21 26.43, 61.16 14.88, 74.11 -1.06 M43.97 38.01 C53.55 26.21, 65.13 18.28, 77.79 -0.05 M44.38 39.75 C56.45 26.32, 66.95 13.66, 79.38 -0.62 M50.77 38.41 C58.42 31.04, 68.73 18.21, 86.8 -1.81 M51.09 38.8 C58.13 29.93, 65.15 20.71, 84.91 -0.86 M57.66 38.11 C68.72 26.13, 77.42 13.23, 88.65 -0.45 M54.96 39.28 C65.41 27.59, 76.47 16.8, 89.96 -0.61 M62.23 41.21 C73.72 22.45, 87.82 9.72, 96.45 2.39 M60.81 38.69 C69.49 28.99, 79.85 18.75, 94.78 1.11 M68.38 39.4 C77.45 28.16, 84.21 19.53, 94.25 4.25 M65.84 38.81 C74.41 30.42, 81.15 21.98, 94.43 6.83 M72.07 38.09 C80.27 28.64, 89.22 20.22, 95.7 12.15 M71.46 39.22 C77.74 32.42, 85.86 23.61, 94.61 13.23 M75.49 40.39 C84.2 34.08, 89.44 27.27, 95.89 19.38 M76.53 39.7 C82.01 34.37, 87.95 28.04, 95.48 17.5 M80.72 41.25 C86.42 34.38, 91.91 30.37, 96.24 23.67 M81.17 39.77 C85.26 34.98, 90.2 30.84, 95.77 23.76 M87.88 39.36 C91.04 36.35, 93.39 34.33, 95.59 30.35 M87.92 39.15 C89.58 37.42, 91.84 35.14, 94.65 31.1 M92.87 39.63 C93.45 38.26, 94.7 37.83, 95.43 36.93 M92.63 39.47 C93.67 38.8, 94.42 38.03, 95.59 36.67" stroke="#ced4da" stroke-width="0.5" fill="none"></path><path d="M-0.16 1.01 C36.8 -0.48, 74.15 0.26, 94.42 1.5 M0.64 0.55 C31.59 1.22, 63.59 0.32, 95.03 -0.46 M94.94 -0.9 C95.74 10.1, 95.02 22.29, 94.03 38.16 M95 0.71 C94.7 8.73, 96.2 17.54, 95.61 37.37 M94.36 37.85 C62.7 37.72, 28.41 36.68, 1.04 36.51 M95.65 36.94 C69.32 36.54, 45.13 36.47, -0.4 37.06 M0.36 35.49 C0.79 29.78, -1.54 22.07, 1.31 1.08 M0.87 37.12 C0.01 27.73, 0.68 18.68, -0.28 0.55" stroke="#000000" stroke-width="1" fill="none"></path></g><g transform="translate(629.7399236569175 201.2000638871956) rotate(0 69.6408235520218 40.1712638395623)"><text x="0" y="0" font-family="Virgil, Segoe UI Emoji" font-size="32.13701107164985px" fill="#000000" text-anchor="start" style="white-space: pre;" direction="ltr" dominant-baseline="text-before-edge">== RAM </text><text x="0" y="40.171263839562315" font-family="Virgil, Segoe UI Emoji" font-size="32.13701107164985px" fill="#000000" text-anchor="start" style="white-space: pre;" direction="ltr" dominant-baseline="text-before-edge"></text></g><g stroke-linecap="round" transform="translate(515.9645143898055 264.46923531737616) rotate(0 47.582600224081716 18.619278348553735)"><path d="M0 0 C0 0, 0 0, 0 0 M0 0 C0 0, 0 0, 0 0 M0.28 7.16 C1.63 5.38, 3.15 3.12, 5.32 0.02 M0.1 6.68 C1.54 4.39, 3.51 2.06, 5.33 0.1 M-0.69 11.04 C2.92 10.23, 5.32 5.84, 11.13 0.52 M-0.56 11.95 C2.65 9.81, 4.28 7.86, 9.93 -0.66 M1.65 17.87 C3.36 14.74, 8.58 11.76, 15.02 -1.35 M-0.77 17.78 C5.67 11.53, 10.94 6.13, 15.56 -0.01 M1.22 24.54 C9.57 16.75, 15.91 6.56, 23.08 -0.9 M-0.65 23.14 C4.56 19.14, 11.06 12.4, 20.64 0.29 M0.26 28.53 C10.98 18.6, 19.68 7.22, 27.79 0.94 M0.15 31.27 C5.68 24.16, 12.32 16.47, 26.32 1.25 M-1.25 37.11 C8.6 24.76, 16.92 15.92, 30.1 0.46 M-0.47 36.39 C9.03 26.03, 19.37 14.5, 31.25 -0.6 M3.76 40.41 C13.74 26.08, 22.48 14.62, 37.27 1.39 M3.38 39.34 C13.52 27.8, 23.13 15.77, 37.12 0.21 M9.17 39.78 C16.01 28.51, 29.7 17.87, 41 -1.07 M7.45 39.42 C21.4 25.29, 32.74 11.13, 41.96 0.51 M13.2 40.55 C21.57 30.86, 28.77 21.57, 47.18 1.86 M13.95 39.52 C21.95 29.02, 29.8 20.39, 47.93 -0.07 M17.4 40.12 C26.64 31.41, 36.29 21.17, 54.05 0.58 M18.6 39.62 C30.18 24.71, 44.67 9.2, 52.59 -0.57 M22.13 38.97 C36.97 25.87, 47.37 13.89, 57.87 1.16 M23.26 40.23 C38.04 24.29, 50.58 7.47, 58.67 0.73 M28.29 38.8 C41.89 23.57, 55.82 9.31, 63.13 1.42 M29.73 39.9 C37.38 28.84, 46.56 19.92, 63.39 0.77 M35.52 38.53 C45.89 29.18, 54.89 16.78, 68.23 0.99 M35.01 39.65 C44.96 27.79, 53.56 16.52, 68.21 -0.77 M39.86 40.4 C49.05 28.4, 62.3 13.08, 75.69 1.35 M39.14 40.47 C50.21 26.43, 61.16 14.88, 74.11 -1.06 M43.97 38.01 C53.55 26.21, 65.13 18.28, 77.79 -0.05 M44.38 39.75 C56.45 26.32, 66.95 13.66, 79.38 -0.62 M50.77 38.41 C58.42 31.04, 68.73 18.21, 86.8 -1.81 M51.09 38.8 C58.13 29.93, 65.15 20.71, 84.91 -0.86 M57.66 38.11 C68.72 26.13, 77.42 13.23, 88.65 -0.45 M54.96 39.28 C65.41 27.59, 76.47 16.8, 89.96 -0.61 M62.23 41.21 C73.72 22.45, 87.82 9.72, 96.45 2.39 M60.81 38.69 C69.49 28.99, 79.85 18.75, 94.78 1.11 M68.38 39.4 C77.45 28.16, 84.21 19.53, 94.25 4.25 M65.84 38.81 C74.41 30.42, 81.15 21.98, 94.43 6.83 M72.07 38.09 C80.27 28.64, 89.22 20.22, 95.7 12.15 M71.46 39.22 C77.74 32.42, 85.86 23.61, 94.61 13.23 M75.49 40.39 C84.2 34.08, 89.44 27.27, 95.89 19.38 M76.53 39.7 C82.01 34.37, 87.95 28.04, 95.48 17.5 M80.72 41.25 C86.42 34.38, 91.91 30.37, 96.24 23.67 M81.17 39.77 C85.26 34.98, 90.2 30.84, 95.77 23.76 M87.88 39.36 C91.04 36.35, 93.39 34.33, 95.59 30.35 M87.92 39.15 C89.58 37.42, 91.84 35.14, 94.65 31.1 M92.87 39.63 C93.45 38.26, 94.7 37.83, 95.43 36.93 M92.63 39.47 C93.67 38.8, 94.42 38.03, 95.59 36.67" stroke="#fd7e14" stroke-width="0.5" fill="none"></path><path d="M-0.16 1.01 C36.8 -0.48, 74.15 0.26, 94.42 1.5 M0.64 0.55 C31.59 1.22, 63.59 0.32, 95.03 -0.46 M94.94 -0.9 C95.74 10.1, 95.02 22.29, 94.03 38.16 M95 0.71 C94.7 8.73, 96.2 17.54, 95.61 37.37 M94.36 37.85 C62.7 37.72, 28.41 36.68, 1.04 36.51 M95.65 36.94 C69.32 36.54, 45.13 36.47, -0.4 37.06 M0.36 35.49 C0.79 29.78, -1.54 22.07, 1.31 1.08 M0.87 37.12 C0.01 27.73, 0.68 18.68, -0.28 0.55" stroke="#000000" stroke-width="1" fill="none"></path></g><g transform="translate(633.1970076955139 269.9860585317624) rotate(0 163.05001831054688 31.679244056871426)"><text x="0" y="0" font-family="Virgil, Segoe UI Emoji" font-size="25.343395245497135px" fill="#000000" text-anchor="start" style="white-space: pre;" direction="ltr" dominant-baseline="text-before-edge">== Read-Execute access </text><text x="0" y="31.67924405687142" font-family="Virgil, Segoe UI Emoji" font-size="25.343395245497135px" fill="#000000" text-anchor="start" style="white-space: pre;" direction="ltr" dominant-baseline="text-before-edge"></text></g><g stroke-linecap="round" transform="translate(517.0309171776456 329.50869304752655) rotate(0 47.582600224081716 18.619278348553735)"><path d="M0 0 C0 0, 0 0, 0 0 M0 0 C0 0, 0 0, 0 0 M0.28 7.16 C1.63 5.38, 3.15 3.12, 5.32 0.02 M0.1 6.68 C1.54 4.39, 3.51 2.06, 5.33 0.1 M-0.69 11.04 C2.92 10.23, 5.32 5.84, 11.13 0.52 M-0.56 11.95 C2.65 9.81, 4.28 7.86, 9.93 -0.66 M1.65 17.87 C3.36 14.74, 8.58 11.76, 15.02 -1.35 M-0.77 17.78 C5.67 11.53, 10.94 6.13, 15.56 -0.01 M1.22 24.54 C9.57 16.75, 15.91 6.56, 23.08 -0.9 M-0.65 23.14 C4.56 19.14, 11.06 12.4, 20.64 0.29 M0.26 28.53 C10.98 18.6, 19.68 7.22, 27.79 0.94 M0.15 31.27 C5.68 24.16, 12.32 16.47, 26.32 1.25 M-1.25 37.11 C8.6 24.76, 16.92 15.92, 30.1 0.46 M-0.47 36.39 C9.03 26.03, 19.37 14.5, 31.25 -0.6 M3.76 40.41 C13.74 26.08, 22.48 14.62, 37.27 1.39 M3.38 39.34 C13.52 27.8, 23.13 15.77, 37.12 0.21 M9.17 39.78 C16.01 28.51, 29.7 17.87, 41 -1.07 M7.45 39.42 C21.4 25.29, 32.74 11.13, 41.96 0.51 M13.2 40.55 C21.57 30.86, 28.77 21.57, 47.18 1.86 M13.95 39.52 C21.95 29.02, 29.8 20.39, 47.93 -0.07 M17.4 40.12 C26.64 31.41, 36.29 21.17, 54.05 0.58 M18.6 39.62 C30.18 24.71, 44.67 9.2, 52.59 -0.57 M22.13 38.97 C36.97 25.87, 47.37 13.89, 57.87 1.16 M23.26 40.23 C38.04 24.29, 50.58 7.47, 58.67 0.73 M28.29 38.8 C41.89 23.57, 55.82 9.31, 63.13 1.42 M29.73 39.9 C37.38 28.84, 46.56 19.92, 63.39 0.77 M35.52 38.53 C45.89 29.18, 54.89 16.78, 68.23 0.99 M35.01 39.65 C44.96 27.79, 53.56 16.52, 68.21 -0.77 M39.86 40.4 C49.05 28.4, 62.3 13.08, 75.69 1.35 M39.14 40.47 C50.21 26.43, 61.16 14.88, 74.11 -1.06 M43.97 38.01 C53.55 26.21, 65.13 18.28, 77.79 -0.05 M44.38 39.75 C56.45 26.32, 66.95 13.66, 79.38 -0.62 M50.77 38.41 C58.42 31.04, 68.73 18.21, 86.8 -1.81 M51.09 38.8 C58.13 29.93, 65.15 20.71, 84.91 -0.86 M57.66 38.11 C68.72 26.13, 77.42 13.23, 88.65 -0.45 M54.96 39.28 C65.41 27.59, 76.47 16.8, 89.96 -0.61 M62.23 41.21 C73.72 22.45, 87.82 9.72, 96.45 2.39 M60.81 38.69 C69.49 28.99, 79.85 18.75, 94.78 1.11 M68.38 39.4 C77.45 28.16, 84.21 19.53, 94.25 4.25 M65.84 38.81 C74.41 30.42, 81.15 21.98, 94.43 6.83 M72.07 38.09 C80.27 28.64, 89.22 20.22, 95.7 12.15 M71.46 39.22 C77.74 32.42, 85.86 23.61, 94.61 13.23 M75.49 40.39 C84.2 34.08, 89.44 27.27, 95.89 19.38 M76.53 39.7 C82.01 34.37, 87.95 28.04, 95.48 17.5 M80.72 41.25 C86.42 34.38, 91.91 30.37, 96.24 23.67 M81.17 39.77 C85.26 34.98, 90.2 30.84, 95.77 23.76 M87.88 39.36 C91.04 36.35, 93.39 34.33, 95.59 30.35 M87.92 39.15 C89.58 37.42, 91.84 35.14, 94.65 31.1 M92.87 39.63 C93.45 38.26, 94.7 37.83, 95.43 36.93 M92.63 39.47 C93.67 38.8, 94.42 38.03, 95.59 36.67" stroke="#12b886" stroke-width="0.5" fill="none"></path><path d="M-0.16 1.01 C36.8 -0.48, 74.15 0.26, 94.42 1.5 M0.64 0.55 C31.59 1.22, 63.59 0.32, 95.03 -0.46 M94.94 -0.9 C95.74 10.1, 95.02 22.29, 94.03 38.16 M95 0.71 C94.7 8.73, 96.2 17.54, 95.61 37.37 M94.36 37.85 C62.7 37.72, 28.41 36.68, 1.04 36.51 M95.65 36.94 C69.32 36.54, 45.13 36.47, -0.4 37.06 M0.36 35.49 C0.79 29.78, -1.54 22.07, 1.31 1.08 M0.87 37.12 C0.01 27.73, 0.68 18.68, -0.28 0.55" stroke="#000000" stroke-width="1" fill="none"></path></g><g transform="translate(634.263410483354 335.02551626191286) rotate(0 144.58578491210938 31.679244056871397)"><text x="0" y="0" font-family="Virgil, Segoe UI Emoji" font-size="25.343395245497135px" fill="#000000" text-anchor="start" style="white-space: pre;" direction="ltr" dominant-baseline="text-before-edge">== Read-Write access </text><text x="0" y="31.67924405687142" font-family="Virgil, Segoe UI Emoji" font-size="25.343395245497135px" fill="#000000" text-anchor="start" style="white-space: pre;" direction="ltr" dominant-baseline="text-before-edge"></text></g></svg>